<svg xmlns="http://www.w3.org/2000/svg" xmlns:xlink="http://www.w3.org/1999/xlink" width="292.5" height="239.911" viewBox="0 0 292.5 239.911">
  <defs>
    <clipPath id="clip-path">
      <rect id="Rectángulo_456105" data-name="Rectángulo 456105" width="253.912" height="165.975" fill="none"/>
    </clipPath>
    <clipPath id="clip-path-3">
      <rect id="Rectángulo_456079" data-name="Rectángulo 456079" width="106.176" height="115.088" fill="none"/>
    </clipPath>
    <clipPath id="clip-path-4">
      <rect id="Rectángulo_456071" data-name="Rectángulo 456071" width="73.922" height="1.592" fill="none"/>
    </clipPath>
    <clipPath id="clip-path-5">
      <rect id="Rectángulo_456073" data-name="Rectángulo 456073" width="96.541" height="26.526" fill="none"/>
    </clipPath>
    <clipPath id="clip-path-6">
      <rect id="Rectángulo_456076" data-name="Rectángulo 456076" width="96.541" height="33.33" fill="none"/>
    </clipPath>
    <clipPath id="clip-path-7">
      <rect id="Rectángulo_456077" data-name="Rectángulo 456077" width="6.673" height="19.683" fill="none"/>
    </clipPath>
    <clipPath id="clip-path-8">
      <rect id="Rectángulo_456078" data-name="Rectángulo 456078" width="31.914" height="23.696" fill="none"/>
    </clipPath>
    <clipPath id="clip-path-9">
      <rect id="Rectángulo_456086" data-name="Rectángulo 456086" width="120.03" height="61.4" fill="none"/>
    </clipPath>
    <clipPath id="clip-path-10">
      <rect id="Rectángulo_456082" data-name="Rectángulo 456082" width="96.541" height="36.086" fill="none"/>
    </clipPath>
    <clipPath id="clip-path-12">
      <rect id="Rectángulo_456089" data-name="Rectángulo 456089" width="130.487" height="35.853" fill="none"/>
    </clipPath>
    <clipPath id="clip-path-13">
      <rect id="Rectángulo_456090" data-name="Rectángulo 456090" width="15.586" height="15.258" fill="none"/>
    </clipPath>
    <clipPath id="clip-path-14">
      <rect id="Rectángulo_456091" data-name="Rectángulo 456091" width="17.137" height="24.878" fill="none"/>
    </clipPath>
    <clipPath id="clip-path-15">
      <rect id="Rectángulo_456095" data-name="Rectángulo 456095" width="19.507" height="19.029" fill="none"/>
    </clipPath>
    <clipPath id="clip-path-16">
      <rect id="Rectángulo_456099" data-name="Rectángulo 456099" width="19.47" height="19.096" fill="none"/>
    </clipPath>
    <clipPath id="clip-path-17">
      <rect id="Rectángulo_456102" data-name="Rectángulo 456102" width="2.585" height="88.204" fill="none"/>
    </clipPath>
    <clipPath id="clip-path-18">
      <rect id="Rectángulo_456103" data-name="Rectángulo 456103" width="65.183" height="13.474" fill="none"/>
    </clipPath>
  </defs>
  <g id="Grupo_1191865" data-name="Grupo 1191865" transform="translate(-498 -4996.089)">
    <g id="Grupo_1177119" data-name="Grupo 1177119" transform="translate(0.352 2784.08)">
      <g id="Grupo_1119664" data-name="Grupo 1119664" transform="translate(498 2212.009)">
        <rect id="Rectángulo_402012" data-name="Rectángulo 402012" width="292.148" height="239.501" fill="#e0f5fc"/>
      </g>
    </g>
    <rect id="Rectángulo_456106" data-name="Rectángulo 456106" width="292" height="70" transform="translate(498 5166)" fill="#004b84"/>
    <g id="Grupo_1191864" data-name="Grupo 1191864" transform="translate(517.47 5032.852)">
      <g id="Grupo_1191863" data-name="Grupo 1191863" clip-path="url(#clip-path)">
        <g id="Grupo_1191862" data-name="Grupo 1191862">
          <g id="Grupo_1191861" data-name="Grupo 1191861" clip-path="url(#clip-path)">
            <g id="Grupo_1191830" data-name="Grupo 1191830" transform="translate(0 27.382)" opacity="0.99">
              <g id="Grupo_1191829" data-name="Grupo 1191829">
                <g id="Grupo_1191828" data-name="Grupo 1191828" clip-path="url(#clip-path-3)">
                  <path id="Trazado_1000486" data-name="Trazado 1000486" d="M95.77,205.617q.308.756.674,1.5H8.9v-20.1h87.54q-.465,1.084-.837,2.154a24.155,24.155,0,0,0-1.374,10.179,21.829,21.829,0,0,0,1.536,6.267" transform="translate(-3.246 -95.569)" fill="#f7f2e6"/>
                  <path id="Trazado_1000487" data-name="Trazado 1000487" d="M96.541,206.481a2.516,2.516,0,0,1-2.52,2.52H13.461A13.391,13.391,0,0,1,0,195.781a13.263,13.263,0,0,1,13.263-13.306H94.021a2.52,2.52,0,1,1,0,5.04H12.379q-7.426,8.224,0,16.446H94.021a2.519,2.519,0,0,1,2.52,2.52" transform="translate(0 -93.913)" fill="#efe5d0"/>
                  <g id="Grupo_1191815" data-name="Grupo 1191815" transform="translate(13.793 97.581)" style="mix-blend-mode: soft-light;isolation: isolate">
                    <g id="Grupo_1191814" data-name="Grupo 1191814">
                      <g id="Grupo_1191813" data-name="Grupo 1191813" clip-path="url(#clip-path-4)">
                        <rect id="Rectángulo_456070" data-name="Rectángulo 456070" width="73.922" height="1.592" transform="translate(0)" fill="#181b1e"/>
                      </g>
                    </g>
                  </g>
                  <rect id="Rectángulo_456072" data-name="Rectángulo 456072" width="73.922" height="1.592" transform="translate(15.09 103.711)" fill="#e5ddcc"/>
                  <g id="Grupo_1191818" data-name="Grupo 1191818" transform="translate(0 88.562)" style="mix-blend-mode: soft-light;isolation: isolate">
                    <g id="Grupo_1191817" data-name="Grupo 1191817" transform="translate(0 0)">
                      <g id="Grupo_1191816" data-name="Grupo 1191816" clip-path="url(#clip-path-5)">
                        <path id="Trazado_1000488" data-name="Trazado 1000488" d="M96.541,206.481a2.516,2.516,0,0,1-2.52,2.52H13.461A13.391,13.391,0,0,1,0,195.781a13.263,13.263,0,0,1,13.263-13.306h13.4c1.54.879,3.312,1.857,5.278,2.886,1.336.7,2.763,1.422,4.267,2.154,2.727,1.327,5.708,2.683,8.873,3.978q1.987.815,4.069,1.592a107.383,107.383,0,0,0,15.451,4.54c8.178,1.7,16.6,2.23,24.415.546q.994-.213,1.975-.478a21.793,21.793,0,0,0,1.536,6.267h1.5a2.519,2.519,0,0,1,2.52,2.52" transform="translate(0 -182.475)" fill="#181b1e"/>
                      </g>
                    </g>
                  </g>
                  <path id="Trazado_1000489" data-name="Trazado 1000489" d="M110.935,160.493q.308.95.674,1.89H24.069V137.122h87.54q-.465,1.362-.837,2.707a37.619,37.619,0,0,0-1.374,12.791,33.34,33.34,0,0,0,1.536,7.874" transform="translate(-8.776 -77.377)" fill="#e5ddcc"/>
                  <path id="Trazado_1000490" data-name="Trazado 1000490" d="M111.705,161.579a3.614,3.614,0,0,1-.737,2.24,2.292,2.292,0,0,1-1.783.926H28.625c-7.342,0-13.437-7.386-13.461-16.611A18.983,18.983,0,0,1,19.049,136.3a12.041,12.041,0,0,1,9.378-4.881h80.758c1.393,0,2.52,1.416,2.52,3.166a3.618,3.618,0,0,1-.737,2.24,2.294,2.294,0,0,1-1.783.926H27.543q-7.426,10.333,0,20.664h81.643c1.393,0,2.52,1.417,2.52,3.167" transform="translate(-5.529 -75.297)" fill="#c55e3b"/>
                  <rect id="Rectángulo_456074" data-name="Rectángulo 456074" width="73.922" height="2" transform="translate(23.428 67.452)" fill="#d8cab4"/>
                  <rect id="Rectángulo_456075" data-name="Rectángulo 456075" width="73.922" height="2" transform="translate(24.725 75.155)" fill="#d8cab4"/>
                  <g id="Grupo_1191821" data-name="Grupo 1191821" transform="translate(9.635 56.119)" opacity="0.44" style="mix-blend-mode: soft-light;isolation: isolate">
                    <g id="Grupo_1191820" data-name="Grupo 1191820">
                      <g id="Grupo_1191819" data-name="Grupo 1191819" clip-path="url(#clip-path-6)">
                        <path id="Trazado_1000491" data-name="Trazado 1000491" d="M111.705,161.579a3.614,3.614,0,0,1-.737,2.24,2.292,2.292,0,0,1-1.783.926H28.625c-7.342,0-13.437-7.386-13.461-16.611A18.983,18.983,0,0,1,19.049,136.3a12.041,12.041,0,0,1,9.378-4.881h13.4c1.54,1.1,3.312,2.334,5.278,3.626,1.336.879,2.763,1.787,4.267,2.707,2.727,1.667,5.708,3.37,8.872,5,1.325.683,2.685,1.353,4.07,2a91.411,91.411,0,0,0,15.451,5.7c8.178,2.139,16.6,2.8,24.415.687q.994-.267,1.975-.6a33.269,33.269,0,0,0,1.536,7.874h1.5c1.393,0,2.52,1.417,2.52,3.167" transform="translate(-15.164 -131.415)" fill="#181b1e"/>
                      </g>
                    </g>
                  </g>
                  <path id="Trazado_1000492" data-name="Trazado 1000492" d="M144.293,52.956H116.9c.074-.694.129-1.106.129-1.106h27.137s.055.412.127,1.106" transform="translate(-42.622 -46.286)" fill="#102235"/>
                  <path id="Trazado_1000493" data-name="Trazado 1000493" d="M138.256,88.1h-1.483a1.216,1.216,0,0,1,1.483,0" transform="translate(-49.868 -59.41)" fill="#606060"/>
                  <path id="Trazado_1000494" data-name="Trazado 1000494" d="M142.486,70.619a33.836,33.836,0,0,1-4.724,3.12,16.752,16.752,0,0,0-4.194,2.951h-4.115a16.752,16.752,0,0,0-4.194-2.951,33.833,33.833,0,0,1-4.724-3.12c-.05-.043-1.247-1.156-1.118-7.906.041-2.092,24.148-2.065,24.186.032.125,6.721-1.067,7.831-1.118,7.873" transform="translate(-43.537 -49.681)" fill="#f3d894"/>
                  <path id="Trazado_1000495" data-name="Trazado 1000495" d="M145.258,44.062v5.7H113.344v-5.7a131.96,131.96,0,0,1,31.914,0" transform="translate(-41.326 -43.094)" fill="#2d5477"/>
                  <path id="Trazado_1000496" data-name="Trazado 1000496" d="M142.648,82.168a18.128,18.128,0,0,0-1.62-1.23c-3.175-2.174-7.3-3.99-7.3-5.14v-.043c0-.3.281-.644.75-1.029a19.38,19.38,0,0,1,2.2-1.454,51.376,51.376,0,0,0,5.505-3.506c.157-.127.313-.254.46-.381,2.608-2.257,1.764-12.405,1.4-15.8H116.657c-.362,3.389-1.207,13.54,1.4,15.8,3.143,2.718,8.918,5.011,8.918,6.37V75.8c0,1.359-5.775,3.653-8.918,6.37-1.281,1.11-1.729,4.119-1.812,7.3a69.328,69.328,0,0,0,.41,8.5h1.892c-.13-1.432-.285-3.368-.288-5.375a19.359,19.359,0,0,1,.147-2.514,7.788,7.788,0,0,1,.958-3.28c1.158-1.065,11.246-8.885,19.758-4.149a12.884,12.884,0,0,1,2.2,1.553c.053.046,1.247,1.235,1.118,8.424-.036,2-.167,3.921-.29,5.341h1.894c.363-3.39,1.206-13.539-1.4-15.8m-15.44-1.807a.7.7,0,0,1-.762-.216.935.935,0,0,1-.163-.557c-.012-.611.557-1.4,1.186-.859a1,1,0,0,1-.261,1.632m4.444-2.737a1.967,1.967,0,0,1-1.264,1.767,1.557,1.557,0,0,1-1.7-.478,2.111,2.111,0,0,1-.361-1.243v-.046a2.637,2.637,0,0,1,.958-2.017,1.216,1.216,0,0,1,1.483,0,2.156,2.156,0,0,1,.2.151,2.2,2.2,0,0,1,.688,1.866m.759-3.694H128.3a16.764,16.764,0,0,0-4.194-2.951,33.786,33.786,0,0,1-4.725-3.12c-.05-.042-1.247-1.156-1.117-7.9.022-1.09,6.553-1.6,12.823-1.552.125,0,.25,0,.375,0,.065,0,.13,0,.192,0,.095,0,.19,0,.283,0l.615.012.23.006.119,0,.438.012.036,0c.264.008.527.018.787.029.182.006.362.014.541.022l.525.027c.443.024.877.05,1.3.081s.813.062,1.2.1c.144.012.283.027.42.041.026,0,.055.006.081.01q.2.018.393.042c.155.018.309.036.456.057.121.014.238.03.353.046.2.03.4.058.579.091.06.008.119.02.177.03a7.486,7.486,0,0,1,1.8.49c.034.016.067.032.1.048s.046.027.067.039a.934.934,0,0,1,.17.125.55.55,0,0,1,.043.044.263.263,0,0,1,.042.055.32.32,0,0,1,.02.034.362.362,0,0,1,.031.083.213.213,0,0,1,.006.048c0,.087,0,.172,0,.257,0,.17,0,.337,0,.5s0,.322,0,.478v.046c0,.1,0,.2,0,.3-.006.379-.017.735-.029,1.069,0,.054-.006.107-.008.159,0,.109-.01.214-.016.317-.032.587-.079,1.106-.133,1.559-.006.055-.012.109-.02.163s-.01.089-.018.133-.012.088-.018.131c-.031.22-.063.421-.1.607-.02.118-.043.228-.065.333a6.132,6.132,0,0,1-.457,1.43.329.329,0,0,1-.022.044c-.008.018-.018.034-.026.053s-.015.024-.02.034a1.029,1.029,0,0,1-.192.262c-.079.069-.161.137-.244.2a24.464,24.464,0,0,1-2.6,1.8c-.1.064-.2.125-.3.185s-.217.133-.327.2c-.284.172-.569.339-.849.5l-.4.232a16.752,16.752,0,0,0-4.194,2.951" transform="translate(-42.379 -46.921)" fill="#7bb7da"/>
                  <path id="Trazado_1000497" data-name="Trazado 1000497" d="M143.609,108.431c-.036,2-.168,3.922-.29,5.342-.012.163-.026.318-.041.468H119.754c-.014-.149-.028-.3-.043-.468-.129-1.432-.284-3.369-.288-5.376-.01-4.1,1.053-5.745,1.106-5.794,1.259-1.16,13.092-10.314,21.963-2.6.053.046,1.247,1.234,1.118,8.423" transform="translate(-43.542 -62.728)" fill="#f3d894"/>
                  <path id="Trazado_1000498" data-name="Trazado 1000498" d="M145.258,123.43v5.7a132.024,132.024,0,0,1-31.914,0v-5.7Z" transform="translate(-41.326 -72.385)" fill="#2e4159"/>
                  <path id="Trazado_1000499" data-name="Trazado 1000499" d="M138.591,90.114a1.969,1.969,0,0,1-1.265,1.767,1.556,1.556,0,0,1-1.7-.478,2.105,2.105,0,0,1-.361-1.243v-.046a2.637,2.637,0,0,1,.958-2.017,1.216,1.216,0,0,1,1.482,0,2.1,2.1,0,0,1,.2.151,2.2,2.2,0,0,1,.688,1.866" transform="translate(-49.318 -59.41)" fill="#f3d894"/>
                  <path id="Trazado_1000500" data-name="Trazado 1000500" d="M132.975,94.684a.7.7,0,0,1-.762-.216.926.926,0,0,1-.163-.557c-.012-.611.557-1.4,1.186-.859a1,1,0,0,1-.261,1.632" transform="translate(-48.146 -61.243)" fill="#f3d894"/>
                  <g id="Grupo_1191824" data-name="Grupo 1191824" transform="translate(93.428 6.669)" opacity="0.39" style="mix-blend-mode: overlay;isolation: isolate">
                    <g id="Grupo_1191823" data-name="Grupo 1191823">
                      <g id="Grupo_1191822" data-name="Grupo 1191822" clip-path="url(#clip-path-7)">
                        <path id="Trazado_1000501" data-name="Trazado 1000501" d="M153.421,69.768a51.25,51.25,0,0,1-5.505,3.506,25.051,25.051,0,0,0,.319-2.526,65.907,65.907,0,0,0-.482-12.144c-.236-1.987-.5-3.735-.712-5.015h5.713a34.218,34.218,0,0,1,.869,6.231c.029.48.049.962.065,1.446a77.427,77.427,0,0,1-.266,8.5" transform="translate(-147.04 -53.59)" fill="#fdffe9"/>
                      </g>
                    </g>
                  </g>
                  <g id="Grupo_1191827" data-name="Grupo 1191827" transform="translate(72.018 34.018)" opacity="0.44" style="mix-blend-mode: soft-light;isolation: isolate">
                    <g id="Grupo_1191826" data-name="Grupo 1191826">
                      <g id="Grupo_1191825" data-name="Grupo 1191825" clip-path="url(#clip-path-8)">
                        <path id="Trazado_1000502" data-name="Trazado 1000502" d="M145.258,113.659v5.7a132.023,132.023,0,0,1-31.914,0v-5.7H115.6a69.332,69.332,0,0,1-.41-8.5,15.259,15.259,0,0,0,2.161.607c8.282,1.69,16.347-3.728,20.716-7.43.75-.635,1.39-1.218,1.9-1.709a18.117,18.117,0,0,1,1.62,1.231c2.608,2.257,1.765,12.405,1.4,15.8Z" transform="translate(-113.344 -96.632)" fill="#181b1e"/>
                      </g>
                    </g>
                  </g>
                </g>
              </g>
            </g>
            <g id="Grupo_1191839" data-name="Grupo 1191839" transform="translate(133.882 91.229)" opacity="0.99">
              <g id="Grupo_1191838" data-name="Grupo 1191838">
                <g id="Grupo_1191837" data-name="Grupo 1191837" clip-path="url(#clip-path-9)">
                  <path id="Trazado_1000503" data-name="Trazado 1000503" d="M253.609,214.9q-.308,1.028-.674,2.047h87.54V189.6h-87.54q.465,1.474.837,2.93a43.942,43.942,0,0,1,1.374,13.848,38.748,38.748,0,0,1-1.536,8.525" transform="translate(-226.104 -160.358)" fill="#e5ddcc"/>
                  <path id="Trazado_1000504" data-name="Trazado 1000504" d="M247.674,216.076a4.13,4.13,0,0,0,.737,2.425,2.244,2.244,0,0,0,1.783,1h80.561c7.341,0,13.436-8,13.461-17.985A21.688,21.688,0,0,0,340.33,188.7c-2.4-3.266-5.716-5.285-9.378-5.285H250.194c-1.393,0-2.52,1.534-2.52,3.428a4.131,4.131,0,0,0,.737,2.425,2.244,2.244,0,0,0,1.783,1h81.643q7.426,11.187,0,22.372H250.194c-1.393,0-2.52,1.534-2.52,3.429" transform="translate(-224.185 -158.105)" fill="#2e5c6c"/>
                  <rect id="Rectángulo_456080" data-name="Rectángulo 456080" width="73.922" height="2.165" transform="translate(32.314 37.584)" fill="#d8cab4"/>
                  <rect id="Rectángulo_456081" data-name="Rectángulo 456081" width="73.922" height="2.165" transform="translate(31.017 45.923)" fill="#d8cab4"/>
                  <path id="Trazado_1000505" data-name="Trazado 1000505" d="M290.908,202.729v7.679l3.163-2.348,2.277,3.009v-8.34Z" transform="translate(-239.949 -165.145)" fill="#eaa524"/>
                  <g id="Grupo_1191833" data-name="Grupo 1191833" transform="translate(23.489 25.314)" opacity="0.44" style="mix-blend-mode: soft-light;isolation: isolate">
                    <g id="Grupo_1191832" data-name="Grupo 1191832">
                      <g id="Grupo_1191831" data-name="Grupo 1191831" clip-path="url(#clip-path-10)">
                        <path id="Trazado_1000506" data-name="Trazado 1000506" d="M247.674,216.076a4.13,4.13,0,0,0,.737,2.425,2.244,2.244,0,0,0,1.783,1h80.561c7.341,0,13.436-8,13.461-17.985A21.688,21.688,0,0,0,340.33,188.7c-2.4-3.266-5.716-5.285-9.378-5.285h-13.4c-1.54,1.2-3.312,2.526-5.278,3.926-1.336.952-2.763,1.935-4.267,2.93-2.727,1.805-5.708,3.649-8.872,5.412-1.325.739-2.685,1.465-4.07,2.166a87.062,87.062,0,0,1-15.451,6.176c-8.178,2.316-16.6,3.035-24.415.744q-.993-.29-1.975-.65a38.665,38.665,0,0,1-1.536,8.524h-1.5c-1.393,0-2.52,1.534-2.52,3.429" transform="translate(-247.674 -183.419)" fill="#171819"/>
                      </g>
                    </g>
                  </g>
                  <path id="Trazado_1000507" data-name="Trazado 1000507" d="M216.642,166.721q-.308.756-.674,1.5h87.54v-20.1h-87.54q.465,1.084.837,2.154a24.157,24.157,0,0,1,1.374,10.18,21.831,21.831,0,0,1-1.536,6.266" transform="translate(-212.625 -145.235)" fill="#f7f2e6"/>
                  <path id="Trazado_1000508" data-name="Trazado 1000508" d="M210.707,167.585a2.516,2.516,0,0,0,2.52,2.52h80.56a13.391,13.391,0,0,0,13.461-13.22,13.263,13.263,0,0,0-13.263-13.306H213.227a2.52,2.52,0,1,0,0,5.04H294.87q7.426,8.224,0,16.446H213.227a2.519,2.519,0,0,0-2.52,2.52" transform="translate(-210.707 -143.579)" fill="#efe5d0"/>
                  <rect id="Rectángulo_456083" data-name="Rectángulo 456083" width="73.922" height="1.592" transform="translate(8.826 9.019)" fill="#e5ddcc"/>
                  <rect id="Rectángulo_456084" data-name="Rectángulo 456084" width="73.922" height="1.592" transform="translate(7.529 15.15)" fill="#e5ddcc"/>
                  <g id="Grupo_1191836" data-name="Grupo 1191836" style="mix-blend-mode: soft-light;isolation: isolate">
                    <g id="Grupo_1191835" data-name="Grupo 1191835">
                      <g id="Grupo_1191834" data-name="Grupo 1191834" clip-path="url(#clip-path-5)">
                        <path id="Trazado_1000509" data-name="Trazado 1000509" d="M210.707,167.585a2.516,2.516,0,0,0,2.52,2.52h80.56a13.391,13.391,0,0,0,13.461-13.22,13.263,13.263,0,0,0-13.263-13.306h-13.4c-1.54.879-3.312,1.857-5.278,2.886-1.336.7-2.763,1.422-4.267,2.154-2.727,1.327-5.708,2.683-8.873,3.978q-1.987.815-4.069,1.592a107.306,107.306,0,0,1-15.451,4.54c-8.178,1.7-16.6,2.23-24.415.546q-.994-.213-1.975-.478a21.793,21.793,0,0,1-1.536,6.267h-1.5a2.519,2.519,0,0,0-2.52,2.52" transform="translate(-210.707 -143.579)" fill="#181b1e"/>
                      </g>
                    </g>
                  </g>
                </g>
              </g>
            </g>
            <path id="Trazado_1000510" data-name="Trazado 1000510" d="M198.715,236.069q.416,1.022.911,2.034H81.305V210.929H199.626q-.629,1.464-1.131,2.911a32.646,32.646,0,0,0-1.857,13.759,29.489,29.489,0,0,0,2.076,8.47" transform="translate(-29.644 -76.906)" fill="#f7f2e6"/>
            <rect id="Rectángulo_456087" data-name="Rectángulo 456087" width="99.915" height="2.151" transform="translate(64.409 150.599)" fill="#e5ddcc"/>
            <path id="Trazado_1000511" data-name="Trazado 1000511" d="M199.756,237.236a3.4,3.4,0,0,1-3.406,3.406H87.463a18.1,18.1,0,0,1-18.194-17.869A17.926,17.926,0,0,1,87.2,204.789H196.35a3.406,3.406,0,1,1,0,6.812H86q-10.037,11.116,0,22.229H196.35a3.4,3.4,0,0,1,3.406,3.406" transform="translate(-25.256 -74.667)" fill="#f3d894"/>
            <rect id="Rectángulo_456088" data-name="Rectángulo 456088" width="99.915" height="2.151" transform="translate(62.656 142.312)" fill="#e5ddcc"/>
            <path id="Trazado_1000512" data-name="Trazado 1000512" d="M130.413,223.974v14.171l4.175-5.884,3.8,6.644.506-14.93Z" transform="translate(-47.549 -81.662)" fill="#456a92"/>
            <g id="Grupo_1191842" data-name="Grupo 1191842" transform="translate(44.013 130.122)" style="mix-blend-mode: soft-light;isolation: isolate">
              <g id="Grupo_1191841" data-name="Grupo 1191841">
                <g id="Grupo_1191840" data-name="Grupo 1191840" clip-path="url(#clip-path-12)">
                  <path id="Trazado_1000513" data-name="Trazado 1000513" d="M199.756,237.236a3.4,3.4,0,0,1-3.406,3.406H87.463a18.1,18.1,0,0,1-18.194-17.869A17.926,17.926,0,0,1,87.2,204.789H105.3c2.082,1.188,4.476,2.51,7.132,3.9,1.806.946,3.734,1.923,5.768,2.911,3.686,1.794,7.716,3.626,11.992,5.377q2.687,1.1,5.5,2.153a145.1,145.1,0,0,0,20.884,6.136c11.053,2.3,22.433,3.015,33,.74q1.344-.288,2.67-.646a29.464,29.464,0,0,0,2.076,8.47h2.023a3.4,3.4,0,0,1,3.406,3.406" transform="translate(-69.269 -204.789)" fill="#181b1e"/>
                </g>
              </g>
            </g>
            <path id="Trazado_1000514" data-name="Trazado 1000514" d="M288.006,134.274c-.355,1.839-4.663,3.73-7.123,2.981-1.427-.435-7.048-10.513-11.516-18.894-2.82-5.293-5.182-9.91-5.734-11-.081-.156-.123-.241-.123-.241l.323-.194,5.734-3.434s4.905,7.551,9.653,15.186c4.552,7.308,8.962,14.693,8.787,15.594" transform="translate(-96.077 -37.734)" fill="#233d65"/>
            <g id="Grupo_1191845" data-name="Grupo 1191845" transform="translate(167.556 65.76)" opacity="0.44" style="mix-blend-mode: soft-light;isolation: isolate">
              <g id="Grupo_1191844" data-name="Grupo 1191844">
                <g id="Grupo_1191843" data-name="Grupo 1191843" clip-path="url(#clip-path-13)">
                  <path id="Trazado_1000515" data-name="Trazado 1000515" d="M279.29,118.68a66.06,66.06,0,0,1-9.852-.319c-2.82-5.293-5.182-9.91-5.734-11l.2-.435,5.734-3.434s4.906,7.551,9.653,15.186" transform="translate(-263.704 -103.495)" fill="#181b1e"/>
                </g>
              </g>
            </g>
            <path id="Trazado_1000516" data-name="Trazado 1000516" d="M263.895,71.543a16.265,16.265,0,1,1-22.011-6.679,16.265,16.265,0,0,1,22.011,6.679" transform="translate(-85.056 -22.948)" fill="#233d65"/>
            <path id="Trazado_1000517" data-name="Trazado 1000517" d="M262.732,75.485a12.5,12.5,0,0,1-4.718,16.676c-.134.079-.273.156-.412.231a12.494,12.494,0,0,1-13.174-21.168,12.7,12.7,0,0,1,1.4-.869,12.483,12.483,0,0,1,16.907,5.13" transform="translate(-87.22 -25.113)" fill="#7bb7da"/>
            <g id="Grupo_1191848" data-name="Grupo 1191848" transform="translate(155.499 43.764)" opacity="0.5">
              <g id="Grupo_1191847" data-name="Grupo 1191847">
                <g id="Grupo_1191846" data-name="Grupo 1191846" clip-path="url(#clip-path-14)">
                  <path id="Trazado_1000518" data-name="Trazado 1000518" d="M254.309,68.892l-2.258,24.863a12.5,12.5,0,0,1-7.322-3.709l1.709-18.823a12.833,12.833,0,0,1,1.4-.869,12.427,12.427,0,0,1,6.473-1.463" transform="translate(-244.728 -68.877)" fill="#f7f9f9"/>
                  <path id="Trazado_1000519" data-name="Trazado 1000519" d="M268.366,72.378l-1.841,20.268c-.134.079-.273.156-.412.231a12.457,12.457,0,0,1-3.553,1.257l2.173-23.926a12.455,12.455,0,0,1,3.633,2.17" transform="translate(-251.23 -69.362)" fill="#f7f9f9"/>
                </g>
              </g>
            </g>
            <path id="Trazado_1000520" data-name="Trazado 1000520" d="M141.393,26.82S122.1,11.6,108.594,14.064a46.289,46.289,0,0,0-12.487,4.764c-4.473,2.291-8.789,4.9-13.064,7.555-3.409,2.12-6.768,4.351-10.265,6.314a11.312,11.312,0,0,1-3.421,1.519.357.357,0,0,1-.264-.027.384.384,0,0,1-.123-.206A2.539,2.539,0,0,1,69.1,31.73c.371-.536.974-.846,1.371-1.361a2.614,2.614,0,0,0,.5-1.421c.081-1.214-.361-2.768-1.691-2.987a4.115,4.115,0,0,0-2.941,1.069c-1.888,1.46-3.483,3.931-2.993,6.463.006.032.012.063.02.094.7,3.142,4.316,6.78,6.519,6.4,0,0,25.118-20.528,42.268-17.785s27.685,10.241,27.685,10.241Z" transform="translate(-23.061 -5.029)" fill="#eaa524"/>
            <path id="Trazado_1000521" data-name="Trazado 1000521" d="M74.364,41.856s-.57,1.437-.923,2.718a28.071,28.071,0,0,0,0,7.224c.265.64,3.446,1.1,4.33,0s.884-8.779.353-9.51-3.76-.431-3.76-.431" transform="translate(-26.692 -15.239)" fill="#102235"/>
            <path id="Trazado_1000522" data-name="Trazado 1000522" d="M75.086,56.529a54.152,54.152,0,0,0,.088,5.623c.2.274,1.856.412,2.121,0s.265-5.623,0-5.623Z" transform="translate(-27.366 -20.611)" fill="#2d5477"/>
            <rect id="Rectángulo_456092" data-name="Rectángulo 456092" width="58.878" height="0.635" transform="matrix(0.411, -0.912, 0.912, 0.411, 23.384, 94.512)" fill="#102235"/>
            <rect id="Rectángulo_456093" data-name="Rectángulo 456093" width="0.635" height="58.878" transform="translate(49.51 41.106) rotate(-24.291)" fill="#102235"/>
            <rect id="Rectángulo_456094" data-name="Rectángulo 456094" width="53.875" height="0.635" transform="matrix(0.011, -1, 1, 0.011, 48.108, 95.03)" fill="#102235"/>
            <path id="Trazado_1000523" data-name="Trazado 1000523" d="M89.538,153.913a25.767,25.767,0,0,1-7.321,11.7c-4.051,3.73-10.188,7-19.36,7.327-.517.026-1.045.035-1.583.035-23.743,0-26.089-19.063-26.089-19.063Z" transform="translate(-12.829 -56.117)" fill="#eaa524"/>
            <path id="Trazado_1000524" data-name="Trazado 1000524" d="M86.922,153.837H32.732a2.135,2.135,0,0,1,0-4.27h54.19a2.135,2.135,0,0,1,0,4.27" transform="translate(-11.156 -54.533)" fill="#eaa524"/>
            <g id="Grupo_1191851" data-name="Grupo 1191851" transform="translate(50.028 97.796)" opacity="0.44" style="mix-blend-mode: screen;isolation: isolate">
              <g id="Grupo_1191850" data-name="Grupo 1191850">
                <g id="Grupo_1191849" data-name="Grupo 1191849" clip-path="url(#clip-path-15)">
                  <path id="Trazado_1000525" data-name="Trazado 1000525" d="M98.1,165.614c-4.051,3.731-10.188,7-19.36,7.327,3.031-5.651,3.984-14.555,4.278-19.029H97.071a30.09,30.09,0,0,1,1.024,11.7" transform="translate(-78.736 -153.913)" fill="#eaa524"/>
                </g>
              </g>
            </g>
            <path id="Trazado_1000526" data-name="Trazado 1000526" d="M194.315,20.828s17.509-17.381,31.2-16.506A45.978,45.978,0,0,1,238.44,7.6c4.694,1.754,9.267,3.838,13.8,5.981,3.619,1.709,7.2,3.532,10.888,5.074a11.248,11.248,0,0,0,3.565,1.109.36.36,0,0,0,.26-.058.38.38,0,0,0,.1-.219,2.533,2.533,0,0,0-.372-2.224c-.428-.489-1.06-.727-1.511-1.192a2.593,2.593,0,0,1-.647-1.354c-.213-1.2.057-2.792,1.354-3.165a4.083,4.083,0,0,1,3.038.718c2.036,1.229,3.89,3.5,3.68,6.072q0,.048-.01.1c-.353,3.2-3.549,7.24-5.78,7.121,0,0-27.2-17.462-43.938-12.733s-26.391,13.41-26.391,13.41Z" transform="translate(-70.848 -1.564)" fill="#eaa524"/>
            <path id="Trazado_1000527" data-name="Trazado 1000527" d="M303.723,25.2s.565,1.439.914,2.721a28.086,28.086,0,0,1-.025,7.224c-.267.639-3.45,1.085-4.33-.016s-.853-8.782-.321-9.511,3.762-.417,3.762-.417" transform="translate(-109.23 -9.164)" fill="#102235"/>
            <path id="Trazado_1000528" data-name="Trazado 1000528" d="M304.583,39.871a54.08,54.08,0,0,1-.108,5.623c-.2.274-1.857.4-2.121-.008s-.245-5.625.02-5.624l2.209.008" transform="translate(-110.171 -14.534)" fill="#2d5477"/>
            <rect id="Rectángulo_456096" data-name="Rectángulo 456096" width="0.635" height="58.883" transform="translate(193.935 30.523) rotate(-24.091)" fill="#102235"/>
            <rect id="Rectángulo_456097" data-name="Rectángulo 456097" width="58.872" height="0.635" transform="translate(167.609 83.824) rotate(-65.485)" fill="#102235"/>
            <rect id="Rectángulo_456098" data-name="Rectángulo 456098" width="0.635" height="53.876" transform="translate(192.799 30.578) rotate(-0.391)" fill="#102235"/>
            <path id="Trazado_1000529" data-name="Trazado 1000529" d="M260.011,137.091a25.776,25.776,0,0,0,7.28,11.728c4.038,3.746,10.164,7.034,19.335,7.4.516.028,1.045.039,1.582.041,23.743.088,26.155-18.967,26.155-18.967Z" transform="translate(-94.801 -49.984)" fill="#eaa524"/>
            <path id="Trazado_1000530" data-name="Trazado 1000530" d="M260.267,137.021l54.189.2a2.135,2.135,0,1,0,.016-4.27l-54.189-.2a2.135,2.135,0,1,0-.016,4.27" transform="translate(-94.119 -48.402)" fill="#eaa524"/>
            <g id="Grupo_1191854" data-name="Grupo 1191854" transform="translate(172.355 87.138)" opacity="0.44" style="mix-blend-mode: screen;isolation: isolate">
              <g id="Grupo_1191853" data-name="Grupo 1191853">
                <g id="Grupo_1191852" data-name="Grupo 1191852" clip-path="url(#clip-path-16)">
                  <path id="Trazado_1000531" data-name="Trazado 1000531" d="M271.392,148.837c4.038,3.746,10.164,7.035,19.335,7.4-3.012-5.662-3.934-14.569-4.212-19.044l-14.058-.051a30.068,30.068,0,0,0-1.065,11.7" transform="translate(-271.256 -137.14)" fill="#eaa524"/>
                </g>
              </g>
            </g>
            <path id="Trazado_1000532" data-name="Trazado 1000532" d="M192.334,61.683h-9.942a28.729,28.729,0,0,1,0-18.1h9.942a31.569,31.569,0,0,1,0,18.1" transform="translate(-65.969 -15.889)" fill="#eaa524"/>
            <path id="Trazado_1000533" data-name="Trazado 1000533" d="M192.335,18.1h-9.942a27.323,27.323,0,0,1-1.205-12.594,6.172,6.172,0,0,1,12.287.146A31.619,31.619,0,0,1,192.335,18.1" transform="translate(-65.969)" fill="#eaa524"/>
            <rect id="Rectángulo_456100" data-name="Rectángulo 456100" width="12.673" height="72.969" transform="translate(115.018 45.794)" fill="#eaa524"/>
            <g id="Grupo_1191857" data-name="Grupo 1191857" transform="translate(119.809 28.072)" opacity="0.66">
              <g id="Grupo_1191856" data-name="Grupo 1191856">
                <g id="Grupo_1191855" data-name="Grupo 1191855" clip-path="url(#clip-path-17)">
                  <rect id="Rectángulo_456101" data-name="Rectángulo 456101" width="2.585" height="88.204" transform="translate(0)" fill="#ffe0ae"/>
                </g>
              </g>
            </g>
            <path id="Trazado_1000534" data-name="Trazado 1000534" d="M206.143,196.383v.463H133.177v-.463A13.368,13.368,0,0,1,146.561,183h46.2a13.379,13.379,0,0,1,3.919.583,12.23,12.23,0,0,1,1.683.643,13.384,13.384,0,0,1,7.783,12.158" transform="translate(-48.557 -66.722)" fill="#d3870d"/>
            <g id="Grupo_1191860" data-name="Grupo 1191860" transform="translate(84.62 116.649)" opacity="0.44" style="mix-blend-mode: soft-light;isolation: isolate">
              <g id="Grupo_1191859" data-name="Grupo 1191859">
                <g id="Grupo_1191858" data-name="Grupo 1191858" clip-path="url(#clip-path-18)">
                  <path id="Trazado_1000535" data-name="Trazado 1000535" d="M198.36,184.438l-60.886,12.621h-4.3V196.6a13.388,13.388,0,0,1,10.234-13.011l1.923.21h51.342a12.309,12.309,0,0,1,1.683.643" transform="translate(-133.177 -183.585)" fill="#171819"/>
                </g>
              </g>
            </g>
            <path id="Trazado_1000536" data-name="Trazado 1000536" d="M152.315,176.084s2.124-13.649,25.045-13.649,23.372,13.649,23.372,13.649Z" transform="translate(-55.535 -59.225)" fill="#eaa524"/>
            <path id="Trazado_1000537" data-name="Trazado 1000537" d="M194.185,27.8c0,3.872-3.4,7.012-7.6,7.012s-7.6-3.139-7.6-7.012,3.4-7.012,7.6-7.012,7.6,3.139,7.6,7.012" transform="translate(-65.261 -7.579)" fill="#ffe0ae"/>
            <path id="Trazado_1000538" data-name="Trazado 1000538" d="M191.851,45.3H180.517a2.634,2.634,0,1,1,0-5.268h11.334a2.634,2.634,0,1,1,0,5.268" transform="translate(-64.857 -14.597)" fill="#2d5477"/>
            <path id="Trazado_1000539" data-name="Trazado 1000539" d="M191.851,73.194H180.517a2.634,2.634,0,1,1,0-5.268h11.334a2.634,2.634,0,1,1,0,5.268" transform="translate(-64.857 -24.766)" fill="#2d5477"/>
          </g>
        </g>
      </g>
    </g>
  </g>
</svg>
