<svg xmlns="http://www.w3.org/2000/svg" xmlns:xlink="http://www.w3.org/1999/xlink" width="80" height="80" viewBox="0 0 80 80">
  <defs>
    <clipPath id="clip-path">
      <rect id="Rectángulo_456111" data-name="Rectángulo 456111" width="57" height="56.889" fill="#fff"/>
    </clipPath>
  </defs>
  <g id="Grupo_1177897" data-name="Grupo 1177897" transform="translate(-710 -1680.92)">
    <g id="Grupo_1119665" data-name="Grupo 1119665" transform="translate(534.111 -3840.08)">
      <rect id="Rectángulo_402006" data-name="Rectángulo 402006" width="80" height="80" rx="5" transform="translate(175.889 5521)" fill="#004b84"/>
    </g>
    <g id="Grupo_1191873" data-name="Grupo 1191873" transform="translate(721.5 1692.476)">
      <g id="Grupo_1191872" data-name="Grupo 1191872" clip-path="url(#clip-path)">
        <path id="Trazado_1000561" data-name="Trazado 1000561" d="M151.234,180.479a1.888,1.888,0,0,1-2.8.04l-10.995-10.686a1.969,1.969,0,0,1,.325-2.759l-6.123-5.93a19.916,19.916,0,0,1-10.019,4.549l-.009-4.727a15.462,15.462,0,0,0,10.469-7.739l5.143.013a17.244,17.244,0,0,1-2.177,4.11l6.225,6.108a1.927,1.927,0,0,1,2.842-.146l10.93,10.6a1.814,1.814,0,0,1,.037,2.574Z" transform="translate(-98.602 -124.23)" fill="#fff"/>
        <path id="Trazado_1000562" data-name="Trazado 1000562" d="M24.347,14.109a15.333,15.333,0,1,0-7.051,29.8l.027,4.76A20.023,20.023,0,1,1,27.955,10.444Z" transform="translate(0 -7.144)" fill="#fff"/>
        <path id="Trazado_1000563" data-name="Trazado 1000563" d="M59.742,78.247a13.146,13.146,0,0,1-3.05.027l-.721-1.749a14.582,14.582,0,0,1-2.789-1.156,11.1,11.1,0,0,1-1.839.7l-2.012-1.982a13.794,13.794,0,0,1,.705-1.855,13.392,13.392,0,0,1-1.095-2.691,12.938,12.938,0,0,0-1.833-.819,24.885,24.885,0,0,1-.015-2.948l1.822-.8a13.82,13.82,0,0,1,1.122-2.733L49.3,60.467l2.075-2.107,1.855.707a15.3,15.3,0,0,1,2.709-1.11l.738-1.742,3-.037.693,1.752c.958.228,1.812.754,2.756,1.078.614.114,1.187-.549,1.809-.641a23.42,23.42,0,0,1,2.115,2.059l-.721,1.837a13.785,13.785,0,0,1,1.139,2.746l1.792.736a26.885,26.885,0,0,1,.024,2.927l-1.835.831a11.383,11.383,0,0,1-1.122,2.644l.733,1.863A29,29,0,0,1,64.971,76.1l-1.789-.736a15.408,15.408,0,0,1-2.81,1.17Zm3.669-11.01a5.234,5.234,0,1,0-5.234,5.234,5.234,5.234,0,0,0,5.234-5.234" transform="translate(-38.152 -45.548)" fill="#fff"/>
        <path id="Trazado_1000564" data-name="Trazado 1000564" d="M138.8,5.726l-7.918,7.9a.979.979,0,0,1-1.216.2c-.313-.165-.673-.952-.276-1.351l8.593-8.622,12.052-.024a.95.95,0,0,1,.965.946.98.98,0,0,1-.966.95Z" transform="translate(-104.765 -3.101)" fill="#fff"/>
        <path id="Trazado_1000565" data-name="Trazado 1000565" d="M188.881,142.241l-7.19-7.136-10.718-.02a1.052,1.052,0,0,1-1.07-.725c-.107-.337.09-1.136.677-1.137l11.9-.009,7.582,7.562a.989.989,0,0,1,.153,1.224c-.183.292-.878.693-1.333.241" transform="translate(-137.728 -108.005)" fill="#fff"/>
        <path id="Trazado_1000566" data-name="Trazado 1000566" d="M60.953,196.353a1,1,0,0,1-1-.859.882.882,0,0,1,.879-1l6.969-.046.038-11.493a.87.87,0,0,1,1.027-.786.927.927,0,0,1,.843.986l.011,12.1a1.066,1.066,0,0,1-1.141,1.107Z" transform="translate(-48.607 -147.692)" fill="#fff"/>
        <path id="Trazado_1000567" data-name="Trazado 1000567" d="M179.032,82.227l-6.412-3.641-10.943-.018a.888.888,0,0,1-.915-.92.957.957,0,0,1,.96-.958l11.419,0,6.745,3.879a.954.954,0,0,1,.4,1.164.912.912,0,0,1-1.252.5" transform="translate(-130.34 -62.174)" fill="#fff"/>
        <path id="Trazado_1000568" data-name="Trazado 1000568" d="M164.743,39.981a28.8,28.8,0,0,1-5.441-.034,25.758,25.758,0,0,0-2.739-2.736l3.3-3.342a18.792,18.792,0,0,1,4.879,6.112" transform="translate(-126.935 -27.46)" fill="#fff"/>
        <path id="Trazado_1000569" data-name="Trazado 1000569" d="M189.9,101.685a32.628,32.628,0,0,1-4.7,0,17.25,17.25,0,0,0-.3-4.86l4.709-.057a15.7,15.7,0,0,1,.289,4.915" transform="translate(-149.915 -78.458)" fill="#fff"/>
        <path id="Trazado_1000570" data-name="Trazado 1000570" d="M279.837,183.249a1.669,1.669,0,1,1-1.669-1.669,1.669,1.669,0,0,1,1.669,1.669" transform="translate(-224.176 -147.219)" fill="#fff"/>
        <path id="Trazado_1000571" data-name="Trazado 1000571" d="M41.823,244.9a1.67,1.67,0,1,1-1.67-1.67,1.67,1.67,0,0,1,1.67,1.67" transform="translate(-31.201 -197.206)" fill="#fff"/>
        <path id="Trazado_1000572" data-name="Trazado 1000572" d="M253.964,1.669A1.669,1.669,0,1,1,252.3,0a1.669,1.669,0,0,1,1.669,1.669" transform="translate(-203.2)" fill="#fff"/>
        <path id="Trazado_1000573" data-name="Trazado 1000573" d="M269.51,103.43a1.666,1.666,0,1,1-1.666-1.666,1.666,1.666,0,0,1,1.666,1.666" transform="translate(-215.808 -82.507)" fill="#fff"/>
      </g>
    </g>
  </g>
</svg>
