<svg xmlns="http://www.w3.org/2000/svg" xmlns:xlink="http://www.w3.org/1999/xlink" width="84" height="84" viewBox="0 0 84 84">
  <defs>
    <clipPath id="clip-path">
      <rect id="Rectángulo_456115" data-name="Rectángulo 456115" width="64.967" height="60.662" fill="#12263f"/>
    </clipPath>
  </defs>
  <g id="Grupo_1177941" data-name="Grupo 1177941" transform="translate(-710 -1680.92)">
    <g id="Grupo_1119665" data-name="Grupo 1119665" transform="translate(710 1680.92)">
      <rect id="Rectángulo_402006" data-name="Rectángulo 402006" width="84" height="84" rx="5" fill="#67ccf1"/>
    </g>
    <g id="Grupo_1191876" data-name="Grupo 1191876" transform="translate(721.516 1691.589)">
      <rect id="Rectángulo_456112" data-name="Rectángulo 456112" width="9.891" height="25.038" transform="translate(36.054 35.624)" fill="#12263f"/>
      <rect id="Rectángulo_456113" data-name="Rectángulo 456113" width="9.841" height="20.839" transform="translate(18.947 39.822)" fill="#12263f"/>
      <rect id="Rectángulo_456114" data-name="Rectángulo 456114" width="9.871" height="15.512" transform="translate(1.808 45.15)" fill="#12263f"/>
      <g id="Grupo_1191875" data-name="Grupo 1191875">
        <g id="Grupo_1191874" data-name="Grupo 1191874" clip-path="url(#clip-path)">
          <path id="Trazado_1000574" data-name="Trazado 1000574" d="M7.778,134.424a3.009,3.009,0,0,0,.419-4.259,2.923,2.923,0,0,0-4.281-.114,2.959,2.959,0,0,0,.334,4.36,7.075,7.075,0,0,0-2.806,2.273A5.924,5.924,0,0,1,2,128.376a5.98,5.98,0,0,1,8.127.1,5.9,5.9,0,0,1,.422,8.2,6.812,6.812,0,0,0-2.768-2.251" transform="translate(0 -98.842)" fill="#12263f"/>
          <path id="Trazado_1000575" data-name="Trazado 1000575" d="M18.847,169.359a5.754,5.754,0,0,1-6.641.034,3.534,3.534,0,0,1,3.211-2.019,3.677,3.677,0,0,1,3.431,1.985" transform="translate(-9.512 -130.434)" fill="#12263f"/>
          <path id="Trazado_1000576" data-name="Trazado 1000576" d="M23.818,145.826a1.338,1.338,0,1,1-1.338-1.338,1.338,1.338,0,0,1,1.338,1.338" transform="translate(-16.476 -112.6)" fill="#12263f"/>
          <path id="Trazado_1000577" data-name="Trazado 1000577" d="M143.979,28.744l-3.118,2.067c-1.307.867-1.121-1.632-2.637-1.055a15.359,15.359,0,1,1,5.62-3.662c-.861.889,1.251,1.91.135,2.65M145,15.393a12.058,12.058,0,1,0-12.058,12.058A12.058,12.058,0,0,0,145,15.393" transform="translate(-91.523 -0.001)" fill="#12263f"/>
          <path id="Trazado_1000578" data-name="Trazado 1000578" d="M249.075,173.983a1.409,1.409,0,0,1-2.028-.412l-5.983-9.008a.877.877,0,0,1,.428-1.139l4.086-2.688a.763.763,0,0,1,1.015.31l6.043,9.113a1.385,1.385,0,0,1-.464,1.768Z" transform="translate(-187.806 -125.199)" fill="#12263f"/>
          <path id="Trazado_1000579" data-name="Trazado 1000579" d="M88.531,106.954a6.833,6.833,0,0,0-3.487-2.731,3.3,3.3,0,0,0,.729-4.868,3.2,3.2,0,0,0-4.809-.135,3.269,3.269,0,0,0,.618,4.989,7.282,7.282,0,0,0-3.523,2.738A7,7,0,0,1,84.836,95.47a17.469,17.469,0,0,0,5.442,7.478,6.321,6.321,0,0,1-1.747,4.006" transform="translate(-59.442 -74.253)" fill="#12263f"/>
          <path id="Trazado_1000580" data-name="Trazado 1000580" d="M98.083,144.406a6.97,6.97,0,0,1-7.984.013,4.285,4.285,0,0,1,3.931-2.5,4.389,4.389,0,0,1,4.054,2.488" transform="translate(-70.214 -110.596)" fill="#12263f"/>
          <path id="Trazado_1000581" data-name="Trazado 1000581" d="M230.873,143.118l-3.031-4.5,2.864-1.912,3.053,4.532Z" transform="translate(-177.558 -106.534)" fill="#12263f"/>
          <path id="Trazado_1000582" data-name="Trazado 1000582" d="M103.939,117.282a1.662,1.662,0,1,1-1.662-1.662,1.662,1.662,0,0,1,1.662,1.662" transform="translate(-78.41 -90.103)" fill="#12263f"/>
          <path id="Trazado_1000583" data-name="Trazado 1000583" d="M152.086,35.536a4.561,4.561,0,0,0,2.743-4.821,4.32,4.32,0,0,0-8.5-.17,4.507,4.507,0,0,0,2.863,5.039,8.422,8.422,0,0,0-6.1,4.45,10.495,10.495,0,1,1,14.939-.026,8.968,8.968,0,0,0-5.95-4.472" transform="translate(-109.149 -17.277)" fill="#12263f"/>
          <path id="Trazado_1000584" data-name="Trazado 1000584" d="M171.9,93.623a10.463,10.463,0,0,1-12.455,0,6.8,6.8,0,0,1,12.455,0" transform="translate(-124.257 -69.789)" fill="#12263f"/>
          <path id="Trazado_1000585" data-name="Trazado 1000585" d="M180.651,54.253a2.762,2.762,0,1,1-2.762-2.762,2.762,2.762,0,0,1,2.762,2.762" transform="translate(-136.477 -40.127)" fill="#12263f"/>
        </g>
      </g>
    </g>
  </g>
</svg>
