<svg xmlns="http://www.w3.org/2000/svg" xmlns:xlink="http://www.w3.org/1999/xlink" width="84" height="84" viewBox="0 0 84 84">
  <defs>
    <clipPath id="clip-path">
      <rect id="Rectángulo_456109" data-name="Rectángulo 456109" width="53.916" height="53.945" fill="#fff"/>
    </clipPath>
  </defs>
  <g id="Grupo_1177873" data-name="Grupo 1177873" transform="translate(-710 -1680.92)">
    <g id="Grupo_1119665" data-name="Grupo 1119665" transform="translate(710 1680.92)">
      <rect id="Rectángulo_402006" data-name="Rectángulo 402006" width="84" height="84" rx="5" fill="#004b84"/>
    </g>
    <g id="Grupo_1191869" data-name="Grupo 1191869" transform="translate(725.042 1695.947)">
      <g id="Grupo_1191868" data-name="Grupo 1191868" clip-path="url(#clip-path)">
        <path id="Trazado_1000540" data-name="Trazado 1000540" d="M133.655,19.483a22.227,22.227,0,0,0-7.894.012.808.808,0,0,1-.948-.662.778.778,0,0,1,.633-.84A25.445,25.445,0,0,1,134.02,18a.735.735,0,0,1,.574.882.763.763,0,0,1-.94.6" transform="translate(-103.139 -14.572)" fill="#fff"/>
        <path id="Trazado_1000541" data-name="Trazado 1000541" d="M219.228,9.6a9.6,9.6,0,1,1-9.6-9.6,9.6,9.6,0,0,1,9.6,9.6m-3.335,5.076a8.066,8.066,0,1,0-12.5.007,6.456,6.456,0,0,1,12.5-.007" transform="translate(-165.312)" fill="#fff"/>
        <path id="Trazado_1000542" data-name="Trazado 1000542" d="M243.877,21.768a3.041,3.041,0,1,1-3.041-3.041,3.041,3.041,0,0,1,3.041,3.041" transform="translate(-196.514 -15.476)" fill="#fff"/>
        <path id="Trazado_1000543" data-name="Trazado 1000543" d="M19.19,9.595A9.595,9.595,0,1,1,9.595,0,9.595,9.595,0,0,1,19.19,9.595m-3.338,5.08a8.065,8.065,0,1,0-12.507,0A6.51,6.51,0,0,1,9.68,9.83a6.531,6.531,0,0,1,6.171,4.845" fill="#fff"/>
        <path id="Trazado_1000544" data-name="Trazado 1000544" d="M43.843,21.767A3.041,3.041,0,1,1,40.8,18.726a3.041,3.041,0,0,1,3.041,3.041" transform="translate(-31.205 -15.475)" fill="#fff"/>
        <path id="Trazado_1000545" data-name="Trazado 1000545" d="M19.212,112.838a3.089,3.089,0,0,1-4.382.129,3.055,3.055,0,0,1-.064-4.345l8.261-8.3c.685-.688,1.278-.158,1.959-.273,1.205-.2,1.411-2.119.824-3.106a14.235,14.235,0,1,1,4.858,4.91c-.9-.539-2.807-.279-3,.815-.13.745.4,1.343-.355,2.093ZM48.853,89.654a10.8,10.8,0,1,0-10.8,10.8,10.8,10.8,0,0,0,10.8-10.8" transform="translate(-11.478 -62.316)" fill="#fff"/>
        <path id="Trazado_1000546" data-name="Trazado 1000546" d="M17.812,144.712c.151.532.016.868-.3,1.028a.772.772,0,0,1-1.033-.283,24.309,24.309,0,0,1-2.944-16.612c.089-.495.369-.757.776-.762a.745.745,0,0,1,.742.908,22.8,22.8,0,0,0,2.755,15.722" transform="translate(-10.869 -105.848)" fill="#fff"/>
        <path id="Trazado_1000547" data-name="Trazado 1000547" d="M97.007,273.031a.725.725,0,0,1,.883.6.743.743,0,0,1-.649.887,24.194,24.194,0,0,1-16.593-2.93.762.762,0,0,1,.665-1.368,22.8,22.8,0,0,0,15.693,2.807" transform="translate(-66.331 -223.284)" fill="#fff"/>
        <path id="Trazado_1000548" data-name="Trazado 1000548" d="M283.756,138.468a.758.758,0,1,1-1.488-.285,22.5,22.5,0,0,0,.011-7.805.839.839,0,0,1,.447-1.014.772.772,0,0,1,1.023.557,24.6,24.6,0,0,1,.008,8.547" transform="translate(-233.257 -106.876)" fill="#fff"/>
        <rect id="Rectángulo_456107" data-name="Rectángulo 456107" width="2.946" height="12.596" transform="translate(25.096 20.222)" fill="#fff"/>
        <path id="Trazado_1000549" data-name="Trazado 1000549" d="M177.358,144.672a14.249,14.249,0,0,1-2.949.062l-.019-9.256,2.956-.017Z" transform="translate(-144.117 -111.946)" fill="#fff"/>
        <rect id="Rectángulo_456108" data-name="Rectángulo 456108" width="2.953" height="6.37" transform="translate(19.895 26.448)" fill="#fff"/>
        <path id="Trazado_1000550" data-name="Trazado 1000550" d="M219.229,209.8a9.595,9.595,0,1,1-9.595-9.6,9.595,9.595,0,0,1,9.595,9.6m-3.325,5.074a8.068,8.068,0,1,0-12.505-.022,6.466,6.466,0,0,1,6.291-4.809,6.545,6.545,0,0,1,6.214,4.831" transform="translate(-165.313 -165.453)" fill="#fff"/>
        <path id="Trazado_1000551" data-name="Trazado 1000551" d="M243.876,221.963a3.041,3.041,0,1,1-3.041-3.041,3.041,3.041,0,0,1,3.041,3.041" transform="translate(-196.513 -180.918)" fill="#fff"/>
      </g>
    </g>
  </g>
</svg>
