<svg xmlns="http://www.w3.org/2000/svg" xmlns:xlink="http://www.w3.org/1999/xlink" width="84" height="84" viewBox="0 0 84 84">
  <defs>
    <clipPath id="clip-path">
      <rect id="Rectángulo_456110" data-name="Rectángulo 456110" width="59.399" height="58.257" fill="#12263f"/>
    </clipPath>
  </defs>
  <g id="Grupo_1177874" data-name="Grupo 1177874" transform="translate(-710 -1680.92)">
    <g id="Grupo_1119665" data-name="Grupo 1119665" transform="translate(710 1680.92)">
      <rect id="Rectángulo_402006" data-name="Rectángulo 402006" width="84" height="84" rx="5" fill="#fe93c4"/>
    </g>
    <g id="Grupo_1191871" data-name="Grupo 1191871" transform="translate(722.3 1693.792)">
      <g id="Grupo_1191870" data-name="Grupo 1191870" clip-path="url(#clip-path)">
        <path id="Trazado_1000552" data-name="Trazado 1000552" d="M279.343,53.173l-2.471-.011A1.08,1.08,0,0,1,275.748,52V33.566a1.067,1.067,0,0,1,1.108-1.025l2.4,0a1,1,0,0,1,1.068.986V52.209a1.033,1.033,0,0,1-.985.964" transform="translate(-220.929 -26.072)" fill="#12263f"/>
        <path id="Trazado_1000553" data-name="Trazado 1000553" d="M155.817,14.159a.984.984,0,0,1-1.291-1.484l8.563-6.694a1.572,1.572,0,0,1,1.219-.034L171.9,8.4l6.02-6.059c-.606-.29-1.023-.615-1-1.144A1.041,1.041,0,0,1,177.971.2L180.414,0c.58-.046,1.211.238,1.207.891-.01,1.358-.021,3.748-1.215,3.818-.521.031-.823-.354-1.122-.919l-6.486,6.52a1.789,1.789,0,0,1-1.546-.017l-7.364-2.4Z" transform="translate(-123.55 0)" fill="#12263f"/>
        <path id="Trazado_1000554" data-name="Trazado 1000554" d="M236.7,85.1l-2.474,0a.986.986,0,0,1-1.034-.953l.005-10.714a.955.955,0,0,1,1.02-1.011l2.406-.006a1.045,1.045,0,0,1,1.123,1.049l.01,10.493A1.053,1.053,0,0,1,236.7,85.1" transform="translate(-186.832 -58.012)" fill="#12263f"/>
        <path id="Trazado_1000555" data-name="Trazado 1000555" d="M194.928,73.04a21.591,21.591,0,0,0-4.549-1.873l.005-7.711a1.009,1.009,0,0,1,.983-.949c1.449-.05,3.684-.374,3.593,1.122Z" transform="translate(-152.531 -50.03)" fill="#12263f"/>
        <path id="Trazado_1000556" data-name="Trazado 1000556" d="M151.94,93.624a19.041,19.041,0,0,0-4.425.789c-.049-.77-.488-3.379.876-3.3,1.034.061,2.3-.317,3.224.226.667.394.343,1.637.325,2.283" transform="translate(-118.105 -72.944)" fill="#12263f"/>
        <path id="Trazado_1000557" data-name="Trazado 1000557" d="M143.86,146.668l-2.572,2.693a1.193,1.193,0,0,1-1.7.048l-7.068-6.829c-.6-.579-.284-1.26,0-1.864L128.64,136.9a12.912,12.912,0,1,1,2.22-2.451,47.805,47.805,0,0,0,4.005,3.813,1.693,1.693,0,0,1,2.126.206l6.83,6.708a1.143,1.143,0,0,1,.039,1.49m-13.6-19.587a9.995,9.995,0,1,0-9.995,9.995,9.995,9.995,0,0,0,9.995-9.995" transform="translate(-86.016 -91.485)" fill="#12263f"/>
        <path id="Trazado_1000558" data-name="Trazado 1000558" d="M142.363,162.053a1.565,1.565,0,0,1-.265-2.158,1.5,1.5,0,0,1,2.21-.1l2.233,2.17,4.795-4.818a1.51,1.51,0,0,1,2.044-.128,1.48,1.48,0,0,1,.127,2.131l-5.894,5.969a1.524,1.524,0,0,1-2.213-.04Z" transform="translate(-113.592 -125.529)" fill="#12263f"/>
        <path id="Trazado_1000559" data-name="Trazado 1000559" d="M19.54,136.969l-18.255.015A1.233,1.233,0,0,1,.03,135.452a15.066,15.066,0,0,1,22.319-9.885,15.025,15.025,0,0,0-2.808,11.4" transform="translate(0 -98.965)" fill="#12263f"/>
        <path id="Trazado_1000560" data-name="Trazado 1000560" d="M51.231,48.12A7.628,7.628,0,1,1,43.6,40.493a7.627,7.627,0,0,1,7.627,7.627" transform="translate(-28.824 -32.443)" fill="#12263f"/>
      </g>
    </g>
  </g>
</svg>
