<svg xmlns="http://www.w3.org/2000/svg" xmlns:xlink="http://www.w3.org/1999/xlink" width="396" height="844" viewBox="0 0 396 844">
  <defs>
    <clipPath id="clip-path">
      <path id="Trazado_997580" data-name="Trazado 997580" d="M0,57.451A57.451,57.451,0,1,0,57.451,0,57.451,57.451,0,0,0,0,57.451" fill="#2e5c6c"/>
    </clipPath>
    <clipPath id="clip-path-2">
      <path id="Trazado_997581" data-name="Trazado 997581" d="M0,57.451A57.451,57.451,0,1,0,57.451,0,57.451,57.451,0,0,0,0,57.451" fill="#004b84"/>
    </clipPath>
    <clipPath id="clip-path-3">
      <path id="Trazado_997582" data-name="Trazado 997582" d="M0,57.451A57.451,57.451,0,1,0,57.451,0,57.45,57.45,0,0,0,0,57.451" fill="#004b84"/>
    </clipPath>
    <clipPath id="clip-path-5">
      <path id="Trazado_997588" data-name="Trazado 997588" d="M0,57.451A57.45,57.45,0,1,0,57.451,0,57.451,57.451,0,0,0,0,57.451" fill="#004b84"/>
    </clipPath>
    <clipPath id="clip-path-6">
      <rect id="Rectángulo_454905" data-name="Rectángulo 454905" width="64.692" height="62.754" fill="#fff"/>
    </clipPath>
    <clipPath id="clip-path-7">
      <rect id="Rectángulo_454906" data-name="Rectángulo 454906" width="57.941" height="56.084" fill="#fff"/>
    </clipPath>
    <clipPath id="clip-path-8">
      <rect id="Rectángulo_454907" data-name="Rectángulo 454907" width="54.441" height="57.479" fill="#fff"/>
    </clipPath>
    <clipPath id="clip-path-9">
      <rect id="Rectángulo_454908" data-name="Rectángulo 454908" width="56.942" height="53.837" fill="#fff"/>
    </clipPath>
    <clipPath id="clip-path-10">
      <rect id="Rectángulo_454910" data-name="Rectángulo 454910" width="52.838" height="52.547" fill="#fff"/>
    </clipPath>
  </defs>
  <g id="Grupo_1190328" data-name="Grupo 1190328" transform="translate(10968 9160)">
    <rect id="Rectángulo_454923" data-name="Rectángulo 454923" width="396" height="844" rx="15" transform="translate(-10968 -9160)" fill="#ffe9f3"/>
    <g id="Rectángulo_454928" data-name="Rectángulo 454928" transform="translate(-10958.999 -9107.5)" fill="#ccdbe6" stroke="#004b84" stroke-width="2">
      <rect width="128.783" height="147" rx="12" stroke="none"/>
      <rect x="1" y="1" width="126.783" height="145" rx="11" fill="none"/>
    </g>
    <g id="Rectángulo_454936" data-name="Rectángulo 454936" transform="translate(-10958.999 -8806.351)" fill="#ccdbe6" stroke="#004b84" stroke-width="2">
      <rect width="128.783" height="147" rx="12" stroke="none"/>
      <rect x="1" y="1" width="126.783" height="145" rx="11" fill="none"/>
    </g>
    <text id="El_objetivo_final_del_proyecto" data-name="El objetivo final del proyecto" transform="translate(-10941.57 -9052)" fill="#12263f" font-size="16" font-family="SegoeUI, Segoe UI"><tspan x="-36.855" y="17">El objetivo </tspan><tspan x="-28" y="39">final del </tspan><tspan x="-31.32" y="61">proyecto</tspan></text>
    <text id="Justificación_del_proyecto_dentro_de_la_organización" data-name="Justificación del proyecto dentro de la organización" transform="translate(-10941.57 -8761.405)" fill="#12263f" font-size="16" font-family="SegoeUI, Segoe UI"><tspan x="4.483" y="17">Justificación </tspan><tspan x="2.62" y="39">del proyecto </tspan><tspan x="4.077" y="61">dentro de la </tspan><tspan x="1.714" y="83">organización</tspan></text>
    <rect id="Rectángulo_454929" data-name="Rectángulo 454929" width="128.783" height="55" rx="8" transform="translate(-10958.999 -9127)" fill="#004b84"/>
    <rect id="Rectángulo_454935" data-name="Rectángulo 454935" width="128.783" height="55" rx="8" transform="translate(-10958.999 -8825.851)" fill="#004b84"/>
    <text id="Resultado_único" data-name="Resultado único" transform="translate(-10947.271 -9122.5)" fill="#fff" font-size="17" font-family="SegoeUI-Bold, Segoe UI" font-weight="700"><tspan x="13.09" y="18">Resultado </tspan><tspan x="30.687" y="40">único</tspan></text>
    <text id="Viabilidad_y_pertinencia" data-name="Viabilidad y pertinencia" transform="translate(-10947.271 -8821.351)" fill="#fff" font-size="17" font-family="SegoeUI-Bold, Segoe UI" font-weight="700"><tspan x="5.469" y="18">Viabilidad y </tspan><tspan x="7.491" y="40">pertinencia</tspan></text>
    <g id="Rectángulo_454937" data-name="Rectángulo 454937" transform="translate(-10958.999 -8504.351)" fill="#ccdbe6" stroke="#004b84" stroke-width="2">
      <rect width="128.783" height="147" rx="12" stroke="none"/>
      <rect x="1" y="1" width="126.783" height="145" rx="11" fill="none"/>
    </g>
    <text id="Entorno_en_el_que_opera_el_proyecto" data-name="Entorno en el que opera el proyecto" transform="translate(-10941.57 -8449)" fill="#12263f" font-size="16" font-family="SegoeUI, Segoe UI"><tspan x="-38.871" y="17">Entorno en </tspan><tspan x="-44.352" y="39">el que opera </tspan><tspan x="-39.633" y="61">el proyecto</tspan></text>
    <rect id="Rectángulo_454938" data-name="Rectángulo 454938" width="128.783" height="55" rx="8" transform="translate(-10958.999 -8523.851)" fill="#004b84"/>
    <text id="Contexto_organizacional" data-name="Contexto organizacional" transform="translate(-10952.271 -8519.351)" fill="#fff" font-size="17" font-family="SegoeUI-Bold, Segoe UI" font-weight="700"><tspan x="20.982" y="18">Contexto </tspan><tspan x="1.671" y="40">organizaciona</tspan></text>
    <g id="Rectángulo_454928-2" data-name="Rectángulo 454928" transform="translate(-10709.672 -8957.5)" fill="#c2ebf9" stroke="#2e5c6c" stroke-width="2">
      <rect width="128.783" height="147" rx="12" stroke="none"/>
      <rect x="1" y="1" width="126.783" height="145" rx="11" fill="none"/>
    </g>
    <text id="Evaluación_exhaustiva_de_la_viabilidad" data-name="Evaluación exhaustiva de la viabilidad" transform="translate(-10692.243 -8912.555)" fill="#12263f" font-size="16" font-family="SegoeUI, Segoe UI"><tspan x="9.632" y="17">Evaluación </tspan><tspan x="10.038" y="39">exhaustiva </tspan><tspan x="29.87" y="61">de la </tspan><tspan x="13.116" y="83">viabilidad</tspan></text>
    <rect id="Rectángulo_454929-2" data-name="Rectángulo 454929" width="128.783" height="55" rx="8" transform="translate(-10709.672 -8977)" fill="#2e5c6c"/>
    <text id="Análisis_riguroso" data-name="Análisis riguroso" transform="translate(-10697.943 -8972.5)" fill="#fff" font-size="17" font-family="SegoeUI-Bold, Segoe UI" font-weight="700"><tspan x="22.245" y="18">Análisis </tspan><tspan x="18.946" y="40">riguroso</tspan></text>
    <g id="Rectángulo_454928-3" data-name="Rectángulo 454928" transform="translate(-10709.672 -8654.905)" fill="#c2ebf9" stroke="#2e5c6c" stroke-width="2">
      <rect width="128.783" height="147" rx="12" stroke="none"/>
      <rect x="1" y="1" width="126.783" height="145" rx="11" fill="none"/>
    </g>
    <text id="Duración_limitada_del_proyecto" data-name="Duración limitada del proyecto" transform="translate(-10692.243 -8601)" fill="#12263f" font-size="16" font-family="SegoeUI, Segoe UI"><tspan x="-31.836" y="17">Duración </tspan><tspan x="-41.289" y="39">limitada del </tspan><tspan x="-31.32" y="61">proyecto</tspan></text>
    <rect id="Rectángulo_454929-3" data-name="Rectángulo 454929" width="128.783" height="55" rx="8" transform="translate(-10709.672 -8674.405)" fill="#2e5c6c"/>
    <text id="Temporalidad" transform="translate(-10699.443 -8658.405)" fill="#fff" font-size="17" font-family="SegoeUI-Bold, Segoe UI" font-weight="700"><tspan x="4.471" y="18">Temporalida</tspan></text>
    <g id="Grupo_1177708" data-name="Grupo 1177708" transform="translate(-10738.394 -8950.94) rotate(90)">
      <g id="Grupo_1177707" data-name="Grupo 1177707" clip-path="url(#clip-path)">
        <rect id="Rectángulo_454881" data-name="Rectángulo 454881" width="114.902" height="114.903" transform="translate(0 0)" fill="#2e5c6c"/>
      </g>
    </g>
    <g id="Grupo_1177710" data-name="Grupo 1177710" transform="translate(-10687.394 -9101.78) rotate(90)">
      <g id="Grupo_1177709" data-name="Grupo 1177709" clip-path="url(#clip-path-2)">
        <rect id="Rectángulo_454882" data-name="Rectángulo 454882" width="114.902" height="114.903" transform="translate(0 0)" fill="#004b84"/>
      </g>
    </g>
    <g id="Grupo_1177712" data-name="Grupo 1177712" transform="translate(-10687.394 -8800.087) rotate(90)">
      <g id="Grupo_1177711" data-name="Grupo 1177711" clip-path="url(#clip-path-3)">
        <rect id="Rectángulo_454883" data-name="Rectángulo 454883" width="114.901" height="114.903" transform="translate(0 0)" fill="#004b84"/>
      </g>
    </g>
    <g id="Grupo_1177714" data-name="Grupo 1177714" transform="translate(-10738.394 -8649.195) rotate(90)">
      <g id="Grupo_1177713" data-name="Grupo 1177713" clip-path="url(#clip-path)">
        <rect id="Rectángulo_454884" data-name="Rectángulo 454884" width="114.901" height="114.903" transform="translate(0 0)" fill="#2e5c6c"/>
      </g>
    </g>
    <g id="Grupo_1177724" data-name="Grupo 1177724" transform="translate(-10687.394 -8498.322) rotate(90)">
      <g id="Grupo_1177723" data-name="Grupo 1177723" clip-path="url(#clip-path-5)">
        <rect id="Rectángulo_454889" data-name="Rectángulo 454889" width="114.9" height="114.903" transform="translate(0 0)" fill="#004b84"/>
      </g>
    </g>
    <g id="Grupo_1177744" data-name="Grupo 1177744" transform="translate(-10776.748 -9075.807)">
      <g id="Grupo_1177729" data-name="Grupo 1177729" clip-path="url(#clip-path-6)">
        <path id="Trazado_997590" data-name="Trazado 997590" d="M1.859,8.292A1.116,1.116,0,0,1,.3,8.281,1.171,1.171,0,0,1,.419,6.6L3.607,3.4c-.541-.334-.956-.648-1.013-1.094A1.14,1.14,0,0,1,3.5,1.042L7.19.061c2.465-.655.618,4.161.221,5.36A1.009,1.009,0,0,1,6.2,5.969c-.4-.08-.7-.454-.936-1.017Z" transform="translate(3.989 52.214)" fill="#fff"/>
        <path id="Trazado_997591" data-name="Trazado 997591" d="M7.532,3.463c.371,1.375,1.344,3.967.759,4.75a1.122,1.122,0,0,1-1.117.322L3.454,7.552a1.155,1.155,0,0,1-.865-1.094c0-.576.478-.9,1.081-1.224L.288,1.835A1.111,1.111,0,0,1,.252.383,1.1,1.1,0,0,1,1.728.218L5.249,3.624c.23-.477.539-.935.958-1.012a1.107,1.107,0,0,1,1.325.85" transform="translate(3.986 4.163)" fill="#fff"/>
        <path id="Trazado_997592" data-name="Trazado 997592" d="M33.952,62.733l-3.061.021a2.577,2.577,0,0,1-2.642-2.522c-.05-1.2.07-2.315-.045-3.523A25.665,25.665,0,0,1,6.982,35.491C5,34.978,0,36.583,0,32.929L0,29.77a2.365,2.365,0,0,1,2.229-2.395l4.739-.086A25.673,25.673,0,0,1,28.2,6.055l.049-3.611a2.438,2.438,0,0,1,2.2-2.386,29.7,29.7,0,0,1,3.786,0,2.407,2.407,0,0,1,2.1,2.255l.105,3.739A25.662,25.662,0,0,1,57.643,27.319l4.6.041c2.926.026,2.434,3.658,2.4,5.56a2.386,2.386,0,0,1-2.166,2.434l-4.827.1A25.71,25.71,0,0,1,36.469,56.7c-.222,1.283.01,2.446-.114,3.708a2.468,2.468,0,0,1-2.4,2.323M13.715,27.25a19.081,19.081,0,0,1,14.522-14.5L28.22,8.318A23.362,23.362,0,0,0,9.236,27.311a26.232,26.232,0,0,0,4.479-.061m37.218.08,4.463-.018A23.436,23.436,0,0,0,36.422,8.317a36.237,36.237,0,0,0,.03,4.477A19.046,19.046,0,0,1,50.932,27.33m-2.19,7.776a3.1,3.1,0,0,1-1.183-2.419l.018-3.121c0-.792.838-1.384,1.115-2A16.761,16.761,0,0,0,36.357,15.058c-.9,2.489-3.09,2.079-5.462,2.033a2.92,2.92,0,0,1-2.662-2.047A16.873,16.873,0,0,0,15.885,27.7a3.043,3.043,0,0,1,1.188,2.536l0,2.222A3.553,3.553,0,0,1,15.9,35.134,16.9,16.9,0,0,0,28.274,47.717,2.687,2.687,0,0,1,30.9,45.694l2.676-.012a2.76,2.76,0,0,1,2.774,2.033A16.947,16.947,0,0,0,48.742,35.106M28.165,49.965A19.07,19.07,0,0,1,13.689,35.457a23.236,23.236,0,0,0-4.468.039,23.511,23.511,0,0,0,18.991,18.97,34.368,34.368,0,0,0-.046-4.5m8.357,4.483A23.49,23.49,0,0,0,55.394,35.42l-4.453.022a19.165,19.165,0,0,1-14.5,14.536,19.977,19.977,0,0,0,.079,4.47" transform="translate(0 0)" fill="#fff"/>
        <path id="Trazado_997593" data-name="Trazado 997593" d="M8.246,6.69A1.126,1.126,0,0,1,8.29,8.227a1.054,1.054,0,0,1-1.424.144L3.34,4.954c-.294.567-.634.991-1.078,1.025a1.158,1.158,0,0,1-1.28-1.01L.046,1.455A1.158,1.158,0,0,1,.253.394,1.176,1.176,0,0,1,1.461.044L4.818.935c.62.165,1.037.461,1.119.963.112.686-.285,1.09-.989,1.413Z" transform="translate(52.059 52.24)" fill="#fff"/>
        <path id="Trazado_997594" data-name="Trazado 997594" d="M1.393,8.528A1.1,1.1,0,0,1,.224,8.171,1.3,1.3,0,0,1,.053,7.059L.983,3.609A1.2,1.2,0,0,1,2.051,2.594c.563-.043.976.411,1.281,1.046L6.787.266A1.071,1.071,0,0,1,8.351.435a1.166,1.166,0,0,1-.135,1.478L4.861,5.319c.689.173,1.073.511,1.082,1.1A1.145,1.145,0,0,1,5.01,7.6Z" transform="translate(52.064 4.161)" fill="#fff"/>
        <path id="Trazado_997595" data-name="Trazado 997595" d="M18.6,23.183l-6.44-2.349L5.585,23.24a1.024,1.024,0,0,1-1.316-.9l.223-7.113L.279,9.883A1.2,1.2,0,0,1,.021,8.92,1.134,1.134,0,0,1,.8,8.076L7.409,6.218,11.152.625A1.253,1.253,0,0,1,12.026.01a1.147,1.147,0,0,1,1.144.533L16.92,6.172l6.53,1.875a1.147,1.147,0,0,1,.746.468,1.2,1.2,0,0,1,.035,1.167L19.9,15.216l.218,6.829A1.089,1.089,0,0,1,18.6,23.183" transform="translate(20.12 19.75)" fill="#fff"/>
      </g>
    </g>
    <g id="Grupo_1177740" data-name="Grupo 1177740" transform="translate(-10824.814 -8921.386)">
      <g id="Grupo_1177731" data-name="Grupo 1177731" clip-path="url(#clip-path-7)">
        <path id="Trazado_997596" data-name="Trazado 997596" d="M30.2,15.1A15.1,15.1,0,1,1,15.1,0,15.1,15.1,0,0,1,30.2,15.1M16.55,25.55c1.074-2.55.641-1.11,3.312-2.645l1.759.675a19.874,19.874,0,0,0,1.935-1.942,9.681,9.681,0,0,0-.637-1.733L24.07,17.19l1.579-.638a10.546,10.546,0,0,0,.022-2.819l-1.7-.829a12.654,12.654,0,0,0-1.038-2.51L23.55,8.56A16.885,16.885,0,0,0,21.6,6.653a15.346,15.346,0,0,0-1.737.646A13.759,13.759,0,0,0,17.3,6.231l-.8-1.684a7.281,7.281,0,0,0-2.845.039c-.347.456-.313,1.229-.728,1.572-.863.437-1.822.646-2.632,1.15a8.867,8.867,0,0,0-1.707-.669A9.41,9.41,0,0,0,6.759,8.547c-.3.548.629,1.214.459,1.684L6.251,12.9l-1.708.8a10.717,10.717,0,0,0,.006,2.8l1.687.789a13.122,13.122,0,0,0,1.057,2.592,9.357,9.357,0,0,0-.618,1.756,11.54,11.54,0,0,0,1.972,1.912c2.756-1.073,1.272-.4,4.261.41a15.7,15.7,0,0,1,.738,1.666,5.914,5.914,0,0,0,2.9-.078" transform="translate(5.237 5.241)" fill="#fff"/>
        <path id="Trazado_997597" data-name="Trazado 997597" d="M40.68,20.34A20.34,20.34,0,1,1,20.34,0,20.34,20.34,0,0,1,40.68,20.34m-3.3,0A17.037,17.037,0,1,0,20.339,37.378,17.037,17.037,0,0,0,37.376,20.341" transform="translate(0 0)" fill="#fff"/>
        <path id="Trazado_997598" data-name="Trazado 997598" d="M10.391,5.2A5.2,5.2,0,1,1,5.2,0a5.2,5.2,0,0,1,5.2,5.2" transform="translate(15.145 15.146)" fill="#fff"/>
        <path id="Trazado_997599" data-name="Trazado 997599" d="M14.362,18.075a1.821,1.821,0,0,1-2.574.115L.609,7.374A1.872,1.872,0,0,1,.5,4.717L4.693.4A1.912,1.912,0,0,1,7.143.491L18.19,11.208A1.928,1.928,0,0,1,18.4,13.94Z" transform="translate(39.071 37.415)" fill="#fff"/>
        <path id="Trazado_997600" data-name="Trazado 997600" d="M3.5,7.116,0,3.828A30.4,30.4,0,0,0,3.441,0L6.989,3.449Z" transform="translate(34.973 33.374)" fill="#fff"/>
      </g>
    </g>
    <g id="Grupo_1177741" data-name="Grupo 1177741" transform="translate(-10772.064 -8771.225)">
      <g id="Grupo_1177733" data-name="Grupo 1177733" clip-path="url(#clip-path-8)">
        <path id="Trazado_997601" data-name="Trazado 997601" d="M18.942,10.13c-1.325.008-2.617-.067-3.938.032a2.444,2.444,0,0,0-2.155,2.687l-1.786.729a2.393,2.393,0,0,0-3.572-.246L4.783,16.036a2.605,2.605,0,0,0-.6,2.393H0L.044,10C.072,4.661,6.265.841,11.06,0A10.41,10.41,0,0,0,23.2.01c4.717.775,11.007,4.6,11.041,10l.053,8.419-4.168.007a2.8,2.8,0,0,0-.688-2.484l-2.626-2.611a2.392,2.392,0,0,0-3.565.215,13.275,13.275,0,0,1-1.813-.687,2.473,2.473,0,0,0-2.488-2.734" transform="translate(10.152 17.597)" fill="#fff"/>
        <path id="Trazado_997602" data-name="Trazado 997602" d="M18.137,9.068A9.068,9.068,0,1,1,9.069,0a9.068,9.068,0,0,1,9.068,9.068" transform="translate(18.226)" fill="#fff"/>
        <path id="Trazado_997603" data-name="Trazado 997603" d="M11.2,5.6A5.6,5.6,0,1,1,5.6,0a5.6,5.6,0,0,1,5.6,5.6M4.979,8.047,8.9,4.123a.678.678,0,0,0-.053-.975.717.717,0,0,0-.914,0L4.547,6.508c-.565-.237-1.394-1.8-2.114-1.244a.72.72,0,0,0-.149,1.03c.675.758,2.03,2.421,2.7,1.754" transform="translate(0 11.701)" fill="#fff"/>
        <path id="Trazado_997604" data-name="Trazado 997604" d="M6.708,18.313a3.243,3.243,0,0,1,.018,1.457l-3.7-.027A2.977,2.977,0,0,1,.05,16.991L0,.142A1.954,1.954,0,0,1,1.337.091l.023,16.5A1.771,1.771,0,0,0,3.2,18.323Z" transform="translate(4.94 24.252)" fill="#fff"/>
        <path id="Trazado_997605" data-name="Trazado 997605" d="M11.2,5.6A5.6,5.6,0,1,1,5.6,0a5.6,5.6,0,0,1,5.6,5.6M6.652,5.582,8.114,4a.642.642,0,0,0-.1-.84A.671.671,0,0,0,7.1,3.138L5.631,4.527c-.661-.265-1.747-2.281-2.5-1.312-.655.837.977,1.627,1.434,2.405-.544.8-2.137,1.585-1.388,2.424C3.9,8.862,4.947,6.975,5.6,6.653c.71.409,1.724,2.288,2.479,1.322.647-.828-.99-1.628-1.427-2.394" transform="translate(43.24 11.7)" fill="#fff"/>
        <path id="Trazado_997606" data-name="Trazado 997606" d="M.119,19.774a2.581,2.581,0,0,1-.033-1.437l3.882-.07a1.718,1.718,0,0,0,1.47-1.849L5.44.072A3.826,3.826,0,0,1,6.817.055L6.8,16.6a3.178,3.178,0,0,1-3.209,3.147Z" transform="translate(42.869 24.261)" fill="#fff"/>
        <path id="Trazado_997607" data-name="Trazado 997607" d="M15.987,28.36l-3.541,0c-1.643,0-.859-2.053-1.25-2.413a22.457,22.457,0,0,1-3.087-1.28c-.551-.288-1.461,1.811-2.446.95-1-.877-1.869-1.845-2.818-2.781s.668-1.866.97-2.428A16.152,16.152,0,0,1,2.4,17.109c-.529-.345-2.373.392-2.385-1.13-.01-1.252-.045-2.492.015-3.736.063-1.3,1.7-.752,2.407-1A15.331,15.331,0,0,1,3.8,7.884C3.287,7.208,1.913,6.4,2.918,5.4L5.544,2.8c.958-.949,1.9.782,2.412.934,2.726-1.567,3.454-.588,3.365-2.428C11.282.525,11.668,0,12.431,0l3.551.007c1.495,0,.955,1.707,1.181,2.379a19.968,19.968,0,0,1,3.144,1.306c.509.268,1.4-1.867,2.458-.938.961.846,1.8,1.782,2.717,2.677.974.953-.389,1.788-.921,2.469a17.622,17.622,0,0,1,1.4,3.236c.209.547,2.372-.445,2.372,1.183v3.751c0,1.334-1.678.78-2.412.994a14.8,14.8,0,0,1-1.275,3.311c-.04.516,1.989,1.394.83,2.546l-2.619,2.6c-1.056,1.048-2.041-1.1-2.521-.869a24.813,24.813,0,0,1-3.119,1.277c-.341.319.333,2.433-1.229,2.431m6.18-14.194a7.976,7.976,0,1,0-7.975,7.975,7.975,7.975,0,0,0,7.975-7.975" transform="translate(13.101 29.12)" fill="#fff"/>
        <path id="Trazado_997608" data-name="Trazado 997608" d="M13.132,6.566A6.566,6.566,0,1,1,6.566,0a6.566,6.566,0,0,1,6.566,6.566" transform="translate(20.728 36.719)" fill="#fff"/>
      </g>
    </g>
    <g id="Grupo_1177742" data-name="Grupo 1177742" transform="translate(-10824.314 -8618.148)">
      <g id="Grupo_1177735" data-name="Grupo 1177735" clip-path="url(#clip-path-9)">
        <path id="Trazado_997609" data-name="Trazado 997609" d="M31.41,53.79l-8.983.045-.084-4.523a23.257,23.257,0,0,1-8.123-3.35L11,49.105,4.7,42.8l3.156-3.226a23.184,23.184,0,0,1-3.384-8.149L0,31.379V22.461l4.473-.047a23.16,23.16,0,0,1,3.384-8.147L4.7,11.04,11,4.734l3.228,3.151a23.433,23.433,0,0,1,8.157-3.38L22.455,0l8.918.009.068,4.512a23.076,23.076,0,0,1,8.071,3.342L42.742,4.73l6.339,6.309-3.158,3.225A23.3,23.3,0,0,1,49.3,22.41l4.475.062v8.894c-1.48.155-2.863-.134-4.249.116-.4.072-.649.394-1.169.293a12.244,12.244,0,0,0-5.416.455,16.978,16.978,0,1,0-8.12,9.471,14.145,14.145,0,0,0,.676,6.37,24.048,24.048,0,0,1-4.062,1.27Z" fill="#fff"/>
        <path id="Trazado_997610" data-name="Trazado 997610" d="M26.055,13.028A13.028,13.028,0,1,1,13.028,0,13.028,13.028,0,0,1,26.055,13.028M12.025,15.1a1.167,1.167,0,0,0,1.453.5c1.067-.521.149-1.617,1.05-1.983a1.108,1.108,0,0,0,.691-1.235c-.116-.525-.523-.748-1.12-.845L14.083,3.8A1.044,1.044,0,0,0,13,2.653a1.027,1.027,0,0,0-1,.965l-.03,9.057-5.3,3.083A1.016,1.016,0,0,0,6.3,17.182a1,1,0,0,0,1.31.418Z" transform="translate(13.862 13.639)" fill="#fff"/>
        <path id="Trazado_997611" data-name="Trazado 997611" d="M20.113,10.056A10.057,10.057,0,1,1,10.056,0,10.057,10.057,0,0,1,20.113,10.056M6.577,14.441a1.456,1.456,0,0,0,2.133.282l7.161-7.135A1.472,1.472,0,0,0,16,5.552a1.441,1.441,0,0,0-2.074-.116L7.93,11.388,5.8,8.8a1.408,1.408,0,0,0-2-.143,1.473,1.473,0,0,0-.161,2.086Z" transform="translate(36.829 33.724)" fill="#fff"/>
      </g>
    </g>
    <g id="Grupo_1177743" data-name="Grupo 1177743" transform="translate(-10770.984 -8467.356)">
      <g id="Grupo_1177737" data-name="Grupo 1177737" clip-path="url(#clip-path-10)">
        <path id="Trazado_997612" data-name="Trazado 997612" d="M15.831,44.851l-.007,7.68-14.4.016A1.272,1.272,0,0,1,0,51.207a1.285,1.285,0,0,1,1.422-1.266,3.842,3.842,0,0,0,1.191-.063L2.629,9.872a2.571,2.571,0,0,1,2.1-2.488L36.469.072a2.606,2.606,0,0,1,3.185,2.676l0,49.784-13.208.006-.027-7.954a2.666,2.666,0,0,0-2.582-2.594l-5.536.036a2.6,2.6,0,0,0-2.473,2.825m-1.384-24.03a1.363,1.363,0,0,0,1.4-1.291c.11-1.592.409-4.108-1.51-3.983-1.7.111-3.679-.423-3.769,1.252-.092,1.714-.4,4.018,1.37,4.02Zm7.938,0a1.363,1.363,0,0,0,1.4-1.291c.11-1.593.41-4.109-1.51-3.983-1.7.111-3.679-.423-3.769,1.252-.092,1.713-.4,4.018,1.37,4.02Zm7.938,0a1.363,1.363,0,0,0,1.4-1.291c.11-1.592.41-4.109-1.51-3.983-1.7.111-3.679-.423-3.769,1.252-.092,1.714-.4,4.018,1.37,4.02ZM14.447,28.759a1.363,1.363,0,0,0,1.4-1.291c.11-1.592.409-4.109-1.51-3.983-1.7.111-3.679-.424-3.769,1.252-.092,1.713-.4,4.018,1.37,4.02Zm7.938,0a1.363,1.363,0,0,0,1.4-1.291c.11-1.592.41-4.109-1.51-3.983-1.7.111-3.679-.424-3.769,1.252-.092,1.714-.4,4.018,1.37,4.02Zm7.938,0a1.363,1.363,0,0,0,1.4-1.291c.11-1.592.409-4.109-1.51-3.983-1.7.111-3.679-.424-3.769,1.252-.092,1.717-.4,4.018,1.37,4.02ZM14.447,36.7a1.362,1.362,0,0,0,1.4-1.291c.11-1.591.41-4.109-1.51-3.983-1.7.112-3.679-.424-3.769,1.252-.092,1.714-.4,4.018,1.37,4.02Zm7.938,0a1.363,1.363,0,0,0,1.4-1.291c.11-1.592.41-4.109-1.51-3.983-1.7.111-3.679-.424-3.769,1.252-.092,1.716-.4,4.018,1.37,4.02Zm7.938,0a1.363,1.363,0,0,0,1.4-1.291c.11-1.593.41-4.109-1.51-3.983-1.7.111-3.679-.423-3.769,1.252-.092,1.714-.4,4.018,1.37,4.02Z" transform="translate(0 0)" fill="#fff"/>
        <path id="Trazado_997613" data-name="Trazado 997613" d="M7.921,40.341c.637.369,2.446-.28,2.6,1.225.064.615-.226,1.48-1.013,1.482L0,43.071.018,0l6.6,3.3A2.573,2.573,0,0,1,7.924,5.575Z" transform="translate(42.305 9.46)" fill="#fff"/>
        <rect id="Rectángulo_454909" data-name="Rectángulo 454909" width="5.286" height="7.901" transform="translate(18.494 44.641)" fill="#fff"/>
      </g>
    </g>
    <path id="Trazado_998416" data-name="Trazado 998416" d="M-10082.428-8880.3v33.6" transform="translate(-19676.215 1038.071) rotate(90)" fill="none" stroke="#004b84" stroke-width="3"/>
    <path id="Trazado_998417" data-name="Trazado 998417" d="M-10082.428-8880.3v33.6" transform="translate(-19676.215 1340.016) rotate(90)" fill="none" stroke="#004b84" stroke-width="3"/>
    <path id="Trazado_998419" data-name="Trazado 998419" d="M-10082.428-8880.3v33.6" transform="translate(-1863.673 -18975.988) rotate(-90)" fill="none" stroke="#2e5c6c" stroke-width="3"/>
    <path id="Trazado_998420" data-name="Trazado 998420" d="M-10082.428-8880.3v33.6" transform="translate(-1863.673 -18673.729) rotate(-90)" fill="none" stroke="#2e5c6c" stroke-width="3"/>
    <path id="Trazado_998418" data-name="Trazado 998418" d="M-10082.428-8880.3v33.6" transform="translate(-19676.215 1641.417) rotate(90)" fill="none" stroke="#004b84" stroke-width="3"/>
    <circle id="Elipse_13691" data-name="Elipse 13691" cx="5.5" cy="5.5" r="5.5" transform="translate(-10819.216 -9049.93) rotate(90)" fill="#004b84"/>
    <circle id="Elipse_13692" data-name="Elipse 13692" cx="5.5" cy="5.5" r="5.5" transform="translate(-10819.216 -8747.984) rotate(90)" fill="#004b84"/>
    <circle id="Elipse_13694" data-name="Elipse 13694" cx="5.5" cy="5.5" r="5.5" transform="translate(-10720.672 -8887.989) rotate(-90)" fill="#2e5c6c"/>
    <circle id="Elipse_13695" data-name="Elipse 13695" cx="5.5" cy="5.5" r="5.5" transform="translate(-10720.672 -8585.73) rotate(-90)" fill="#2e5c6c"/>
    <circle id="Elipse_13693" data-name="Elipse 13693" cx="5.5" cy="5.5" r="5.5" transform="translate(-10819.216 -8446.583) rotate(90)" fill="#004b84"/>
  </g>
</svg>
