<svg xmlns="http://www.w3.org/2000/svg" xmlns:xlink="http://www.w3.org/1999/xlink" width="84" height="84" viewBox="0 0 84 84">
  <defs>
    <clipPath id="clip-path">
      <rect id="Rectángulo_454986" data-name="Rectángulo 454986" width="52.317" height="53.135" fill="#12263f"/>
    </clipPath>
  </defs>
  <g id="Grupo_1177770" data-name="Grupo 1177770" transform="translate(-179.668 -5521)">
    <rect id="Rectángulo_402006" data-name="Rectángulo 402006" width="84" height="84" rx="5" transform="translate(179.668 5521)" fill="#fe93c4"/>
    <g id="Grupo_1190327" data-name="Grupo 1190327" transform="translate(198.943 5536.795)">
      <g id="Grupo_1177795" data-name="Grupo 1177795" clip-path="url(#clip-path)">
        <path id="Trazado_997677" data-name="Trazado 997677" d="M28.616,37.532l-23.34.019a.813.813,0,0,0-.853.8.883.883,0,0,0,.85.955l22.822.01c-.106.973-.192,1.842-.242,2.865L5.3,42.2a.871.871,0,0,0-.877.787.858.858,0,0,0,.866.97l22.757.013a28.566,28.566,0,0,0,.814,2.881l-23.584.022A.877.877,0,0,0,5.2,48.62l24.624.025a14.09,14.09,0,0,0,4.518,4.489H1.04A1.052,1.052,0,0,1,0,52.03V1.094A1.013,1.013,0,0,1,1.035.011L32.545,0l.039,6.183A2.259,2.259,0,0,0,34.824,8.4L41,8.417,41.01,28.7a14.433,14.433,0,0,0-4.378.736c-.022-.816-.346-1.274-1.106-1.274l-30.241.009a.869.869,0,0,0-.853.818.824.824,0,0,0,.844.935l29.916.041a17.566,17.566,0,0,0-3.773,2.893l-25.97,0c-.581,0-.94.254-1.016.735-.055.352.153,1.018.767,1.019l24.71.066a24,24,0,0,0-1.295,2.849M20.172,19.485A3.657,3.657,0,0,1,22.5,17.562a2.156,2.156,0,0,0,1.5-2.7,3.773,3.773,0,0,1,.56-2.99,2.163,2.163,0,0,0-.557-3,3.622,3.622,0,0,1-1.5-2.557,2.174,2.174,0,0,0-2.37-2.055,3.7,3.7,0,0,1-2.876-1.045,2.129,2.129,0,0,0-3.073.016,3.7,3.7,0,0,1-2.912,1.029A2.121,2.121,0,0,0,8.987,6.194a3.8,3.8,0,0,1-1.555,2.7,2.142,2.142,0,0,0-.509,3.024A3.677,3.677,0,0,1,7.439,14.9,2.15,2.15,0,0,0,8.953,17.56a3.719,3.719,0,0,1,2.333,1.921,2.186,2.186,0,0,0,3,1.075c2.572-1.142,4.486,1.767,5.883-1.072m-.59,5.507L21.265,22.4l3.1.517-1.512-3.532C21.306,19.65,21.8,22.106,18.5,22.6a15.883,15.883,0,0,0,1.086,2.393m-7.713.971L13.445,22.6a3.872,3.872,0,0,1-3.436-1.841,3.123,3.123,0,0,0-.943-1.207L7.119,23.747l3.094-.393Z" transform="translate(0 0.001)" fill="#12263f"/>
        <path id="Trazado_997678" data-name="Trazado 997678" d="M190.153,183.414a11.324,11.324,0,1,1-11.323-11.323,11.323,11.323,0,0,1,11.323,11.323m-13.911,4.619a1.666,1.666,0,0,0,2.362-.126l6.675-6.772a1.647,1.647,0,0,0-.05-2.272,1.668,1.668,0,0,0-2.3-.064l-5.585,5.582-2.488-2.454a1.681,1.681,0,1,0-2.374,2.377Z" transform="translate(-137.836 -141.609)" fill="#12263f"/>
        <path id="Trazado_997679" data-name="Trazado 997679" d="M194.531,7.024a.751.751,0,0,1-.81-.834c.088-1.947-.109-3.8.1-5.776l6.47,6.486a54.222,54.222,0,0,1-5.763.125" transform="translate(-159.407 -0.341)" fill="#12263f"/>
        <path id="Trazado_997680" data-name="Trazado 997680" d="M68.971,40.63a5.443,5.443,0,1,1-5.443-5.443,5.443,5.443,0,0,1,5.443,5.443M63.11,42.9l3.616-3.287a.886.886,0,0,0-.025-1.363.9.9,0,0,0-1.221.111l-3,2.683L61.417,40.1a.869.869,0,0,0-1.153,1.289c1,1.058,1.925,2.353,2.846,1.516" transform="translate(-47.796 -28.954)" fill="#12263f"/>
      </g>
    </g>
  </g>
</svg>
