<svg xmlns="http://www.w3.org/2000/svg" xmlns:xlink="http://www.w3.org/1999/xlink" width="80" height="80" viewBox="0 0 80 80">
  <defs>
    <clipPath id="clip-path">
      <rect id="Rectángulo_455388" data-name="Rectángulo 455388" width="45.731" height="55.383" fill="#fff"/>
    </clipPath>
  </defs>
  <g id="Grupo_1177843" data-name="Grupo 1177843" transform="translate(-710 -1680.92)">
    <g id="Grupo_1119665" data-name="Grupo 1119665" transform="translate(534.111 -3840.08)">
      <rect id="Rectángulo_402006" data-name="Rectángulo 402006" width="80" height="80" rx="5" transform="translate(175.889 5521)" fill="#004b84"/>
    </g>
    <g id="Grupo_1190490" data-name="Grupo 1190490" transform="translate(727.134 1693.229)">
      <g id="Grupo_1190489" data-name="Grupo 1190489" clip-path="url(#clip-path)">
        <path id="Trazado_998598" data-name="Trazado 998598" d="M107.585,94.824l-3.166,1.87a1.193,1.193,0,0,1-1.622-.438l-5.154-8.624c-.413-.69.053-1.289.518-1.766L95.38,81.077a13.175,13.175,0,1,1,2.779-1.8l2.892,4.783c.519.037,1.356-.343,1.72.263l5.293,8.81a1.252,1.252,0,0,1-.479,1.694M100.228,69.21A10.528,10.528,0,1,0,89.7,79.739,10.528,10.528,0,0,0,100.228,69.21" transform="translate(-62.494 -45.776)" fill="#fff"/>
        <path id="Trazado_998599" data-name="Trazado 998599" d="M13.693,16.862c-.4.649-2.779-.6-2.844,1.221A3.242,3.242,0,0,1,7.1,21.364,3.364,3.364,0,0,1,4.511,18.1c-.026-.492-.267-1.012-.783-1.022L.007,17.006A16.654,16.654,0,0,1,15.715,0L15.68,4.037a5.072,5.072,0,0,0-4.317,4.886A5.122,5.122,0,0,0,15.6,13.9a33.433,33.433,0,0,0-1.9,2.96" transform="translate(-0.001)" fill="#fff"/>
        <path id="Trazado_998600" data-name="Trazado 998600" d="M50.915,234.265c-.155,3.252-3.778,2.741-6.341,2.66a2.626,2.626,0,0,1-2.58-2.451l-.056-2.939a2.741,2.741,0,0,1-2.735-2.588c-.048-.987.051-1.9-.055-2.86A2.777,2.777,0,0,1,37,224.972a2.744,2.744,0,0,1-.406-2.457h19.73a2.8,2.8,0,0,1-2.578,3.566c-.085.9-.009,1.748-.039,2.678a2.813,2.813,0,0,1-2.732,2.78,24.793,24.793,0,0,0-.065,2.728" transform="translate(-29.765 -181.62)" fill="#fff"/>
        <path id="Trazado_998601" data-name="Trazado 998601" d="M16.255,116.161l.049,6.032-9.02.04a31.285,31.285,0,0,0-1.6-8.537c-1.657-4.613-4.407-6.786-4.993-11.564a13.506,13.506,0,0,1,2.606-.024,5.084,5.084,0,0,0,5.413,4.311c2.552-.227,3.851-2.134,4.724-4.512-1.314,5.018-.64,10.147,2.819,14.255" transform="translate(-0.566 -83.177)" fill="#fff"/>
        <path id="Trazado_998602" data-name="Trazado 998602" d="M73.137,11.484A3.126,3.126,0,0,1,71.8,9.147a3,3,0,0,1,1.033-2.419c1.643-1.495,3.324-.371,3.333-1.836L76.2.026A16.586,16.586,0,0,1,90.131,9.081a15.121,15.121,0,0,0-14.2,3.122,4.426,4.426,0,0,1-2.792-.719" transform="translate(-58.604 -0.021)" fill="#fff"/>
        <path id="Trazado_998603" data-name="Trazado 998603" d="M104.387,194.5l-8.646-.021.028-4.044a15.461,15.461,0,0,0,8.71,3.391c.225.012.3.123.32.218.053.2-.013.456-.413.455" transform="translate(-78.146 -155.441)" fill="#fff"/>
        <path id="Trazado_998604" data-name="Trazado 998604" d="M142.839,94.242a1.086,1.086,0,0,1-1.249.916,1.2,1.2,0,0,1-.98-1.255l-.273-7.492a1.335,1.335,0,0,1,.355-1.046,1.6,1.6,0,0,1,1.125-.326,1.161,1.161,0,0,1,1.323,1.184Z" transform="translate(-114.544 -69.41)" fill="#fff"/>
        <path id="Trazado_998605" data-name="Trazado 998605" d="M143.1,155.744a1.429,1.429,0,1,1-1.429-1.429,1.429,1.429,0,0,1,1.429,1.429" transform="translate(-114.47 -125.955)" fill="#fff"/>
      </g>
    </g>
  </g>
</svg>
