<svg xmlns="http://www.w3.org/2000/svg" xmlns:xlink="http://www.w3.org/1999/xlink" width="128" height="128" viewBox="0 0 128 128">
  <defs>
    <clipPath id="clip-path">
      <rect id="Rectángulo_454800" data-name="Rectángulo 454800" width="127.998" height="127.488" fill="none"/>
    </clipPath>
    <linearGradient id="linear-gradient" x1="0.5" y1="-0.646" x2="0.5" y2="1.118" gradientUnits="objectBoundingBox">
      <stop offset="0" stop-color="#67ccf1"/>
      <stop offset="0.625" stop-color="#004b84"/>
      <stop offset="1" stop-color="#002d4f"/>
    </linearGradient>
    <clipPath id="clip-path-2">
      <rect id="Rectángulo_455398" data-name="Rectángulo 455398" width="64.747" height="64.754" fill="#fff"/>
    </clipPath>
  </defs>
  <g id="Grupo_1177857" data-name="Grupo 1177857" transform="translate(-1136.727 -7764.48)">
    <path id="Trazado_997475" data-name="Trazado 997475" d="M63.973,0A63.718,63.718,0,1,1,0,63.717,63.845,63.845,0,0,1,63.973,0Z" transform="translate(1136.781 7764.48)" fill="#fff"/>
    <g id="Grupo_1177602" data-name="Grupo 1177602" transform="translate(1136.727 7764.993)">
      <g id="Grupo_1177525" data-name="Grupo 1177525">
        <g id="Grupo_1177524" data-name="Grupo 1177524" clip-path="url(#clip-path)">
          <path id="Trazado_997408" data-name="Trazado 997408" d="M64,127.488a63.744,63.744,0,1,1,64-63.744,63.944,63.944,0,0,1-64,63.744M64,1.663a62.081,62.081,0,1,0,62.33,62.081A62.275,62.275,0,0,0,64,1.663" fill="#002d4f"/>
          <path id="Trazado_997409" data-name="Trazado 997409" d="M60.365,114.865A54.719,54.719,0,1,1,115.3,60.146a54.891,54.891,0,0,1-54.937,54.719m0-107.774a53.056,53.056,0,1,0,53.267,53.055A53.222,53.222,0,0,0,60.365,7.091" transform="translate(3.634 3.598)" fill="#002d4f"/>
          <path id="Trazado_997410" data-name="Trazado 997410" d="M56.731,102.241a45.693,45.693,0,1,1,45.876-45.693,45.837,45.837,0,0,1-45.876,45.693m0-89.723a44.031,44.031,0,1,0,44.207,44.03,44.17,44.17,0,0,0-44.207-44.03" transform="translate(7.268 7.196)" fill="#fff"/>
          <path id="Trazado_997411" data-name="Trazado 997411" d="M53.1,89.617A36.667,36.667,0,1,1,89.911,52.95,36.783,36.783,0,0,1,53.1,89.617m0-71.671a35,35,0,1,0,35.144,35,35.115,35.115,0,0,0-35.144-35" transform="translate(10.902 10.794)" fill="#fff"/>
          <path id="Trazado_997412" data-name="Trazado 997412" d="M49.462,76.992A27.641,27.641,0,1,1,77.214,49.352,27.728,27.728,0,0,1,49.462,76.992m0-53.618A25.978,25.978,0,1,0,75.544,49.352,26.059,26.059,0,0,0,49.462,23.374" transform="translate(14.537 14.392)" fill="#fff"/>
          <path id="Trazado_997413" data-name="Trazado 997413" d="M45.828,64.37A18.615,18.615,0,1,1,64.517,45.753,18.673,18.673,0,0,1,45.828,64.37m0-35.568a16.953,16.953,0,1,0,17.02,16.952A17,17,0,0,0,45.828,28.8" transform="translate(18.171 17.99)" fill="#fff"/>
          <path id="Trazado_997414" data-name="Trazado 997414" d="M42.194,51.744a9.589,9.589,0,1,1,9.628-9.588,9.62,9.62,0,0,1-9.628,9.588m0-17.515a7.926,7.926,0,1,0,7.959,7.927,7.953,7.953,0,0,0-7.959-7.927" transform="translate(21.805 21.588)" fill="#fff"/>
        </g>
      </g>
      <g id="Elipse_13614" data-name="Elipse 13614" transform="translate(10.388 10.387)" stroke="#002d4f" stroke-width="1" fill="url(#linear-gradient)">
        <ellipse cx="53.612" cy="53.356" rx="53.612" ry="53.356" stroke="none"/>
        <ellipse cx="53.612" cy="53.356" rx="53.112" ry="52.856" fill="none"/>
      </g>
    </g>
    <g id="Grupo_1190498" data-name="Grupo 1190498" transform="translate(1168.381 7795.82)">
      <g id="Grupo_1190497" data-name="Grupo 1190497" clip-path="url(#clip-path-2)">
        <path id="Trazado_998633" data-name="Trazado 998633" d="M90.143,175.477c-1.8.035-3.474.055-5.158-.009a2.018,2.018,0,0,1-1.814-2.432,25.367,25.367,0,0,1-3.639-1.539,2.026,2.026,0,0,1-2.887.557c-1.326-1.168-2.486-2.46-3.754-3.7a1.953,1.953,0,0,1,.369-3.064,22.458,22.458,0,0,1-1.481-3.7,2.617,2.617,0,0,1-1.856-.475,2.344,2.344,0,0,1-.675-1.8l0-4.256a2.694,2.694,0,0,1,.644-1.849c.385-.476,1.383-.3,1.823-.628l1.512-3.489c-.375-.506-.864-.977-.9-1.475a2.093,2.093,0,0,1,.647-1.745l3.56-3.521a2.008,2.008,0,0,1,3.018.479l3.531-1.627c.221-.808.335-2.209,1.558-2.284,1.891-.117,3.873-.053,5.786-.031,1.292.014,1.548,1.385,1.713,2.322l3.552,1.612a2.007,2.007,0,0,1,3.012-.472l3.56,3.521a2.177,2.177,0,0,1,.665,1.583c.013.576-.525,1.1-.9,1.633.457,1.145,1.094,2.4,1.467,3.655a2.053,2.053,0,0,1,2.481,2.111l-.022,4.857a2,2,0,0,1-2.489,1.854,18.69,18.69,0,0,1-1.5,3.67c.868.729,1.384,1.96.555,2.888-1.213,1.36-2.52,2.593-3.829,3.866a2.025,2.025,0,0,1-2.987-.482,21.986,21.986,0,0,1-3.6,1.493c.027,1.231-.525,2.456-1.947,2.483m3.778-18.322a6.315,6.315,0,1,0-6.315,6.314,6.315,6.315,0,0,0,6.315-6.314" transform="translate(-55.234 -110.756)" fill="#fff"/>
        <path id="Trazado_998634" data-name="Trazado 998634" d="M134.614,24.326c-2.525-.043-5-.108-7.609.028l-.03-14c-1.129-.337-2.547.321-3.327-1.071a1.915,1.915,0,0,1,.243-2.245L129.3.725a1.922,1.922,0,0,1,3.008,0L137.8,7.158a1.86,1.86,0,0,1,.158,2.122c-.771,1.41-2.185.734-3.332,1.075Z" transform="translate(-98.428 0)" fill="#fff"/>
        <path id="Trazado_998635" data-name="Trazado 998635" d="M17.274,84.122l-.109-5.185-6.838,0c-.212,1.174.306,2.862-1.254,3.48a1.946,1.946,0,0,1-2.064-.389L.6,76.5a1.861,1.861,0,0,1,.071-2.791l6.408-5.5a1.936,1.936,0,0,1,2.163-.253c1.429.655.831,2.4,1.114,3.38l7.661.106c4.586.063,7.767,5.371,6.667,10.267-3.363-.959-4.878-.016-7.4,2.409" transform="translate(0.001 -54.038)" fill="#fff"/>
        <path id="Trazado_998636" data-name="Trazado 998636" d="M204.689,78.911l-.1,5.251c-2.473-2.409-3.882-3.4-7.462-2.477-1.019-5.048,2.195-10.186,6.7-10.248l7.662-.105c.292-.976-.3-2.584.985-3.308a1.936,1.936,0,0,1,2.289.177l6.41,5.5a1.862,1.862,0,0,1,.072,2.791l-6.407,5.527a1.951,1.951,0,0,1-2.2.336c-1.464-.715-.869-2.285-1.143-3.42Z" transform="translate(-157.094 -54.029)" fill="#fff"/>
      </g>
    </g>
  </g>
</svg>
