<svg xmlns="http://www.w3.org/2000/svg" xmlns:xlink="http://www.w3.org/1999/xlink" width="96" height="96" viewBox="0 0 96 96">
  <defs>
    <clipPath id="clip-path">
      <rect id="Rectángulo_454800" data-name="Rectángulo 454800" width="95.999" height="95.612" fill="none"/>
    </clipPath>
    <linearGradient id="linear-gradient" x1="0.5" y1="-0.646" x2="0.5" y2="1.118" gradientUnits="objectBoundingBox">
      <stop offset="0" stop-color="#67ccf1"/>
      <stop offset="0.625" stop-color="#004b84"/>
      <stop offset="1" stop-color="#002d4f"/>
    </linearGradient>
    <clipPath id="clip-path-2">
      <rect id="Rectángulo_455380" data-name="Rectángulo 455380" width="46.253" height="48.336" fill="#fff"/>
    </clipPath>
  </defs>
  <g id="Grupo_1177694" data-name="Grupo 1177694" transform="translate(-1136.727 -7764.48)">
    <path id="Trazado_997475" data-name="Trazado 997475" d="M47.979,0A47.786,47.786,0,1,1,0,47.786,47.883,47.883,0,0,1,47.979,0Z" transform="translate(1136.768 7764.48)" fill="#fff"/>
    <g id="Grupo_1177602" data-name="Grupo 1177602" transform="translate(1136.727 7764.868)">
      <g id="Grupo_1177525" data-name="Grupo 1177525">
        <g id="Grupo_1177524" data-name="Grupo 1177524" clip-path="url(#clip-path)">
          <path id="Trazado_997408" data-name="Trazado 997408" d="M48,95.612A47.807,47.807,0,1,1,96,47.806,47.957,47.957,0,0,1,48,95.612M48,1.247A46.559,46.559,0,1,0,94.747,47.806,46.705,46.705,0,0,0,48,1.247" fill="#002d4f"/>
          <path id="Trazado_997409" data-name="Trazado 997409" d="M46.631,87.5a41.038,41.038,0,1,1,41.2-41.038A41.167,41.167,0,0,1,46.631,87.5m0-80.828a39.791,39.791,0,1,0,39.95,39.79,39.915,39.915,0,0,0-39.95-39.79" transform="translate(1.369 1.341)" fill="#002d4f"/>
          <path id="Trazado_997410" data-name="Trazado 997410" d="M45.262,79.392A34.269,34.269,0,1,1,79.669,45.124,34.377,34.377,0,0,1,45.262,79.392m0-67.29A33.022,33.022,0,1,0,78.417,45.124,33.127,33.127,0,0,0,45.262,12.1" transform="translate(2.737 2.683)" fill="#fff"/>
          <path id="Trazado_997411" data-name="Trazado 997411" d="M43.893,71.281a27.5,27.5,0,1,1,27.61-27.5,27.587,27.587,0,0,1-27.61,27.5m0-53.751A26.252,26.252,0,1,0,70.252,43.782,26.336,26.336,0,0,0,43.893,17.53" transform="translate(4.106 4.024)" fill="#fff"/>
          <path id="Trazado_997412" data-name="Trazado 997412" d="M42.525,63.171a20.73,20.73,0,1,1,20.814-20.73,20.8,20.8,0,0,1-20.814,20.73m0-40.212A19.483,19.483,0,1,0,62.086,42.441,19.544,19.544,0,0,0,42.525,22.958" transform="translate(5.475 5.365)" fill="#fff"/>
          <path id="Trazado_997413" data-name="Trazado 997413" d="M41.156,55.061A13.961,13.961,0,1,1,55.173,41.1,14,14,0,0,1,41.156,55.061m0-26.675A12.714,12.714,0,1,0,53.92,41.1,12.753,12.753,0,0,0,41.156,28.386" transform="translate(6.844 6.707)" fill="#fff"/>
          <path id="Trazado_997414" data-name="Trazado 997414" d="M39.787,46.949a7.192,7.192,0,1,1,7.221-7.191,7.215,7.215,0,0,1-7.221,7.191m0-13.136a5.944,5.944,0,1,0,5.969,5.945,5.965,5.965,0,0,0-5.969-5.945" transform="translate(8.212 8.048)" fill="#fff"/>
        </g>
      </g>
      <g id="Elipse_13614" data-name="Elipse 13614" transform="translate(7.859 7.858)" stroke="#002d4f" stroke-width="1" fill="url(#linear-gradient)">
        <ellipse cx="40.141" cy="39.948" rx="40.141" ry="39.948" stroke="none"/>
        <ellipse cx="40.141" cy="39.948" rx="39.641" ry="39.448" fill="none"/>
      </g>
    </g>
    <g id="Grupo_1190476" data-name="Grupo 1190476" transform="translate(1161.6 7788.099)">
      <g id="Grupo_1190475" data-name="Grupo 1190475" clip-path="url(#clip-path-2)">
        <path id="Trazado_998571" data-name="Trazado 998571" d="M32.173,122a19.877,19.877,0,0,1-6.135-.109l-2.927,3.731a22.527,22.527,0,0,1-5.822-2.523l.717-4.634a21.2,21.2,0,0,1-4.285-4.412l-4.665.584a22.37,22.37,0,0,1-2.331-5.9l3.782-2.76-.128-1.38,5.386-.661A13.6,13.6,0,1,0,40.2,94.964l3.935-3.728.853,1.04,4.627-.585a22.614,22.614,0,0,1,2.348,5.887l-3.8,2.794a20.138,20.138,0,0,1-.079,6.117l3.714,2.892a23.214,23.214,0,0,1-2.486,5.813l-4.662-.707a20.716,20.716,0,0,1-4.417,4.294l.591,4.658a22.135,22.135,0,0,1-5.914,2.345Z" transform="translate(-5.709 -77.449)" fill="#fff"/>
        <path id="Trazado_998572" data-name="Trazado 998572" d="M0,20.477a20.248,20.248,0,0,1,1.557-6.206l4.712.006A19.418,19.418,0,0,1,9.958,9.389l-1.3-4.505A22.5,22.5,0,0,1,14.107,1.64l3.377,3.331a20.06,20.06,0,0,1,6.059-.857L25.827,0a23.1,23.1,0,0,1,6.142,1.6L32,6.3c.332.265.688.326.978.633l-3.3,4.28A13.621,13.621,0,0,0,9.532,22.309l-5.378,1.5a6.8,6.8,0,0,1-.107-1.13Z" fill="#fff"/>
        <path id="Trazado_998573" data-name="Trazado 998573" d="M111.457,112.745l-13.665,0a2.406,2.406,0,0,1-1.915-1.069,2.3,2.3,0,0,1-.123-2.49l6.851-11.867a2.393,2.393,0,0,1,4.117.033l6.8,11.772a2.416,2.416,0,0,1-2.066,3.618m-6.125-5.964,0-6.116c0-.489-.26-.78-.672-.784s-.68.3-.679.783l0,6.2a.681.681,0,0,0,.678.764c.4,0,.674-.306.673-.849m-.671,3.587c.565,0,.672-.469.656-.845a.652.652,0,0,0-.595-.678.667.667,0,0,0-.742.667c-.02.391.113.859.681.856" transform="translate(-81.023 -81.634)" fill="#fff"/>
      </g>
    </g>
  </g>
</svg>
