<svg xmlns="http://www.w3.org/2000/svg" xmlns:xlink="http://www.w3.org/1999/xlink" width="96" height="96" viewBox="0 0 96 96">
  <defs>
    <clipPath id="clip-path">
      <rect id="Rectángulo_454800" data-name="Rectángulo 454800" width="95.999" height="95.612" fill="none"/>
    </clipPath>
    <linearGradient id="linear-gradient" x1="0.5" y1="-0.646" x2="0.5" y2="1.118" gradientUnits="objectBoundingBox">
      <stop offset="0" stop-color="#67ccf1"/>
      <stop offset="0.625" stop-color="#004b84"/>
      <stop offset="1" stop-color="#002d4f"/>
    </linearGradient>
    <clipPath id="clip-path-2">
      <rect id="Rectángulo_455381" data-name="Rectángulo 455381" width="45.289" height="45.269" fill="#fff"/>
    </clipPath>
  </defs>
  <g id="Grupo_1177695" data-name="Grupo 1177695" transform="translate(-1136.727 -7764.48)">
    <path id="Trazado_997475" data-name="Trazado 997475" d="M47.979,0A47.786,47.786,0,1,1,0,47.786,47.883,47.883,0,0,1,47.979,0Z" transform="translate(1136.768 7764.48)" fill="#fff"/>
    <g id="Grupo_1177602" data-name="Grupo 1177602" transform="translate(1136.727 7764.868)">
      <g id="Grupo_1177525" data-name="Grupo 1177525">
        <g id="Grupo_1177524" data-name="Grupo 1177524" clip-path="url(#clip-path)">
          <path id="Trazado_997408" data-name="Trazado 997408" d="M48,95.612A47.807,47.807,0,1,1,96,47.806,47.957,47.957,0,0,1,48,95.612M48,1.247A46.559,46.559,0,1,0,94.747,47.806,46.705,46.705,0,0,0,48,1.247" fill="#002d4f"/>
          <path id="Trazado_997409" data-name="Trazado 997409" d="M46.631,87.5a41.038,41.038,0,1,1,41.2-41.038A41.167,41.167,0,0,1,46.631,87.5m0-80.828a39.791,39.791,0,1,0,39.95,39.79,39.915,39.915,0,0,0-39.95-39.79" transform="translate(1.369 1.341)" fill="#002d4f"/>
          <path id="Trazado_997410" data-name="Trazado 997410" d="M45.262,79.392A34.269,34.269,0,1,1,79.669,45.124,34.377,34.377,0,0,1,45.262,79.392m0-67.29A33.022,33.022,0,1,0,78.417,45.124,33.127,33.127,0,0,0,45.262,12.1" transform="translate(2.737 2.683)" fill="#fff"/>
          <path id="Trazado_997411" data-name="Trazado 997411" d="M43.893,71.281a27.5,27.5,0,1,1,27.61-27.5,27.587,27.587,0,0,1-27.61,27.5m0-53.751A26.252,26.252,0,1,0,70.252,43.782,26.336,26.336,0,0,0,43.893,17.53" transform="translate(4.106 4.024)" fill="#fff"/>
          <path id="Trazado_997412" data-name="Trazado 997412" d="M42.525,63.171a20.73,20.73,0,1,1,20.814-20.73,20.8,20.8,0,0,1-20.814,20.73m0-40.212A19.483,19.483,0,1,0,62.086,42.441,19.544,19.544,0,0,0,42.525,22.958" transform="translate(5.475 5.365)" fill="#fff"/>
          <path id="Trazado_997413" data-name="Trazado 997413" d="M41.156,55.061A13.961,13.961,0,1,1,55.173,41.1,14,14,0,0,1,41.156,55.061m0-26.675A12.714,12.714,0,1,0,53.92,41.1,12.753,12.753,0,0,0,41.156,28.386" transform="translate(6.844 6.707)" fill="#fff"/>
          <path id="Trazado_997414" data-name="Trazado 997414" d="M39.787,46.949a7.192,7.192,0,1,1,7.221-7.191,7.215,7.215,0,0,1-7.221,7.191m0-13.136a5.944,5.944,0,1,0,5.969,5.945,5.965,5.965,0,0,0-5.969-5.945" transform="translate(8.212 8.048)" fill="#fff"/>
        </g>
      </g>
      <g id="Elipse_13614" data-name="Elipse 13614" transform="translate(7.859 7.858)" stroke="#002d4f" stroke-width="1" fill="url(#linear-gradient)">
        <ellipse cx="40.141" cy="39.948" rx="40.141" ry="39.948" stroke="none"/>
        <ellipse cx="40.141" cy="39.948" rx="39.641" ry="39.448" fill="none"/>
      </g>
    </g>
    <g id="Grupo_1190478" data-name="Grupo 1190478" transform="translate(1162.103 7789.632)">
      <g id="Grupo_1190477" data-name="Grupo 1190477" clip-path="url(#clip-path-2)">
        <path id="Trazado_998574" data-name="Trazado 998574" d="M26.259,45.252l-7.167.016c-1.932,0-1.062-3.052-1.3-4.213A20.018,20.018,0,0,1,13,39.092L10.936,41.13a1.247,1.247,0,0,1-1.8-.014L4.089,36.05A1.257,1.257,0,0,1,4.2,34.263l1.984-1.989A19.832,19.832,0,0,1,4.207,27.48l-2.8-.012A1.366,1.366,0,0,1,0,26.048V19.2a1.344,1.344,0,0,1,1.406-1.4L4.182,17.8A21,21,0,0,1,6.187,12.98L4.14,10.917a1.25,1.25,0,0,1,.013-1.8L9.225,4.063A1.2,1.2,0,0,1,10.779,4L13,6.163a20.067,20.067,0,0,1,4.788-1.973l.041-2.946A1.264,1.264,0,0,1,19.09,0H26.2a1.307,1.307,0,0,1,1.275,1.378V4.171a20.933,20.933,0,0,1,4.822,1.994l2.137-2.1a1.277,1.277,0,0,1,1.793.139l4.843,4.841a1.277,1.277,0,0,1,.079,1.876l-2.04,2.06a20,20,0,0,1,1.974,4.786l2.941.05a1.262,1.262,0,0,1,1.253,1.254l.014,6.979a1.359,1.359,0,0,1-1.405,1.415l-2.778-.01a21,21,0,0,1-2,4.819l1.983,1.987a1.282,1.282,0,0,1,.049,1.872l-4.981,4.981a1.279,1.279,0,0,1-1.875-.047L32.294,39.09A20.289,20.289,0,0,1,27.5,41.062c-.246,1.047.618,4.187-1.243,4.191M36,22.626A13.359,13.359,0,1,0,22.643,35.985,13.359,13.359,0,0,0,36,22.626" transform="translate(0 0)" fill="#fff"/>
        <path id="Trazado_998575" data-name="Trazado 998575" d="M99.813,89.333A1.364,1.364,0,0,0,98.4,87.868l-4.133.014a1.265,1.265,0,0,0-1.246,1.188,1.3,1.3,0,0,0,1.244,1.324,3.946,3.946,0,0,1,1.15.082l-5.345,5.34L87.3,92.535a1.172,1.172,0,0,0-1.656-.075l-2.8,2.514a10.648,10.648,0,0,1,2.672-8.913,10.887,10.887,0,1,1-1.917,11.66l2.708-2.5,2.821,3.328a1.191,1.191,0,0,0,1.751.011l6.316-6.3c.186.408.041.828.111,1.269A1.277,1.277,0,0,0,98.6,94.647,1.261,1.261,0,0,0,99.793,93.4Z" transform="translate(-70.911 -70.78)" fill="#fff"/>
      </g>
    </g>
  </g>
</svg>
