<svg xmlns="http://www.w3.org/2000/svg" xmlns:xlink="http://www.w3.org/1999/xlink" width="96" height="96" viewBox="0 0 96 96">
  <defs>
    <clipPath id="clip-path">
      <rect id="Rectángulo_454800" data-name="Rectángulo 454800" width="95.999" height="95.612" fill="none"/>
    </clipPath>
    <linearGradient id="linear-gradient" x1="0.5" y1="-0.646" x2="0.5" y2="1.118" gradientUnits="objectBoundingBox">
      <stop offset="0" stop-color="#67ccf1"/>
      <stop offset="0.625" stop-color="#004b84"/>
      <stop offset="1" stop-color="#002d4f"/>
    </linearGradient>
    <clipPath id="clip-path-2">
      <rect id="Rectángulo_455382" data-name="Rectángulo 455382" width="48.259" height="46.085" fill="#fff"/>
    </clipPath>
  </defs>
  <g id="Grupo_1177696" data-name="Grupo 1177696" transform="translate(-1136.727 -7764.48)">
    <path id="Trazado_997475" data-name="Trazado 997475" d="M47.979,0A47.786,47.786,0,1,1,0,47.786,47.883,47.883,0,0,1,47.979,0Z" transform="translate(1136.768 7764.48)" fill="#fff"/>
    <g id="Grupo_1177602" data-name="Grupo 1177602" transform="translate(1136.727 7764.868)">
      <g id="Grupo_1177525" data-name="Grupo 1177525">
        <g id="Grupo_1177524" data-name="Grupo 1177524" clip-path="url(#clip-path)">
          <path id="Trazado_997408" data-name="Trazado 997408" d="M48,95.612A47.807,47.807,0,1,1,96,47.806,47.957,47.957,0,0,1,48,95.612M48,1.247A46.559,46.559,0,1,0,94.747,47.806,46.705,46.705,0,0,0,48,1.247" fill="#002d4f"/>
          <path id="Trazado_997409" data-name="Trazado 997409" d="M46.631,87.5a41.038,41.038,0,1,1,41.2-41.038A41.167,41.167,0,0,1,46.631,87.5m0-80.828a39.791,39.791,0,1,0,39.95,39.79,39.915,39.915,0,0,0-39.95-39.79" transform="translate(1.369 1.341)" fill="#002d4f"/>
          <path id="Trazado_997410" data-name="Trazado 997410" d="M45.262,79.392A34.269,34.269,0,1,1,79.669,45.124,34.377,34.377,0,0,1,45.262,79.392m0-67.29A33.022,33.022,0,1,0,78.417,45.124,33.127,33.127,0,0,0,45.262,12.1" transform="translate(2.737 2.683)" fill="#fff"/>
          <path id="Trazado_997411" data-name="Trazado 997411" d="M43.893,71.281a27.5,27.5,0,1,1,27.61-27.5,27.587,27.587,0,0,1-27.61,27.5m0-53.751A26.252,26.252,0,1,0,70.252,43.782,26.336,26.336,0,0,0,43.893,17.53" transform="translate(4.106 4.024)" fill="#fff"/>
          <path id="Trazado_997412" data-name="Trazado 997412" d="M42.525,63.171a20.73,20.73,0,1,1,20.814-20.73,20.8,20.8,0,0,1-20.814,20.73m0-40.212A19.483,19.483,0,1,0,62.086,42.441,19.544,19.544,0,0,0,42.525,22.958" transform="translate(5.475 5.365)" fill="#fff"/>
          <path id="Trazado_997413" data-name="Trazado 997413" d="M41.156,55.061A13.961,13.961,0,1,1,55.173,41.1,14,14,0,0,1,41.156,55.061m0-26.675A12.714,12.714,0,1,0,53.92,41.1,12.753,12.753,0,0,0,41.156,28.386" transform="translate(6.844 6.707)" fill="#fff"/>
          <path id="Trazado_997414" data-name="Trazado 997414" d="M39.787,46.949a7.192,7.192,0,1,1,7.221-7.191,7.215,7.215,0,0,1-7.221,7.191m0-13.136a5.944,5.944,0,1,0,5.969,5.945,5.965,5.965,0,0,0-5.969-5.945" transform="translate(8.212 8.048)" fill="#fff"/>
        </g>
      </g>
      <g id="Elipse_13614" data-name="Elipse 13614" transform="translate(7.859 7.858)" stroke="#002d4f" stroke-width="1" fill="url(#linear-gradient)">
        <ellipse cx="40.141" cy="39.948" rx="40.141" ry="39.948" stroke="none"/>
        <ellipse cx="40.141" cy="39.948" rx="39.641" ry="39.448" fill="none"/>
      </g>
    </g>
    <g id="Grupo_1190480" data-name="Grupo 1190480" transform="translate(1160.618 7789.632)">
      <g id="Grupo_1190479" data-name="Grupo 1190479" clip-path="url(#clip-path-2)">
        <path id="Trazado_998576" data-name="Trazado 998576" d="M24.215,41.171c-4.968,1.892-9.717-.406-13.1-4.17L.551,25.271a2.153,2.153,0,0,1,.173-3.046,2.178,2.178,0,0,1,3.092.095l4.053,4.4a.8.8,0,0,0,.92.158.835.835,0,0,0,.457-.77l.03-20.2a2.126,2.126,0,0,1,2.208-2,2.174,2.174,0,0,1,2.192,2.158l.017,10.415a.778.778,0,0,0,.748.827.79.79,0,0,0,.814-.712L15.3,2a2.188,2.188,0,0,1,4.36,0L19.7,16.5a.773.773,0,0,0,.779.8.764.764,0,0,0,.793-.8l.011-10.366a2.2,2.2,0,0,1,2.271-2.224,2.225,2.225,0,0,1,2.167,2.322V16.5a.775.775,0,0,0,.779.8.758.758,0,0,0,.782-.783l0-5.72a2.281,2.281,0,0,1,2.168-2.42,2.209,2.209,0,0,1,2.291,2.271l-.009,9.862A13.975,13.975,0,0,0,23.209,28.2a13.7,13.7,0,0,0,1.007,12.973" transform="translate(0 0)" fill="#fff"/>
        <path id="Trazado_998577" data-name="Trazado 998577" d="M169.418,143.773A12.321,12.321,0,1,1,157.1,131.452a12.321,12.321,0,0,1,12.321,12.321m-9.9,2.237.711-9.379a3.054,3.054,0,0,0-3.1-3.135,3.165,3.165,0,0,0-3.2,3.134l.765,9.452a2.444,2.444,0,0,0,2.415,2.428,2.472,2.472,0,0,0,2.4-2.5m-.05,5.675a2.368,2.368,0,1,0-2.368,2.368,2.368,2.368,0,0,0,2.368-2.368" transform="translate(-121.16 -110.009)" fill="#fff"/>
        <path id="Trazado_998578" data-name="Trazado 998578" d="M212.98,164.768a.756.756,0,0,1-.765.762.766.766,0,0,1-.777-.649l-.816-9.481a1.576,1.576,0,0,1,1.592-1.713,1.6,1.6,0,0,1,1.552,1.878Z" transform="translate(-176.26 -128.617)" fill="#fff"/>
        <path id="Trazado_998579" data-name="Trazado 998579" d="M217.074,251.454a.781.781,0,1,1-.781-.781.781.781,0,0,1,.781.781" transform="translate(-180.356 -209.782)" fill="#fff"/>
      </g>
    </g>
  </g>
</svg>
