<svg xmlns="http://www.w3.org/2000/svg" xmlns:xlink="http://www.w3.org/1999/xlink" width="116" height="116" viewBox="0 0 116 116">
  <defs>
    <clipPath id="clip-path">
      <rect id="Rectángulo_455404" data-name="Rectángulo 455404" width="51" height="47.924" fill="#12263f"/>
    </clipPath>
  </defs>
  <g id="Grupo_1191933" data-name="Grupo 1191933" transform="translate(-739 -2555.57)">
    <circle id="Elipse_13641" data-name="Elipse 13641" cx="58" cy="58" r="58" transform="translate(739 2555.57)" fill="#dafe60"/>
    <g id="Grupo_1190518" data-name="Grupo 1190518">
      <circle id="Elipse_13644" data-name="Elipse 13644" cx="45" cy="45" r="45" transform="translate(751 2568.117)" fill="#fff"/>
      <g id="Grupo_1190514" data-name="Grupo 1190514" transform="translate(771.5 2587)">
        <g id="Grupo_1190513" data-name="Grupo 1190513" clip-path="url(#clip-path)">
          <path id="Trazado_998662" data-name="Trazado 998662" d="M134.5,37.9c-.131,0-.115.489-.213.585l-4.4,4.273-1.34-1.837a12.165,12.165,0,1,1-11.938-21.18l.043-10.6,5.727-5.716,19.141-.012a.9.9,0,0,1,1.011.914l0,32.663a.842.842,0,0,1-.862.861Zm2.486-19.8a.835.835,0,1,1,.01,1.67l-9.177-.009A12.241,12.241,0,0,1,133,36.176l7.851,0,0-31.061-17.311,0-.055,4.362a.788.788,0,0,1-.816.777l-4.36.057.016,8.724a12.489,12.489,0,0,1,9.592.766c-.2-.4-.5-.669-.391-1.049a.874.874,0,0,1,.913-.652Zm-6.045,12.453a8.776,8.776,0,1,0-8.776,8.776,8.776,8.776,0,0,0,8.776-8.776" transform="translate(-91.53 -2.837)" fill="#12263f"/>
          <path id="Trazado_998663" data-name="Trazado 998663" d="M193.1,68.134l-14.8.018a.918.918,0,0,1-.945-.767.844.844,0,0,1,.939-.93l14.75.009a.789.789,0,0,1,.861.778.852.852,0,0,1-.805.893" transform="translate(-147.582 -55.3)" fill="#12263f"/>
          <path id="Trazado_998664" data-name="Trazado 998664" d="M223.954,43.413l-8.641.015a.835.835,0,1,1-.133-1.665l8.688-.017a.849.849,0,0,1,.855.762.777.777,0,0,1-.77.9" transform="translate(-178.411 -34.74)" fill="#12263f"/>
          <path id="Trazado_998665" data-name="Trazado 998665" d="M253.247,116.318c.073,1.245-2.012.933-3.7.9a.815.815,0,0,1-.877-.734.8.8,0,0,1,.861-.933l2.871,0a.788.788,0,0,1,.844.763" transform="translate(-206.931 -96.157)" fill="#12263f"/>
          <path id="Trazado_998666" data-name="Trazado 998666" d="M261.154,165.492c-.047.966-1.6.854-2.328.718a.812.812,0,0,1-.65-.715.767.767,0,0,1,.639-.865,6.2,6.2,0,0,1,1.809.021.748.748,0,0,1,.53.841" transform="translate(-214.841 -136.952)" fill="#12263f"/>
          <path id="Trazado_998667" data-name="Trazado 998667" d="M260.284,141.6c-.914.051-2.089.165-2.146-.807a.838.838,0,0,1,.819-.854c.835-.038,2.086-.184,2.167.685a.833.833,0,0,1-.84.975" transform="translate(-214.812 -116.423)" fill="#12263f"/>
          <path id="Trazado_998668" data-name="Trazado 998668" d="M33.63,160.854c.006.425,1.765-.348,1.836.928a.892.892,0,0,1-1.008.895l-33.476,0a.858.858,0,0,1-.855-.887c.065-1.2,1.52-.556,1.856-.95l0-15.392a.891.891,0,0,1,.946-.9l4.714,0a.9.9,0,0,1,.97.88l.017,15.532a6.308,6.308,0,0,0,1.687,0l.009-22.241a.813.813,0,0,1,.832-.809l4.872-.009a.829.829,0,0,1,.889.818l.017,22.188a3.483,3.483,0,0,0,1.706,0l.06-11.548a14.139,14.139,0,0,0,6.522,5.816l.046,5.786a5.1,5.1,0,0,0,1.672-.045l.081-5.107a14.84,14.84,0,0,0,6.534.229Z" transform="translate(-0.105 -114.754)" fill="#12263f"/>
          <path id="Trazado_998669" data-name="Trazado 998669" d="M240.644,227.373l-5.621-5.6,4.863-4.892,5.587,5.556a3.453,3.453,0,1,1-4.829,4.934" transform="translate(-195.577 -180.481)" fill="#12263f"/>
          <path id="Trazado_998670" data-name="Trazado 998670" d="M159.925,153.024l-2.216-2.278a.854.854,0,0,1,.081-1.031.831.831,0,0,1,1.055-.1l1.819,1.714,3.957-3.741a.826.826,0,0,1,1.088,1.241l-4.35,4.194a.968.968,0,0,1-1.434,0" transform="translate(-131.121 -122.665)" fill="#12263f"/>
          <path id="Trazado_998671" data-name="Trazado 998671" d="M9.551,22.833l-7.19,7.88A8.958,8.958,0,0,1,.967,20.6a9.075,9.075,0,0,1,8.542-4.975Z" transform="translate(0 -12.995)" fill="#12263f"/>
          <path id="Trazado_998672" data-name="Trazado 998672" d="M36,66.647a9.038,9.038,0,0,1-14.463,7.677l6.978-7.661Z" transform="translate(-17.926 -55.461)" fill="#12263f"/>
          <path id="Trazado_998673" data-name="Trazado 998673" d="M76.293,9.474,66.777,9.5,66.769.016a9.025,9.025,0,0,1,9.524,9.458" transform="translate(-55.563 0)" fill="#12263f"/>
        </g>
      </g>
    </g>
  </g>
</svg>
