<svg xmlns="http://www.w3.org/2000/svg" xmlns:xlink="http://www.w3.org/1999/xlink" width="84" height="84" viewBox="0 0 84 84">
  <defs>
    <clipPath id="clip-path">
      <rect id="Rectángulo_455412" data-name="Rectángulo 455412" width="56.969" height="51.816" fill="#12263f"/>
    </clipPath>
  </defs>
  <g id="Grupo_1177867" data-name="Grupo 1177867" transform="translate(-710 -1680.92)">
    <g id="Grupo_1119665" data-name="Grupo 1119665" transform="translate(710 1680.92)">
      <rect id="Rectángulo_402006" data-name="Rectángulo 402006" width="84" height="84" rx="5" fill="#67ccf1"/>
    </g>
    <g id="Grupo_1190524" data-name="Grupo 1190524" transform="translate(723.516 1697.012)">
      <g id="Grupo_1190523" data-name="Grupo 1190523" clip-path="url(#clip-path)">
        <path id="Trazado_998682" data-name="Trazado 998682" d="M16.055,45.9a11.918,11.918,0,0,0,10.479-3.365,11.771,11.771,0,0,0,3.019-11.018L53.262,31.5l0-27.118a.645.645,0,0,0-.547-.708l-48.495,0a.6.6,0,0,0-.544.535l0,27.271,3.073.074a12.337,12.337,0,0,0,.569,7.283,21.052,21.052,0,0,1-3.378.005A4.346,4.346,0,0,1,0,34.565V4.383A4.375,4.375,0,0,1,4.48,0H52.462a4.368,4.368,0,0,1,4.476,4.384l.031,29.824a4.407,4.407,0,0,1-4.326,4.658l-15.2.05.02,6.9,6.973.057a3.332,3.332,0,0,1,3.278,2.358,12.747,12.747,0,0,1,.037,3.585H9.188A15.222,15.222,0,0,1,9.2,48.387a3.233,3.233,0,0,1,2.988-2.467,16.743,16.743,0,0,1,3.871-.023" transform="translate(0 0.001)" fill="#12263f"/>
        <path id="Trazado_998683" data-name="Trazado 998683" d="M56.889,44.742l-.016,11.034a11.789,11.789,0,0,0-15.223,3.83.6.6,0,0,1-.29.234c-.109.035-.414-.089-.414-.312l.023-20.266,9.761-.024.059,3.321c.365,3.141,3.486,1.867,6.1,2.183M48.9,46.709a.942.942,0,1,0-.073-1.88l-5.5.016a.894.894,0,0,0-.944,1.058,1.013,1.013,0,0,0,.984.812c1.822.041,3.6.052,5.533-.006m3.033,3.446a.9.9,0,0,0,.9-1.037.913.913,0,0,0-1-.846l-8.5.009a.945.945,0,0,0-.974,1.011.979.979,0,0,0,.974.879Zm-.082,3.466a.919.919,0,0,0,.989-.915.9.9,0,0,0-.882-.965l-8.743.011a.935.935,0,0,0,.112,1.866Z" transform="translate(-33.204 -31.819)" fill="#12263f"/>
        <path id="Trazado_998684" data-name="Trazado 998684" d="M150.592,38.849a2.712,2.712,0,0,1-1.076,3.061,2.559,2.559,0,0,1-3.393-3.727,2.668,2.668,0,0,1,3.2-.739l2.143-1.874a2.614,2.614,0,0,1,2.122-3.382,2.651,2.651,0,0,1,2.943,2.643,2.9,2.9,0,0,0,1.526.774c.669-.761,1.83-.416,2.568-.556,1-.539,1.654-1.7,2.5-2.444a2.616,2.616,0,0,1,.922-3.187,2.564,2.564,0,0,1,3.195.285,2.526,2.526,0,0,1,.439,3.116,2.636,2.636,0,0,1-3.179,1.124l-2.456,2.573a2.6,2.6,0,0,1-1.855,3.566,2.652,2.652,0,0,1-3.1-2.571c-2.13-1.932-1.589.546-4.345-.484Zm15.532-7.3a.645.645,0,1,0-.645.645.645.645,0,0,0,.645-.645m-11.558,3.174a.646.646,0,1,0-.646.646.646.646,0,0,0,.646-.646m5.771,2.849a.645.645,0,1,0-.645.645.645.645,0,0,0,.645-.645m-11.547,2.185a.646.646,0,1,0-.646.646.646.646,0,0,0,.646-.646" transform="translate(-118.06 -23.506)" fill="#12263f"/>
        <rect id="Rectángulo_455410" data-name="Rectángulo 455410" width="3.1" height="15.325" transform="translate(45.872 13.431)" fill="#12263f"/>
        <rect id="Rectángulo_455411" data-name="Rectángulo 455411" width="3.103" height="11.22" transform="translate(34.32 17.536)" fill="#12263f"/>
        <path id="Trazado_998685" data-name="Trazado 998685" d="M215.1,112.917a9.511,9.511,0,0,1-3.085.006l0-8.876a10.165,10.165,0,0,1,3.061-.016Z" transform="translate(-171.929 -84.274)" fill="#12263f"/>
        <path id="Trazado_998686" data-name="Trazado 998686" d="M154.091,132.478a10.139,10.139,0,0,1-3.052.065L151,126.764a8.854,8.854,0,0,1,3.061,0Z" transform="translate(-122.448 -102.687)" fill="#12263f"/>
        <path id="Trazado_998687" data-name="Trazado 998687" d="M107.08,42.5c-1.288.4-2.6.093-4.067.156a17.874,17.874,0,0,1,.009-3.6Z" transform="translate(-83.465 -31.674)" fill="#12263f"/>
        <path id="Trazado_998688" data-name="Trazado 998688" d="M2.238,156.5l-1.912-1.95a.925.925,0,0,1,.01-1.348L5.683,148c.439-.426.964-.106,1.432.018l3.009-2.883a9.794,9.794,0,1,1,1.684,1.868l-2.894,2.848c.044.426.449.97.015,1.392l-5.351,5.2a.919.919,0,0,1-1.339.05m22.178-16.98a6.223,6.223,0,1,0-6.223,6.223,6.223,6.223,0,0,0,6.223-6.223" transform="translate(-0.031 -105.178)" fill="#12263f"/>
        <path id="Trazado_998689" data-name="Trazado 998689" d="M79.014,171.975c-.978.89-2-.5-3.135-1.721a.955.955,0,0,1,.05-1.289c1-.849,1.659.524,2.4,1.016l3.611-3.182a.931.931,0,0,1,1.23.184.975.975,0,0,1-.1,1.3Z" transform="translate(-61.347 -135.127)" fill="#12263f"/>
      </g>
    </g>
  </g>
</svg>
