<svg xmlns="http://www.w3.org/2000/svg" xmlns:xlink="http://www.w3.org/1999/xlink" width="132" height="132" viewBox="0 0 132 132">
  <defs>
    <clipPath id="clip-path">
      <rect id="Rectángulo_455402" data-name="Rectángulo 455402" width="65.083" height="65.092" fill="#fff"/>
    </clipPath>
  </defs>
  <g id="Grupo_1190510" data-name="Grupo 1190510" transform="translate(-374 -1754.609)">
    <rect id="Rectángulo_455145" data-name="Rectángulo 455145" width="132" height="132" rx="66" transform="translate(374 1754.609)" fill="#004b84"/>
    <g id="Grupo_1190509" data-name="Grupo 1190509" transform="translate(407.917 1785.063)">
      <g id="Grupo_1190508" data-name="Grupo 1190508" clip-path="url(#clip-path)">
        <path id="Trazado_998647" data-name="Trazado 998647" d="M182.328,28.5A2.168,2.168,0,0,1,180,26.237l.01-8.34a2.085,2.085,0,0,1,.955-1.824c1.727-1.151,3.02,1.354,4.672-.593a1.942,1.942,0,0,0,.008-2.5c-1.577-1.908-2.858.457-4.553-.5A2.1,2.1,0,0,1,180,10.58l.013-8.546A1.99,1.99,0,0,1,182.045.017L202.165,0a6.1,6.1,0,0,1,6.3,6.114l.015,20.316a2.031,2.031,0,0,1-2.042,2.037l-6.1.016a6.1,6.1,0,0,1-12.195,0Z" transform="translate(-143.396 0)" fill="#fff"/>
        <path id="Trazado_998648" data-name="Trazado 998648" d="M134.617,224.407l-18.409.042V213.858a2.07,2.07,0,0,0-1.085-1.895c-1.749-.94-2.928,1.36-4.538-.52a1.939,1.939,0,0,1-.015-2.5c1.569-1.909,2.822.469,4.553-.512a2.1,2.1,0,0,0,1.086-1.893l0-6.506,4.072,0a6.1,6.1,0,0,0,12.191,0l8.14,0v18.3a6.027,6.027,0,0,1-5.991,6.078" transform="translate(-87.729 -159.357)" fill="#fff"/>
        <path id="Trazado_998649" data-name="Trazado 998649" d="M24.44,78.007l.007,6.412-4.068,0a6.1,6.1,0,0,0-12.2.01l-8.135.012,0-18.318a6,6,0,0,1,5.9-6.054l18.5-.042,0,10.575a2.1,2.1,0,0,0,1.085,1.9c1.669.954,2.917-1.385,4.541.511a1.937,1.937,0,0,1,.011,2.5c-1.575,1.9-2.766-.4-4.543.516a2.093,2.093,0,0,0-1.1,1.981" transform="translate(-0.034 -47.818)" fill="#fff"/>
        <path id="Trazado_998650" data-name="Trazado 998650" d="M24.415,200.589,6.107,200.6a6.025,6.025,0,0,1-6.063-5.913L0,176.195H10.588a2.112,2.112,0,0,0,1.9-1.088c.952-1.67-1.379-2.9.51-4.543a1.933,1.933,0,0,1,2.5-.01c1.881,1.532-.427,2.869.5,4.549a2.1,2.1,0,0,0,1.9,1.09l6.512,0,0,4.071a6.095,6.095,0,0,0,.008,12.19Z" transform="translate(0 -135.515)" fill="#fff"/>
      </g>
    </g>
  </g>
</svg>
