<svg xmlns="http://www.w3.org/2000/svg" xmlns:xlink="http://www.w3.org/1999/xlink" width="116" height="116" viewBox="0 0 116 116">
  <defs>
    <clipPath id="clip-path">
      <rect id="Rectángulo_455403" data-name="Rectángulo 455403" width="45.846" height="57.198" fill="none"/>
    </clipPath>
  </defs>
  <g id="Grupo_1191937" data-name="Grupo 1191937" transform="translate(6999 9140.43)">
    <circle id="Elipse_13710" data-name="Elipse 13710" cx="58" cy="58" r="58" transform="translate(-6999 -9140.43)" fill="#2e5c6c"/>
    <g id="Grupo_1190520" data-name="Grupo 1190520" transform="translate(-7322 -11696)">
      <circle id="Elipse_13645" data-name="Elipse 13645" cx="45" cy="45" r="45" transform="translate(336 2568.117)" fill="#fff"/>
      <g id="Grupo_1190512" data-name="Grupo 1190512" transform="translate(360.077 2580)">
        <g id="Grupo_1190511" data-name="Grupo 1190511" clip-path="url(#clip-path)">
          <path id="Trazado_998651" data-name="Trazado 998651" d="M45.4,126.042a1.044,1.044,0,0,1,.181,1.535L42.864,130.3a1.046,1.046,0,0,1-1.279.066l-6.45-6.552c-.5-.506.438-1.384.873-1.729a49.694,49.694,0,0,0-3.6-3.656,18.59,18.59,0,1,1-27-25.54A18.221,18.221,0,0,0,7.19,98.233a13.781,13.781,0,1,0,22.939.213,18.076,18.076,0,0,0,1.851-5.324,18.551,18.551,0,0,1,1.611,23.865,52.151,52.151,0,0,0,3.763,3.787c.45-.647,1.294-1.39,1.869-.823Z" transform="translate(0 -73.361)"/>
          <path id="Trazado_998652" data-name="Trazado 998652" d="M47.067,36.853a2.047,2.047,0,0,0-2.334-.058c-.583.45-.316,1.458-.888,1.815l-2.384,1.383-1.851-.21c-.666-.075-1.389,1.341-1.21,2.087.154.643.836.909,1.126,1.454a13.468,13.468,0,0,0,.028,2.848c-.214.632-1,.884-1.16,1.583s.494,2.084,1.115,2.041l2.074-.145c2.905,2.091,1.812.017,3.334,3.681.377.908-.021,1.983.089,2.955-1.82.3-4.026-.267-5.711.394-.956-2.073-2.007-4.012-3.176-6.032a11.478,11.478,0,1,1,19.517.011c-1.136,1.975-2.179,3.854-3.127,5.933l-1.394-.227c-1.466-.239-2.831.091-4.372-.077.161-.979-.266-2.05.11-2.966,1.511-3.683.387-1.542,3.334-3.686.6-.236,1.33.385,1.988.18a2.13,2.13,0,0,0,1.2-2.064c-.113-.679-1.1-.962-1.11-1.6V43.467c0-.644.989-.923,1.108-1.6a2.105,2.105,0,0,0-1.2-2.065c-.644-.171-1.235.265-1.888.247a12.775,12.775,0,0,0-2.467-1.433c-.373-.5-.236-1.219-.753-1.759" transform="translate(-27.168 -26.195)"/>
          <path id="Trazado_998653" data-name="Trazado 998653" d="M71.1,154.465c-3.716.149-7.275.088-10.913.032-.581-.009-.746-.769-.794-1.117s.117-1.288.641-1.291l11.029-.044c.561,0,.778.794.778,1.148s-.126,1.248-.742,1.272" transform="translate(-46.896 -120.077)"/>
          <path id="Trazado_998654" data-name="Trazado 998654" d="M71.148,174.812l-10.978-.037c-.571,0-.762-.766-.786-1.152s.17-1.28.79-1.28h10.9c.539,0,.741.782.761,1.15a1.454,1.454,0,0,1-.686,1.32" transform="translate(-46.897 -136.107)"/>
          <path id="Trazado_998655" data-name="Trazado 998655" d="M82.063,79.065a2.518,2.518,0,1,1-2.518-2.518,2.518,2.518,0,0,1,2.518,2.518" transform="translate(-60.832 -60.453)"/>
          <path id="Trazado_998656" data-name="Trazado 998656" d="M81.024,192.6a2.853,2.853,0,0,1-2.759,2.28,2.908,2.908,0,0,1-3.006-2.281Z" transform="translate(-59.436 -152.104)"/>
          <path id="Trazado_998657" data-name="Trazado 998657" d="M148.826,44.976a.892.892,0,0,1-1.262-.261.88.88,0,0,1,.345-1.235l2.255-1.287a.842.842,0,0,1,1.094.319.888.888,0,0,1-.315,1.236Z" transform="translate(-116.437 -33.246)"/>
          <path id="Trazado_998658" data-name="Trazado 998658" d="M44.566,11.8c.618,1.094,1.98,2.788.949,3.349a.881.881,0,0,1-1.14-.224c-.69-1.045-2.123-3.012-.977-3.532a.914.914,0,0,1,1.169.406" transform="translate(-33.934 -8.937)"/>
          <path id="Trazado_998659" data-name="Trazado 998659" d="M124,12.666c-.709,1.367-1.389,3-2.436,2.484-1.076-.534.356-2.319.956-3.4a.87.87,0,1,1,1.48.911" transform="translate(-95.698 -8.939)"/>
          <path id="Trazado_998660" data-name="Trazado 998660" d="M13.036,42.256c1.128.57,3.218,1.5,2.608,2.478a.856.856,0,0,1-1.231.317c-1.41-.792-3.082-1.4-2.472-2.491a.859.859,0,0,1,1.095-.3" transform="translate(-9.329 -33.302)"/>
          <path id="Trazado_998661" data-name="Trazado 998661" d="M86.692,3.262c0,.691-.309.981-.744,1.013a.805.805,0,0,1-.97-.9V.855A.8.8,0,0,1,85.74,0a.829.829,0,0,1,.946.83Z" transform="translate(-67.111 0)"/>
        </g>
      </g>
    </g>
  </g>
</svg>
