<svg id="Grupo_1177605" data-name="Grupo 1177605" xmlns="http://www.w3.org/2000/svg" xmlns:xlink="http://www.w3.org/1999/xlink" width="145.904" height="145.903" viewBox="0 0 145.904 145.903">
  <defs>
    <clipPath id="clip-path">
      <rect id="Rectángulo_454800" data-name="Rectángulo 454800" width="145.902" height="145.454" fill="none"/>
    </clipPath>
    <linearGradient id="linear-gradient" x1="0.5" y1="-0.646" x2="0.5" y2="1.118" gradientUnits="objectBoundingBox">
      <stop offset="0" stop-color="#67ccf1"/>
      <stop offset="0.625" stop-color="#004b84"/>
      <stop offset="1" stop-color="#002d4f"/>
    </linearGradient>
    <clipPath id="clip-path-2">
      <rect id="Rectángulo_456157" data-name="Rectángulo 456157" width="63.685" height="63.962" fill="#f3f9ff"/>
    </clipPath>
  </defs>
  <path id="Trazado_997475" data-name="Trazado 997475" d="M72.924,0A72.7,72.7,0,1,1,0,72.7,72.812,72.812,0,0,1,72.924,0Z" transform="translate(0.056 0.505)" fill="#fff"/>
  <g id="Grupo_1177602" data-name="Grupo 1177602" transform="translate(0 0)">
    <g id="Grupo_1177525" data-name="Grupo 1177525">
      <g id="Grupo_1177524" data-name="Grupo 1177524" clip-path="url(#clip-path)">
        <path id="Trazado_997408" data-name="Trazado 997408" d="M72.951,145.454A72.727,72.727,0,1,1,145.9,72.727a72.921,72.921,0,0,1-72.951,72.727m0-143.557A70.83,70.83,0,1,0,144,72.727,71.018,71.018,0,0,0,72.951,1.9" fill="#002d4f"/>
        <path id="Trazado_997409" data-name="Trazado 997409" d="M68.049,130.287A62.43,62.43,0,1,1,130.67,67.857a62.6,62.6,0,0,1-62.621,62.431m0-122.962a60.533,60.533,0,1,0,60.718,60.531A60.694,60.694,0,0,0,68.049,7.325" transform="translate(4.902 4.87)" fill="#002d4f"/>
        <path id="Trazado_997410" data-name="Trazado 997410" d="M63.148,115.12a52.133,52.133,0,1,1,52.293-52.132A52.272,52.272,0,0,1,63.148,115.12m0-102.368a50.235,50.235,0,1,0,50.39,50.235,50.371,50.371,0,0,0-50.39-50.235" transform="translate(9.803 9.74)" fill="#fff"/>
        <path id="Trazado_997411" data-name="Trazado 997411" d="M58.246,99.951a41.834,41.834,0,1,1,41.963-41.834A41.947,41.947,0,0,1,58.246,99.951m0-81.771a39.937,39.937,0,1,0,40.06,39.937A40.045,40.045,0,0,0,58.246,18.18" transform="translate(14.705 14.61)" fill="#fff"/>
        <path id="Trazado_997412" data-name="Trazado 997412" d="M53.344,84.783A31.536,31.536,0,1,1,84.977,53.247,31.621,31.621,0,0,1,53.344,84.783m0-61.175a29.639,29.639,0,1,0,29.73,29.639,29.718,29.718,0,0,0-29.73-29.639" transform="translate(19.607 19.48)" fill="#fff"/>
        <path id="Trazado_997413" data-name="Trazado 997413" d="M48.442,69.616a21.239,21.239,0,1,1,21.3-21.24,21.295,21.295,0,0,1-21.3,21.24m0-40.58a19.342,19.342,0,1,0,19.4,19.34,19.392,19.392,0,0,0-19.4-19.34" transform="translate(24.509 24.35)" fill="#fff"/>
        <path id="Trazado_997414" data-name="Trazado 997414" d="M43.541,54.447A10.94,10.94,0,1,1,54.516,43.507,10.97,10.97,0,0,1,43.541,54.447m0-19.984a9.043,9.043,0,1,0,9.072,9.044,9.07,9.07,0,0,0-9.072-9.044" transform="translate(29.41 29.22)" fill="#fff"/>
      </g>
    </g>
    <g id="Elipse_13614" data-name="Elipse 13614" transform="translate(10.75 10.749)" stroke="#002d4f" stroke-width="1" fill="url(#linear-gradient)">
      <ellipse cx="62.202" cy="61.978" rx="62.202" ry="61.978" stroke="none"/>
      <ellipse cx="62.202" cy="61.978" rx="61.702" ry="61.478" fill="none"/>
    </g>
  </g>
  <g id="Grupo_1191931" data-name="Grupo 1191931" transform="translate(41.109 40.746)">
    <g id="Grupo_1191931-2" data-name="Grupo 1191931" clip-path="url(#clip-path-2)">
      <path id="Trazado_1000753" data-name="Trazado 1000753" d="M57.859,73.939c1.549.283,5.225-.664,5.826,1.277l-.032,13.492c-.546,1.831-4.319,1.083-5.794,1.3A18.16,18.16,0,0,1,52.7,96.711c.044,2.68,2.843,5.491-.749,6.726-1.561.537-8.433,2.528-9.7,2.52-2.356-.015-2.147-3.957-2.5-4.018l-13.792.026c-.164,1.356-.476,3.819-2.15,3.982l-10.654-2.778c-2.418-1.356.033-4.407-.019-6.458A19.472,19.472,0,0,1,6.156,83.955c-1.682-.333-2.788-.419-4.127-1.606-1.567-1.39-3.4-5.572-.494-6.267,3.057-.73,1.369,4.642,4.729,3.893C7.65,64.8,26.215,57.681,39.486,60.681A14.426,14.426,0,0,1,48.732,56c1.831-.1,2.937.062,3.122,2.107.237,2.619-.241,5.553.035,8.208a21.4,21.4,0,0,1,5.97,7.625M27.867,64.3c-2.334.419-2.308,3.353-.55,3.681a70,70,0,0,0,9.2,0c1.753-.326,1.789-3.26-.55-3.681a44.755,44.755,0,0,0-8.1,0M45.3,72.285c-1.728.4-1.566,4.7-.368,5.255,3.743,1.727,4.258-6.149.368-5.255" transform="translate(0 -41.996)" fill="#f3f9ff"/>
      <path id="Trazado_1000754" data-name="Trazado 1000754" d="M106.316.078c9.438-1.235,10.562,12.544,2.157,13.651C99.091,14.963,97.692,1.206,106.316.078" transform="translate(-75.456 0)" fill="#f3f9ff"/>
    </g>
  </g>
</svg>
