<svg xmlns="http://www.w3.org/2000/svg" xmlns:xlink="http://www.w3.org/1999/xlink" width="84" height="84" viewBox="0 0 84 84">
  <defs>
    <clipPath id="clip-path">
      <rect id="Rectángulo_456139" data-name="Rectángulo 456139" width="41.649" height="55.614" fill="#12263f"/>
    </clipPath>
  </defs>
  <g id="Grupo_1190430" data-name="Grupo 1190430" transform="translate(-710 -1680.92)">
    <g id="Grupo_1119665" data-name="Grupo 1119665" transform="translate(710 1680.92)">
      <rect id="Rectángulo_402006" data-name="Rectángulo 402006" width="84" height="84" rx="5" fill="#67ccf1"/>
    </g>
    <g id="Grupo_1191902" data-name="Grupo 1191902" transform="translate(731.175 1695.113)">
      <path id="Trazado_1000679" data-name="Trazado 1000679" d="M188.858,15.288l-9.452.04.04-9.451Z" transform="translate(-148.227 -4.856)" fill="#12263f"/>
      <g id="Grupo_1191901" data-name="Grupo 1191901">
        <g id="Grupo_1191900" data-name="Grupo 1191900" clip-path="url(#clip-path)">
          <path id="Trazado_1000680" data-name="Trazado 1000680" d="M41.649,53.752a1.662,1.662,0,0,1-1.741,1.862H1.737A1.652,1.652,0,0,1,0,53.839V1.764A1.6,1.6,0,0,1,1.562.014L27.935,0V12.154a1.653,1.653,0,0,0,1.432,1.57l12.28.013ZM14.585,25.816a1.807,1.807,0,0,1,.057-.771,4.6,4.6,0,0,0,4.282-4.89,4.5,4.5,0,0,0-4.465-4.434L11.777,15.7a1.458,1.458,0,0,1-1.534-1.366,1.4,1.4,0,0,1,1.357-1.47l4.028-.022a1.6,1.6,0,0,0,1.559-1.806c-.18-1.771-2.159-1.362-2.491-1.5-.108-.044-.155-.3-.126-.5a1.646,1.646,0,1,0-3.223-.183c.017.181,0,.732-.161.753a4.6,4.6,0,0,0-4.165,4.813,4.536,4.536,0,0,0,4.1,4.482c1.8.192,4.592-.569,4.572,1.483a1.407,1.407,0,0,1-1.367,1.4l-3.763,0a1.641,1.641,0,0,0-1.812,1.744,1.618,1.618,0,0,0,2.006,1.483.613.613,0,0,1,.5.127.988.988,0,0,1,.086.531,1.674,1.674,0,0,0,1.57,1.982,1.628,1.628,0,0,0,1.664-1.853m8.239,8.8a1.5,1.5,0,0,0,1.341-1.681c-.029-.566-.466-1.47-1.27-1.471L8.489,31.439a1.57,1.57,0,0,0-1.5,1.639,1.61,1.61,0,0,0,1.67,1.579Zm10.092.043a1.587,1.587,0,0,0,1.729-1.582,1.524,1.524,0,0,0-1.314-1.607c-1.339-.072-2.654-.051-4-.007a1.55,1.55,0,0,0-1.381,1.808,1.618,1.618,0,0,0,1.732,1.391ZM22.588,41.632a1.613,1.613,0,0,0,.127-3.217L8.663,38.394a1.626,1.626,0,1,0,.013,3.251Zm10.444,0a1.565,1.565,0,0,0,1.612-1.582,1.533,1.533,0,0,0-1.484-1.638L29.5,38.406a1.614,1.614,0,0,0,.047,3.227ZM22.463,48.629a1.632,1.632,0,1,0,.094-3.262l-13.895,0a1.63,1.63,0,1,0,.013,3.258Zm10.6-.013a1.625,1.625,0,0,0-.065-3.25l-3.486.008a1.6,1.6,0,0,0-1.565,1.8,1.638,1.638,0,0,0,1.744,1.451Z" fill="#12263f"/>
        </g>
      </g>
    </g>
  </g>
</svg>
