<svg xmlns="http://www.w3.org/2000/svg" xmlns:xlink="http://www.w3.org/1999/xlink" width="128" height="128" viewBox="0 0 128 128">
  <defs>
    <clipPath id="clip-path">
      <rect id="Rectángulo_454800" data-name="Rectángulo 454800" width="127.998" height="127.488" fill="none"/>
    </clipPath>
    <linearGradient id="linear-gradient" x1="0.5" y1="-0.646" x2="0.5" y2="1.118" gradientUnits="objectBoundingBox">
      <stop offset="0" stop-color="#67ccf1"/>
      <stop offset="0.625" stop-color="#004b84"/>
      <stop offset="1" stop-color="#002d4f"/>
    </linearGradient>
    <clipPath id="clip-path-2">
      <rect id="Rectángulo_456142" data-name="Rectángulo 456142" width="58" height="57.988" fill="#fff"/>
    </clipPath>
  </defs>
  <g id="Grupo_1190440" data-name="Grupo 1190440" transform="translate(-1136.727 -7764.48)">
    <path id="Trazado_997475" data-name="Trazado 997475" d="M63.973,0A63.718,63.718,0,1,1,0,63.717,63.845,63.845,0,0,1,63.973,0Z" transform="translate(1136.781 7764.48)" fill="#fff"/>
    <g id="Grupo_1177602" data-name="Grupo 1177602" transform="translate(1136.727 7764.993)">
      <g id="Grupo_1177525" data-name="Grupo 1177525">
        <g id="Grupo_1177524" data-name="Grupo 1177524" clip-path="url(#clip-path)">
          <path id="Trazado_997408" data-name="Trazado 997408" d="M64,127.488a63.744,63.744,0,1,1,64-63.744,63.944,63.944,0,0,1-64,63.744M64,1.663a62.081,62.081,0,1,0,62.33,62.081A62.275,62.275,0,0,0,64,1.663" fill="#002d4f"/>
          <path id="Trazado_997409" data-name="Trazado 997409" d="M60.365,114.865A54.719,54.719,0,1,1,115.3,60.146a54.891,54.891,0,0,1-54.937,54.719m0-107.774a53.056,53.056,0,1,0,53.267,53.055A53.222,53.222,0,0,0,60.365,7.091" transform="translate(3.634 3.598)" fill="#002d4f"/>
          <path id="Trazado_997410" data-name="Trazado 997410" d="M56.731,102.241a45.693,45.693,0,1,1,45.876-45.693,45.837,45.837,0,0,1-45.876,45.693m0-89.723a44.031,44.031,0,1,0,44.207,44.03,44.17,44.17,0,0,0-44.207-44.03" transform="translate(7.268 7.196)" fill="#fff"/>
          <path id="Trazado_997411" data-name="Trazado 997411" d="M53.1,89.617A36.667,36.667,0,1,1,89.911,52.95,36.783,36.783,0,0,1,53.1,89.617m0-71.671a35,35,0,1,0,35.144,35,35.115,35.115,0,0,0-35.144-35" transform="translate(10.902 10.794)" fill="#fff"/>
          <path id="Trazado_997412" data-name="Trazado 997412" d="M49.462,76.992A27.641,27.641,0,1,1,77.214,49.352,27.728,27.728,0,0,1,49.462,76.992m0-53.618A25.978,25.978,0,1,0,75.544,49.352,26.059,26.059,0,0,0,49.462,23.374" transform="translate(14.537 14.392)" fill="#fff"/>
          <path id="Trazado_997413" data-name="Trazado 997413" d="M45.828,64.37A18.615,18.615,0,1,1,64.517,45.753,18.673,18.673,0,0,1,45.828,64.37m0-35.568a16.953,16.953,0,1,0,17.02,16.952A17,17,0,0,0,45.828,28.8" transform="translate(18.171 17.99)" fill="#fff"/>
          <path id="Trazado_997414" data-name="Trazado 997414" d="M42.194,51.744a9.589,9.589,0,1,1,9.628-9.588,9.62,9.62,0,0,1-9.628,9.588m0-17.515a7.926,7.926,0,1,0,7.959,7.927,7.953,7.953,0,0,0-7.959-7.927" transform="translate(21.805 21.588)" fill="#fff"/>
        </g>
      </g>
      <g id="Elipse_13614" data-name="Elipse 13614" transform="translate(10.388 10.387)" stroke="#002d4f" stroke-width="1" fill="url(#linear-gradient)">
        <ellipse cx="53.612" cy="53.356" rx="53.612" ry="53.356" stroke="none"/>
        <ellipse cx="53.612" cy="53.356" rx="53.112" ry="52.856" fill="none"/>
      </g>
    </g>
    <g id="Grupo_1191906" data-name="Grupo 1191906" transform="translate(1172.063 7798.742)">
      <g id="Grupo_1191905" data-name="Grupo 1191905" clip-path="url(#clip-path-2)">
        <path id="Trazado_1000687" data-name="Trazado 1000687" d="M209.4,3.666c-4.892-.421-9.6,3.822-10.6,8.429a5.8,5.8,0,0,0,1.134,5.29,1.9,1.9,0,0,1,.2,2.7,1.857,1.857,0,0,1-2.808-.132,9.441,9.441,0,0,1-2.139-8.243C196.441,5,203.021-.6,209.827.052a8.573,8.573,0,0,1,7.831,8.469,13.659,13.659,0,0,1-4,9.735,1.846,1.846,0,1,1-2.592-2.583,9.794,9.794,0,0,0,2.971-6.968,4.956,4.956,0,0,0-4.639-5.04" transform="translate(-159.664 0)" fill="#fff"/>
        <path id="Trazado_1000688" data-name="Trazado 1000688" d="M46.1,53.116l3.011,18.741a9.139,9.139,0,0,1-2.722,7.986L31.163,95.028a9.256,9.256,0,0,1-13.017-.14L2.763,79.511a9.233,9.233,0,0,1-.231-12.935L17.79,51.252a9.273,9.273,0,0,1,8.161-2.712l6.233,1.008c-1.115,4.665-.3,9.182,2.929,12.611a5.451,5.451,0,0,0,7.831.215,5.591,5.591,0,0,0-.1-7.973c-.623-.666-.186-2.237.168-2.88.96-.3,2.829.035,3.08,1.6M26,74.093l-2.5-2.5a2.411,2.411,0,0,1,.048-3.453,2.443,2.443,0,0,1,3.351.05l2.629,2.642a2.39,2.39,0,0,1-.072,3.312,1.823,1.823,0,0,0-.028,2.524,1.777,1.777,0,0,0,2.5.1,6.057,6.057,0,0,0,.124-8.582c.335-.439.658-.659.943-.985a1.814,1.814,0,0,0-2.565-2.565c-.327.286-.546.607-.983.944a6.09,6.09,0,0,0-8.476,0,5.948,5.948,0,0,0-.225,8.366L23.484,76.7a2.408,2.408,0,1,1-3.409,3.4l-2.539-2.535a2.393,2.393,0,0,1-.022-3.4,1.813,1.813,0,1,0-2.641-2.48,6,6,0,0,0,.036,8.368,5.242,5.242,0,0,1-.928,1.043,1.819,1.819,0,0,0,.19,2.659c1.545,1.26,2.583-.532,3.452-.984A6.032,6.032,0,0,0,26,74.093" transform="translate(0 -39.646)" fill="#fff"/>
      </g>
    </g>
  </g>
</svg>
