<svg xmlns="http://www.w3.org/2000/svg" xmlns:xlink="http://www.w3.org/1999/xlink" width="128" height="128" viewBox="0 0 128 128">
  <defs>
    <clipPath id="clip-path">
      <rect id="Rectángulo_454800" data-name="Rectángulo 454800" width="127.998" height="127.488" fill="none"/>
    </clipPath>
    <linearGradient id="linear-gradient" x1="0.5" y1="-0.646" x2="0.5" y2="1.118" gradientUnits="objectBoundingBox">
      <stop offset="0" stop-color="#67ccf1"/>
      <stop offset="0.625" stop-color="#004b84"/>
      <stop offset="1" stop-color="#002d4f"/>
    </linearGradient>
    <clipPath id="clip-path-2">
      <rect id="Rectángulo_456143" data-name="Rectángulo 456143" width="62.736" height="62.699" fill="#fff"/>
    </clipPath>
  </defs>
  <g id="Grupo_1190439" data-name="Grupo 1190439" transform="translate(-1136.727 -7764.48)">
    <path id="Trazado_997475" data-name="Trazado 997475" d="M63.973,0A63.718,63.718,0,1,1,0,63.717,63.845,63.845,0,0,1,63.973,0Z" transform="translate(1136.781 7764.48)" fill="#fff"/>
    <g id="Grupo_1177602" data-name="Grupo 1177602" transform="translate(1136.727 7764.993)">
      <g id="Grupo_1177525" data-name="Grupo 1177525">
        <g id="Grupo_1177524" data-name="Grupo 1177524" clip-path="url(#clip-path)">
          <path id="Trazado_997408" data-name="Trazado 997408" d="M64,127.488a63.744,63.744,0,1,1,64-63.744,63.944,63.944,0,0,1-64,63.744M64,1.663a62.081,62.081,0,1,0,62.33,62.081A62.275,62.275,0,0,0,64,1.663" fill="#002d4f"/>
          <path id="Trazado_997409" data-name="Trazado 997409" d="M60.365,114.865A54.719,54.719,0,1,1,115.3,60.146a54.891,54.891,0,0,1-54.937,54.719m0-107.774a53.056,53.056,0,1,0,53.267,53.055A53.222,53.222,0,0,0,60.365,7.091" transform="translate(3.634 3.598)" fill="#002d4f"/>
          <path id="Trazado_997410" data-name="Trazado 997410" d="M56.731,102.241a45.693,45.693,0,1,1,45.876-45.693,45.837,45.837,0,0,1-45.876,45.693m0-89.723a44.031,44.031,0,1,0,44.207,44.03,44.17,44.17,0,0,0-44.207-44.03" transform="translate(7.268 7.196)" fill="#fff"/>
          <path id="Trazado_997411" data-name="Trazado 997411" d="M53.1,89.617A36.667,36.667,0,1,1,89.911,52.95,36.783,36.783,0,0,1,53.1,89.617m0-71.671a35,35,0,1,0,35.144,35,35.115,35.115,0,0,0-35.144-35" transform="translate(10.902 10.794)" fill="#fff"/>
          <path id="Trazado_997412" data-name="Trazado 997412" d="M49.462,76.992A27.641,27.641,0,1,1,77.214,49.352,27.728,27.728,0,0,1,49.462,76.992m0-53.618A25.978,25.978,0,1,0,75.544,49.352,26.059,26.059,0,0,0,49.462,23.374" transform="translate(14.537 14.392)" fill="#fff"/>
          <path id="Trazado_997413" data-name="Trazado 997413" d="M45.828,64.37A18.615,18.615,0,1,1,64.517,45.753,18.673,18.673,0,0,1,45.828,64.37m0-35.568a16.953,16.953,0,1,0,17.02,16.952A17,17,0,0,0,45.828,28.8" transform="translate(18.171 17.99)" fill="#fff"/>
          <path id="Trazado_997414" data-name="Trazado 997414" d="M42.194,51.744a9.589,9.589,0,1,1,9.628-9.588,9.62,9.62,0,0,1-9.628,9.588m0-17.515a7.926,7.926,0,1,0,7.959,7.927,7.953,7.953,0,0,0-7.959-7.927" transform="translate(21.805 21.588)" fill="#fff"/>
        </g>
      </g>
      <g id="Elipse_13614" data-name="Elipse 13614" transform="translate(10.388 10.387)" stroke="#002d4f" stroke-width="1" fill="url(#linear-gradient)">
        <ellipse cx="53.612" cy="53.356" rx="53.612" ry="53.356" stroke="none"/>
        <ellipse cx="53.612" cy="53.356" rx="53.112" ry="52.856" fill="none"/>
      </g>
    </g>
    <g id="Grupo_1191908" data-name="Grupo 1191908" transform="translate(1169.386 7796.848)">
      <g id="Grupo_1191907" data-name="Grupo 1191907" clip-path="url(#clip-path-2)">
        <path id="Trazado_1000689" data-name="Trazado 1000689" d="M60.981,132.952l22.258.026a5.21,5.21,0,0,1-.2,10.417l-11.687.033c-.627,0-.841.689-.817,1.093.04.66.511.976,1.211.976H82.809a7.448,7.448,0,0,0,6.568-3.7,7.339,7.339,0,0,0-.392-7.914l6.921-6.858a4.777,4.777,0,0,1,6.383-.028,4.834,4.834,0,0,1,.89,6.329l-9.865,14.25a9.843,9.843,0,0,1-8.192,4.178l-18.55.009-14.42-14.432c2.25-2.525,5.032-4.381,8.83-4.376" transform="translate(-41.246 -99.484)" fill="#fff"/>
        <path id="Trazado_1000690" data-name="Trazado 1000690" d="M18.669,204.671a1.15,1.15,0,0,1-1.7.126L.4,188.244A1.153,1.153,0,0,1,.392,186.5l6.035-6.036a1.13,1.13,0,0,1,1.637-.079l16.66,16.659a1.123,1.123,0,0,1,.021,1.535Z" transform="translate(0 -142.418)" fill="#fff"/>
        <path id="Trazado_1000691" data-name="Trazado 1000691" d="M109.154,14.631A14.632,14.632,0,1,1,94.522,0a14.632,14.632,0,0,1,14.632,14.631M95.619,21.8a4.17,4.17,0,0,0,3.013-4.7,4.226,4.226,0,0,0-4.1-3.509,2.084,2.084,0,1,1,.087-4.166c2.738.1,1.271,3.29,3.133,3.119a1.014,1.014,0,0,0,.936-1.061A4.163,4.163,0,0,0,95.664,7.5a7.906,7.906,0,0,1-.085-2.072,1.082,1.082,0,0,0-1.152-1.236c-1.508.079-.687,2.26-1.044,3.3a4.186,4.186,0,0,0-2.977,4.672,4.3,4.3,0,0,0,4.314,3.557,2.019,2.019,0,0,1,1.858,2.328,2.049,2.049,0,0,1-2.153,1.8c-2.734-.1-1.27-3.254-3.132-3.1a.992.992,0,0,0-.931,1.017,4.146,4.146,0,0,0,3.057,4.012,21.065,21.065,0,0,1,.063,2.249,1.008,1.008,0,0,0,1.129,1.023c1.478-.1.745-2.124,1.006-3.266" transform="translate(-63.186)" fill="#fff"/>
      </g>
    </g>
  </g>
</svg>
