<svg xmlns="http://www.w3.org/2000/svg" xmlns:xlink="http://www.w3.org/1999/xlink" width="128" height="128" viewBox="0 0 128 128">
  <defs>
    <clipPath id="clip-path">
      <rect id="Rectángulo_454800" data-name="Rectángulo 454800" width="127.998" height="127.488" fill="none"/>
    </clipPath>
    <linearGradient id="linear-gradient" x1="0.5" y1="-0.646" x2="0.5" y2="1.118" gradientUnits="objectBoundingBox">
      <stop offset="0" stop-color="#67ccf1"/>
      <stop offset="0.625" stop-color="#004b84"/>
      <stop offset="1" stop-color="#002d4f"/>
    </linearGradient>
    <clipPath id="clip-path-2">
      <rect id="Rectángulo_456144" data-name="Rectángulo 456144" width="60.862" height="66.951" fill="#fff"/>
    </clipPath>
  </defs>
  <g id="Grupo_1190438" data-name="Grupo 1190438" transform="translate(-1136.727 -7764.48)">
    <path id="Trazado_997475" data-name="Trazado 997475" d="M63.973,0A63.718,63.718,0,1,1,0,63.717,63.845,63.845,0,0,1,63.973,0Z" transform="translate(1136.781 7764.48)" fill="#fff"/>
    <g id="Grupo_1177602" data-name="Grupo 1177602" transform="translate(1136.727 7764.993)">
      <g id="Grupo_1177525" data-name="Grupo 1177525">
        <g id="Grupo_1177524" data-name="Grupo 1177524" clip-path="url(#clip-path)">
          <path id="Trazado_997408" data-name="Trazado 997408" d="M64,127.488a63.744,63.744,0,1,1,64-63.744,63.944,63.944,0,0,1-64,63.744M64,1.663a62.081,62.081,0,1,0,62.33,62.081A62.275,62.275,0,0,0,64,1.663" fill="#002d4f"/>
          <path id="Trazado_997409" data-name="Trazado 997409" d="M60.365,114.865A54.719,54.719,0,1,1,115.3,60.146a54.891,54.891,0,0,1-54.937,54.719m0-107.774a53.056,53.056,0,1,0,53.267,53.055A53.222,53.222,0,0,0,60.365,7.091" transform="translate(3.634 3.598)" fill="#002d4f"/>
          <path id="Trazado_997410" data-name="Trazado 997410" d="M56.731,102.241a45.693,45.693,0,1,1,45.876-45.693,45.837,45.837,0,0,1-45.876,45.693m0-89.723a44.031,44.031,0,1,0,44.207,44.03,44.17,44.17,0,0,0-44.207-44.03" transform="translate(7.268 7.196)" fill="#fff"/>
          <path id="Trazado_997411" data-name="Trazado 997411" d="M53.1,89.617A36.667,36.667,0,1,1,89.911,52.95,36.783,36.783,0,0,1,53.1,89.617m0-71.671a35,35,0,1,0,35.144,35,35.115,35.115,0,0,0-35.144-35" transform="translate(10.902 10.794)" fill="#fff"/>
          <path id="Trazado_997412" data-name="Trazado 997412" d="M49.462,76.992A27.641,27.641,0,1,1,77.214,49.352,27.728,27.728,0,0,1,49.462,76.992m0-53.618A25.978,25.978,0,1,0,75.544,49.352,26.059,26.059,0,0,0,49.462,23.374" transform="translate(14.537 14.392)" fill="#fff"/>
          <path id="Trazado_997413" data-name="Trazado 997413" d="M45.828,64.37A18.615,18.615,0,1,1,64.517,45.753,18.673,18.673,0,0,1,45.828,64.37m0-35.568a16.953,16.953,0,1,0,17.02,16.952A17,17,0,0,0,45.828,28.8" transform="translate(18.171 17.99)" fill="#fff"/>
          <path id="Trazado_997414" data-name="Trazado 997414" d="M42.194,51.744a9.589,9.589,0,1,1,9.628-9.588,9.62,9.62,0,0,1-9.628,9.588m0-17.515a7.926,7.926,0,1,0,7.959,7.927,7.953,7.953,0,0,0-7.959-7.927" transform="translate(21.805 21.588)" fill="#fff"/>
        </g>
      </g>
      <g id="Elipse_13614" data-name="Elipse 13614" transform="translate(10.388 10.387)" stroke="#002d4f" stroke-width="1" fill="url(#linear-gradient)">
        <ellipse cx="53.612" cy="53.356" rx="53.612" ry="53.356" stroke="none"/>
        <ellipse cx="53.612" cy="53.356" rx="53.112" ry="52.856" fill="none"/>
      </g>
    </g>
    <g id="Grupo_1191910" data-name="Grupo 1191910" transform="translate(1167.227 7791.722)">
      <g id="Grupo_1191909" data-name="Grupo 1191909" clip-path="url(#clip-path-2)">
        <path id="Trazado_1000692" data-name="Trazado 1000692" d="M153.317,8.576A8.576,8.576,0,1,1,144.741,0a8.576,8.576,0,0,1,8.576,8.576" transform="translate(-107.609)" fill="#fff"/>
        <path id="Trazado_1000693" data-name="Trazado 1000693" d="M122.4,88.4a1.084,1.084,0,0,0-1-1.205,1.023,1.023,0,0,0-1.147,1.1l-.04,5.593c-2.067-.151-5.76.932-5.754-1.6l.011-4.609a10.488,10.488,0,0,1,5.8-9.293,10.731,10.731,0,0,0,14.619.021,5.964,5.964,0,0,1,2.151,1.508A10.746,10.746,0,0,0,129,93.851l-6.563.08Z" transform="translate(-90.458 -61.957)" fill="#fff"/>
        <path id="Trazado_1000694" data-name="Trazado 1000694" d="M208.529,103.682a8.534,8.534,0,1,1-8.534-8.534,8.534,8.534,0,0,1,8.534,8.534m-7.014,4.662a3.023,3.023,0,0,0,1.449-3.593c-.938-3-3.912-1.4-3.9-3.094a.925.925,0,0,1,.938-.889c1.221-.114,1.853,1.572,2.841.41a1.028,1.028,0,0,0-.041-1.447l-1.615-1.206c-.409-.305-.013-1.268-.594-1.511a1.138,1.138,0,0,0-1.489.3c-.272.461-.059,1.052-.3,1.536a3.045,3.045,0,0,0-1.839,3.493c.725,3.246,3.938,1.692,3.957,3.3a.941.941,0,0,1-.945.96c-1.323.1-1.514-1.375-2.592-.629a1.045,1.045,0,0,0-.375,1.332c.66,1.387,2.013.9,1.945,2a1.055,1.055,0,0,0,1.122,1.217c1.481-.086.56-1.7,1.438-2.179" transform="translate(-151.309 -75.194)" fill="#fff"/>
        <path id="Trazado_1000695" data-name="Trazado 1000695" d="M93.551,188.282a3.76,3.76,0,1,1,3.592,6.606L75.624,206.637a9.417,9.417,0,0,1-7.938.806l-3.792-1.224a10.1,10.1,0,0,0-7.516.193L48.4,192.57l8.6-4.691a12.455,12.455,0,0,1,9.291-.863L79.792,191.4a3.721,3.721,0,0,1,2.267,4.647,3.762,3.762,0,0,1-4.806,2.432l-6.981-2.255c-.671-.217-1.27-.064-1.5.575a1.075,1.075,0,0,0,.762,1.479l6.82,2.2a6.1,6.1,0,0,0,6.148-1.227,5.987,5.987,0,0,0,1.7-5.89Z" transform="translate(-38.252 -147.395)" fill="#fff"/>
        <path id="Trazado_1000696" data-name="Trazado 1000696" d="M12.6,229.153a1.037,1.037,0,0,1-1.5-.341L.152,209.8a1.086,1.086,0,0,1,.522-1.531l4.652-2.657a1.05,1.05,0,0,1,1.321.21l11.089,19.235a1.044,1.044,0,0,1-.4,1.365Z" transform="translate(0 -162.383)" fill="#fff"/>
        <path id="Trazado_1000697" data-name="Trazado 1000697" d="M205.41,194.24a8.244,8.244,0,0,0-2.468-2.023c2.538-1.4,5.043-3.525,7.6-.811Z" transform="translate(-160.382 -150.23)" fill="#fff"/>
      </g>
    </g>
  </g>
</svg>
