<svg xmlns="http://www.w3.org/2000/svg" xmlns:xlink="http://www.w3.org/1999/xlink" width="84" height="84" viewBox="0 0 84 84">
  <defs>
    <clipPath id="clip-path">
      <rect id="Rectángulo_456151" data-name="Rectángulo 456151" width="67.525" height="64.607" fill="#12263f"/>
    </clipPath>
  </defs>
  <g id="Grupo_1190453" data-name="Grupo 1190453" transform="translate(-710 -1680.92)">
    <g id="Grupo_1119665" data-name="Grupo 1119665" transform="translate(710 1680.92)">
      <rect id="Rectángulo_402006" data-name="Rectángulo 402006" width="84" height="84" rx="5" fill="#fe93c4"/>
    </g>
    <g id="Grupo_1191924" data-name="Grupo 1191924" transform="translate(718.238 1690.616)">
      <g id="Grupo_1191923" data-name="Grupo 1191923" clip-path="url(#clip-path)">
        <path id="Trazado_1000733" data-name="Trazado 1000733" d="M203.417,174.067l-20.967-.037a3.412,3.412,0,0,1-3.262-3.411v-26.1a3.377,3.377,0,0,1,3.252-3.391l20.4-.044a3.515,3.515,0,0,1,3.7,3.446l0,26.082a3.559,3.559,0,0,1-3.134,3.458M183.1,150.961h19.528v-4.809H183.1Zm5.178,6.445c.245-.637.545-2.053-.129-2.29a6.2,6.2,0,0,0-4.018.053c-.573.24-.467,2.047.114,2.216a10.369,10.369,0,0,0,4.032.02m6.636-.165c.5-.262.443-1.954-.047-2.126a6.905,6.905,0,0,0-4.009,0c-.542.2-.526,1.946-.006,2.2a6.056,6.056,0,0,0,4.062-.075m6.682.011c.513-.258.442-1.859,0-2.129a7.033,7.033,0,0,0-4.024-.016c-.543.218-.547,2.011,0,2.205a5.952,5.952,0,0,0,4.02-.061m-13.371,5.922c.357-.7.565-2.061-.111-2.4a7.146,7.146,0,0,0-3.934.043c-.633.234-.541,2.131.072,2.293a11.929,11.929,0,0,0,3.973.062m6.718-.039c.288-.619.555-2.067-.119-2.322a6.94,6.94,0,0,0-3.936-.019c-.578.2-.562,2.04,0,2.266a9.492,9.492,0,0,0,4.057.074m6.708,0c.28-.681.515-1.987-.1-2.326a7.449,7.449,0,0,0-3.944-.035c-.571.243-.582,2.069-.014,2.288a9.52,9.52,0,0,0,4.062.073m-13.371,5.688c.276-.688.529-2.147-.232-2.359a7.1,7.1,0,0,0-3.822.037c-.665.222-.6,2.11,0,2.284a9.962,9.962,0,0,0,4.054.038m6.654.054c.313-.636.578-2.124-.167-2.386a6.963,6.963,0,0,0-3.824-.007c-.67.184-.632,2.114-.007,2.306a11.541,11.541,0,0,0,4,.087m6.652,0c.412-.674.563-1.988-.069-2.4a7,7,0,0,0-3.944.061c-.581.238-.483,1.893-.008,2.227,1.044.459,2.716.173,4.022.116" transform="translate(-139.026 -109.459)" fill="#12263f"/>
        <path id="Trazado_1000734" data-name="Trazado 1000734" d="M88.834,95.913a5.7,5.7,0,0,0-5.255,5.65l-.042,18.31c-7.171,2.3-15.361.718-20.549-4.8A14.936,14.936,0,0,1,60.4,98.123c2.022-4.2,5.929-8.875,9.08-12.382.417-.061.762.158,1.213.158H83.484c.458,0,.806-.206,1.239-.177a73.287,73.287,0,0,1,7.811,10.038,24.15,24.15,0,0,1-3.7.15m-12.9,15.525a1.093,1.093,0,0,0,1.371,1.085c1.548-.264.089-1.892,1.558-2.223a5.089,5.089,0,0,0,3.536-2.43,4.378,4.378,0,0,0-2.419-5.989c-2.127-.938-5.212-.823-5.806-2.417a2.12,2.12,0,0,1,.357-2.2,3.532,3.532,0,0,1,3.075-1c2.984.329,2.467,3.455,4.236,2.563a1.174,1.174,0,0,0,.49-1.551,5.594,5.594,0,0,0-3.975-3.2c-.24-.06-.2-.645-.193-.847a1.116,1.116,0,0,0-1.239-1.3c-1.336.137-.779,1.722-1.2,2.142-.131.13-2.833.661-3.654,2.921a4.222,4.222,0,0,0,.535,4.189c2.385,3.029,7.815,1.43,7.984,4.7a1.765,1.765,0,0,1-.749,1.606c-2.027,1.372-5.558,1.07-6.362-1.573a1.142,1.142,0,0,0-1.507-.778,1.193,1.193,0,0,0-.606,1.507,5.572,5.572,0,0,0,4.347,3.78c.26.063.207.719.226,1.01" transform="translate(-45.665 -66.508)" fill="#12263f"/>
        <path id="Trazado_1000735" data-name="Trazado 1000735" d="M3.159,66.364c.229-.9.9-1.632.988-2.455C3.733,62.6,2.9,61.4,2.634,59.963L.059,58.894a39.777,39.777,0,0,1-.007-4.2L2.61,53.609a19.906,19.906,0,0,1,1.606-3.914L3.173,47.182l2.906-2.957,2.6,1.026a17.823,17.823,0,0,1,3.895-1.593L13.647,41.1l4.165.017c.568.74.514,1.809,1.133,2.452l1.923.846c-1.509,4.62,2.365,5.163.306,6.092a8.3,8.3,0,1,0-9.18,13.69,22.152,22.152,0,0,0-1.093,5c-3.3-.787-.657-1.533-4.746.121a37.1,37.1,0,0,1-3-2.961" transform="translate(0 -31.89)" fill="#12263f"/>
        <path id="Trazado_1000736" data-name="Trazado 1000736" d="M114.933,9.5l-12.356,0-2.155-2.158a2.764,2.764,0,0,1-.267-3.579c1.666-2.29,4.038-.22,4.829-.505a1.523,1.523,0,0,0,1.044-1.066A2.811,2.811,0,0,1,108.715,0c3.492-.028,2.01,4.507,5.032,2.992a2.817,2.817,0,0,1,3.465.621,2.725,2.725,0,0,1-.056,3.616Z" transform="translate(-77.293 0)" fill="#12263f"/>
        <path id="Trazado_1000737" data-name="Trazado 1000737" d="M116.282,57.846l-12.006.021a2.7,2.7,0,1,1,.02-5.394l11.841,0a2.692,2.692,0,0,1,2.774,2.523,2.644,2.644,0,0,1-2.629,2.854" transform="translate(-78.792 -40.709)" fill="#12263f"/>
      </g>
    </g>
  </g>
</svg>
