<svg xmlns="http://www.w3.org/2000/svg" xmlns:xlink="http://www.w3.org/1999/xlink" width="84" height="74" viewBox="0 0 84 74">
  <defs>
    <clipPath id="clip-path">
      <rect id="Rectángulo_456153" data-name="Rectángulo 456153" width="58.426" height="55.394" fill="#12263f"/>
    </clipPath>
  </defs>
  <g id="Grupo_1191929" data-name="Grupo 1191929" transform="translate(-810 -9180)">
    <g id="Grupo_1191928" data-name="Grupo 1191928" transform="translate(835.574 9189)">
      <g id="Grupo_1191927" data-name="Grupo 1191927" clip-path="url(#clip-path)">
        <path id="Trazado_1000742" data-name="Trazado 1000742" d="M172.913,180.248a.762.762,0,0,0,.094-1.01c-.625-.816-1.722.731-4.371,1.333a31.083,31.083,0,0,1-13.888,0c-2.548-.584-3.591-1.977-4.269-1.417a.783.783,0,0,0-.109.953c.184.314.536.372.787.7-1,.446-3.887,1.2-4.669.277-1.243-1.468,1.564-5.857,1.114-8.189-.913-6.386,2.591-13.371,7.361-17.734a20.919,20.919,0,0,0,11.958.5,7.585,7.585,0,0,0,1.06,3.644.8.8,0,0,0,1.02.472c1.416-.556-1.189-2.26-.418-4.418a23.4,23.4,0,0,1,6.7,10.807,18.046,18.046,0,0,1,.506,7.117c-.244,2.49,3.039,7.792.453,8.169a7.654,7.654,0,0,1-4.005-.646c.2-.246.434-.311.674-.549m-10.349-3.406c.017-.015,3.89-.636,4.289-3.816.321-2.563-1.73-4.541-4.188-4.888-1.906-.269-3.834-.29-4.534-2.174a2.151,2.151,0,0,1,.386-2.268,4.578,4.578,0,0,1,6.481.047.723.723,0,0,0,1.126.016c.956-1.12-2.455-2.758-3.566-2.8-.137-.141-.122-.572-.119-.782a.737.737,0,0,0-.842-.838c-.917.085-.487,1.273-.748,1.645a4.984,4.984,0,0,0-4.074,2.845,4.131,4.131,0,0,0,3.486,5.433c1.7.25,4.248.323,4.963,2.267a2.368,2.368,0,0,1-.362,2.512,4.877,4.877,0,0,1-6.839.1c-.367-.363-.756-.541-1.183-.2-1.259.992,2.541,3.1,3.984,2.99.148.151.134.582.14.8a.745.745,0,0,0,.807.8c1-.094.481-1.4.793-1.68" transform="translate(-118.817 -126.121)" fill="#12263f"/>
        <path id="Trazado_1000743" data-name="Trazado 1000743" d="M202.418,113.632a20.154,20.154,0,0,1-12.374.042,17.829,17.829,0,0,0-1.4-6.758,24.687,24.687,0,0,1,15.171-.029,18.043,18.043,0,0,0-1.4,6.745" transform="translate(-153.349 -85.928)" fill="#12263f"/>
        <path id="Trazado_1000744" data-name="Trazado 1000744" d="M276.162,154.359l-1.675-1.241a19.5,19.5,0,0,1-2.178-2.286c1.105.048,5.363,1.977,4.863,3.172-.117.28-.6.656-1.009.356" transform="translate(-221.356 -122.609)" fill="#12263f"/>
        <path id="Trazado_1000745" data-name="Trazado 1000745" d="M27.776,28.318,27.6,40.349c-.034,2.394-.71,4.542-.266,6.994a6.5,6.5,0,0,1-.552,2.6l-.849,2.976L3.945,52.92A3.791,3.791,0,0,1,.009,49.349L0,3.54A3.637,3.637,0,0,1,3.391,0L36.655,0c2.2,0,3.489,2.121,3.484,4.079L40.1,18.443a28.969,28.969,0,0,0-6.968,1.732,13.7,13.7,0,0,1,2.076,6.938,1.246,1.246,0,0,1-.1.921,1.023,1.023,0,0,1-.848.282ZM5.055,18.307H35.029V6.149H5.055ZM9.074,23.3A2.279,2.279,0,1,0,6.8,25.579,2.279,2.279,0,0,0,9.074,23.3m3.6,5.009H5.35v7.371h7.32Zm11.181,0H16.536v7.371h7.315ZM12.67,39.5H5.35v7.328h7.32Zm11.181,0H16.536v7.33h7.315Z" transform="translate(0 0)" fill="#12263f"/>
        <path id="Trazado_1000746" data-name="Trazado 1000746" d="M33.588,121.032a.81.81,0,1,1-.81-.81.81.81,0,0,1,.81.81" transform="translate(-25.987 -97.727)" fill="#12263f"/>
        <path id="Trazado_1000747" data-name="Trazado 1000747" d="M48.428,62c-.008,1.017-1.986.713-3.5.7a.681.681,0,0,1-.719-.7.674.674,0,0,1,.716-.7c1.408-.053,3.515-.343,3.506.694" transform="translate(-35.934 -49.769)" fill="#12263f"/>
        <path id="Trazado_1000748" data-name="Trazado 1000748" d="M81.665,61.849c.222,1.191-2.064.882-3.527.839A.69.69,0,0,1,77.45,62c-.008-1.032,2.082-.749,3.492-.7a.709.709,0,0,1,.723.552" transform="translate(-62.958 -49.769)" fill="#12263f"/>
        <path id="Trazado_1000749" data-name="Trazado 1000749" d="M114.158,62.912l-2.625.007a.724.724,0,1,1,0-1.435l2.636.013a.662.662,0,0,1,.749.71.67.67,0,0,1-.756.7" transform="translate(-89.998 -49.979)" fill="#12263f"/>
      </g>
    </g>
    <rect id="Rectángulo_456154" data-name="Rectángulo 456154" width="84" height="74" transform="translate(810 9180)" fill="none"/>
  </g>
</svg>
