<svg xmlns="http://www.w3.org/2000/svg" xmlns:xlink="http://www.w3.org/1999/xlink" width="84" height="84" viewBox="0 0 84 84">
  <defs>
    <clipPath id="clip-path">
      <rect id="Rectángulo_456123" data-name="Rectángulo 456123" width="56.633" height="56.634" fill="#fff"/>
    </clipPath>
  </defs>
  <g id="Grupo_1190308" data-name="Grupo 1190308" transform="translate(-179.668 -5521)">
    <rect id="Rectángulo_402006" data-name="Rectángulo 402006" width="84" height="84" rx="5" transform="translate(179.668 5521)" fill="#004b84"/>
    <g id="Grupo_1191884" data-name="Grupo 1191884" transform="translate(193.351 5534.683)">
      <g id="Grupo_1191883" data-name="Grupo 1191883" clip-path="url(#clip-path)">
        <path id="Trazado_1000617" data-name="Trazado 1000617" d="M55.275,48.57a4.733,4.733,0,0,1-6.646,6.738L39.1,45.816a3.19,3.19,0,0,1-.741-2.912l-6.7-6.705A19.982,19.982,0,1,1,36.2,31.662l6.767,6.624c.947.134,2.376-.09,3.027,1.01ZM35.141,19.98A15.155,15.155,0,1,0,19.986,35.136,15.155,15.155,0,0,0,35.141,19.98M35.525,32.6l-2.912,2.912,6.376,6.376L41.9,38.98Z" transform="translate(0 0)" fill="#fff"/>
        <path id="Trazado_1000618" data-name="Trazado 1000618" d="M100.183,130.39a11.123,11.123,0,0,1-4.638.012l0-10.984a.786.786,0,0,1,.831-.8c1.054-.026,4.076-.325,3.812.8Z" transform="translate(-77.872 -96.64)" fill="#fff"/>
        <path id="Trazado_1000619" data-name="Trazado 1000619" d="M139.831,117.39a12.97,12.97,0,0,1-4.619,2.931l-.04-12.467a.751.751,0,0,1,.712-.738h3.162a.817.817,0,0,1,.775.9Z" transform="translate(-110.174 -87.305)" fill="#fff"/>
        <path id="Trazado_1000620" data-name="Trazado 1000620" d="M60.518,139.6a12.013,12.013,0,0,1-4.615-2.834l-.009-5.151a.783.783,0,0,1,.767-.787l3.148.014a.765.765,0,0,1,.733.77Z" transform="translate(-45.557 -106.63)" fill="#fff"/>
        <path id="Trazado_1000621" data-name="Trazado 1000621" d="M59.588,66.058l-5.812,4.259a.562.562,0,0,1-.707-.09c-.125-.162-.228-.6.016-.785L59,65.011a.869.869,0,0,1,1.226.02l3.445,3.2,6.283-4.37c-.461-.441-2.225-.006-2-1.082a.648.648,0,0,1,.84-.4,21.093,21.093,0,0,1,3.265.664,15.6,15.6,0,0,1-.574,3.73c-.076.262-.473.25-.633.213-.762-.176-.066-1.528-.23-2.169L64.107,69.35a.825.825,0,0,1-1.086-.112Z" transform="translate(-43.147 -50.825)" fill="#fff"/>
      </g>
    </g>
  </g>
</svg>
