<svg xmlns="http://www.w3.org/2000/svg" xmlns:xlink="http://www.w3.org/1999/xlink" width="292" height="285.368" viewBox="0 0 292 285.368">
  <defs>
    <clipPath id="clip-path">
      <rect id="Rectángulo_455984" data-name="Rectángulo 455984" width="292" height="266.368" fill="none"/>
    </clipPath>
    <clipPath id="clip-path-2">
      <rect id="Rectángulo_455958" data-name="Rectángulo 455958" width="292.001" height="266.367" fill="none"/>
    </clipPath>
    <clipPath id="clip-path-3">
      <rect id="Rectángulo_455918" data-name="Rectángulo 455918" width="277.684" height="238.164" fill="#c2ebf9"/>
    </clipPath>
    <clipPath id="clip-path-4">
      <rect id="Rectángulo_455957" data-name="Rectángulo 455957" width="8.982" height="9.509" fill="none"/>
    </clipPath>
    <clipPath id="clip-path-5">
      <path id="Trazado_1000216" data-name="Trazado 1000216" d="M439.9,197.563A21.266,21.266,0,1,0,461.166,176.3,21.267,21.267,0,0,0,439.9,197.563" transform="translate(-439.899 -176.297)" fill="none"/>
    </clipPath>
    <clipPath id="clip-path-7">
      <rect id="Rectángulo_455963" data-name="Rectángulo 455963" width="33.072" height="11.985" fill="none"/>
    </clipPath>
    <clipPath id="clip-path-8">
      <rect id="Rectángulo_455966" data-name="Rectángulo 455966" width="13.862" height="4.071" fill="none"/>
    </clipPath>
    <clipPath id="clip-path-9">
      <rect id="Rectángulo_455967" data-name="Rectángulo 455967" width="3.683" height="3.683" fill="none"/>
    </clipPath>
    <clipPath id="clip-path-10">
      <rect id="Rectángulo_455970" data-name="Rectángulo 455970" width="34.623" height="9.763" fill="none"/>
    </clipPath>
    <clipPath id="clip-path-11">
      <rect id="Rectángulo_455979" data-name="Rectángulo 455979" width="7.163" height="4.876" fill="none"/>
    </clipPath>
    <clipPath id="clip-path-12">
      <rect id="Rectángulo_455980" data-name="Rectángulo 455980" width="6.518" height="4.679" fill="none"/>
    </clipPath>
    <clipPath id="clip-path-13">
      <rect id="Rectángulo_455981" data-name="Rectángulo 455981" width="2.888" height="2.888" fill="none"/>
    </clipPath>
  </defs>
  <g id="Grupo_1191570" data-name="Grupo 1191570" transform="translate(-186 -4294)">
    <g id="Grupo_1191569" data-name="Grupo 1191569">
      <rect id="Rectángulo_455243" data-name="Rectángulo 455243" width="292" height="285" transform="translate(186 4294)" fill="none"/>
      <g id="Grupo_1191568" data-name="Grupo 1191568" transform="translate(186 4313)">
        <g id="Grupo_1191567" data-name="Grupo 1191567" clip-path="url(#clip-path)">
          <g id="Grupo_1191541" data-name="Grupo 1191541" transform="translate(0 0.001)">
            <g id="Grupo_1191540" data-name="Grupo 1191540" clip-path="url(#clip-path-2)">
              <path id="Trazado_1000185" data-name="Trazado 1000185" d="M981.7,393.524l-.388-.289c22.107-43.53,33.628-82.86,34.242-116.9.635-35.2-10.638-56.724-20.207-68.582-9.19-11.388-21.221-19.31-33.877-22.306-11.865-2.808-23.477-1.024-31.859,4.9l-.23-.477c8.476-5.986,20.2-7.794,32.176-4.96,12.746,3.017,24.862,10.995,34.116,22.462,9.63,11.933,20.975,33.587,20.337,68.98-.616,34.136-12.159,73.56-34.309,117.174" transform="translate(-724.035 -143.031)" fill="#e5e5ff"/>
              <g id="Grupo_1191533" data-name="Grupo 1191533" transform="translate(6.929 28.204)" opacity="0.4">
                <g id="Grupo_1191532" data-name="Grupo 1191532">
                  <g id="Grupo_1191531" data-name="Grupo 1191531" clip-path="url(#clip-path-3)">
                    <path id="Trazado_1000186" data-name="Trazado 1000186" d="M299.819,195.687c-10.324-27.08-30.38-48.246-55.326-51.925-19.9-2.935-39.92-3.328-59.909-4.8-21.1-1.559-41.753-6.3-62.6-10.452-13.383-2.666-25.107,1.272-38.083,6.971C66.175,143.262,49.048,168.4,41.318,188.5,22.7,236.952,32.982,297.89,49.391,345.1c.8,2.313,6.346,20.716,8.007,20.716H274.432C287.525,342.568,298.256,317,304.213,290.6c7.079-31.372,7-65.013-4.394-94.91" transform="translate(-31.362 -127.653)" fill="#c2ebf9"/>
                  </g>
                </g>
              </g>
              <path id="Trazado_1000187" data-name="Trazado 1000187" d="M11.346,319.59C2.824,287.418-.928,259.441.194,236.438c.933-19.132,5.235-35.022,12.786-47.229,17.3-27.968,46.2-27.416,46.493-27.406l-.011.552c-.281-.01-28.962-.55-46.12,27.191-7.5,12.119-11.766,27.909-12.693,46.93-1.118,22.933,2.628,50.84,11.131,82.945Z" transform="translate(0 -126.052)" fill="#67ccf1"/>
              <path id="Trazado_1000188" data-name="Trazado 1000188" d="M378.85,198.275H190.294a6.806,6.806,0,0,1-6.806-6.806V8.059a6.806,6.806,0,0,1,6.806-6.806H378.85a6.806,6.806,0,0,1,6.806,6.806v183.41a6.806,6.806,0,0,1-6.806,6.806" transform="translate(-142.946 -0.977)" fill="#c2ebf9"/>
              <path id="Trazado_1000189" data-name="Trazado 1000189" d="M377.876,197.578H189.32a7.091,7.091,0,0,1-7.082-7.083V7.085A7.091,7.091,0,0,1,189.32,0H377.876a7.091,7.091,0,0,1,7.083,7.082V190.5a7.091,7.091,0,0,1-7.083,7.083M189.32.555a6.537,6.537,0,0,0-6.53,6.53V190.5a6.538,6.538,0,0,0,6.53,6.53H377.876a6.538,6.538,0,0,0,6.53-6.53V7.085a6.538,6.538,0,0,0-6.53-6.53Z" transform="translate(-141.973 -0.003)" fill="#cbcbff"/>
              <rect id="Rectángulo_455919" data-name="Rectángulo 455919" width="43.085" height="3.144" transform="translate(176.425 23.231)" fill="#67ccf1"/>
              <rect id="Rectángulo_455920" data-name="Rectángulo 455920" width="68.647" height="3.144" transform="translate(162.892 36.764)" fill="#67ccf1"/>
              <rect id="Rectángulo_455921" data-name="Rectángulo 455921" width="61.829" height="3.144" transform="translate(162.892 46.062)" fill="#67ccf1"/>
              <rect id="Rectángulo_455922" data-name="Rectángulo 455922" width="54.728" height="3.144" transform="translate(162.892 55.36)" fill="#67ccf1"/>
              <rect id="Rectángulo_455923" data-name="Rectángulo 455923" width="68.647" height="3.144" transform="translate(162.892 64.659)" fill="#67ccf1"/>
              <rect id="Rectángulo_455924" data-name="Rectángulo 455924" width="50.673" height="3.144" transform="translate(162.892 73.957)" fill="#67ccf1"/>
              <rect id="Rectángulo_455925" data-name="Rectángulo 455925" width="65.885" height="3.144" transform="translate(55.115 124.959)" fill="#67ccf1"/>
              <rect id="Rectángulo_455926" data-name="Rectángulo 455926" width="170.353" height="3.144" transform="translate(55.304 133.521)" fill="#67ccf1"/>
              <rect id="Rectángulo_455927" data-name="Rectángulo 455927" width="79.34" height="83.966" transform="translate(55.218 23.231)" fill="#fff"/>
              <rect id="Rectángulo_455928" data-name="Rectángulo 455928" width="5.516" height="19.311" transform="translate(62.393 78.698)" fill="#fe93c4"/>
              <rect id="Rectángulo_455929" data-name="Rectángulo 455929" width="5.516" height="16.589" transform="translate(72.306 81.419)" fill="#e0e0ff"/>
              <rect id="Rectángulo_455930" data-name="Rectángulo 455930" width="5.516" height="27.109" transform="translate(82.218 70.899)" fill="#fe93c4"/>
              <rect id="Rectángulo_455931" data-name="Rectángulo 455931" width="5.516" height="25.168" transform="translate(92.13 72.84)" fill="#e0e0ff"/>
              <rect id="Rectángulo_455932" data-name="Rectángulo 455932" width="5.516" height="33.855" transform="translate(102.043 64.153)" fill="#fe93c4"/>
              <rect id="Rectángulo_455933" data-name="Rectángulo 455933" width="5.516" height="38.549" transform="translate(111.955 59.459)" fill="#e0e0ff"/>
              <rect id="Rectángulo_455934" data-name="Rectángulo 455934" width="5.516" height="42.734" transform="translate(121.868 55.274)" fill="#fe93c4"/>
              <path id="Trazado_1000190" data-name="Trazado 1000190" d="M298.641,213.645l-10.417-4.167.2-.5,10.122,4.049,10.313-8.535,9.621.224,29-17.908.282.456-29.135,17.992-9.579-.223Z" transform="translate(-224.541 -145.535)" fill="#67ccf1"/>
              <rect id="Rectángulo_455935" data-name="Rectángulo 455935" width="11.318" height="4.705" transform="translate(61.389 39.866)" fill="#67ccf1"/>
              <rect id="Rectángulo_455936" data-name="Rectángulo 455936" width="10.587" height="0.552" transform="translate(76.446 42.564)" fill="#67ccf1"/>
              <path id="Trazado_1000191" data-name="Trazado 1000191" d="M928.882,411.666a12.356,12.356,0,1,1-12.356-12.356,12.356,12.356,0,0,1,12.356,12.356" transform="translate(-704.394 -311.083)" fill="#fff"/>
              <path id="Trazado_1000192" data-name="Trazado 1000192" d="M757.178,424.017a12.359,12.359,0,0,1-1.912-24.568,12.6,12.6,0,0,1,1.912-.145,12.357,12.357,0,0,1,0,24.713" transform="translate(-580.256 -311.079)" fill="#fff"/>
              <path id="Trazado_1000193" data-name="Trazado 1000193" d="M794,411.663l-1.912-12.214A12.638,12.638,0,0,1,794,399.3a12.3,12.3,0,0,1,9.2,4.114Z" transform="translate(-617.075 -311.079)" fill="#67ccf1"/>
              <rect id="Rectángulo_455937" data-name="Rectángulo 455937" width="169.553" height="32.59" transform="translate(56.565 148.432)" fill="#fff"/>
              <path id="Trazado_1000194" data-name="Trazado 1000194" d="M426.342,705.127H256.38v-33H426.342Zm-169.548-.414H425.928V672.537H256.794Z" transform="translate(-199.733 -523.619)" fill="#b7b7ff"/>
              <rect id="Rectángulo_455938" data-name="Rectángulo 455938" width="169.548" height="0.414" transform="translate(56.854 174.576)" fill="#b7b7ff"/>
              <rect id="Rectángulo_455939" data-name="Rectángulo 455939" width="169.548" height="0.414" transform="translate(56.854 168.059)" fill="#b7b7ff"/>
              <rect id="Rectángulo_455940" data-name="Rectángulo 455940" width="169.548" height="0.414" transform="translate(56.854 161.54)" fill="#b7b7ff"/>
              <rect id="Rectángulo_455941" data-name="Rectángulo 455941" width="169.548" height="0.414" transform="translate(56.854 155.022)" fill="#b7b7ff"/>
              <rect id="Rectángulo_455942" data-name="Rectángulo 455942" width="0.414" height="32.59" transform="translate(197.937 148.712)" fill="#b7b7ff"/>
              <rect id="Rectángulo_455943" data-name="Rectángulo 455943" width="0.414" height="32.59" transform="translate(169.679 148.712)" fill="#b7b7ff"/>
              <rect id="Rectángulo_455944" data-name="Rectángulo 455944" width="0.414" height="32.59" transform="translate(141.421 148.712)" fill="#b7b7ff"/>
              <rect id="Rectángulo_455945" data-name="Rectángulo 455945" width="0.414" height="32.59" transform="translate(113.163 148.712)" fill="#b7b7ff"/>
              <rect id="Rectángulo_455946" data-name="Rectángulo 455946" width="0.414" height="32.59" transform="translate(84.905 148.712)" fill="#b7b7ff"/>
              <path id="Trazado_1000195" data-name="Trazado 1000195" d="M276.531,718.369c2.465-3.434,3-7.856,5.2-11.472a9.938,9.938,0,0,1,4.464-4.3c3.392-1.36,4.257,3.017,4.329,5.448.106,3.576-.487,7.456,2.467,10.14a3.913,3.913,0,0,0,3.621,1.075c1.6-.424,2.588-1.885,3.378-3.228,2.261-3.844,3.7-8.25,5.268-12.408.793-2.1,1.8-4.791,3.88-5.968,2.962-1.677,3.286,2.034,3.279,3.99-.008,2.144.015,4.287.033,6.431.009,1.03-.2,3.18,1.008,3.754.713.338,1.277-.307,1.677-.826.348-.451.589-.978.936-1.426a1.536,1.536,0,0,1,1.206-.726c.541-.045.8-.051,1.168.447a2.994,2.994,0,0,1,.386.995c.426,1.608-.012,3.43.9,4.915a2.928,2.928,0,0,0,2.623,1.49c2.07-.327,2.6-3.7,2.844-5.321a53.176,53.176,0,0,1,1.24-6.443c.6-2.132,1.382-4.679,3-6.273a3.138,3.138,0,0,1,2.38-1.11c1.334.15,1.751,1.655,2.077,2.734a26.1,26.1,0,0,1,1.175,7.532c0,1.76-.513,3.962.66,5.485a2.684,2.684,0,0,0,2.719,1.032c1.493-.372,1.854-1.822,2.157-3.136a5.526,5.526,0,0,1,.2-.782c.291-.741.407-.827,1.206-.86.88-.036.914.17,1.056.9a20.853,20.853,0,0,0,.29,2.2c.28.919.926,1.765,1.989,1.448a3.3,3.3,0,0,0,1.831-2.23c.932-2.55.846-5.374.985-8.043a13.115,13.115,0,0,1,1.051-5.272c.531-1.044,2.1-2.735,3.313-1.634,1.578,1.434,1.424,4.928,1.46,6.856.077,4.138-.617,8.293-.038,12.417.216,1.542.654,3.845,2.366,4.429,2.37.808,4.116-1.773,4.746-3.66.5-1.5.615-3.072.972-4.6.187-.805.474-2.277,1.574-1.817.948.4,1.34,1.738,2.173,2.344,2.693,1.959,4.341-1.862,4.658-3.929.463-3.022-.014-6.352,1.117-9.243a4.089,4.089,0,0,1,1.407-1.949c1.645-1.083,3.265.415,3.76,1.947a12.782,12.782,0,0,1,.327,3.672c.024,1.309.059,2.618.083,3.927.04,2.162-.154,4.37-.015,6.525a4.552,4.552,0,0,0,1.957,3.707c3.249,2.122,7.047-1.189,9.119-3.512a27.93,27.93,0,0,0,5.159-9.07,24.8,24.8,0,0,1,2.2-4.867c.529-.824,2-2.8,3.207-2.254.786.355,1.047,1.777,1.216,2.509a26.192,26.192,0,0,1,.525,3.768c.2,2.4.209,4.812.253,7.221.037,2.039.21,5.116,2.477,5.941,3.54,1.29,5.229-3.78,6.209-6.122.812-1.939,1.8-4.57,3.689-5.724,1.605-.98,2.723.532,3.316,1.877a10.66,10.66,0,0,1,.88,4.13c.013.983-.064,2.214,1.012,2.688,2.349,1.035,4.489-2.851,5.4-4.382.833-1.4,1.464-2.86,2.162-4.324.876-1.84,3.747-5.358,4.941-1.832a10.7,10.7,0,0,1,.2,4.143c-.1,1.56-.212,3.124-.163,4.687.057,1.807.384,5.748,3.11,5.329,1.652-.254,3.353-2.073,4.59-3.1a60.267,60.267,0,0,0,5.147-4.849c.245-.258-.145-.649-.39-.391a60.308,60.308,0,0,1-5.147,4.849,37.528,37.528,0,0,1-3.008,2.338,2,2,0,0,1-3.245-.905c-1.069-2.763-.418-6.181-.274-9.057.085-1.71-.129-5.623-2.749-5.149-1.569.285-2.653,1.977-3.309,3.282-.744,1.48-1.352,3-2.189,4.439a12.413,12.413,0,0,1-3.169,4.073c-1.043.721-2.264.38-2.381-1.021-.053-.639.015-1.275-.06-1.918-.218-1.854-.923-4.917-2.931-5.668-2.786-1.042-4.816,3.646-5.608,5.481-.812,1.878-1.441,4.285-2.942,5.75a2.649,2.649,0,0,1-3.857.2,5.937,5.937,0,0,1-1.1-3.376c-.43-4.366.221-8.877-1.025-13.158-.359-1.234-1.043-2.759-2.571-2.219-2.561.907-3.727,4.234-4.6,6.527-1.395,3.665-2.941,7.173-5.659,10.087-1.568,1.681-3.842,3.759-6.3,3.71-3.222-.065-3.623-3.28-3.531-5.743.091-2.409,0-4.825-.057-7.234-.042-1.941.219-4.255-.739-6.03a3.248,3.248,0,0,0-3.241-1.8,3.746,3.746,0,0,0-2.436,2.252c-1.233,2.644-.907,5.833-1.185,8.662-.159,1.616-.446,4.388-2.338,4.95-2.379.707-2.455-2.868-4.456-2.937-2.122-.072-2.139,5.023-2.506,6.364-.453,1.654-1.314,3.628-3.2,3.987a2.154,2.154,0,0,1-2.394-1.513c-1.029-2.278-.9-5.149-.839-7.59.048-1.823.211-3.641.243-5.465.034-1.966.426-10.41-3.324-9.5-2.594.626-3.258,3.976-3.489,6.2-.307,2.957-.047,5.987-.891,8.875a4.184,4.184,0,0,1-1.139,2.128c-.655.532-1.436.077-1.758-.607a4.6,4.6,0,0,1-.251-1.544c-.073-.841-.178-2.092-1.115-2.445-1.083-.408-1.971.7-2.3,1.588-.4,1.1-.272,2.551-1.391,3.28a2.1,2.1,0,0,1-2.983-1.042,7.56,7.56,0,0,1-.306-3.72,23.111,23.111,0,0,0-.139-3.694,22.067,22.067,0,0,0-1.485-6.286c-1.18-2.656-3.807-1.95-5.372-.042-2.655,3.239-3.323,8.164-3.9,12.16a12.731,12.731,0,0,1-1,3.784c-.294.6-.716,1.312-1.431,1.433-1.2.2-2.186-1.177-2.449-2.157-.427-1.594-.024-7.248-3.342-5.512-1.03.539-1.129,1.825-2.007,2.472-1.374,1.011-1.458-1.224-1.468-2.089-.015-1.3-.022-2.6-.034-3.894a47.193,47.193,0,0,0-.095-5.287c-.136-1.107-.473-2.4-1.616-2.853-3.093-1.235-5.4,3.757-6.231,5.85-1.76,4.438-3.17,9.182-5.646,13.289-1.359,2.255-3.678,3.944-6.007,1.833a7.967,7.967,0,0,1-2.32-5.893c-.057-2.821.788-8.522-2.593-9.988-2.946-1.278-6.069,2.786-7.315,4.876-2.129,3.571-2.68,7.932-5.1,11.3-.207.289.271.565.477.279" transform="translate(-215.02 -542.228)" fill="#004b84"/>
              <path id="Trazado_1000200" data-name="Trazado 1000200" d="M1071.162,18.04a21.009,21.009,0,0,0-11.786,38.4l-.806,9.678,7.885-6.6a21.007,21.007,0,1,0,4.707-41.48" transform="translate(-818.123 -14.055)" fill="#fff"/>
              <path id="Trazado_1000201" data-name="Trazado 1000201" d="M1057.266,65.78l.848-10.177a21.335,21.335,0,1,1,7.44,3.243Zm12.922-48.438a20.732,20.732,0,0,0-11.63,37.9l.133.091-.765,9.18,7.483-6.261.134.031a20.731,20.731,0,1,0,4.646-40.935" transform="translate(-817.149 -13.081)" fill="#5254cf"/>
              <rect id="Rectángulo_455953" data-name="Rectángulo 455953" width="6.247" height="6.482" transform="translate(250.368 29.413)" fill="#fff"/>
              <path id="Trazado_1000202" data-name="Trazado 1000202" d="M1138.695,138.91h-6.8v-7.035h6.8Zm-6.246-.552h5.694v-5.93h-5.694Z" transform="translate(-881.804 -102.738)" fill="#5254cf"/>
              <path id="Trazado_1000203" data-name="Trazado 1000203" d="M1134.479,94.983a5.068,5.068,0,1,0-9.463,2.521,8.947,8.947,0,0,1,1.271,4.459v1.152h6.247v-1.2a8.76,8.76,0,0,1,1.262-4.4,5.03,5.03,0,0,0,.683-2.538" transform="translate(-875.921 -70.049)" fill="#fff"/>
              <path id="Trazado_1000204" data-name="Trazado 1000204" d="M1131.836,102.418h-6.8V100.99a8.606,8.606,0,0,0-1.234-4.321,5.326,5.326,0,0,1-.71-2.726,5.412,5.412,0,0,1,5.092-5.272,5.341,5.341,0,0,1,4.875,8.015,8.428,8.428,0,0,0-1.224,4.258Zm-6.246-.552h5.694v-.922a8.967,8.967,0,0,1,1.3-4.536,4.79,4.79,0,0,0-4.373-7.185,4.852,4.852,0,0,0-4.565,4.727,4.777,4.777,0,0,0,.636,2.443,9.146,9.146,0,0,1,1.309,4.6Z" transform="translate(-874.946 -69.075)" fill="#5254cf"/>
              <path id="Trazado_1000205" data-name="Trazado 1000205" d="M1135.7,104.243a.967.967,0,1,1-.049-1.546,1.117,1.117,0,0,1,.049,1.546" transform="translate(-883.367 -79.904)" fill="#fff"/>
              <path id="Trazado_1000206" data-name="Trazado 1000206" d="M1133.69,104.16a1.017,1.017,0,0,1-.591-.183,1.094,1.094,0,0,1-.447-.891,1.819,1.819,0,0,1,1.2-1.7,1.05,1.05,0,0,1,1.436,1.008,1.821,1.821,0,0,1-1.2,1.7,1.283,1.283,0,0,1-.4.066m.553-2.291a.719.719,0,0,0-.224.038,1.271,1.271,0,0,0-.815,1.162.5.5,0,0,0,.713.5,1.186,1.186,0,0,0,.585-.456,1.2,1.2,0,0,0,.23-.7.557.557,0,0,0-.212-.456.476.476,0,0,0-.277-.082" transform="translate(-882.393 -78.932)" fill="#5254cf"/>
              <rect id="Rectángulo_455954" data-name="Rectángulo 455954" width="0.552" height="4.017" transform="matrix(0.622, -0.783, 0.783, 0.622, 243.419, 16.487)" fill="#5254cf"/>
              <rect id="Rectángulo_455955" data-name="Rectángulo 455955" width="0.553" height="5.393" transform="matrix(0.999, -0.032, 0.032, 0.999, 252.743, 10.8)" fill="#5254cf"/>
              <rect id="Rectángulo_455956" data-name="Rectángulo 455956" width="4.547" height="0.552" transform="matrix(0.717, -0.697, 0.697, 0.717, 259.322, 18.14)" fill="#5254cf"/>
              <path id="Trazado_1000207" data-name="Trazado 1000207" d="M63.295,68.521A18.469,18.469,0,1,0,49.667,86.346l6.412,5.365-.671-8.055a18.445,18.445,0,0,0,7.888-15.134" transform="translate(-20.531 -38.993)" fill="#fff"/>
              <path id="Trazado_1000208" data-name="Trazado 1000208" d="M55.436,91.374l-6.809-5.7a18.765,18.765,0,1,1,6.1-2.86Zm-6.675-6.306L54.775,90.1l-.629-7.554.13-.091a18.153,18.153,0,1,0-5.654,2.65Z" transform="translate(-19.558 -38.019)" fill="#5254cf"/>
              <path id="Trazado_1000209" data-name="Trazado 1000209" d="M90.383,112.9l-5.237-5.237.39-.391,4.666,4.666L95.61,99.62l.506.222Z" transform="translate(-66.333 -77.609)" fill="#5254cf"/>
              <path id="Trazado_1000210" data-name="Trazado 1000210" d="M235.365,319.524l-4.953,2.9-52.666,30.861c-1.62.95-3.518.726-4.269-.505l0,0c-.752-1.231-.084-3.021,1.5-4.029l51.408-32.688,4.947-3.145Z" transform="translate(-134.904 -243.777)" fill="#004b84"/>
              <g id="Grupo_1191539" data-name="Grupo 1191539" transform="translate(91.478 69.138)" opacity="0.6">
                <g id="Grupo_1191538" data-name="Grupo 1191538">
                  <g id="Grupo_1191537" data-name="Grupo 1191537" clip-path="url(#clip-path-4)">
                    <path id="Trazado_1000211" data-name="Trazado 1000211" d="M423.006,319.524l-4.953,2.9a15.636,15.636,0,0,1-2.533-3.152,15.854,15.854,0,0,1-1.5-3.213l4.947-3.145Z" transform="translate(-414.024 -312.915)" fill="#1b1b43"/>
                  </g>
                </g>
              </g>
              <path id="Trazado_1000212" data-name="Trazado 1000212" d="M414.294,339.483a1.657,1.657,0,1,1,.551-2.278,1.657,1.657,0,0,1-.551,2.278" transform="translate(-320.792 -262.082)" fill="#fff"/>
              <path id="Trazado_1000213" data-name="Trazado 1000213" d="M457.357,202.467a26.218,26.218,0,1,1,8.713-36.039,26.218,26.218,0,0,1-8.713,36.039" transform="translate(-325.232 -119.872)" fill="#004b84"/>
              <path id="Trazado_1000214" data-name="Trazado 1000214" d="M482.433,197.563A21.266,21.266,0,1,1,461.166,176.3a21.266,21.266,0,0,1,21.266,21.266" transform="translate(-342.704 -137.345)" fill="#fff"/>
            </g>
          </g>
          <g id="Grupo_1191543" data-name="Grupo 1191543" transform="translate(97.195 38.953)">
            <g id="Grupo_1191542" data-name="Grupo 1191542" clip-path="url(#clip-path-5)">
              <rect id="Rectángulo_455959" data-name="Rectángulo 455959" width="6.666" height="40.913" transform="translate(5.955 28.455)" fill="#fe93c4"/>
              <rect id="Rectángulo_455960" data-name="Rectángulo 455960" width="6.666" height="46.585" transform="translate(17.933 23.059)" fill="#e0e0ff"/>
              <rect id="Rectángulo_455961" data-name="Rectángulo 455961" width="6.666" height="51.642" transform="translate(29.912 17.265)" fill="#fe93c4"/>
              <rect id="Rectángulo_455962" data-name="Rectángulo 455962" width="32.069" height="0.829" transform="translate(-1.413 19.225) rotate(-17.744)" fill="#67ccf1"/>
              <path id="Trazado_1000215" data-name="Trazado 1000215" d="M557.582,219.028l-.675-.481,2.012-2.825-2.913-1,.269-.784,3.216,1.1a.567.567,0,0,1,.378.384.579.579,0,0,1-.114.548Zm1.637-3.2.026.009Zm-.117-.36a.1.1,0,0,0-.012.017Z" transform="translate(-530.351 -205.624)" fill="#67ccf1"/>
            </g>
          </g>
          <g id="Grupo_1191566" data-name="Grupo 1191566" transform="translate(0 0.001)">
            <g id="Grupo_1191565" data-name="Grupo 1191565" clip-path="url(#clip-path-2)">
              <path id="Trazado_1000217" data-name="Trazado 1000217" d="M259.176,1119.59c-3.336.05-8.12.127-11.213.171.033-1.5.088-2.988.155-4.353.149-3.4.342-6.032.342-6.032l9.562-.066s-.044.95,0,2.375a30.465,30.465,0,0,0,1.154,7.9" transform="translate(-193.176 -864.209)" fill="#ffbc96"/>
              <path id="Trazado_1000218" data-name="Trazado 1000218" d="M262.736,1160.506c-1.834-.568-2.982-2.441-3.7-4.677-3.339.052-8.122.126-11.218.172a57.555,57.555,0,0,0,.286,9.059,1.789,1.789,0,0,0,1.762,1.5H266.3a2.311,2.311,0,0,0,2.356-2.452c-.166-1.594-2.046-2.4-5.917-3.6" transform="translate(-193.032 -900.45)" fill="#1b1b43"/>
              <path id="Trazado_1000219" data-name="Trazado 1000219" d="M258.567,1111.685l-9.9,3.723c.149-3.4.342-6.032.342-6.032l9.562-.066s-.044.95,0,2.375" transform="translate(-193.721 -864.209)" fill="#d28572"/>
              <path id="Trazado_1000220" data-name="Trazado 1000220" d="M253.195,1187.856a4.98,4.98,0,0,0-2.072-3.441,3.933,3.933,0,0,0-2.83-.4l-.153-.531a4.413,4.413,0,0,1,3.261.455,5.49,5.49,0,0,1,2.334,3.8Z" transform="translate(-193.314 -921.893)" fill="#656590"/>
              <path id="Trazado_1000221" data-name="Trazado 1000221" d="M30.226,1089.485a40.535,40.535,0,0,0-1.823,5.5,24.074,24.074,0,0,0-.735,4.524c-3.143-1.132-7.639-2.756-10.556-3.811,1.353-3.325,2.8-6.584,3.579-8.3l.022-.044c.337-.751.541-1.193.541-1.193Z" transform="translate(-13.332 -846.174)" fill="#ffbc96"/>
              <path id="Trazado_1000222" data-name="Trazado 1000222" d="M19,1138.815c-1.515-1.18-1.925-3.339-1.806-5.684-3.141-1.133-7.641-2.757-10.553-3.809A57.512,57.512,0,0,0,3.7,1137.9a1.788,1.788,0,0,0,1.118,2.023l15.368,5.816a2.311,2.311,0,0,0,3.071-1.46c.409-1.549-1.064-2.969-4.26-5.46" transform="translate(-2.859 -879.8)" fill="#1b1b43"/>
              <path id="Trazado_1000223" data-name="Trazado 1000223" d="M41.776,1089.485a40.534,40.534,0,0,0-1.823,5.5l-8.015-6.745.3-.84.022-.044c.337-.751.541-1.193.541-1.193Z" transform="translate(-24.881 -846.174)" fill="#d28572"/>
              <path id="Trazado_1000224" data-name="Trazado 1000224" d="M12.207,1157.427l-.49-.256a4.236,4.236,0,0,0-1.724-5.979l.256-.49a4.842,4.842,0,0,1,1.958,6.725" transform="translate(-7.785 -896.456)" fill="#656590"/>
              <path id="Trazado_1000225" data-name="Trazado 1000225" d="M187.168,695.425l-17.582,1.381L165.9,634.018l-5.446-20.642-7.126-26.995-.37-1.409-1.718-6.507-.254-.972,3.364-.3,18.179-1.629,1.1,4.971v.006l10.887,49.233a26.848,26.848,0,0,1,.619,4.877Z" transform="translate(-117.627 -448.391)" fill="#5254cf"/>
              <path id="Trazado_1000226" data-name="Trazado 1000226" d="M59.6,606.223l-1.4,13.969-2.265,22.614a31.7,31.7,0,0,1-1.729,7.628L35.481,702.242l-15.743-6.076,14.638-53.028c3.773-21.83,3.149-38.583,4.121-49.211.061-.663.127-1.3.2-1.911a21.7,21.7,0,0,1,2.033-7.706l8.264.972,5.822.685,1.265,5.352.254,1.083Z" transform="translate(-15.377 -455.208)" fill="#5254cf"/>
              <g id="Grupo_1191546" data-name="Grupo 1191546" transform="translate(23.12 127.169)" opacity="0.6">
                <g id="Grupo_1191545" data-name="Grupo 1191545">
                  <g id="Grupo_1191544" data-name="Grupo 1191544" clip-path="url(#clip-path-7)">
                    <path id="Trazado_1000227" data-name="Trazado 1000227" d="M137.521,580.531l.19,2.117s-24.673,6.629-33.072,4.461c.061-.663.127-1.3.2-1.911a21.705,21.705,0,0,1,2.033-7.706l8.264.972-.254-.972,3.364-.3,18.179-1.629Z" transform="translate(-104.638 -575.56)" fill="#1b1b43"/>
                  </g>
                </g>
              </g>
              <path id="Trazado_1000228" data-name="Trazado 1000228" d="M164.363,717.138l-8.248-32.58-6.759-2.162.168-.526,7.05,2.256.038.148L164.9,717Z" transform="translate(-116.357 -531.211)" fill="#1b1b43"/>
              <path id="Trazado_1000229" data-name="Trazado 1000229" d="M273.868,835.052l-.194-.517a38.691,38.691,0,0,0,6.714-3.15l.3.464a38.381,38.381,0,0,1-6.819,3.2" transform="translate(-213.206 -647.692)" fill="#1b1b43"/>
              <path id="Trazado_1000230" data-name="Trazado 1000230" d="M149.62,865.788a60.363,60.363,0,0,1-8.329-1.526l.143-.534a59.922,59.922,0,0,0,8.242,1.512Z" transform="translate(-110.073 -672.888)" fill="#1b1b43"/>
              <rect id="Rectángulo_455964" data-name="Rectángulo 455964" width="0.553" height="17.068" transform="translate(5.647 236.706) rotate(-69.805)" fill="#1b1b43"/>
              <rect id="Rectángulo_455965" data-name="Rectángulo 455965" width="17.582" height="0.553" transform="translate(51.707 243.579) rotate(-4.035)" fill="#1b1b43"/>
              <path id="Trazado_1000231" data-name="Trazado 1000231" d="M77.893,403.477l-7.472,3.008a8.789,8.789,0,0,0-4.814,4.734l-6.271,15.01a7.478,7.478,0,0,0,9.48,9.9l5.3-1.949Z" transform="translate(-45.775 -314.33)" fill="#ffb147"/>
              <path id="Trazado_1000232" data-name="Trazado 1000232" d="M370.322,341.242c-1.4.69-3.007,3.628-2.4,4.685.5.866,1.667-.306,2.052-.708.707-.738,2.531-2.71,1.524-3.831a.914.914,0,0,0-1.18-.145" transform="translate(-286.529 -265.731)" fill="#ffbc96"/>
              <path id="Trazado_1000233" data-name="Trazado 1000233" d="M358.921,345.431c-1.159,1.041-1.919,4.3-1.046,5.157.715.7,1.523-.743,1.785-1.234.482-.9,1.707-3.292.436-4.1a.914.914,0,0,0-1.175.177" transform="translate(-278.508 -268.859)" fill="#ffbc96"/>
              <path id="Trazado_1000234" data-name="Trazado 1000234" d="M348.512,352.86c-1.171,1-2,4.092-1.149,4.876.693.643,1.525-.733,1.8-1.2.5-.859,1.763-3.135.521-3.868a.955.955,0,0,0-1.168.193" transform="translate(-270.343 -274.649)" fill="#ffbc96"/>
              <path id="Trazado_1000235" data-name="Trazado 1000235" d="M338.837,356.317c-1.171,1-2,4.092-1.149,4.876.693.642,1.525-.733,1.8-1.2.5-.859,1.763-3.135.521-3.868a.955.955,0,0,0-1.168.193" transform="translate(-262.806 -277.342)" fill="#ffbc96"/>
              <path id="Trazado_1000236" data-name="Trazado 1000236" d="M107.894,397.721,100.115,411.1s2.025,22.1.552,24.809-4.787,4.845-2.762,6.4,18.044,4.264,35.352.194c4.787-1.357,1.473-3.876.368-5.039s-2.578-30.43-2.578-30.43l-9.954-9.07-7.354-1.978Z" transform="translate(-75.776 -308.487)" fill="#ffb147"/>
              <g id="Grupo_1191549" data-name="Grupo 1191549" transform="translate(31.305 88.157)" opacity="0.2">
                <g id="Grupo_1191548" data-name="Grupo 1191548">
                  <g id="Grupo_1191547" data-name="Grupo 1191547" clip-path="url(#clip-path-8)">
                    <path id="Trazado_1000237" data-name="Trazado 1000237" d="M155.548,400.31c-1.381,2.417-17.635,4.9-13.05-.322l4.7-.99Z" transform="translate(-141.686 -398.998)" fill="#1b1b43"/>
                  </g>
                </g>
              </g>
              <path id="Trazado_1000238" data-name="Trazado 1000238" d="M226.053,420.678l-6.413-9.513a10.226,10.226,0,0,0-6.7-4.666l-7.789-1.564,4.6,17.262s7.181,10.081,13.671,12.428c5.825,2.107,13.551-1.353,17.811-24.121l-9.658-1.317Z" transform="translate(-159.826 -315.466)" fill="#ffb147"/>
              <path id="Trazado_1000239" data-name="Trazado 1000239" d="M339.715,368.885c-.976-.125-4.327,4.925-4.327,4.925l-5.415,1.844a7.81,7.81,0,0,0-4.521,4.007l-.692,1.439,9.658,1.317c.159-.85.315-1.719.464-2.623,3.314-2.992,7-10.633,4.833-10.909" transform="translate(-253.005 -287.379)" fill="#ffbc96"/>
              <path id="Trazado_1000240" data-name="Trazado 1000240" d="M203.97,308.349l1.959,2.71a.85.85,0,0,1-.43,1.3l-2.091.807-1.475-3.275Z" transform="translate(-157.315 -240.22)" fill="#d28572"/>
              <path id="Trazado_1000241" data-name="Trazado 1000241" d="M153.838,340.536a82.705,82.705,0,0,0,.293-9.976l8.926.646a26.7,26.7,0,0,0-.05,3.055,40.986,40.986,0,0,0,.5,4.877c.138.878.3,1.74.47,2.569Z" transform="translate(-119.848 -257.524)" fill="#ffbc96"/>
              <path id="Trazado_1000242" data-name="Trazado 1000242" d="M179.144,351.954a10.356,10.356,0,0,1-5.231-4.944l4.734.066a40.977,40.977,0,0,0,.5,4.877" transform="translate(-135.487 -270.339)" fill="#d28572"/>
              <path id="Trazado_1000243" data-name="Trazado 1000243" d="M147.234,375.7l-1.871,6.138a32.692,32.692,0,0,0,13.211.322l-1.2-5.288Z" transform="translate(-113.245 -292.688)" fill="#fff5e8"/>
              <path id="Trazado_1000244" data-name="Trazado 1000244" d="M162.438,282.774l.925,12.35a1.7,1.7,0,0,1-.7,1.439,4.027,4.027,0,0,1-2.926,1.019l-6.325-.263-4.511-5.063,3.5-10.771,6.352-.092Z" transform="translate(-116.005 -219.22)" fill="#ffbc96"/>
              <path id="Trazado_1000245" data-name="Trazado 1000245" d="M134.442,275.021s1.657,5.178-1.864,7.8c-3.8-1.243-10.84-12.774-2.071-16.433,0,0,2.417-6.145,8.976-3.867,5.79,2.011,7.319,5.524,7.319,5.524a8.193,8.193,0,0,1-8.838.207s.483,6.145-3.521,6.767" transform="translate(-98.388 -204.125)" fill="#1b1b43"/>
              <path id="Trazado_1000246" data-name="Trazado 1000246" d="M156.472,307.161a2.706,2.706,0,1,1-3.962-.621,2.842,2.842,0,0,1,3.962.621" transform="translate(-118.081 -238.381)" fill="#ffbc96"/>
              <path id="Trazado_1000247" data-name="Trazado 1000247" d="M160.434,316.562c-.023-.09-.574-2.2-2.057-1.873l-.087-.405c1.5-.325,2.323,1.283,2.546,2.178Z" transform="translate(-123.316 -244.81)" fill="#1b1b43"/>
              <g id="Grupo_1191552" data-name="Grupo 1191552" transform="translate(41.37 69.446)" opacity="0.4">
                <g id="Grupo_1191551" data-name="Grupo 1191551">
                  <g id="Grupo_1191550" data-name="Grupo 1191550" clip-path="url(#clip-path-9)">
                    <path id="Trazado_1000248" data-name="Trazado 1000248" d="M190.921,316.151a1.841,1.841,0,1,1-1.841-1.841,1.841,1.841,0,0,1,1.841,1.841" transform="translate(-187.238 -314.31)" fill="#fe5b52"/>
                  </g>
                </g>
              </g>
              <path id="Trazado_1000249" data-name="Trazado 1000249" d="M98.735,496.635c-1.676-.4-2.624-1.021-2.9-1.9-.446-1.434,1.035-3.077,2.341-4.527.2-.226.4-.445.582-.653a3.2,3.2,0,0,0,.72-1.431c1.212-5.742-.8-23.622-.817-23.8l.549-.062c.084.738,2.038,18.149.808,23.978a3.76,3.76,0,0,1-.843,1.679c-.183.211-.382.432-.589.661-1.148,1.274-2.577,2.859-2.224,3.993.208.669,1.049,1.184,2.5,1.529Z" transform="translate(-74.599 -361.681)" fill="#1b1b43"/>
              <path id="Trazado_1000250" data-name="Trazado 1000250" d="M251.253,518.583l-.025-.551c1.887-.084,3.041-.535,3.338-1.3s-.246-1.929-1.495-3.167a2.388,2.388,0,0,1-.644-1.183c-.993-4.464-2.05-19.221-2.061-19.369l.551-.039c.011.148,1.065,14.864,2.05,19.289a1.835,1.835,0,0,0,.493.91c1.432,1.42,2.008,2.755,1.621,3.757s-1.675,1.56-3.828,1.656" transform="translate(-195.049 -384.05)" fill="#1b1b43"/>
              <path id="Trazado_1000251" data-name="Trazado 1000251" d="M293.486,437.079l-.5-.243,6.859-14.017,9.856,1.344-.075.548-9.461-1.29Z" transform="translate(-228.254 -329.398)" fill="#1b1b43"/>
              <path id="Trazado_1000252" data-name="Trazado 1000252" d="M1037.045,295.262c-3.268-1.979-4-7.641-.967-9.344s4.971-.184,4.971-.184,10.19-3.717,14.039,5.754c2.9,7.135.6,10.863,3.13,14.454,2.885,4.091,7.5,7.779,1.473,14.96l-14.085-3.452-3.682-17.354Z" transform="translate(-805.658 -222.042)" fill="#1b1b43"/>
              <path id="Trazado_1000253" data-name="Trazado 1000253" d="M1231.345,1051.3l-10.357,4.557s1.488,3.845,2.761,8.319l10.65-3.4Z" transform="translate(-951.212 -819.014)" fill="#ffbc96"/>
              <path id="Trazado_1000254" data-name="Trazado 1000254" d="M1231.535,1094.173l-10.65,3.4c1.459,5.124,2.636,11.072.972,13.012-2.164,2.523-4.052,4.609-4.5,6.364a1.233,1.233,0,0,0,1.744,1.422l13.76-6.94a4.807,4.807,0,0,0,2.238-6.221Z" transform="translate(-948.346 -852.417)" fill="#1b1b43"/>
              <rect id="Rectángulo_455968" data-name="Rectángulo 455968" width="11.385" height="0.553" transform="matrix(0.954, -0.299, 0.299, 0.954, 273.467, 248.7)" fill="#656590"/>
              <path id="Trazado_1000255" data-name="Trazado 1000255" d="M1228.344,1150.409l-.115-.54c2.637-.559,4.172-1.528,4.562-2.879.641-2.221-2-4.821-2.028-4.847l.385-.4c.119.115,2.906,2.859,2.174,5.4-.451,1.562-2.126,2.661-4.978,3.266" transform="translate(-956.853 -889.479)" fill="#656590"/>
              <path id="Trazado_1000256" data-name="Trazado 1000256" d="M1044.422,1096.81l-11.968,1.1a61.227,61.227,0,0,1-.057,8.512l11.512-.169Z" transform="translate(-804.29 -854.471)" fill="#ffbc96"/>
              <path id="Trazado_1000257" data-name="Trazado 1000257" d="M994.2,1139.74c-.325,3.775-1.182,7.563-3.257,8.427-4.419,1.841-7.918,3.13-7.549,5.708h16.989a4.807,4.807,0,0,0,4.8-4.547l.529-9.757Z" transform="translate(-766.093 -887.784)" fill="#1b1b43"/>
              <rect id="Rectángulo_455969" data-name="Rectángulo 455969" width="0.552" height="11.049" transform="translate(228.16 255.136) rotate(-89.046)" fill="#656590"/>
              <path id="Trazado_1000258" data-name="Trazado 1000258" d="M1007.341,1171.069a12.005,12.005,0,0,1-2.564-.326l.121-.539c2.421.542,4.068.374,4.757-.481.917-1.139-.018-3.186-.027-3.207l.5-.233c.045.1,1.086,2.383-.044,3.786a3.338,3.338,0,0,1-2.744,1" transform="translate(-782.772 -908.594)" fill="#656590"/>
              <path id="Trazado_1000259" data-name="Trazado 1000259" d="M1019.425,712.709a3.668,3.668,0,0,1-.4.111c-2.392.552-10.307,0-10.307,0a8.225,8.225,0,0,1-1.027-.293c-7.4-2.7-6.9-15.638-5.789-26.956,1.022-10.379-3.314-63.341-.32-81.337l18.737-4.1.11,3.154.227,6.441.4,11.4s.707,11.025,1.674,24.84c1.447,20.714,3.48,47.708,4.585,53.232,1.762,8.788-4.894,12.638-7.888,13.511" transform="translate(-779.449 -467.536)" fill="#5254cf"/>
              <path id="Trazado_1000260" data-name="Trazado 1000260" d="M1102.112,710.818a8.743,8.743,0,0,1-1.364,1.276c-2.519,1.939-5.916,2.651-8.9,3.458a11.192,11.192,0,0,1-1.63.315c-2.778.342-5.811-.293-7.109-2.651-6.651-12.119-14.146-36.175-20.084-57.668-4.342-15.693-7.849-30.027-9.595-37.335-.768-3.231-1.193-5.087-1.193-5.087l8.49-.254,14.433-.436c.392,1.944.84,3.994,1.342,6.12,4.927,21.029,14.632,49.94,18.433,61,2.281,6.623,5.734,12.533,7.253,19.471.807,3.673,2.685,8.606-.077,11.793" transform="translate(-819.747 -477.119)" fill="#5254cf"/>
              <g id="Grupo_1191555" data-name="Grupo 1191555" transform="translate(222.134 132.599)" opacity="0.6">
                <g id="Grupo_1191554" data-name="Grupo 1191554">
                  <g id="Grupo_1191553" data-name="Grupo 1191553" clip-path="url(#clip-path-10)">
                    <path id="Trazado_1000261" data-name="Trazado 1000261" d="M1039.986,608.973a65.451,65.451,0,0,1-15.549.757,52.594,52.594,0,0,1-7.523-1.1c-7.562-1.668-11.55-4.4-11.55-4.4l18.737-4.1.11,3.154,14.434-.436c.392,1.944.839,3.994,1.342,6.12" transform="translate(-1005.362 -600.135)" fill="#1b1b43"/>
                  </g>
                </g>
              </g>
              <path id="Trazado_1000262" data-name="Trazado 1000262" d="M1058.532,726.283l-5.778-20.467-5.943-2.161.189-.519,6.209,2.257.039.137,5.817,20.6Z" transform="translate(-815.519 -547.779)" fill="#1b1b43"/>
              <path id="Trazado_1000263" data-name="Trazado 1000263" d="M1158.62,714.651l-.479-.276c2.788-4.841-2.8-19.758-9.876-38.644-6.87-18.338-15.42-41.162-18.513-61.524l.546-.083c3.084,20.305,11.623,43.1,18.484,61.414,7.126,19.022,12.755,34.047,9.838,39.114" transform="translate(-880.134 -478.434)" fill="#1b1b43"/>
              <path id="Trazado_1000264" data-name="Trazado 1000264" d="M979.19,513.648c-.668,4.668-1.668,10.766-1.668,10.766H966.613l2.657-14.6.657-3.629s9.39,2.209,9.8,2.209a28.063,28.063,0,0,1-.541,5.253" transform="translate(-753.041 -394.344)" fill="#ffbc96"/>
              <path id="Trazado_1000265" data-name="Trazado 1000265" d="M988.559,513.648l-.5,1.1-9.423-4.933.657-3.629s9.39,2.209,9.8,2.209a28.05,28.05,0,0,1-.541,5.253" transform="translate(-762.409 -394.344)" fill="#d28572"/>
              <path id="Trazado_1000266" data-name="Trazado 1000266" d="M998.743,467.48a47.646,47.646,0,0,1-1.657,20.714s17.124,5.248,33.281-1.381l-3.728-23.614,1.243-12.014-24.719.276-8.424,2.762Z" transform="translate(-774.951 -351.497)" fill="#1b1b43"/>
              <path id="Trazado_1000267" data-name="Trazado 1000267" d="M1012.468,417.3a10.339,10.339,0,0,0-6.769-6.481l-4.642-1.4c-1.869,2.721-5.2,6.19-10.073,6.19a13.792,13.792,0,0,1-11.293-5.971l-3.208.782a9.372,9.372,0,0,0-6.913,7l-3.581,15.542,10.357,1.979.276-11.876,26.928-1.243.69,8.838s7.779-3.406,12.934.092Z" transform="translate(-752.554 -318.96)" fill="#1b1b43"/>
              <path id="Trazado_1000268" data-name="Trazado 1000268" d="M1156.911,409.223c-1.491,2.917-3.5,15.56-4.419,25.409a16.1,16.1,0,0,1-2.5,7.65c-1.878,2.751-4.541,4-7.126,3.723a7.034,7.034,0,0,1-2.894-.972c-4.447-2.635-3.878-13.892-3.38-18.957.155-1.525.3-2.491.3-2.491a18.87,18.87,0,0,1,6.767-1.657c.055-.569.121-1.143.188-1.734.563-5.087,1.42-10.86,2.16-14.7.829-4.281,2.486-2.69,2.486-2.69.829-1.525,2.071-.21,2.071-.21,1.1-2.419,2.486-.138,2.486-.138,1.723-2.486,2.668,1.243,2.668,1.243s5.352-4.408,6.264-3.132c.458.646-2.95,4.513-5.065,8.656" transform="translate(-885.201 -311.883)" fill="#ffbc96"/>
              <rect id="Rectángulo_455971" data-name="Rectángulo 455971" width="23.2" height="2.786" transform="translate(206.115 127.283)" fill="#fff"/>
              <path id="Trazado_1000269" data-name="Trazado 1000269" d="M850.822,506.335h-23.93a2.948,2.948,0,0,1-2.678-1.715L814.9,484.388a1.015,1.015,0,0,1,.922-1.44h22.445a2.793,2.793,0,0,1,2.537,1.625Z" transform="translate(-634.771 -376.242)" fill="#004b84"/>
              <path id="Trazado_1000270" data-name="Trazado 1000270" d="M922.553,577.761a11.728,11.728,0,0,1-1.215,2.977,8.272,8.272,0,0,1-6.5,4.049,16.022,16.022,0,0,1-3.651.017c-10.965-1.088-14.135-7.087-14.135-7.087s-1.221-2.547,1.37-1.961c0,0,.486-1.618,2.486.072,0,0-.238-2.005,1.729-.171,0,0-.276-2.038,1.862-.276a9.416,9.416,0,0,0,6.391,2.381c2.585.105,11.666,0,11.666,0" transform="translate(-698.623 -447.692)" fill="#ffbc96"/>
              <rect id="Rectángulo_455972" data-name="Rectángulo 455972" width="0.552" height="11.896" transform="translate(222.825 104.123) rotate(-3.327)" fill="#5254cf"/>
              <path id="Trazado_1000271" data-name="Trazado 1000271" d="M1043.053,444.289a15.575,15.575,0,0,1-3.425-.375,13.382,13.382,0,0,1-5.271-2.358l.352-.425c.075.061,7.538,6.052,18.279-.392l.284.474a19.731,19.731,0,0,1-10.218,3.078" transform="translate(-805.817 -343.358)" fill="#5254cf"/>
              <rect id="Rectángulo_455973" data-name="Rectángulo 455973" width="0.553" height="5.448" transform="translate(250.996 106.292) rotate(-4.361)" fill="#5254cf"/>
              <path id="Trazado_1000272" data-name="Trazado 1000272" d="M1086.414,491.327a3.464,3.464,0,0,1-3.454-3.087l-.443-3.937,7.6-.5-.225,4.232a3.487,3.487,0,0,1-3.417,3.291h-.055m-3.284-6.511.379,3.362a2.924,2.924,0,0,0,5.826-.171l.192-3.611Z" transform="translate(-843.336 -376.908)" fill="#5254cf"/>
              <rect id="Rectángulo_455974" data-name="Rectángulo 455974" width="14.019" height="0.553" transform="matrix(0.142, -0.99, 0.99, 0.142, 256.152, 123.907)" fill="#d28572"/>
              <rect id="Rectángulo_455975" data-name="Rectángulo 455975" width="0.414" height="2.316" transform="matrix(0.984, -0.179, 0.179, 0.984, 267.639, 90.611)" fill="#d28572"/>
              <rect id="Rectángulo_455976" data-name="Rectángulo 455976" width="0.414" height="2.316" transform="matrix(0.984, -0.179, 0.179, 0.984, 265.154, 90.68)" fill="#d28572"/>
              <rect id="Rectángulo_455977" data-name="Rectángulo 455977" width="0.414" height="2.316" transform="matrix(0.984, -0.179, 0.179, 0.984, 263.082, 90.818)" fill="#d28572"/>
              <rect id="Rectángulo_455978" data-name="Rectángulo 455978" width="0.415" height="3.685" transform="translate(269.743 90.417) rotate(-20.471)" fill="#d28572"/>
              <path id="Trazado_1000273" data-name="Trazado 1000273" d="M1144.7,498.045l-7.093,4.132c.155-1.525.3-2.491.3-2.491a18.787,18.787,0,0,1,6.794-1.641" transform="translate(-886.251 -388.003)" fill="#d28572"/>
              <g id="Grupo_1191558" data-name="Grupo 1191558" transform="translate(257.625 129.285)" opacity="0.4">
                <g id="Grupo_1191557" data-name="Grupo 1191557">
                  <g id="Grupo_1191556" data-name="Grupo 1191556" clip-path="url(#clip-path-11)">
                    <path id="Trazado_1000274" data-name="Trazado 1000274" d="M1173.152,586.251c-1.878,2.751-4.541,4-7.126,3.723a3.74,3.74,0,0,1-.039-.558,4.282,4.282,0,0,1,7.164-3.165" transform="translate(-1165.988 -585.135)" fill="#fe5b52"/>
                  </g>
                </g>
              </g>
              <g id="Grupo_1191561" data-name="Grupo 1191561" transform="translate(216.196 132.416)" opacity="0.4">
                <g id="Grupo_1191560" data-name="Grupo 1191560">
                  <g id="Grupo_1191559" data-name="Grupo 1191559" clip-path="url(#clip-path-12)">
                    <path id="Trazado_1000275" data-name="Trazado 1000275" d="M985.006,599.94a8.272,8.272,0,0,1-6.5,4.049q-.017-.2-.017-.4a4.283,4.283,0,0,1,6.518-3.651" transform="translate(-978.488 -599.31)" fill="#fe5b52"/>
                  </g>
                </g>
              </g>
              <path id="Trazado_1000276" data-name="Trazado 1000276" d="M925.422,581.707c-1.092-.214-2.458-1.9-2.916-2.788l.368-.19c.471.912,1.759,2.4,2.627,2.572Z" transform="translate(-718.679 -450.859)" fill="#d28572"/>
              <path id="Trazado_1000277" data-name="Trazado 1000277" d="M916.474,582.533a11.237,11.237,0,0,1-2.124-2.951l.382-.161a10.778,10.778,0,0,0,2.038,2.823Z" transform="translate(-712.325 -451.398)" fill="#d28572"/>
              <path id="Trazado_1000278" data-name="Trazado 1000278" d="M904.911,582.219a11.233,11.233,0,0,1-2.124-2.951l.382-.161a10.78,10.78,0,0,0,2.039,2.823Z" transform="translate(-703.317 -451.154)" fill="#d28572"/>
              <path id="Trazado_1000279" data-name="Trazado 1000279" d="M1049.379,353.182c-1.872,2.723-5.209,6.192-10.075,6.192a13.788,13.788,0,0,1-11.291-5.971l5.9-1.442c.144-1.061.265-2.094.365-3.071.077-.768.144-1.5.2-2.2.1-1.143.166-2.176.221-3.06.072-1.21.1-2.127.122-2.635.011-.293.011-.447.011-.447l8.286-3.314s-.276,10.771,2.209,14.726Z" transform="translate(-800.874 -262.724)" fill="#ffbc96"/>
              <path id="Trazado_1000280" data-name="Trazado 1000280" d="M1063.526,367.106a17.554,17.554,0,0,1-7.138,4.338c.077-.768.144-1.5.2-2.2.1-1.143.166-2.176.221-3.06Z" transform="translate(-822.98 -285.277)" fill="#d28572"/>
              <path id="Trazado_1000281" data-name="Trazado 1000281" d="M1040.816,304.538s-4.235,11.508-1.2,13.625c2.7,1.883,6.26,2.117,9.759,1.2l2.3-7.825-1.381-7.641Z" transform="translate(-809.061 -236.749)" fill="#ffbc96"/>
              <path id="Trazado_1000282" data-name="Trazado 1000282" d="M1058.572,307.244s-2.991,1.147-4.235-3.038c-1.013-3.406-5.432-4.051-5.432-4.051l1.8-1.657,8.516-.23,3.13,3.821-1.059,4.971Z" transform="translate(-817.15 -232.367)" fill="#1b1b43"/>
              <path id="Trazado_1000283" data-name="Trazado 1000283" d="M1091.265,333.115c-.966,1.673-2.82,2.411-4.141,1.649s-1.609-2.737-.643-4.411,2.82-2.411,4.141-1.649,1.609,2.737.643,4.411" transform="translate(-845.978 -255.844)" fill="#ffbc96"/>
              <path id="Trazado_1000284" data-name="Trazado 1000284" d="M1093.433,340.03l-.414,0a2.96,2.96,0,0,1,2.611-2.9l.047.412a2.512,2.512,0,0,0-2.245,2.489" transform="translate(-851.517 -262.641)" fill="#1b1b43"/>
              <path id="Trazado_1000285" data-name="Trazado 1000285" d="M1045.161,330.407a.472.472,0,1,1-.472-.472.472.472,0,0,1,.472.472" transform="translate(-813.498 -257.037)" fill="#1b1b43"/>
              <path id="Trazado_1000286" data-name="Trazado 1000286" d="M1059.031,333.019a.571.571,0,1,1-.571-.571.571.571,0,0,1,.571.571" transform="translate(-824.149 -258.995)" fill="#1b1b43"/>
              <path id="Trazado_1000287" data-name="Trazado 1000287" d="M1044.789,324.667h-1.409a.36.36,0,0,1,0-.719h1.409a.36.36,0,0,1,0,.719" transform="translate(-812.565 -252.373)" fill="#1b1b43"/>
              <path id="Trazado_1000288" data-name="Trazado 1000288" d="M1060.779,326.921l-1.559-.659a.36.36,0,0,1,.28-.663l1.559.659a.36.36,0,0,1-.28.663" transform="translate(-825.015 -253.637)" fill="#1b1b43"/>
              <path id="Trazado_1000289" data-name="Trazado 1000289" d="M1043.937,336.974a.207.207,0,0,1-.192-.128,1.538,1.538,0,0,1-.022-1.534,1.257,1.257,0,0,1,1.005-.414l.526-1.022a.207.207,0,1,1,.368.19l-.651,1.266-.142-.015c-.006,0-.55-.055-.776.247-.164.218-.138.607.076,1.126a.207.207,0,0,1-.113.27.2.2,0,0,1-.079.016" transform="translate(-812.965 -260.019)" fill="#1b1b43"/>
              <path id="Trazado_1000290" data-name="Trazado 1000290" d="M1045.806,356.437c.8,1.131,1.817.648,2.51.069a14.618,14.618,0,0,1-2.51-.069" transform="translate(-814.736 -277.683)" fill="#1b1b43"/>
              <path id="Trazado_1000291" data-name="Trazado 1000291" d="M1046.851,353.643a5.433,5.433,0,0,0,.772-.8c.01-.012,0-.027-.019-.026a22.185,22.185,0,0,1-3.661-.051c-.014,0-.021.014-.016.027a3.754,3.754,0,0,0,.414.785,14.62,14.62,0,0,0,2.51.069" transform="translate(-813.271 -274.82)" fill="#fff"/>
              <g id="Grupo_1191564" data-name="Grupo 1191564" transform="translate(235.559 75.119)" opacity="0.4">
                <g id="Grupo_1191563" data-name="Grupo 1191563">
                  <g id="Grupo_1191562" data-name="Grupo 1191562" clip-path="url(#clip-path-13)">
                    <path id="Trazado_1000292" data-name="Trazado 1000292" d="M1069.007,341.432a1.444,1.444,0,1,1-1.444-1.444,1.444,1.444,0,0,1,1.444,1.444" transform="translate(-1066.119 -339.988)" fill="#fe5b52"/>
                  </g>
                </g>
              </g>
              <rect id="Rectángulo_455982" data-name="Rectángulo 455982" width="273.672" height="0.552" transform="translate(5.894 265.815)" fill="#1b1b43"/>
            </g>
          </g>
        </g>
      </g>
    </g>
  </g>
</svg>
