<svg xmlns="http://www.w3.org/2000/svg" xmlns:xlink="http://www.w3.org/1999/xlink" width="1020" height="443.699" viewBox="0 0 1020 443.699">
  <defs>
    <clipPath id="clip-path">
      <rect id="Rectángulo_455245" data-name="Rectángulo 455245" width="936" height="144.249" fill="none"/>
    </clipPath>
    <clipPath id="clip-path-2">
      <rect id="Rectángulo_455255" data-name="Rectángulo 455255" width="81.956" height="82" fill="#002d4f"/>
    </clipPath>
    <clipPath id="clip-path-3">
      <rect id="Rectángulo_455279" data-name="Rectángulo 455279" width="84.722" height="82.716" fill="#2e5c6c"/>
    </clipPath>
    <clipPath id="clip-path-4">
      <rect id="Rectángulo_455280" data-name="Rectángulo 455280" width="69.737" height="69.832" fill="#002d4f"/>
    </clipPath>
    <clipPath id="clip-path-5">
      <rect id="Rectángulo_455283" data-name="Rectángulo 455283" width="67.166" height="82.536" fill="#2e5c6c"/>
    </clipPath>
    <clipPath id="clip-path-6">
      <rect id="Rectángulo_455284" data-name="Rectángulo 455284" width="73.849" height="73.911" fill="#002d4f"/>
    </clipPath>
  </defs>
  <g id="Grupo_1190374" data-name="Grupo 1190374" transform="translate(-291.5 -4668.301)">
    <rect id="Rectángulo_454922" data-name="Rectángulo 454922" width="1020" height="443.699" rx="15" transform="translate(291.5 4668.301)" fill="#ffe9f3"/>
    <g id="Grupo_1190313" data-name="Grupo 1190313" transform="translate(-13)">
      <rect id="Rectángulo_455252" data-name="Rectángulo 455252" width="215.034" height="36" rx="18" transform="translate(705 4691)" fill="#fe93c4"/>
      <text id="Análisis_de_oferta" data-name="Análisis de oferta" transform="translate(737 4698)" fill="#12263f" font-size="16" font-family="SegoeUI-Bold, Segoe UI" font-weight="700"><tspan x="10.163" y="17">Análisis de oferta</tspan></text>
    </g>
    <path id="Trazado_873465" data-name="Trazado 873465" d="M42.652,0H0V792.428H45.85" transform="translate(1195.966 4752.361) rotate(90)" fill="none" stroke="#445866" stroke-width="3"/>
    <path id="Trazado_998381" data-name="Trazado 998381" d="M0,0V209.056" transform="translate(800 4936.056) rotate(180)" fill="none" stroke="#445866" stroke-width="3"/>
    <path id="Trazado_998382" data-name="Trazado 998382" d="M0,0V183.695" transform="translate(602 4936.056) rotate(180)" fill="none" stroke="#445866" stroke-width="3"/>
    <path id="Trazado_998384" data-name="Trazado 998384" d="M0,0V132.027" transform="translate(403.538 4936.056) rotate(180)" fill="none" stroke="#445866" stroke-width="3"/>
    <path id="Trazado_998385" data-name="Trazado 998385" d="M0,0V132.027" transform="translate(1196 4936.056) rotate(180)" fill="none" stroke="#445866" stroke-width="3"/>
    <path id="Trazado_998383" data-name="Trazado 998383" d="M0,0V183.695" transform="translate(998 4936.056) rotate(180)" fill="none" stroke="#445866" stroke-width="3"/>
    <g id="Rectángulo_454892" data-name="Rectángulo 454892" transform="translate(309 4940.556)" fill="#ccdbe6" stroke="#004b84" stroke-width="2">
      <rect width="189.932" height="148" rx="12" stroke="none"/>
      <rect x="1" y="1" width="187.932" height="146" rx="11" fill="none"/>
    </g>
    <g id="Rectángulo_455246" data-name="Rectángulo 455246" transform="translate(507.034 4940.556)" fill="#c2ebf9" stroke="#2e5c6c" stroke-width="2">
      <rect width="189.932" height="148" rx="12" stroke="none"/>
      <rect x="1" y="1" width="187.932" height="146" rx="11" fill="none"/>
    </g>
    <g id="Rectángulo_455249" data-name="Rectángulo 455249" transform="translate(707 4940.556)" fill="#ccdbe6" stroke="#004b84" stroke-width="2">
      <rect width="189.932" height="148" rx="12" stroke="none"/>
      <rect x="1" y="1" width="187.932" height="146" rx="11" fill="none"/>
    </g>
    <text id="Identificación_de_los_actores_clave_en_el_mercado" data-name="Identificación de los actores clave en el mercado" transform="translate(326 4988.556)" fill="#12263f" font-size="16" font-family="SegoeUI, Segoe UI"><tspan x="6.987" y="17">Identificación de los </tspan><tspan x="12.89" y="39">actores clave en el </tspan><tspan x="46.519" y="61">mercado</tspan></text>
    <text id="Evaluación_de_la_cuota_de_mercado_de_cada_competidor" data-name="Evaluación de la cuota de mercado de cada competidor" transform="translate(524.034 4988.556)" fill="#12263f" font-size="16" font-family="SegoeUI, Segoe UI"><tspan x="20.921" y="17">Evaluación de la </tspan><tspan x="2.464" y="39">cuota de mercado de </tspan><tspan x="17.812" y="61">cada competidor</tspan></text>
    <text id="Análisis_de_las_cualidades_distintivas_de_los_productos" data-name="Análisis de las cualidades distintivas de los productos" transform="translate(724 4988.556)" fill="#12263f" font-size="16" font-family="SegoeUI, Segoe UI"><tspan x="28.499" y="17">Análisis de las </tspan><tspan x="2.944" y="39">cualidades distintivas </tspan><tspan x="18.343" y="61">de los productos</tspan></text>
    <rect id="Rectángulo_454902" data-name="Rectángulo 454902" width="189.932" height="55" rx="8" transform="translate(309 4921.056)" fill="#004b84"/>
    <rect id="Rectángulo_455247" data-name="Rectángulo 455247" width="189.932" height="55" rx="8" transform="translate(507.034 4921.056)" fill="#2e5c6c"/>
    <rect id="Rectángulo_455248" data-name="Rectángulo 455248" width="189.932" height="55" rx="8" transform="translate(707 4921.056)" fill="#004b84"/>
    <text id="Competidores_principales" data-name="Competidores principales" transform="translate(321 4926.056)" fill="#fff" font-size="16" font-family="SegoeUI-Bold, Segoe UI" font-weight="700"><tspan x="30.735" y="17">Competidores </tspan><tspan x="42.755" y="39">principales</tspan></text>
    <text id="Participación_en_el_mercado" data-name="Participación en el mercado" transform="translate(526.034 4927.056)" fill="#fff" font-size="16" font-family="SegoeUI-Bold, Segoe UI" font-weight="700"><tspan x="6.338" y="17">Participación en el </tspan><tspan x="42.686" y="39">mercado</tspan></text>
    <text id="Características_del_producto" data-name="Características del producto" transform="translate(718 4927.056)" fill="#fff" font-size="16" font-family="SegoeUI-Bold, Segoe UI" font-weight="700"><tspan x="16.142" y="17">Características del </tspan><tspan x="49.356" y="39">producto</tspan></text>
    <g id="Rectángulo_455251" data-name="Rectángulo 455251" transform="translate(903.068 4940.556)" fill="#c2ebf9" stroke="#2e5c6c" stroke-width="2">
      <rect width="189.932" height="148" rx="12" stroke="none"/>
      <rect x="1" y="1" width="187.932" height="146" rx="11" fill="none"/>
    </g>
    <text id="Determinación_de_los_factores_que_diferencian_a_los_competidores" data-name="Determinación de los factores que diferencian a los competidores" transform="translate(920.068 4988.556)" fill="#12263f" font-size="16" font-family="SegoeUI, Segoe UI"><tspan x="2.499" y="17">Determinación de los </tspan><tspan x="33.897" y="39">factores que </tspan><tspan x="20.007" y="61">diferencian a los </tspan><tspan x="28.972" y="83">competidores</tspan></text>
    <rect id="Rectángulo_455250" data-name="Rectángulo 455250" width="189.932" height="55" rx="8" transform="translate(903.068 4921.056)" fill="#2e5c6c"/>
    <text id="Ventajas_competitivas" data-name="Ventajas competitivas" transform="translate(917 4937.056)" fill="#fff" font-size="16" font-family="SegoeUI-Bold, Segoe UI" font-weight="700"><tspan x="49.822" y="17">Ventajas </tspan></text>
    <g id="Rectángulo_455251-2" data-name="Rectángulo 455251" transform="translate(1101 4940.556)" fill="#ccdbe6" stroke="#004b84" stroke-width="2">
      <rect width="189.932" height="148" rx="12" stroke="none"/>
      <rect x="1" y="1" width="187.932" height="146" rx="11" fill="none"/>
    </g>
    <text id="Evaluación_del_potencial_de_crecimiento_y_exploración_en_el_mercado" data-name="Evaluación del potencial de crecimiento y exploración en el mercado" transform="translate(1112 4989)" fill="#12263f" font-size="16" font-family="SegoeUI, Segoe UI" letter-spacing="-0.002em"><tspan x="-0.913" y="17">Evaluación del potencial </tspan><tspan x="25.58" y="39">de crecimiento y </tspan><tspan x="23.877" y="61">exploración en el </tspan><tspan x="54.971" y="83">mercado</tspan></text>
    <rect id="Rectángulo_455250-2" data-name="Rectángulo 455250" width="189.932" height="55" rx="8" transform="translate(1101 4921.056)" fill="#004b84"/>
    <text id="Oportunidades_de_mercado" data-name="Oportunidades de mercado" transform="translate(1130 4928.056)" fill="#fff" font-size="16" font-family="SegoeUI-Bold, Segoe UI" font-weight="700"><tspan x="9.581" y="17">Oportunidades </tspan><tspan x="21.753" y="39">de mercado</tspan></text>
    <g id="Elipse_13668" data-name="Elipse 13668" transform="translate(334 4767)" fill="#fff" stroke="#707070" stroke-width="1">
      <circle cx="70" cy="70" r="70" stroke="none"/>
      <circle cx="70" cy="70" r="69.5" fill="none"/>
    </g>
    <g id="Elipse_13669" data-name="Elipse 13669" transform="translate(532 4767)" fill="#fff" stroke="#707070" stroke-width="1">
      <circle cx="70" cy="70" r="70" stroke="none"/>
      <circle cx="70" cy="70" r="69.5" fill="none"/>
    </g>
    <g id="Elipse_13670" data-name="Elipse 13670" transform="translate(730 4767)" fill="#fff" stroke="#707070" stroke-width="1">
      <circle cx="70" cy="70" r="70" stroke="none"/>
      <circle cx="70" cy="70" r="69.5" fill="none"/>
    </g>
    <g id="Elipse_13671" data-name="Elipse 13671" transform="translate(928 4767)" fill="#fff" stroke="#707070" stroke-width="1">
      <circle cx="70" cy="70" r="70" stroke="none"/>
      <circle cx="70" cy="70" r="69.5" fill="none"/>
    </g>
    <g id="Elipse_13672" data-name="Elipse 13672" transform="translate(1126 4767)" fill="#fff" stroke="#707070" stroke-width="1">
      <circle cx="70" cy="70" r="70" stroke="none"/>
      <circle cx="70" cy="70" r="69.5" fill="none"/>
    </g>
    <g id="Grupo_1190312" data-name="Grupo 1190312" transform="translate(332 4765.389)">
      <g id="Grupo_1190311" data-name="Grupo 1190311" clip-path="url(#clip-path)">
        <path id="Trazado_998373" data-name="Trazado 998373" d="M141.393,51.955a72.633,72.633,0,1,0,2.856,20.17,72.16,72.16,0,0,0-2.856-20.17m-23.049,66.39A65.366,65.366,0,1,1,25.905,25.9a65.366,65.366,0,1,1,92.439,92.444" fill="#004b84"/>
        <path id="Trazado_998375" data-name="Trazado 998375" d="M907.744,51.955a72.634,72.634,0,1,0,2.856,20.17,72.16,72.16,0,0,0-2.856-20.17M884.7,118.344A65.367,65.367,0,1,1,792.252,25.9,65.367,65.367,0,1,1,884.7,118.344" transform="translate(-568.412)" fill="#2e5c6c"/>
        <path id="Trazado_998377" data-name="Trazado 998377" d="M1674.079,51.955a72.625,72.625,0,1,0,2.856,20.17,72.156,72.156,0,0,0-2.856-20.17m-23.044,66.39A65.367,65.367,0,1,1,1558.591,25.9a65.367,65.367,0,1,1,92.443,92.444" transform="translate(-1136.813)" fill="#004b84"/>
        <path id="Trazado_998378" data-name="Trazado 998378" d="M2371.162,0a72.125,72.125,0,1,0,72.125,72.125A72.16,72.16,0,0,0,2371.162,0m46.219,118.344A65.366,65.366,0,1,1,2324.942,25.9a65.366,65.366,0,1,1,92.439,92.444" transform="translate(-1705.225)" fill="#2e5c6c"/>
        <path id="Trazado_998380" data-name="Trazado 998380" d="M3137.513,0a72.125,72.125,0,1,0,72.125,72.125A72.16,72.16,0,0,0,3137.513,0m46.219,118.344A65.366,65.366,0,1,1,3091.293,25.9a65.366,65.366,0,1,1,92.439,92.444" transform="translate(-2273.638)" fill="#004b84"/>
      </g>
    </g>
    <g id="Grupo_1190315" data-name="Grupo 1190315" transform="translate(363.022 4796)">
      <g id="Grupo_1190314" data-name="Grupo 1190314" clip-path="url(#clip-path-2)">
        <path id="Trazado_998386" data-name="Trazado 998386" d="M20.236,153.361c.23.809.025,1.319-.45,1.562a1.175,1.175,0,0,1-1.57-.43,36.953,36.953,0,0,1-4.475-25.252c.135-.753.562-1.151,1.18-1.158a1.132,1.132,0,0,1,1.129,1.38,34.656,34.656,0,0,0,4.187,23.9" transform="translate(-9.682 -94.285)" fill="#002d4f"/>
        <path id="Trazado_998387" data-name="Trazado 998387" d="M284.537,143.222a1.152,1.152,0,1,1-2.262-.434,34.207,34.207,0,0,0,.017-11.864,1.275,1.275,0,0,1,.679-1.541,1.173,1.173,0,0,1,1.555.847,37.4,37.4,0,0,1,.012,12.992" transform="translate(-207.774 -95.2)" fill="#002d4f"/>
        <path id="Trazado_998388" data-name="Trazado 998388" d="M138.257,20.445a33.781,33.781,0,0,0-12,.018,1.228,1.228,0,0,1-1.441-1.007,1.183,1.183,0,0,1,.962-1.276,38.678,38.678,0,0,1,13.035.014,1.118,1.118,0,0,1,.873,1.341,1.161,1.161,0,0,1-1.429.911" transform="translate(-91.871 -12.98)" fill="#002d4f"/>
        <path id="Trazado_998389" data-name="Trazado 998389" d="M229.209,14.585A14.585,14.585,0,1,1,214.623,0a14.586,14.586,0,0,1,14.586,14.585m-5.07,7.716a12.261,12.261,0,1,0-19.005.01,9.813,9.813,0,0,1,19.005-.01" transform="translate(-147.253)" fill="#002d4f"/>
        <path id="Trazado_998390" data-name="Trazado 998390" d="M247.041,23.35a4.623,4.623,0,1,1-4.623-4.623,4.623,4.623,0,0,1,4.623,4.623" transform="translate(-175.046 -13.785)" fill="#002d4f"/>
        <path id="Trazado_998391" data-name="Trazado 998391" d="M29.17,14.585A14.585,14.585,0,1,1,14.585,0,14.585,14.585,0,0,1,29.17,14.585M24.1,22.307a12.259,12.259,0,1,0-19.011,0,9.9,9.9,0,0,1,9.63-7.361,9.928,9.928,0,0,1,9.38,7.364" fill="#002d4f"/>
        <path id="Trazado_998392" data-name="Trazado 998392" d="M47.006,23.349a4.623,4.623,0,1,1-4.623-4.623,4.623,4.623,0,0,1,4.623,4.623" transform="translate(-27.796 -13.785)" fill="#002d4f"/>
        <path id="Trazado_998393" data-name="Trazado 998393" d="M21.98,132.3a4.7,4.7,0,0,1-6.662.2,4.644,4.644,0,0,1-.1-6.6l12.558-12.618c1.041-1.046,1.942-.241,2.978-.415,1.832-.308,2.145-3.221,1.253-4.722a21.638,21.638,0,1,1,7.385,7.463c-1.364-.82-4.266-.425-4.556,1.239-.2,1.131.6,2.041-.54,3.181Zm45.057-35.24a16.411,16.411,0,1,0-16.41,16.41,16.411,16.411,0,0,0,16.41-16.41" transform="translate(-10.225 -55.509)" fill="#002d4f"/>
        <path id="Trazado_998394" data-name="Trazado 998394" d="M105.715,274.51a1.1,1.1,0,0,1,1.343.918,1.129,1.129,0,0,1-.986,1.349,36.777,36.777,0,0,1-25.222-4.454,1.158,1.158,0,0,1,1.011-2.08,34.668,34.668,0,0,0,23.854,4.267" transform="translate(-59.085 -198.891)" fill="#002d4f"/>
        <rect id="Rectángulo_455253" data-name="Rectángulo 455253" width="4.478" height="19.147" transform="translate(38.147 30.738)" fill="#002d4f"/>
        <path id="Trazado_998395" data-name="Trazado 998395" d="M178.9,149.462a21.657,21.657,0,0,1-4.483.094l-.029-14.07,4.494-.026Z" transform="translate(-128.373 -99.716)" fill="#002d4f"/>
        <rect id="Rectángulo_455254" data-name="Rectángulo 455254" width="4.488" height="9.682" transform="translate(30.241 40.203)" fill="#002d4f"/>
        <path id="Trazado_998396" data-name="Trazado 998396" d="M229.209,214.793a14.585,14.585,0,1,1-14.585-14.585,14.585,14.585,0,0,1,14.585,14.585m-5.054,7.713a12.264,12.264,0,1,0-19.009-.034,9.828,9.828,0,0,1,9.563-7.309c4.419.034,8.027,2.891,9.445,7.343" transform="translate(-147.253 -147.378)" fill="#002d4f"/>
        <path id="Trazado_998397" data-name="Trazado 998397" d="M247.039,223.545a4.623,4.623,0,1,1-4.623-4.623,4.623,4.623,0,0,1,4.623,4.623" transform="translate(-175.045 -161.154)" fill="#002d4f"/>
      </g>
    </g>
    <g id="Grupo_1190359" data-name="Grupo 1190359" transform="translate(560.753 4802)">
      <g id="Grupo_1190358" data-name="Grupo 1190358" clip-path="url(#clip-path-3)">
        <path id="Trazado_998446" data-name="Trazado 998446" d="M116.717,44.694c.234,2.14-2.531,1.088-5.17,1.172a9.379,9.379,0,0,0-12.622-7.281L95.709,33.14c-1.637-2.771-5.095,3.34-7.2.4a1.964,1.964,0,0,1,.562-2.833l2.671-1.561a1.367,1.367,0,0,0,.547-1.888L89.183,21.76a28.6,28.6,0,0,1,26.3.023,4.154,4.154,0,0,1-2.141.442,5.557,5.557,0,0,0-5.326,5.512,5.37,5.37,0,0,0,5.6,5.486l8.279-.685c1.559-.129,3.953-.387,5.291.661,2.506,3.707,3.466,8.173,3.8,12.646a24,24,0,0,1-4.755.054c-.365-.027-.329-.885-.3-1.213a4.641,4.641,0,1,0-9.213.009" transform="translate(-61.646 -12.988)" fill="#2e5c6c"/>
        <path id="Trazado_998447" data-name="Trazado 998447" d="M61.114,77.783l-2.787-1.564a1.372,1.372,0,0,0-1.954.623L53.292,82.1C45.809,77.653,40.124,67.85,40.17,59.277a6.554,6.554,0,0,1,1.77,2.129,5.556,5.556,0,1,0,9.11-6.365l-5.345-7.573a9.765,9.765,0,0,1-1.494-4.288,29.02,29.02,0,0,1,8.947-9.22,19.535,19.535,0,0,1,2.467,4.1c.135.277-.658.682-.905.8a4.66,4.66,0,1,0,4.719,7.953c.282-.2.927-.583,1.175-.2.855,1.337,1.566,2.6,2.351,4.122a9.369,9.369,0,0,0,.007,14.579l-3.193,5.671a1.361,1.361,0,0,0,.557,1.826L63,74.356a1.979,1.979,0,0,1,.764,2.527,1.881,1.881,0,0,1-2.651.9" transform="translate(-28.096 -23.752)" fill="#2e5c6c"/>
        <path id="Trazado_998448" data-name="Trazado 998448" d="M104.357,130.818a28.378,28.378,0,0,1-12.77-3.205,45.386,45.386,0,0,1,2.417-4.1c.179-.248.873.152,1.107.322a4.664,4.664,0,1,0,4.609-8.018c-.271-.125-.98-.5-.792-.879a38.312,38.312,0,0,1,2.395-4.115,9.418,9.418,0,0,0,12.64-7.319l6.575-.084a1.165,1.165,0,0,0,1.176-1.177l.042-3.293a1.978,1.978,0,1,1,3.939.281c-.039.93-.032,1.814-.01,2.708.026,1.065.763,1.531,1.755,1.533l5.893.01c-.136,8.619-5.61,18.289-13.078,22.706-.072-1.114.549-1.756.883-2.6a5.576,5.576,0,0,0-10.192-4.523l-4,8.631a13.486,13.486,0,0,1-2.592,3.119" transform="translate(-64.057 -67.848)" fill="#2e5c6c"/>
        <path id="Trazado_998449" data-name="Trazado 998449" d="M153.2,17.126l-11.116.959c-1.783.154-3.073-1.687-3.147-3.04a3.3,3.3,0,0,1,3.029-3.592c2.994-.381,5.89-.391,8.9-.955-6.033-5.482-13.588-7.614-21.65-7.21C134.245.289,139.788-.262,145.35.1c10.823.953,21.271,6.735,29.748,13.264l-4.672,8.1-7.312-4.108a19.818,19.818,0,0,1-9.911-.223" transform="translate(-90.376 0)" fill="#2e5c6c"/>
        <path id="Trazado_998450" data-name="Trazado 998450" d="M113.795,182.394c.833-3.569,3.089-6,5.053-8.816,3.454-4.952,4.06-13.332,9.075-11.108a3.281,3.281,0,0,1,1.612,4.294l-3.7,8.3c7.685-2.407,13.349-7.95,17.105-15.064-.246,17.217-17.668,28.964-31.653,34.622l-4.71-8.132Z" transform="translate(-74.539 -111.906)" fill="#2e5c6c"/>
        <path id="Trazado_998451" data-name="Trazado 998451" d="M15.926,52.338,10.431,44.8c-1.7,7.84.108,15.353,4.43,22.247C10.2,64.522,7.048,60.394,4.707,55.9-.356,46.193-.733,33.046.782,22.425l9.364.018,0,8.381c2.709,2.458,3.641,5.735,5.148,8.835,1.546,3.181,4.109,5.688,5.9,8.715a3.345,3.345,0,0,1-.657,4.381,3.272,3.272,0,0,1-4.612-.418" transform="translate(0 -15.684)" fill="#2e5c6c"/>
      </g>
    </g>
    <g id="Grupo_1190362" data-name="Grupo 1190362" transform="translate(765.132 4802.598)">
      <path id="Trazado_998452" data-name="Trazado 998452" d="M65.1,0,38.64,7.57l26.445,7.423L91.551,7.565Z" transform="translate(-30.219 -0.001)" fill="#002d4f"/>
      <g id="Grupo_1190361" data-name="Grupo 1190361">
        <g id="Grupo_1190360" data-name="Grupo 1190360" clip-path="url(#clip-path-4)">
          <path id="Trazado_998453" data-name="Trazado 998453" d="M24.738,59.09,2.185,52.761A3.413,3.413,0,0,1,.5,47.805l3.838-6.391,28.577,8.01-4.838,8.112a3.451,3.451,0,0,1-3.343,1.555" transform="translate(0 -32.388)" fill="#002d4f"/>
          <path id="Trazado_998454" data-name="Trazado 998454" d="M199.369,52.85l-21.556,6.033a3.422,3.422,0,0,1-4.21-1.468l-4.765-7.96,28.605-8.022,3.83,6.389a3.4,3.4,0,0,1-1.9,5.029" transform="translate(-132.042 -32.403)" fill="#002d4f"/>
          <path id="Trazado_998455" data-name="Trazado 998455" d="M115.72,190.8l-27.519.016a2.489,2.489,0,0,1-2.481-2.638l0-30.913a2.476,2.476,0,0,1,2.489-2.566l27.383,0a2.469,2.469,0,0,1,2.493,2.562l0,30.914a2.448,2.448,0,0,1-2.372,2.621M91.161,164.362a1.278,1.278,0,0,0,1.77-.167l3.587-3.6A1.22,1.22,0,0,0,95,158.7l-3.071,2.921a1.407,1.407,0,0,0-2.04-.345,1.31,1.31,0,0,0,.136,2c.376.326.681.743,1.133,1.09m21.954-.961a1.181,1.181,0,0,0,1.225-1.238,1.2,1.2,0,0,0-1.106-1.205l-12.426-.022a1.243,1.243,0,1,0,.01,2.476Zm-20.383,8.435,3.813-3.8a1.234,1.234,0,0,0-.053-1.77,1.219,1.219,0,0,0-1.683.016l-2.883,2.8a1.438,1.438,0,0,0-2-.369,1.272,1.272,0,0,0,.054,1.985c.443.4,1.731,2.151,2.749,1.136m20.5-.957a1.227,1.227,0,0,0,1.086-1.488,1.257,1.257,0,0,0-1.312-.973l-12.594.04c-.7,0-1,.831-.957,1.325.03.377.392,1.116,1.014,1.115Zm-22.168,8.355a1.216,1.216,0,0,0,1.718.033l3.778-3.775a1.231,1.231,0,0,0-1.723-1.757l-2.911,2.81a1.444,1.444,0,0,0-2.047-.307,1.264,1.264,0,0,0,.077,1.905Zm22.034-.881a1.233,1.233,0,0,0,1.242-1.346,1.253,1.253,0,0,0-1.193-1.134l-12.318-.016a1.268,1.268,0,1,0-.017,2.527Zm-20.3,8.371,3.716-3.707a1.238,1.238,0,1,0-1.756-1.745l-2.814,2.775a1.417,1.417,0,0,0-2.059-.347,1.3,1.3,0,0,0,.153,1.99c.532.447,1.645,2.145,2.76,1.033m20.1-3.378-12.083.01a1.212,1.212,0,0,0-1.367,1.246,1.275,1.275,0,0,0,1.357,1.256l12.213-.005a1.286,1.286,0,0,0,1.32-1.249,1.273,1.273,0,0,0-1.441-1.257" transform="translate(-67.039 -120.987)" fill="#002d4f"/>
          <path id="Trazado_998456" data-name="Trazado 998456" d="M24.156,121.088a1.649,1.649,0,0,1-1.368-1.075L22.8,99.055l18.628,5.2a5.909,5.909,0,0,0,6.715-2.669l3.216-5.31.075,10.221-12.687.068a4.952,4.952,0,0,0-4.755,5.206l0,11.976Z" transform="translate(-17.822 -75.296)" fill="#002d4f"/>
          <path id="Trazado_998457" data-name="Trazado 998457" d="M193.272,120.894l-10.045,2.725-.032-12.585a4.973,4.973,0,0,0-4.943-4.643l-12.472-.024.05-10.275,3.32,5.486a5.9,5.9,0,0,0,6.639,2.541l18.619-5.206.025,20.547a1.429,1.429,0,0,1-1.16,1.432" transform="translate(-129.65 -75.151)" fill="#002d4f"/>
        </g>
      </g>
    </g>
    <g id="Grupo_1190364" data-name="Grupo 1190364" transform="translate(964.739 4793.245)">
      <g id="Grupo_1190363" data-name="Grupo 1190363" clip-path="url(#clip-path-5)">
        <path id="Trazado_998458" data-name="Trazado 998458" d="M14.821,126.221l11.287,11.186a5.509,5.509,0,0,1,1.4,4.566l-.5,4.11-16.513,4.44A8.359,8.359,0,0,0,8.179,145.5L2.15,139A7.352,7.352,0,0,1,0,133.961l.026-25.309a3.988,3.988,0,0,1,4.1-3.835A4.108,4.108,0,0,1,8.116,109.2L8,123.454a6.829,6.829,0,0,0-3.327,3.968,5.8,5.8,0,0,0,1.413,5.523l6.006,5.987a1.366,1.366,0,1,0,1.94-1.922l-5.995-6a3.054,3.054,0,0,1-.01-4.2,4.493,4.493,0,0,1,6.8-.591" transform="translate(0 -76.867)" fill="#2e5c6c"/>
        <path id="Trazado_998459" data-name="Trazado 998459" d="M150.088,137.48,161.5,126.174a4.471,4.471,0,0,1,6.719.643,3.059,3.059,0,0,1-.006,4.2l-6.19,6.257c-.469.474-.13,1.46.217,1.762a1.447,1.447,0,0,0,1.914-.087l6.125-6.132a5.675,5.675,0,0,0,1.3-5.381,6.745,6.745,0,0,0-3.339-3.976l-.05-14.8a3.945,3.945,0,0,1,4.18-3.833,4.039,4.039,0,0,1,3.883,4.091l-.021,25.314a6.913,6.913,0,0,1-2,4.627l-6.4,6.939a8.024,8.024,0,0,0-2.059,4.714l-16.514-4.444c-.276-2.636-1.343-6.429.842-8.593" transform="translate(-109.082 -76.877)" fill="#2e5c6c"/>
        <rect id="Rectángulo_455281" data-name="Rectángulo 455281" width="5.588" height="21.946" transform="translate(36.499 76.845) rotate(-74.999)" fill="#2e5c6c"/>
        <rect id="Rectángulo_455282" data-name="Rectángulo 455282" width="21.948" height="5.603" transform="translate(8.02 77.124) rotate(-14.995)" fill="#2e5c6c"/>
        <path id="Trazado_998460" data-name="Trazado 998460" d="M93.811,84.727A18.359,18.359,0,1,1,75.452,66.368,18.359,18.359,0,0,1,93.811,84.727M75.52,89.958l7.689,4.554-1.962-8.757,6.735-5.934-8.945-.88-3.6-8.271-3.568,8.276-8.948.871,6.733,5.935-1.962,8.808Z" transform="translate(-41.869 -48.672)" fill="#2e5c6c"/>
        <path id="Trazado_998461" data-name="Trazado 998461" d="M113.806,14.966l-4.72.111-.1-7.736-2.124-.083a.785.785,0,0,1-.652-.283.758.758,0,0,1,.019-.709L110.73.4a.767.767,0,0,1,1.233-.137l4.643,6c.124.16.062.434.069.546.012.174-.213.419-.516.432l-2.329.1Z" transform="translate(-77.828 0)" fill="#2e5c6c"/>
        <path id="Trazado_998462" data-name="Trazado 998462" d="M164.635,42.3a27.273,27.273,0,0,0-4.522-3.748l-.163-3.513c-.724-.192-2.461.115-2.747-.331a.722.722,0,0,1-.048-.713l4.622-6.007a.888.888,0,0,1,.513-.323.759.759,0,0,1,.693.317l4.622,6.01a.621.621,0,0,1-.444.949c-.806.1-1.546-.069-2.359.094Z" transform="translate(-115.194 -20.28)" fill="#2e5c6c"/>
        <path id="Trazado_998463" data-name="Trazado 998463" d="M62.683,38.414a25.831,25.831,0,0,0-4.659,3.994l-.151-7.357c-.795-.229-2.373.125-2.768-.34a.659.659,0,0,1-.047-.722l4.632-6a.854.854,0,0,1,.52-.322.783.783,0,0,1,.686.323l4.621,6.006a.731.731,0,0,1-.049.715c-.287.456-2.043.131-2.754.323a20.119,20.119,0,0,0-.032,3.384" transform="translate(-40.312 -20.283)" fill="#2e5c6c"/>
      </g>
    </g>
    <g id="Grupo_1190366" data-name="Grupo 1190366" transform="translate(1159.042 4797.558)">
      <g id="Grupo_1190365" data-name="Grupo 1190365" clip-path="url(#clip-path-6)">
        <path id="Trazado_998464" data-name="Trazado 998464" d="M40.058,38.219l-6.343,0A10.9,10.9,0,0,0,25.1,42.629l-6.977,9.027c-.865,1.12.064,2.765,1.129,3.326a2.733,2.733,0,0,0,3.416-.543l7.3-9.381a.685.685,0,0,1,.628-.2.61.61,0,0,1,.4.743L27.285,71.887a4.246,4.246,0,0,0,.249,1.992L16.588,73.9l-1.07-13.551c-.206-2.6-.259-5.322-1.529-7.6L7.67,41.417l-5.126,7.4L0,30.093,17.719,28.91,12.81,36.36l10.073,2.473,3.844-22.492-16.283-.151L36.941,0,63.4,16.168l-16.258.183,6.34,26.185,8.889-6.2-3.666-4.978,15.142-.024-1.2,14.922-5.084-3.606L63.217,47.73c-5.069,5.928-6.305,18.458-5.88,26.151l-10.906.029c-.146-.5.291-.911.2-1.517L42.874,46.343a.617.617,0,0,1,.218-.63.581.581,0,0,1,.783.1l7.592,8.863c.854,1,2.454.74,3.3.214.969-.6,1.8-2.187.979-3.243l-7.215-9.292a10.653,10.653,0,0,0-8.477-4.138m3.02-8.028a6.147,6.147,0,1,0-6.147,6.147,6.147,6.147,0,0,0,6.147-6.147" fill="#002d4f"/>
        <path id="Trazado_998465" data-name="Trazado 998465" d="M140.879,255.014h-8.818l1.783-12.753a2.737,2.737,0,0,1,5.247,0Z" transform="translate(-99.538 -181.123)" fill="#002d4f"/>
      </g>
    </g>
  </g>
</svg>
