<svg xmlns="http://www.w3.org/2000/svg" xmlns:xlink="http://www.w3.org/1999/xlink" width="394.5" height="1272.699" viewBox="0 0 394.5 1272.699">
  <defs>
    <clipPath id="clip-path">
      <rect id="Rectángulo_455255" data-name="Rectángulo 455255" width="58.835" height="58.866" fill="#002d4f"/>
    </clipPath>
    <clipPath id="clip-path-2">
      <rect id="Rectángulo_455279" data-name="Rectángulo 455279" width="60.821" height="59.38" fill="#2e5c6c"/>
    </clipPath>
    <clipPath id="clip-path-3">
      <rect id="Rectángulo_455280" data-name="Rectángulo 455280" width="50.063" height="50.131" fill="#002d4f"/>
    </clipPath>
    <clipPath id="clip-path-4">
      <rect id="Rectángulo_455283" data-name="Rectángulo 455283" width="48.217" height="59.251" fill="#2e5c6c"/>
    </clipPath>
    <clipPath id="clip-path-5">
      <rect id="Rectángulo_455284" data-name="Rectángulo 455284" width="53.015" height="53.059" fill="#002d4f"/>
    </clipPath>
  </defs>
  <g id="Grupo_1190382" data-name="Grupo 1190382" transform="translate(-292 -8441.301)">
    <rect id="Rectángulo_455285" data-name="Rectángulo 455285" width="394.5" height="1272.699" rx="15" transform="translate(292 8441.301)" fill="#ffe9f3"/>
    <g id="Grupo_1190381" data-name="Grupo 1190381" transform="translate(0 11)">
      <g id="Grupo_1177811" data-name="Grupo 1177811" transform="translate(314.583 9020.357)">
        <circle id="Elipse_5841" data-name="Elipse 5841" cx="21.252" cy="21.252" r="21.252" transform="translate(0 0)" fill="#fe93c4"/>
        <text id="_1" data-name="1" transform="translate(16.528 28.638)" fill="#12263f" font-size="18" font-family="SegoeUI-Bold, Segoe UI" font-weight="700"><tspan x="0" y="0">1</tspan></text>
      </g>
      <g id="Grupo_1177933" data-name="Grupo 1177933" transform="translate(314.583 9152.82)">
        <circle id="Elipse_5841-2" data-name="Elipse 5841" cx="21.252" cy="21.252" r="21.252" transform="translate(0 0)" fill="#fe93c4"/>
        <text id="_2" data-name="2" transform="translate(16.528 28.638)" fill="#12263f" font-size="18" font-family="SegoeUI-Bold, Segoe UI" font-weight="700"><tspan x="0" y="0">2</tspan></text>
      </g>
      <g id="Grupo_1177934" data-name="Grupo 1177934" transform="translate(314.583 9289.58)">
        <circle id="Elipse_5841-3" data-name="Elipse 5841" cx="21.252" cy="21.252" r="21.252" transform="translate(0 0)" fill="#fe93c4"/>
        <text id="_3" data-name="3" transform="translate(16.528 28.638)" fill="#12263f" font-size="18" font-family="SegoeUI-Bold, Segoe UI" font-weight="700"><tspan x="0" y="0">3</tspan></text>
      </g>
      <g id="Grupo_1177935" data-name="Grupo 1177935" transform="translate(314.583 9424.34)">
        <circle id="Elipse_5841-4" data-name="Elipse 5841" cx="21.252" cy="21.252" r="21.252" transform="translate(0 0)" fill="#fe93c4"/>
        <text id="_4" data-name="4" transform="translate(16.528 28.638)" fill="#12263f" font-size="18" font-family="SegoeUI-Bold, Segoe UI" font-weight="700"><tspan x="0" y="0">4</tspan></text>
      </g>
      <g id="Grupo_1177936" data-name="Grupo 1177936" transform="translate(314.583 9560.1)">
        <circle id="Elipse_5841-5" data-name="Elipse 5841" cx="21.252" cy="21.252" r="21.252" transform="translate(0 0)" fill="#fe93c4"/>
        <text id="_5" data-name="5" transform="translate(16.528 28.638)" fill="#12263f" font-size="18" font-family="SegoeUI-Bold, Segoe UI" font-weight="700"><tspan x="0" y="0">5</tspan></text>
      </g>
      <text id="Competidores_principales_Identificación_de_los_actores_clave_en_el_mercado" data-name="Competidores principales

Identificación de los actores clave en el mercado" transform="translate(375.917 9031.861)" fill="#12263f" font-size="16" font-family="SegoeUI-Bold, Segoe UI" font-weight="700"><tspan x="0" y="17">Competidores principales</tspan><tspan font-family="SegoeUI, Segoe UI" font-weight="400"><tspan x="0" y="41"></tspan><tspan x="0" y="65">Identificación de los actores clave en el </tspan><tspan x="0" y="89">mercado</tspan></tspan></text>
      <text id="Participación_en_el_mercado_Evaluación_de_la_cuota_de_mercado_de_cada_competidor" data-name="Participación en el mercado

Evaluación de la cuota de mercado de cada competidor" transform="translate(375.917 9164.324)" fill="#12263f" font-size="16" font-family="SegoeUI-Bold, Segoe UI" font-weight="700"><tspan x="0" y="17">Participación en el mercado</tspan><tspan font-family="SegoeUI, Segoe UI" font-weight="400"><tspan x="0" y="41"></tspan><tspan x="0" y="65">Evaluación de la cuota de mercado de </tspan><tspan x="0" y="89">cada competidor</tspan></tspan></text>
      <text id="Características_del_producto_Análisis_de_las_cualidades_distintivas_de_los_productos" data-name="Características del producto

Análisis de las cualidades distintivas de los productos" transform="translate(375.917 9301.084)" fill="#12263f" font-size="16" font-family="SegoeUI-Bold, Segoe UI" font-weight="700"><tspan x="0" y="17">Características del producto</tspan><tspan font-family="SegoeUI, Segoe UI" font-weight="400"><tspan x="0" y="41"></tspan><tspan x="0" y="65">Análisis de las cualidades distintivas de </tspan><tspan x="0" y="89">los productos</tspan></tspan></text>
      <text id="Ventajas_competitivas_Determinación_de_los_factores_que_diferencian_a_los_competidores" data-name="Ventajas competitivas

Determinación de los factores que diferencian a los competidores" transform="translate(375.917 9435.844)" fill="#12263f" font-size="16" font-family="SegoeUI-Bold, Segoe UI" font-weight="700"><tspan x="0" y="17">Ventajas competitivas</tspan><tspan font-family="SegoeUI, Segoe UI" font-weight="400"><tspan x="0" y="41"></tspan><tspan x="0" y="65">Determinación de los factores que </tspan><tspan x="0" y="89">diferencian a los competidores</tspan></tspan></text>
      <text id="Oportunidades_de_mercado_Evaluación_del_potencial_de_crecimiento_y_exploración_en_el_mercado" data-name="Oportunidades de mercado

Evaluación del potencial de crecimiento y exploración en el mercado" transform="translate(375.917 9571.604)" fill="#12263f" font-size="16" font-family="SegoeUI-Bold, Segoe UI" font-weight="700"><tspan x="0" y="17">Oportunidades de mercado</tspan><tspan font-family="SegoeUI, Segoe UI" font-weight="400"><tspan x="0" y="41"></tspan><tspan x="0" y="65">Evaluación del potencial de crecimiento </tspan><tspan x="0" y="89">y exploración en el mercado</tspan></tspan></text>
    </g>
    <rect id="Rectángulo_455252" data-name="Rectángulo 455252" width="88.281" height="98.994" rx="15" transform="translate(339 8689.148)" fill="#fe93c4"/>
    <text id="Análisis_de_oferta" data-name="Análisis de oferta" transform="translate(353 8704.148)" fill="#12263f" font-size="16" font-family="SegoeUI-Bold, Segoe UI" font-weight="700"><tspan x="1.977" y="17">Análisis </tspan><tspan x="21.325" y="39">de </tspan><tspan x="7.61" y="61">oferta</tspan></text>
    <path id="Trazado_998466" data-name="Trazado 998466" d="M30.619,0H0V444.675H32.915" transform="translate(445.488 8516.621)" fill="none" stroke="#445866" stroke-width="3"/>
    <path id="Trazado_998467" data-name="Trazado 998467" d="M0,0V150.077" transform="translate(577.358 8738.923) rotate(90)" fill="none" stroke="#445866" stroke-width="3"/>
    <path id="Trazado_998468" data-name="Trazado 998468" d="M0,0V131.871" transform="translate(577.358 8850.154) rotate(90)" fill="none" stroke="#445866" stroke-width="3"/>
    <path id="Trazado_998469" data-name="Trazado 998469" d="M0,0V94.78" transform="translate(577.358 8961.762) rotate(90)" fill="none" stroke="#445866" stroke-width="3"/>
    <path id="Trazado_998471" data-name="Trazado 998471" d="M0,0V94.78" transform="translate(577.358 8516.597) rotate(90)" fill="none" stroke="#445866" stroke-width="3"/>
    <path id="Trazado_998470" data-name="Trazado 998470" d="M0,0V131.871" transform="translate(577.358 8627.738) rotate(90)" fill="none" stroke="#445866" stroke-width="3"/>
    <g id="Elipse_13701" data-name="Elipse 13701" transform="translate(455.699 9011.446) rotate(-90)" fill="#fff" stroke="#707070" stroke-width="1">
      <ellipse cx="50.15" cy="50.15" rx="50.15" ry="50.15" stroke="none"/>
      <ellipse cx="50.15" cy="50.15" rx="49.65" ry="49.65" fill="none"/>
    </g>
    <g id="Elipse_13702" data-name="Elipse 13702" transform="translate(455.699 8900.221) rotate(-90)" fill="#fff" stroke="#707070" stroke-width="1">
      <ellipse cx="50.15" cy="50.15" rx="50.15" ry="50.15" stroke="none"/>
      <ellipse cx="50.15" cy="50.15" rx="49.65" ry="49.65" fill="none"/>
    </g>
    <g id="Elipse_13703" data-name="Elipse 13703" transform="translate(455.699 8789.039) rotate(-90)" fill="#fff" stroke="#707070" stroke-width="1">
      <ellipse cx="50.15" cy="50.15" rx="50.15" ry="50.15" stroke="none"/>
      <ellipse cx="50.15" cy="50.15" rx="49.65" ry="49.65" fill="none"/>
    </g>
    <g id="Elipse_13704" data-name="Elipse 13704" transform="translate(455.699 8677.902) rotate(-90)" fill="#fff" stroke="#707070" stroke-width="1">
      <ellipse cx="50.15" cy="50.15" rx="50.15" ry="50.15" stroke="none"/>
      <ellipse cx="50.15" cy="50.15" rx="49.65" ry="49.65" fill="none"/>
    </g>
    <g id="Elipse_13705" data-name="Elipse 13705" transform="translate(455.699 8566.812) rotate(-90)" fill="#fff" stroke="#707070" stroke-width="1">
      <ellipse cx="50.15" cy="50.15" rx="50.15" ry="50.15" stroke="none"/>
      <ellipse cx="50.15" cy="50.15" rx="49.65" ry="49.65" fill="none"/>
    </g>
    <path id="Trazado_998373" data-name="Trazado 998373" d="M101.5,37.3a52.142,52.142,0,1,0,2.05,14.48A51.8,51.8,0,0,0,101.5,37.3M84.957,84.957A46.925,46.925,0,1,1,18.6,18.594a46.925,46.925,0,1,1,66.36,66.364" transform="translate(454.839 9013.118) rotate(-90)" fill="#004b84"/>
    <path id="Trazado_998375" data-name="Trazado 998375" d="M101.5,37.3a52.144,52.144,0,1,0,2.05,14.48A51.8,51.8,0,0,0,101.5,37.3M84.957,84.957A46.926,46.926,0,1,1,18.594,18.594,46.926,46.926,0,1,1,84.957,84.957" transform="translate(454.839 8901.887) rotate(-90)" fill="#2e5c6c"/>
    <path id="Trazado_998377" data-name="Trazado 998377" d="M101.5,37.3a52.138,52.138,0,1,0,2.051,14.48A51.8,51.8,0,0,0,101.5,37.3M84.96,84.957A46.926,46.926,0,1,1,18.6,18.594,46.926,46.926,0,1,1,84.96,84.957" transform="translate(454.839 8790.702) rotate(-90)" fill="#004b84"/>
    <path id="Trazado_998378" data-name="Trazado 998378" d="M51.777,0a51.777,51.777,0,1,0,51.777,51.777A51.8,51.8,0,0,0,51.777,0m33.18,84.957A46.925,46.925,0,1,1,18.6,18.594,46.925,46.925,0,1,1,84.957,84.957" transform="translate(454.839 8679.561) rotate(-90)" fill="#2e5c6c"/>
    <path id="Trazado_998380" data-name="Trazado 998380" d="M51.778,0a51.777,51.777,0,1,0,51.777,51.777A51.8,51.8,0,0,0,51.778,0m33.18,84.957A46.925,46.925,0,1,1,18.6,18.594a46.925,46.925,0,1,1,66.36,66.364" transform="translate(454.839 8568.464) rotate(-90)" fill="#004b84"/>
    <g id="Grupo_1190369" data-name="Grupo 1190369" transform="translate(477 8487.164)">
      <g id="Grupo_1190314" data-name="Grupo 1190314" clip-path="url(#clip-path)">
        <path id="Trazado_998386" data-name="Trazado 998386" d="M5.085,18.147c.165.581.018.947-.323,1.121a.843.843,0,0,1-1.127-.309A26.528,26.528,0,0,1,.422.831c.1-.54.4-.826.847-.831a.813.813,0,0,1,.81.991A24.879,24.879,0,0,0,5.085,18.147" transform="translate(2.491 24.263)" fill="#002d4f"/>
        <path id="Trazado_998387" data-name="Trazado 998387" d="M1.638,9.975A.827.827,0,1,1,.014,9.664,24.556,24.556,0,0,0,.026,1.147.915.915,0,0,1,.514.04.842.842,0,0,1,1.63.649a26.848,26.848,0,0,1,.009,9.327" transform="translate(53.468 24.499)" fill="#002d4f"/>
        <path id="Trazado_998388" data-name="Trazado 998388" d="M9.658,2.019a24.251,24.251,0,0,0-8.614.013A.881.881,0,0,1,.009,1.308.849.849,0,0,1,.7.392,27.766,27.766,0,0,1,10.057.4a.8.8,0,0,1,.626.963.833.833,0,0,1-1.026.654" transform="translate(23.642 3.34)" fill="#002d4f"/>
        <path id="Trazado_998389" data-name="Trazado 998389" d="M20.941,10.47A10.471,10.471,0,1,1,10.471,0,10.471,10.471,0,0,1,20.941,10.47M17.3,16.01a8.8,8.8,0,1,0-13.644.007,7.08,7.08,0,0,1,6.895-5.29A7.146,7.146,0,0,1,17.3,16.01" transform="translate(37.894)" fill="#002d4f"/>
        <path id="Trazado_998390" data-name="Trazado 998390" d="M6.638,3.319A3.319,3.319,0,1,1,3.319,0,3.319,3.319,0,0,1,6.638,3.319" transform="translate(45.046 3.548)" fill="#002d4f"/>
        <path id="Trazado_998391" data-name="Trazado 998391" d="M20.94,10.47A10.47,10.47,0,1,1,10.47,0,10.47,10.47,0,0,1,20.94,10.47M17.3,16.014a8.8,8.8,0,1,0-13.647,0,7.1,7.1,0,0,1,6.914-5.285A7.127,7.127,0,0,1,17.3,16.014" fill="#002d4f"/>
        <path id="Trazado_998392" data-name="Trazado 998392" d="M6.638,3.319A3.319,3.319,0,1,1,3.319,0,3.319,3.319,0,0,1,6.638,3.319" transform="translate(7.153 3.547)" fill="#002d4f"/>
        <path id="Trazado_998393" data-name="Trazado 998393" d="M5.808,40.846a3.372,3.372,0,0,1-4.783.141,3.334,3.334,0,0,1-.07-4.741l9.015-9.058c.747-.751,1.394-.173,2.138-.3,1.315-.221,1.54-2.312.9-3.39a15.534,15.534,0,1,1,5.3,5.358c-.979-.589-3.063-.305-3.271.889-.142.812.434,1.465-.387,2.284Zm32.345-25.3A11.781,11.781,0,1,0,26.372,27.328,11.781,11.781,0,0,0,38.153,15.547" transform="translate(2.631 14.284)" fill="#002d4f"/>
        <path id="Trazado_998394" data-name="Trazado 998394" d="M18.27,3.1a.791.791,0,0,1,.964.659.811.811,0,0,1-.708.969A26.4,26.4,0,0,1,.42,1.533.849.849,0,0,1,.039.539.842.842,0,0,1,1.145.04,24.888,24.888,0,0,0,18.27,3.1" transform="translate(15.205 51.182)" fill="#002d4f"/>
        <rect id="Rectángulo_455253" data-name="Rectángulo 455253" width="3.214" height="13.745" transform="translate(27.385 22.067)" fill="#002d4f"/>
        <path id="Trazado_998395" data-name="Trazado 998395" d="M3.239,10.051a15.547,15.547,0,0,1-3.218.068L0,.019,3.226,0Z" transform="translate(33.035 25.661)" fill="#002d4f"/>
        <rect id="Rectángulo_455254" data-name="Rectángulo 455254" width="3.222" height="6.951" transform="translate(21.71 28.861)" fill="#002d4f"/>
        <path id="Trazado_998396" data-name="Trazado 998396" d="M20.94,10.47A10.47,10.47,0,1,1,10.47,0,10.47,10.47,0,0,1,20.94,10.47m-3.628,5.537a8.8,8.8,0,1,0-13.646-.024,7.055,7.055,0,0,1,6.865-5.247,7.142,7.142,0,0,1,6.781,5.272" transform="translate(37.894 37.926)" fill="#002d4f"/>
        <path id="Trazado_998397" data-name="Trazado 998397" d="M6.638,3.319A3.319,3.319,0,1,1,3.319,0,3.319,3.319,0,0,1,6.638,3.319" transform="translate(45.046 41.471)" fill="#002d4f"/>
      </g>
    </g>
    <g id="Grupo_1190370" data-name="Grupo 1190370" transform="translate(535.259 8653.822) rotate(180)">
      <g id="Grupo_1190358" data-name="Grupo 1190358" clip-path="url(#clip-path-2)">
        <path id="Trazado_998446" data-name="Trazado 998446" d="M20.515,18.754c.168,1.536-1.817.781-3.712.841a6.733,6.733,0,0,0-9.061-5.227L5.434,10.46c-1.175-1.99-3.657,2.4-5.167.284a1.41,1.41,0,0,1,.4-2.034L2.588,7.59a.981.981,0,0,0,.393-1.356L.75,2.29a20.534,20.534,0,0,1,18.878.016,2.982,2.982,0,0,1-1.537.317A3.989,3.989,0,0,0,14.267,6.58a3.855,3.855,0,0,0,4.017,3.938l5.944-.492c1.119-.093,2.838-.278,3.8.475a18.475,18.475,0,0,1,2.731,9.078,17.226,17.226,0,0,1-3.413.039c-.262-.019-.236-.635-.214-.871a3.331,3.331,0,1,0-6.614.007" transform="translate(19.019 4.007)" fill="#2e5c6c"/>
        <path id="Trazado_998447" data-name="Trazado 998447" d="M15.035,31.46l-2-1.123a.985.985,0,0,0-1.4.447L9.42,34.561C4.048,31.366-.033,24.329,0,18.174A4.7,4.7,0,0,1,1.271,19.7a3.989,3.989,0,1,0,6.54-4.569L3.973,9.7A7.01,7.01,0,0,1,2.9,6.619,20.833,20.833,0,0,1,9.324,0a14.024,14.024,0,0,1,1.771,2.942c.1.2-.473.49-.65.573a3.345,3.345,0,1,0,3.387,5.71c.2-.147.665-.419.843-.14.613.96,1.124,1.869,1.688,2.959a6.726,6.726,0,0,0,.005,10.466l-2.292,4.071a.977.977,0,0,0,.4,1.311L16.389,29a1.421,1.421,0,0,1,.549,1.814,1.35,1.35,0,0,1-1.9.646" transform="translate(8.668 7.328)" fill="#2e5c6c"/>
        <path id="Trazado_998448" data-name="Trazado 998448" d="M9.167,24.272A20.373,20.373,0,0,1,0,21.971a32.576,32.576,0,0,1,1.735-2.94c.129-.178.627.109.795.231a3.348,3.348,0,1,0,3.309-5.756c-.195-.09-.7-.361-.569-.631A27.5,27.5,0,0,1,6.989,9.921a6.761,6.761,0,0,0,9.074-5.254l4.72-.06a.836.836,0,0,0,.844-.845l.03-2.364a1.42,1.42,0,1,1,2.828.2c-.028.668-.023,1.3-.007,1.944.019.765.548,1.1,1.26,1.1l4.23.007a20.578,20.578,0,0,1-9.389,16.3c-.052-.8.394-1.26.634-1.867A4,4,0,0,0,13.9,15.837l-2.868,6.2a9.681,9.681,0,0,1-1.861,2.239" transform="translate(19.763 20.933)" fill="#2e5c6c"/>
        <path id="Trazado_998449" data-name="Trazado 998449" d="M17.22,12.3l-7.98.689A2.322,2.322,0,0,1,6.98,10.8,2.366,2.366,0,0,1,9.154,8.223c2.149-.273,4.228-.281,6.388-.685A20.849,20.849,0,0,0,0,2.362C3.609.208,7.589-.188,11.582.069c7.77.684,15.27,4.835,21.356,9.522L29.584,15.4l-5.249-2.949a14.227,14.227,0,0,1-7.115-.16" transform="translate(27.883 0)" fill="#2e5c6c"/>
        <path id="Trazado_998450" data-name="Trazado 998450" d="M5.184,16.077c.6-2.562,2.217-4.308,3.627-6.329,2.479-3.555,2.915-9.57,6.515-7.974a2.356,2.356,0,0,1,1.157,3.082l-2.658,5.959C19.342,9.087,23.408,5.108,26.1,0,25.928,12.36,13.421,20.793,3.381,24.855L0,19.017Z" transform="translate(22.997 34.525)" fill="#2e5c6c"/>
        <path id="Trazado_998451" data-name="Trazado 998451" d="M11.432,21.474l-3.945-5.41c-1.223,5.628.078,11.022,3.18,15.97a18.308,18.308,0,0,1-7.289-8C-.256,17.062-.527,7.625.561,0L7.283.013l0,6.016c1.944,1.764,2.614,4.117,3.7,6.343,1.11,2.284,2.95,4.084,4.237,6.256a2.4,2.4,0,0,1-.471,3.145,2.349,2.349,0,0,1-3.311-.3" transform="translate(0 4.839)" fill="#2e5c6c"/>
      </g>
    </g>
    <g id="Grupo_1190371" data-name="Grupo 1190371" transform="translate(481.772 8713.894)">
      <path id="Trazado_998452" data-name="Trazado 998452" d="M18.993,0,0,5.434l18.984,5.329,19-5.332Z" transform="translate(6.045 0)" fill="#002d4f"/>
      <g id="Grupo_1190361" data-name="Grupo 1190361" transform="translate(0)">
        <g id="Grupo_1190360" data-name="Grupo 1190360" clip-path="url(#clip-path-3)">
          <path id="Trazado_998453" data-name="Trazado 998453" d="M17.759,12.69,1.568,8.146A2.45,2.45,0,0,1,.362,4.588L3.117,0,23.632,5.75l-3.473,5.823a2.478,2.478,0,0,1-2.4,1.116" transform="translate(0 6.479)" fill="#002d4f"/>
          <path id="Trazado_998454" data-name="Trazado 998454" d="M21.918,8.2,6.443,12.528a2.456,2.456,0,0,1-3.022-1.054L0,5.759,20.535,0l2.749,4.586A2.44,2.44,0,0,1,21.918,8.2" transform="translate(26.415 6.482)" fill="#002d4f"/>
          <path id="Trazado_998455" data-name="Trazado 998455" d="M21.536,25.916l-19.756.012A1.787,1.787,0,0,1,0,24.034L0,1.842A1.778,1.778,0,0,1,1.79,0L21.448,0a1.773,1.773,0,0,1,1.789,1.839l0,22.193a1.757,1.757,0,0,1-1.7,1.881M3.906,6.935a.917.917,0,0,0,1.27-.12L7.752,4.232A.876.876,0,0,0,6.664,2.867l-2.2,2.1a1.01,1.01,0,0,0-1.464-.248.94.94,0,0,0,.1,1.436c.27.234.489.533.814.783m15.761-.69a.848.848,0,0,0,.88-.889.861.861,0,0,0-.794-.865l-8.92-.015a.893.893,0,1,0,.007,1.778ZM5.035,12.3,7.772,9.571A.886.886,0,0,0,7.734,8.3a.875.875,0,0,0-1.208.012l-2.07,2.012a1.032,1.032,0,0,0-1.433-.265.913.913,0,0,0,.038,1.425c.318.286,1.243,1.544,1.973.816m14.718-.687a.881.881,0,0,0,.779-1.068.9.9,0,0,0-.942-.7l-9.041.029c-.505,0-.715.6-.687.951.022.271.282.8.728.8Zm-15.914,6a.873.873,0,0,0,1.234.024l2.712-2.71a.884.884,0,0,0-1.237-1.261l-2.09,2.017a1.037,1.037,0,0,0-1.469-.22.907.907,0,0,0,.055,1.368Zm15.818-.632a.885.885,0,0,0,.892-.966.9.9,0,0,0-.857-.814l-8.843-.011A.91.91,0,1,0,10.837,17ZM5.082,22.988l2.667-2.661a.889.889,0,1,0-1.26-1.253l-2.02,1.992a1.017,1.017,0,0,0-1.478-.249.931.931,0,0,0,.11,1.429c.382.321,1.181,1.54,1.981.742m14.432-2.425-8.674.007a.87.87,0,0,0-.981.894.915.915,0,0,0,.974.9l8.768,0a.923.923,0,0,0,.948-.9.914.914,0,0,0-1.034-.9" transform="translate(13.411 24.203)" fill="#002d4f"/>
          <path id="Trazado_998456" data-name="Trazado 998456" d="M.982,17.81A1.184,1.184,0,0,1,0,17.038L.007,1.993,13.38,5.728A4.242,4.242,0,0,0,18.2,3.812L20.509,0l.054,7.337-9.108.048a3.555,3.555,0,0,0-3.413,3.737l0,8.6Z" transform="translate(3.565 15.063)" fill="#002d4f"/>
          <path id="Trazado_998457" data-name="Trazado 998457" d="M19.737,17.8l-7.211,1.957L12.5,10.727A3.57,3.57,0,0,0,8.953,7.394L0,7.377.036,0,2.419,3.938A4.237,4.237,0,0,0,7.185,5.763L20.551,2.026l.018,14.75a1.026,1.026,0,0,1-.833,1.028" transform="translate(25.936 15.034)" fill="#002d4f"/>
        </g>
      </g>
    </g>
    <g id="Grupo_1190372" data-name="Grupo 1190372" transform="translate(482 8818.155)">
      <g id="Grupo_1190363" data-name="Grupo 1190363" clip-path="url(#clip-path-4)">
        <path id="Trazado_998458" data-name="Trazado 998458" d="M10.64,15.367l8.1,8.03a3.955,3.955,0,0,1,1,3.278l-.362,2.95L7.527,32.813a6,6,0,0,0-1.656-3.606L1.543,24.543A5.278,5.278,0,0,1,0,20.923L.019,2.754A2.863,2.863,0,0,1,2.965,0,2.949,2.949,0,0,1,5.827,3.145L5.741,13.38a4.9,4.9,0,0,0-2.388,2.849,4.161,4.161,0,0,0,1.014,3.965l4.312,4.3a.981.981,0,1,0,1.393-1.38L5.768,18.8a2.193,2.193,0,0,1-.007-3.012,3.225,3.225,0,0,1,4.879-.424" transform="translate(0 20.063)" fill="#2e5c6c"/>
        <path id="Trazado_998459" data-name="Trazado 998459" d="M.966,23.44l8.192-8.116a3.209,3.209,0,0,1,4.824.462,2.2,2.2,0,0,1,0,3.017L9.534,23.294c-.337.34-.093,1.048.156,1.265a1.039,1.039,0,0,0,1.374-.062l4.4-4.4a4.074,4.074,0,0,0,.93-3.863,4.842,4.842,0,0,0-2.4-2.854L13.957,2.754a2.832,2.832,0,0,1,3-2.752A2.9,2.9,0,0,1,19.745,2.94L19.73,21.112a4.963,4.963,0,0,1-1.439,3.322l-4.6,4.981A5.76,5.76,0,0,0,12.217,32.8L.362,29.609c-.2-1.893-.964-4.615.6-6.169" transform="translate(28.472 20.066)" fill="#2e5c6c"/>
        <rect id="Rectángulo_455281" data-name="Rectángulo 455281" width="4.012" height="15.754" transform="translate(26.202 55.166) rotate(-74.999)" fill="#2e5c6c"/>
        <rect id="Rectángulo_455282" data-name="Rectángulo 455282" width="15.756" height="4.022" transform="translate(5.757 55.366) rotate(-14.995)" fill="#2e5c6c"/>
        <path id="Trazado_998460" data-name="Trazado 998460" d="M26.36,13.18A13.18,13.18,0,1,1,13.18,0,13.18,13.18,0,0,1,26.36,13.18M13.229,16.935l5.52,3.27-1.408-6.287,4.835-4.26-6.422-.631L13.171,3.089,10.609,9.03l-6.424.626,4.834,4.261L7.611,20.24Z" transform="translate(10.928 12.704)" fill="#2e5c6c"/>
        <path id="Trazado_998461" data-name="Trazado 998461" d="M5.514,10.744l-3.388.08L2.05,5.271.526,5.211a.564.564,0,0,1-.468-.2A.544.544,0,0,1,.071,4.5L3.306.285a.551.551,0,0,1,.885-.1L7.524,4.494c.089.115.044.312.05.392.009.125-.153.3-.37.31l-1.672.07Z" transform="translate(20.314 0)" fill="#2e5c6c"/>
        <path id="Trazado_998462" data-name="Trazado 998462" d="M5.426,10.512A19.58,19.58,0,0,0,2.18,7.822L2.063,5.3C1.543,5.162.3,5.382.091,5.062A.518.518,0,0,1,.056,4.55L3.375.238A.637.637,0,0,1,3.743.006a.545.545,0,0,1,.5.228L7.559,4.548a.446.446,0,0,1-.319.681c-.578.072-1.11-.049-1.693.068Z" transform="translate(30.067 5.293)" fill="#2e5c6c"/>
        <path id="Trazado_998463" data-name="Trazado 998463" d="M5.538,7.722a18.544,18.544,0,0,0-3.344,2.867L2.085,5.307C1.515,5.143.382,5.4.1,5.063a.473.473,0,0,1-.034-.518L3.389.235A.613.613,0,0,1,3.763,0a.562.562,0,0,1,.492.232L7.572,4.548a.525.525,0,0,1-.035.513c-.206.328-1.466.094-1.977.232a14.444,14.444,0,0,0-.023,2.429" transform="translate(10.522 5.294)" fill="#2e5c6c"/>
      </g>
    </g>
    <g id="Grupo_1190373" data-name="Grupo 1190373" transform="translate(480.108 8934.767)">
      <g id="Grupo_1190365" data-name="Grupo 1190365" transform="translate(0)" clip-path="url(#clip-path-5)">
        <path id="Trazado_998464" data-name="Trazado 998464" d="M28.757,27.437H24.2A7.822,7.822,0,0,0,18.016,30.6l-5.009,6.48c-.621.8.046,1.985.811,2.387a1.962,1.962,0,0,0,2.452-.39l5.241-6.734a.491.491,0,0,1,.451-.141.438.438,0,0,1,.285.534l-2.66,18.867a3.048,3.048,0,0,0,.179,1.43l-7.858.015-.768-9.728c-.148-1.869-.186-3.82-1.1-5.456L5.506,29.732l-3.68,5.311L0,21.6l12.72-.849L9.2,26.1l7.231,1.776,2.76-16.147L7.5,11.622,26.519,0l19,11.606-11.672.131,4.551,18.8,6.381-4.454-2.632-3.574,10.87-.017L52.154,33.2,48.5,30.614l-3.122,3.651c-3.639,4.255-4.526,13.251-4.221,18.773l-7.829.021c-.1-.359.209-.654.146-1.089l-2.7-18.7a.443.443,0,0,1,.157-.453.417.417,0,0,1,.562.073l5.45,6.363a1.93,1.93,0,0,0,2.372.154c.7-.43,1.292-1.57.7-2.328l-5.18-6.671a7.648,7.648,0,0,0-6.085-2.971m2.168-5.763a4.413,4.413,0,1,0-4.413,4.413,4.413,4.413,0,0,0,4.413-4.413" fill="#002d4f"/>
        <path id="Trazado_998465" data-name="Trazado 998465" d="M6.33,10.561H0L1.28,1.406A1.877,1.877,0,0,1,3.087,0a1.873,1.873,0,0,1,1.96,1.4Z" transform="translate(23.348 42.484)" fill="#002d4f"/>
      </g>
    </g>
    <g id="Grupo_1190376" data-name="Grupo 1190376" transform="translate(577.358 8495.345)">
      <circle id="Elipse_5841-6" data-name="Elipse 5841" cx="21.252" cy="21.252" r="21.252" transform="translate(0 0)" fill="#fe93c4"/>
      <text id="_1-2" data-name="1" transform="translate(16.528 28.638)" fill="#12263f" font-size="18" font-family="SegoeUI-Bold, Segoe UI" font-weight="700"><tspan x="0" y="0">1</tspan></text>
    </g>
    <g id="Grupo_1190377" data-name="Grupo 1190377" transform="translate(577.358 8606.501)">
      <circle id="Elipse_5841-7" data-name="Elipse 5841" cx="21.252" cy="21.252" r="21.252" transform="translate(0 0)" fill="#fe93c4"/>
      <text id="_2-2" data-name="2" transform="translate(16.528 28.638)" fill="#12263f" font-size="18" font-family="SegoeUI-Bold, Segoe UI" font-weight="700"><tspan x="0" y="0">2</tspan></text>
    </g>
    <g id="Grupo_1190378" data-name="Grupo 1190378" transform="translate(577.358 8717.688)">
      <circle id="Elipse_5841-8" data-name="Elipse 5841" cx="21.252" cy="21.252" r="21.252" transform="translate(0 0)" fill="#fe93c4"/>
      <text id="_3-2" data-name="3" transform="translate(16.528 28.638)" fill="#12263f" font-size="18" font-family="SegoeUI-Bold, Segoe UI" font-weight="700"><tspan x="0" y="0">3</tspan></text>
    </g>
    <g id="Grupo_1190379" data-name="Grupo 1190379" transform="translate(577.358 8828.902)">
      <circle id="Elipse_5841-9" data-name="Elipse 5841" cx="21.252" cy="21.252" r="21.252" transform="translate(0 0)" fill="#fe93c4"/>
      <text id="_4-2" data-name="4" transform="translate(16.528 28.638)" fill="#12263f" font-size="18" font-family="SegoeUI-Bold, Segoe UI" font-weight="700"><tspan x="0" y="0">4</tspan></text>
    </g>
    <g id="Grupo_1190380" data-name="Grupo 1190380" transform="translate(577.358 8940.51)">
      <circle id="Elipse_5841-10" data-name="Elipse 5841" cx="21.252" cy="21.252" r="21.252" transform="translate(0 0)" fill="#fe93c4"/>
      <text id="_5-2" data-name="5" transform="translate(16.528 28.638)" fill="#12263f" font-size="18" font-family="SegoeUI-Bold, Segoe UI" font-weight="700"><tspan x="0" y="0">5</tspan></text>
    </g>
  </g>
</svg>
