<svg xmlns="http://www.w3.org/2000/svg" xmlns:xlink="http://www.w3.org/1999/xlink" width="84" height="84" viewBox="0 0 84 84">
  <defs>
    <clipPath id="clip-path">
      <rect id="Rectángulo_456127" data-name="Rectángulo 456127" width="59.946" height="61.061" fill="#12263f"/>
    </clipPath>
  </defs>
  <g id="Grupo_1190343" data-name="Grupo 1190343" transform="translate(-710 -1680.92)">
    <g id="Grupo_1119665" data-name="Grupo 1119665" transform="translate(710 1680.92)">
      <rect id="Rectángulo_402006" data-name="Rectángulo 402006" width="84" height="84" rx="5" fill="#fe93c4"/>
    </g>
    <g id="Grupo_1191887" data-name="Grupo 1191887" transform="translate(719 1692.39)">
      <rect id="Rectángulo_456124" data-name="Rectángulo 456124" width="6.3" height="12.844" transform="translate(47.798 10.143)" fill="#12263f"/>
      <rect id="Rectángulo_456125" data-name="Rectángulo 456125" width="6.342" height="9.831" transform="translate(38.402 13.155)" fill="#12263f"/>
      <g id="Grupo_1191886" data-name="Grupo 1191886">
        <g id="Grupo_1191885" data-name="Grupo 1191885" clip-path="url(#clip-path)">
          <path id="Trazado_1000622" data-name="Trazado 1000622" d="M157.425,7.358l-8.5,8.452a.689.689,0,0,1-.964-.052.759.759,0,0,1,.034-1.071L156.7,5.974a.856.856,0,0,1,1.1-.1l5.31,3.042,7.208-7.271c-.792-.174-1.179-.182-1.318-.625a.745.745,0,0,1,.759-.978c1.291-.013,3.257-.3,3.266.733l.02,2.344a.945.945,0,0,1-.376.881.751.751,0,0,1-.884-.089c-.25-.221-.167-.559-.364-1.167l-7.506,7.459a.947.947,0,0,1-1.243.184Z" transform="translate(-118.794 0)" fill="#12263f"/>
          <path id="Trazado_1000623" data-name="Trazado 1000623" d="M228.151,277.189a3.73,3.73,0,1,1-3.73-3.73,3.73,3.73,0,0,1,3.73,3.73" transform="translate(-177.433 -219.858)" fill="#12263f"/>
          <path id="Trazado_1000624" data-name="Trazado 1000624" d="M150.335,277.19a3.729,3.729,0,1,1-3.729-3.729,3.729,3.729,0,0,1,3.729,3.729" transform="translate(-114.872 -219.86)" fill="#12263f"/>
          <rect id="Rectángulo_456126" data-name="Rectángulo 456126" width="6.313" height="4.763" transform="translate(29.059 18.225)" fill="#12263f"/>
          <path id="Trazado_1000625" data-name="Trazado 1000625" d="M155.206,126.766l-4.395,18.121-27.42-.007-4.855-19.967,35.122-.006a1.588,1.588,0,0,1,1.548,1.86m-24.021,11.967,0-7.762a1.665,1.665,0,0,0-1.679-1.717,1.618,1.618,0,0,0-1.587,1.608l-.013,7.92a1.644,1.644,0,1,0,3.283-.049m7.328.136,0-8.013a1.62,1.62,0,0,0-1.75-1.6,1.666,1.666,0,0,0-1.511,1.705l.006,7.86a1.63,1.63,0,1,0,3.26.044m7.359-.135v-7.759a1.668,1.668,0,0,0-1.686-1.717,1.617,1.617,0,0,0-1.582,1.606l.006,8.076a1.617,1.617,0,0,0,1.722,1.556,1.667,1.667,0,0,0,1.541-1.761" transform="translate(-95.302 -100.423)" fill="#12263f"/>
          <path id="Trazado_1000626" data-name="Trazado 1000626" d="M113.4,131.66l-26.693,0a1.648,1.648,0,0,1-1.675-1.281l-5.969-24.208a2.9,2.9,0,0,0-3.548-1.933,18.942,18.942,0,0,1-.051-3.3,6.015,6.015,0,0,1,6.768,4.408l5.68,23.021,27.442.015a8.562,8.562,0,0,1-.522,2.423,1.76,1.76,0,0,1-1.432.855" transform="translate(-60.637 -81.096)" fill="#12263f"/>
          <path id="Trazado_1000627" data-name="Trazado 1000627" d="M13.342,100.97c0,.6-.278.943-.815.942l-10.2-.009A2.308,2.308,0,0,1,0,99.6a2.333,2.333,0,0,1,2.346-2.38l10.144-.016a.824.824,0,0,1,.85.91Z" transform="translate(0 -78.153)" fill="#12263f"/>
        </g>
      </g>
    </g>
  </g>
</svg>
