<svg xmlns="http://www.w3.org/2000/svg" xmlns:xlink="http://www.w3.org/1999/xlink" width="133" height="133" viewBox="0 0 133 133">
  <defs>
    <clipPath id="clip-path">
      <rect id="Rectángulo_454800" data-name="Rectángulo 454800" width="132.998" height="132.488" fill="none"/>
    </clipPath>
    <linearGradient id="linear-gradient" x1="0.5" y1="-0.646" x2="0.5" y2="1.118" gradientUnits="objectBoundingBox">
      <stop offset="0" stop-color="#67ccf1"/>
      <stop offset="0.625" stop-color="#004b84"/>
      <stop offset="1" stop-color="#002d4f"/>
    </linearGradient>
    <clipPath id="clip-path-2">
      <rect id="Rectángulo_456132" data-name="Rectángulo 456132" width="58.573" height="66.48" fill="#fff"/>
    </clipPath>
  </defs>
  <g id="Grupo_1190355" data-name="Grupo 1190355" transform="translate(-1136.727 -7764.481)">
    <path id="Trazado_997475" data-name="Trazado 997475" d="M66.473,0A66.218,66.218,0,1,1,0,66.217,66.345,66.345,0,0,1,66.473,0Z" transform="translate(1136.781 7764.48)" fill="#fff"/>
    <g id="Grupo_1177602" data-name="Grupo 1177602" transform="translate(1136.727 7764.993)">
      <g id="Grupo_1177525" data-name="Grupo 1177525">
        <g id="Grupo_1177524" data-name="Grupo 1177524" clip-path="url(#clip-path)">
          <path id="Trazado_997408" data-name="Trazado 997408" d="M66.5,132.488A66.244,66.244,0,1,1,133,66.244a66.447,66.447,0,0,1-66.5,66.244m0-130.76a64.516,64.516,0,1,0,64.765,64.516A64.713,64.713,0,0,0,66.5,1.728" fill="#002d4f"/>
          <path id="Trazado_997409" data-name="Trazado 997409" d="M62.511,119.157a56.865,56.865,0,1,1,57.083-56.865,57.039,57.039,0,0,1-57.083,56.865m0-112a55.137,55.137,0,1,0,55.348,55.136A55.3,55.3,0,0,0,62.511,7.156" transform="translate(3.988 3.952)" fill="#002d4f"/>
          <path id="Trazado_997410" data-name="Trazado 997410" d="M58.523,105.825A47.486,47.486,0,1,1,106.191,58.34a47.631,47.631,0,0,1-47.668,47.485m0-93.242A45.757,45.757,0,1,0,104.457,58.34,45.9,45.9,0,0,0,58.523,12.583" transform="translate(7.976 7.904)" fill="#fff"/>
          <path id="Trazado_997411" data-name="Trazado 997411" d="M54.535,92.493a38.105,38.105,0,1,1,38.252-38.1,38.223,38.223,0,0,1-38.252,38.1m0-74.482A36.377,36.377,0,1,0,91.052,54.388,36.49,36.49,0,0,0,54.535,18.011" transform="translate(11.964 11.856)" fill="#fff"/>
          <path id="Trazado_997412" data-name="Trazado 997412" d="M50.546,79.16A28.725,28.725,0,1,1,79.382,50.436,28.814,28.814,0,0,1,50.546,79.16m0-55.721a27,27,0,1,0,27.1,27,27.079,27.079,0,0,0-27.1-27" transform="translate(15.953 15.808)" fill="#fff"/>
          <path id="Trazado_997413" data-name="Trazado 997413" d="M46.558,65.83A19.346,19.346,0,1,1,65.977,46.484,19.4,19.4,0,0,1,46.558,65.83m0-36.963A17.617,17.617,0,1,0,64.242,46.484,17.67,17.67,0,0,0,46.558,28.867" transform="translate(19.941 19.76)" fill="#fff"/>
          <path id="Trazado_997414" data-name="Trazado 997414" d="M42.57,52.5a9.965,9.965,0,1,1,10-9.964,10,10,0,0,1-10,9.964m0-18.2a8.237,8.237,0,1,0,8.27,8.238,8.264,8.264,0,0,0-8.27-8.238" transform="translate(23.929 23.712)" fill="#fff"/>
        </g>
      </g>
      <g id="Elipse_13614" data-name="Elipse 13614" transform="translate(10.388 10.387)" stroke="#002d4f" stroke-width="1" fill="url(#linear-gradient)">
        <ellipse cx="56.112" cy="55.856" rx="56.112" ry="55.856" stroke="none"/>
        <ellipse cx="56.112" cy="55.856" rx="55.612" ry="55.356" fill="none"/>
      </g>
    </g>
    <g id="Grupo_1191891" data-name="Grupo 1191891" transform="translate(1178.168 7794.07)">
      <g id="Grupo_1191890" data-name="Grupo 1191890" clip-path="url(#clip-path-2)">
        <path id="Trazado_1000632" data-name="Trazado 1000632" d="M143.527,4.613a1.138,1.138,0,0,1-1.071,1.025A1.064,1.064,0,0,1,141.4,4.527l.005-3.475A1.024,1.024,0,0,1,142.456,0,1.037,1.037,0,0,1,143.5,1.053Z" transform="translate(-112.022 0)" fill="#fff"/>
        <path id="Trazado_1000633" data-name="Trazado 1000633" d="M210.256,24.674a1.125,1.125,0,0,1-1.509.581,1.038,1.038,0,0,1-.428-1.431l1.816-3.142a1.046,1.046,0,0,1,1.733,1.173Z" transform="translate(-164.926 -16.029)" fill="#fff"/>
        <path id="Trazado_1000634" data-name="Trazado 1000634" d="M69.817,23.744a1.042,1.042,0,0,1-.407,1.488,1.088,1.088,0,0,1-1.46-.506l-1.725-3.045a1,1,0,0,1,.389-1.322,1.042,1.042,0,0,1,1.433.339Z" transform="translate(-52.372 -16.009)" fill="#fff"/>
        <path id="Trazado_1000635" data-name="Trazado 1000635" d="M15.633,77.212a1.054,1.054,0,1,1-1.069,1.814L11.65,77.337a1.072,1.072,0,0,1-.486-1.438,1.089,1.089,0,0,1,1.5-.4Z" transform="translate(-8.753 -59.691)" fill="#fff"/>
        <path id="Trazado_1000636" data-name="Trazado 1000636" d="M258.606,79.019a1.046,1.046,0,0,1-1.413-.328,1.032,1.032,0,0,1,.364-1.481l3-1.738a1.079,1.079,0,0,1,1.435.279,1.01,1.01,0,0,1-.29,1.464Z" transform="translate(-203.613 -59.665)" fill="#fff"/>
        <path id="Trazado_1000637" data-name="Trazado 1000637" d="M63.841,91.665a2.476,2.476,0,0,1-2.814,1.147c-1.654-.56,1.413-2.444-.363-5.506a3.982,3.982,0,0,0-3.271-2.053l-4.5-.037a24.09,24.09,0,0,0-.087-5.954,12.336,12.336,0,1,0-2.7-4.288,4.116,4.116,0,0,0-3.682.057c-3.465,2.1-.611,5.657-3.229,7.51-1.026-.313-1.48-2.118-.977-3.091l1.082-2.092a2.534,2.534,0,0,0-.878-3.334L40.663,72.9a2.6,2.6,0,0,1-1.279-2.136,2.468,2.468,0,0,1,1.055-2.211l2.02-1.309a2.548,2.548,0,0,0,.808-3.379c-.9-1.737-1.91-2.958-.762-4.574,1.029-1.448,2.484-.946,4.314-1.179,2.76-.351,2.233-3.249,2.425-4.865a2.555,2.555,0,0,1,3.371-2.08,13.584,13.584,0,0,1,2.041,1.045,2.565,2.565,0,0,0,3.511-.668l1.483-2.229a2.522,2.522,0,0,1,3.929-.019A21.358,21.358,0,0,1,64.9,51.315a2.618,2.618,0,0,0,3.54.954c1.817-.979,2.877-1.815,4.492-.77a2.619,2.619,0,0,1,1.131,2.187l.081,1.872a2.594,2.594,0,0,0,2.336,2.557c1.92.218,3.378-.26,4.37,1.329a2.589,2.589,0,0,1,.077,2.629l-.944,1.795a2.6,2.6,0,0,0,.947,3.471l1.639,1.037a2.661,2.661,0,0,1,1.311,2.086A2.544,2.544,0,0,1,82.712,72.8L80.93,73.933a2.6,2.6,0,0,0-.951,3.463L80.97,79.3a2.537,2.537,0,0,1-.109,2.53,2.666,2.666,0,0,1-2.208,1.246l-2.2.1a2.461,2.461,0,0,0-2.241,2.078c-.268,1.787.26,3.61-1.361,4.593-1.76,1.067-2.91-.174-4.614-.925a2.6,2.6,0,0,0-3.283.975Z" transform="translate(-31.199 -38.319)" fill="#fff"/>
        <path id="Trazado_1000638" data-name="Trazado 1000638" d="M60.131,207.84a2.064,2.064,0,0,1-.764,3.959l-12.424-.02a9.114,9.114,0,0,1-2.759-.939l-.022-14.549a37.277,37.277,0,0,1,3.78-3.579c3.986-3.408,1.356-6.818,3.294-7.9a1.676,1.676,0,0,1,1.963.362c2.014,2.109,1.847,7.4.659,10.09l6.47,0a2.279,2.279,0,0,1,2.51,1.6,2.228,2.228,0,0,1-1.72,2.624,2.231,2.231,0,0,1,1.338,1.94,2.2,2.2,0,0,1-1.587,2.114,2.492,2.492,0,0,1,1.318,2.241c-.094,1-.764,1.6-2.054,2.059" transform="translate(-34.985 -146.269)" fill="#fff"/>
        <path id="Trazado_1000639" data-name="Trazado 1000639" d="M117.792,116.769a10.184,10.184,0,1,1-10.183-10.183,10.183,10.183,0,0,1,10.183,10.183M108.7,122.9c.025-.063,3.793-1.212,3.018-4.281-.5-1.978-2.4-2.886-4.333-2.932-.935-.022-2.05-.683-1.845-1.682.192-.938,1.286-1.3,2.067-1.3,2.638,0,1.768,2.549,3.411,2.13a1.08,1.08,0,0,0,.728-1.407,4.171,4.171,0,0,0-2.926-2.728c-.243-.164-.139-.821-.14-1.082a1.088,1.088,0,0,0-1.212-1.185c-1.275.169-.738,1.681-1.012,2.2.006-.011-4.186,1.465-2.849,4.734a4.343,4.343,0,0,0,4.126,2.482c.913.021,2.067.617,1.917,1.616-.146.978-1.246,1.344-2.042,1.347-2.822.011-1.679-2.578-3.49-2.1a1.08,1.08,0,0,0-.68,1.385,4.1,4.1,0,0,0,2.892,2.724c.421.15-.257,2.4,1.271,2.3,1.376-.09.9-1.728,1.1-2.224" transform="translate(-77.181 -84.439)" fill="#fff"/>
        <path id="Trazado_1000640" data-name="Trazado 1000640" d="M5.889,250.187l-4.445,0A1.389,1.389,0,0,1,0,248.722l0-15.56a1.351,1.351,0,0,1,1.437-1.268l4.168,0a1.364,1.364,0,0,1,1.467,1.46l0,15.373a1.4,1.4,0,0,1-1.183,1.463" transform="translate(0 -183.707)" fill="#fff"/>
      </g>
    </g>
  </g>
</svg>
