<svg xmlns="http://www.w3.org/2000/svg" xmlns:xlink="http://www.w3.org/1999/xlink" width="133" height="133" viewBox="0 0 133 133">
  <defs>
    <clipPath id="clip-path">
      <rect id="Rectángulo_454800" data-name="Rectángulo 454800" width="132.998" height="132.488" fill="none"/>
    </clipPath>
    <linearGradient id="linear-gradient" x1="0.5" y1="-0.646" x2="0.5" y2="1.118" gradientUnits="objectBoundingBox">
      <stop offset="0" stop-color="#67ccf1"/>
      <stop offset="0.625" stop-color="#004b84"/>
      <stop offset="1" stop-color="#002d4f"/>
    </linearGradient>
    <clipPath id="clip-path-2">
      <rect id="Rectángulo_456133" data-name="Rectángulo 456133" width="52.583" height="61.513" fill="#fff"/>
    </clipPath>
  </defs>
  <g id="Grupo_1190354" data-name="Grupo 1190354" transform="translate(-1136.727 -7764.481)">
    <path id="Trazado_997475" data-name="Trazado 997475" d="M66.473,0A66.218,66.218,0,1,1,0,66.217,66.345,66.345,0,0,1,66.473,0Z" transform="translate(1136.781 7764.48)" fill="#fff"/>
    <g id="Grupo_1177602" data-name="Grupo 1177602" transform="translate(1136.727 7764.993)">
      <g id="Grupo_1177525" data-name="Grupo 1177525">
        <g id="Grupo_1177524" data-name="Grupo 1177524" clip-path="url(#clip-path)">
          <path id="Trazado_997408" data-name="Trazado 997408" d="M66.5,132.488A66.244,66.244,0,1,1,133,66.244a66.447,66.447,0,0,1-66.5,66.244m0-130.76a64.516,64.516,0,1,0,64.765,64.516A64.713,64.713,0,0,0,66.5,1.728" fill="#002d4f"/>
          <path id="Trazado_997409" data-name="Trazado 997409" d="M62.511,119.157a56.865,56.865,0,1,1,57.083-56.865,57.039,57.039,0,0,1-57.083,56.865m0-112a55.137,55.137,0,1,0,55.348,55.136A55.3,55.3,0,0,0,62.511,7.156" transform="translate(3.988 3.952)" fill="#002d4f"/>
          <path id="Trazado_997410" data-name="Trazado 997410" d="M58.523,105.825A47.486,47.486,0,1,1,106.191,58.34a47.631,47.631,0,0,1-47.668,47.485m0-93.242A45.757,45.757,0,1,0,104.457,58.34,45.9,45.9,0,0,0,58.523,12.583" transform="translate(7.976 7.904)" fill="#fff"/>
          <path id="Trazado_997411" data-name="Trazado 997411" d="M54.535,92.493a38.105,38.105,0,1,1,38.252-38.1,38.223,38.223,0,0,1-38.252,38.1m0-74.482A36.377,36.377,0,1,0,91.052,54.388,36.49,36.49,0,0,0,54.535,18.011" transform="translate(11.964 11.856)" fill="#fff"/>
          <path id="Trazado_997412" data-name="Trazado 997412" d="M50.546,79.16A28.725,28.725,0,1,1,79.382,50.436,28.814,28.814,0,0,1,50.546,79.16m0-55.721a27,27,0,1,0,27.1,27,27.079,27.079,0,0,0-27.1-27" transform="translate(15.953 15.808)" fill="#fff"/>
          <path id="Trazado_997413" data-name="Trazado 997413" d="M46.558,65.83A19.346,19.346,0,1,1,65.977,46.484,19.4,19.4,0,0,1,46.558,65.83m0-36.963A17.617,17.617,0,1,0,64.242,46.484,17.67,17.67,0,0,0,46.558,28.867" transform="translate(19.941 19.76)" fill="#fff"/>
          <path id="Trazado_997414" data-name="Trazado 997414" d="M42.57,52.5a9.965,9.965,0,1,1,10-9.964,10,10,0,0,1-10,9.964m0-18.2a8.237,8.237,0,1,0,8.27,8.238,8.264,8.264,0,0,0-8.27-8.238" transform="translate(23.929 23.712)" fill="#fff"/>
        </g>
      </g>
      <g id="Elipse_13614" data-name="Elipse 13614" transform="translate(10.388 10.387)" stroke="#002d4f" stroke-width="1" fill="url(#linear-gradient)">
        <ellipse cx="56.112" cy="55.856" rx="56.112" ry="55.856" stroke="none"/>
        <ellipse cx="56.112" cy="55.856" rx="55.612" ry="55.356" fill="none"/>
      </g>
    </g>
    <g id="Grupo_1191893" data-name="Grupo 1191893" transform="translate(1176.962 7799.941)">
      <g id="Grupo_1191892" data-name="Grupo 1191892" clip-path="url(#clip-path-2)">
        <path id="Trazado_1000641" data-name="Trazado 1000641" d="M29.609,46.6c-1.128.617-1.9,1.6-3.143,1.594-1.327,0-2.29-.908-3.457-1.622L14.691,60.895a1.244,1.244,0,0,1-.839.6,1.076,1.076,0,0,1-1.084-.522L9.694,56.183A4.467,4.467,0,0,0,5.7,54.39c-1.644.021-3.19-.1-4.8-.2a1.047,1.047,0,0,1-.819-.6A1.316,1.316,0,0,1,.158,52.5L8.221,38.515c-1.675-.806-3.986-1.042-3.783-3.523.2-2.5,1.439-4.527-.064-6.368L2.38,26.182c-1.906-2.334.393-4.472,1.952-6.431,1.677-2.108.427-3.672.192-6.487a2.489,2.489,0,0,1,1.464-2.632C8.634,9.389,10.7,9.74,11.655,7.045a25.233,25.233,0,0,1,1.177-3c1.682-3.318,6.16.434,7.976-.879,2.223-1.607,4.892-4.425,7.3-2.532L30.7,2.67c2.922,2.3,7.239-2.327,9,1.394,1.172,2.479,1.1,4.574,3.678,5.371,2.313.716,4.851,1.17,4.6,3.8-.277,2.906-1.472,4.192.16,6.434,1.529,2.1,3.72,4.091,2.19,6.237-.6.847-1.291,1.655-1.974,2.451-1.868,2.177-.413,3.874-.266,6.8.117,2.339-2.109,2.631-3.757,3.316l8.127,14a1.159,1.159,0,0,1-.008,1.051,1.06,1.06,0,0,1-.956.538l-5.957.379a3.573,3.573,0,0,0-2.613,1.6l-3.088,4.831a1.16,1.16,0,0,1-.953.564,1.238,1.238,0,0,1-.986-.612ZM44.275,24.083A18.017,18.017,0,1,0,26.258,42.1,18.017,18.017,0,0,0,44.275,24.083" transform="translate(0 0)" fill="#fff"/>
        <path id="Trazado_1000642" data-name="Trazado 1000642" d="M87.8,61.237A15.221,15.221,0,1,1,72.58,46.016,15.221,15.221,0,0,1,87.8,61.237m-13.524,7.4,3.645,1.831a.805.805,0,0,0,.779-.048c1.229-.931-1.677-5.443.721-7.846L82.2,59.795a.9.9,0,0,0,.213-.977.984.984,0,0,0-.8-.5l-3.682-.563a3.734,3.734,0,0,1-2.679-1.9l-1.842-3.583a.79.79,0,0,0-1.443,0L70.132,55.85c-1.532,2.984-6.593,1.68-7.207,3.018a.8.8,0,0,0,.189.843L65.976,62.6a3.643,3.643,0,0,1,.989,2.965l-.631,4.072a.858.858,0,0,0,.354.81.883.883,0,0,0,.786.015L71.2,68.6a3.63,3.63,0,0,1,3.072.04" transform="translate(-46.32 -37.16)" fill="#fff"/>
      </g>
    </g>
  </g>
</svg>
