<svg xmlns="http://www.w3.org/2000/svg" xmlns:xlink="http://www.w3.org/1999/xlink" width="84" height="84" viewBox="0 0 84 84">
  <defs>
    <clipPath id="clip-path">
      <rect id="Rectángulo_455385" data-name="Rectángulo 455385" width="49.774" height="51.387" fill="#12263f"/>
    </clipPath>
  </defs>
  <g id="Grupo_1177704" data-name="Grupo 1177704" transform="translate(-710 -1680.92)">
    <g id="Grupo_1119665" data-name="Grupo 1119665" transform="translate(710 1680.92)">
      <rect id="Rectángulo_402006" data-name="Rectángulo 402006" width="84" height="84" rx="5" fill="#fe93c4"/>
    </g>
    <g id="Grupo_1190486" data-name="Grupo 1190486" transform="translate(730.711 1697.227)">
      <g id="Grupo_1190485" data-name="Grupo 1190485" clip-path="url(#clip-path)">
        <path id="Trazado_998587" data-name="Trazado 998587" d="M35.185,73.974a3.875,3.875,0,0,1-3.89,3.2l-27.272,0a3.939,3.939,0,0,1-4-3.869L0,34.64a3.931,3.931,0,0,1,3.2-3.924l.017,37.6a5.617,5.617,0,0,0,5.626,5.647Z" transform="translate(0 -25.784)" fill="#12263f"/>
        <path id="Trazado_998588" data-name="Trazado 998588" d="M200.6,199.31c-.655.02-1.27.019-1.925,0-1.184-.034-.062-1.667-1.949-2.519s-2.382,1.218-3.264.337l-1.286-1.284c-.875-.873,1.092-1.285.391-3.149-.739-1.964-2.566-.9-2.566-2.055V188.71c0-1.145,1.712-.092,2.519-1.944.839-1.927-1.233-2.369-.34-3.263l1.282-1.283c.874-.874,1.383,1.185,3.261.344s.79-2.521,1.946-2.52h1.93c1.161,0,.065,1.667,1.947,2.519s2.376-1.226,3.26-.344l1.282,1.28c.894.893-1.181,1.337-.341,3.264.808,1.852,2.519.8,2.519,1.944v1.931c0,1.143-1.72.1-2.521,1.946-.834,1.924,1.236,2.369.343,3.263l-1.281,1.282c-.879.88-1.367-1.174-3.266-.342-1.856.813-.784,2.486-1.942,2.521m3.845-9.634a4.811,4.811,0,1,0-4.811,4.811,4.811,4.811,0,0,0,4.811-4.811" transform="translate(-159.494 -151.135)" fill="#12263f"/>
        <path id="Trazado_998589" data-name="Trazado 998589" d="M236.437,223.256a3.206,3.206,0,1,1-3.206-3.206,3.206,3.206,0,0,1,3.206,3.206" transform="translate(-193.089 -184.716)" fill="#12263f"/>
        <path id="Trazado_998590" data-name="Trazado 998590" d="M56.6,31.416c-1.527,1.623.406,2.989.152,3.593-.215.51-2.639.15-2.639,2.561V39.51c0,2.41,2.431,2.052,2.639,2.561.306.748-1.825,1.715.014,3.766l.728.74-23.437-.012a3.973,3.973,0,0,1-4.022-4.029V4.039A4.013,4.013,0,0,1,34.21,0l19.9.01V10.43a.847.847,0,0,0,.813.818H65.353V27.27a4.5,4.5,0,0,1-.971.031c-2.393-.016-2.063,2.423-2.556,2.638a.569.569,0,0,1-.626-.1,2.234,2.234,0,0,0-2.983-.035c-.573.529-1.089,1.052-1.62,1.616M37.522,15.851a.848.848,0,0,0,1.184-.092L42.69,11.74a.8.8,0,0,0-1.205-1.052L38.066,14.08l-1.929-1.854a.779.779,0,0,0-1.094.1.818.818,0,0,0-.021,1.017Zm22.111-.59a.8.8,0,0,0,.872-.877.765.765,0,0,0-.787-.724l-14.428,0a.775.775,0,0,0-.789.863c.031.456.4.741.948.741ZM37.522,23.879a.848.848,0,0,0,1.184-.092l3.983-4.018a.8.8,0,0,0-1.2-1.053l-3.42,3.392-1.929-1.854a.779.779,0,0,0-1.094.1.818.818,0,0,0-.021,1.017Zm22.111-.59a.8.8,0,0,0,.872-.877.765.765,0,0,0-.787-.724l-14.428,0a.774.774,0,0,0-.789.863c.031.455.4.741.948.741Zm-22.2,8.551a.851.851,0,0,0,1.187.047L42.69,27.8a.8.8,0,0,0-1.2-1.054l-3.421,3.392-1.931-1.855a.779.779,0,0,0-1.092.1.815.815,0,0,0-.021,1.017Zm14.187-.527a.792.792,0,0,0,.859-.873.772.772,0,0,0-.781-.723l-6.416,0a.778.778,0,0,0-.782.863.834.834,0,0,0,.939.739Zm-14.1,8.623a.847.847,0,0,0,1.184-.093l3.983-4.018a.8.8,0,0,0-1.2-1.052l-3.418,3.391-1.931-1.855a.779.779,0,0,0-1.092.1.819.819,0,0,0-.021,1.018Zm11.693-.6a.786.786,0,0,0,.855-.872.769.769,0,0,0-.779-.721l-4.01,0a.776.776,0,0,0-.781.862.83.83,0,0,0,.937.737Z" transform="translate(-25.209 0)" fill="#12263f"/>
        <path id="Trazado_998591" data-name="Trazado 998591" d="M199.064,12.3l-9.12.054.04-9.139Z" transform="translate(-159.444 -2.701)" fill="#12263f"/>
      </g>
    </g>
  </g>
</svg>
