<svg xmlns="http://www.w3.org/2000/svg" xmlns:xlink="http://www.w3.org/1999/xlink" width="116" height="116" viewBox="0 0 116 116">
  <defs>
    <clipPath id="clip-path">
      <rect id="Rectángulo_455406" data-name="Rectángulo 455406" width="53.856" height="52.768" fill="#12263f"/>
    </clipPath>
  </defs>
  <g id="Grupo_1191935" data-name="Grupo 1191935" transform="translate(6167 9140.129)">
    <circle id="Elipse_13712" data-name="Elipse 13712" cx="58" cy="58" r="58" transform="translate(-6167 -9140.129)" fill="#dafe60"/>
    <g id="Grupo_1190522" data-name="Grupo 1190522" transform="translate(-7322 -11696)">
      <circle id="Elipse_13643" data-name="Elipse 13643" cx="45" cy="45" r="45" transform="translate(1168 2569.117)" fill="#fff"/>
      <g id="Grupo_1190516" data-name="Grupo 1190516" transform="translate(1186.072 2587.187)">
        <g id="Grupo_1190515" data-name="Grupo 1190515" clip-path="url(#clip-path)">
          <path id="Trazado_998674" data-name="Trazado 998674" d="M210.3,11.326a5.694,5.694,0,0,1-2.225.157c-.5.036.207-3.082-2.55-3.22a2.382,2.382,0,0,0-2.5,2.259,2.442,2.442,0,0,0,2.257,2.516,6.617,6.617,0,0,1,1.216.062l-.006,6.271-2.518.027c-.755-2.392-3.039-4.9-3.768-6.925a9.356,9.356,0,1,1,17.643,0c-.758,2.065-2.982,4.494-3.782,6.925l-2.512-.019-.009-6.294,1.37-.062a2.331,2.331,0,0,0,2.1-2.626,2.363,2.363,0,0,0-2.652-2.115,2.457,2.457,0,0,0-2.062,3.047" transform="translate(-164.55 0)" fill="#12263f"/>
          <path id="Trazado_998675" data-name="Trazado 998675" d="M230.32,121.181l-9.765.011a.981.981,0,0,1-1.043-.818c-.06-.392.136-1.115.718-1.117l10.154-.024a.933.933,0,0,1,.889.98.964.964,0,0,1-.953.968" transform="translate(-180.899 -98.264)" fill="#12263f"/>
          <path id="Trazado_998676" data-name="Trazado 998676" d="M230.3,141.217l-9.948,0a.933.933,0,0,1-.87-.972.963.963,0,0,1,1.043-.987h9.683a.988.988,0,0,1,1.039.828.964.964,0,0,1-.946,1.135" transform="translate(-180.883 -114.763)" fill="#12263f"/>
          <path id="Trazado_998677" data-name="Trazado 998677" d="M240.086,159.367a3.476,3.476,0,0,1-3.436,2.723,3.565,3.565,0,0,1-3.478-2.723Z" transform="translate(-192.165 -131.34)" fill="#12263f"/>
          <rect id="Rectángulo_455405" data-name="Rectángulo 455405" width="1.946" height="6.384" transform="translate(43.505 13.019)" fill="#12263f"/>
          <path id="Trazado_998678" data-name="Trazado 998678" d="M229.342,56.789c-.018.279.019.525-.085.573a1.434,1.434,0,0,1-.566.038c-.6.02-.986-.265-1.025-.8a.825.825,0,0,1,.754-.895c.526-.045.967.38.922,1.081" transform="translate(-187.626 -45.908)" fill="#12263f"/>
          <path id="Trazado_998679" data-name="Trazado 998679" d="M269.326,57.386c-.291.008-.519.062-.671-.027s-.091-.423-.1-.665a.9.9,0,0,1,.8-.992.842.842,0,0,1,.894.74.861.861,0,0,1-.93.943" transform="translate(-221.321 -45.904)" fill="#12263f"/>
          <path id="Trazado_998680" data-name="Trazado 998680" d="M31.543,88.693c-1.345,2.481-3.989,1.244-7.206,1.2-.668-.009-1.65.192-1.9.868-.481,1.282.124,3.807-1.293,3.808l-15.061.012a1.092,1.092,0,0,1-1.126-1.175c.1-8.754.237-9.984-3.377-18.006A17.406,17.406,0,0,1,25.453,52.714a22.446,22.446,0,0,1,4.4,3c4.828,4.2,4.64,9.4,4.684,15.334l3.5,5.28a1.016,1.016,0,0,1-.552,1.534L34.275,78.87l-.011,3.108A1.439,1.439,0,0,1,34,82.91c-.2.248-.595.288-.976.362.32.633.748,1.311.388,1.975ZM19.332,77.225a17.387,17.387,0,0,0,3.08-1.262L24.739,77.2c.483-.369,1.271-.915,1.435-1.5-.075-.7-.752-1.263-1.006-1.921-.243-.627,1.251-3.5,1.245-3.5l2.312-.844a2.171,2.171,0,0,0,.02-2.04c-.578-.537-1.77-.247-2.335-.841-.494-.52-.474-1.381-.85-2-1.1-1.809.039-1.543.6-3.4A2.539,2.539,0,0,0,24.716,59.7L22.4,60.842l-3.038-1.334c-.613-.492-.339-1.753-.843-2.319-.353-.395-1.91-.484-2.076-.039l-.861,2.319c-.244.656-1.557.495-2.175.954-1.488,1.106-2.353-.886-3.288-.688-.506.107-1.137.888-1.375,1.331l1.148,2.409A23.929,23.929,0,0,0,8.6,66.561l-2.4.815A2.284,2.284,0,0,0,6.169,69.4l2.441.878a23.622,23.622,0,0,0,1.281,3.075L8.766,75.682a2.567,2.567,0,0,0,1.441,1.449l2.332-1.152a19.576,19.576,0,0,0,3.037,1.263l.849,2.459a2.447,2.447,0,0,0,2.076-.018Z" transform="translate(0 -41.813)" fill="#12263f"/>
          <path id="Trazado_998681" data-name="Trazado 998681" d="M75.931,121.575a6.328,6.328,0,1,1-6.328-6.328,6.328,6.328,0,0,1,6.328,6.328m-7.362,2.551a.78.78,0,0,0,.982-.125l3.334-3.924a.8.8,0,0,0-.122-1c-.191-.146-.732-.278-.954-.026l-2.966,3.375c-.736-.3-2.072-1.778-2.592-.611a.8.8,0,0,0,.292.96Z" transform="translate(-52.146 -94.979)" fill="#12263f"/>
        </g>
      </g>
    </g>
  </g>
</svg>
