<svg xmlns="http://www.w3.org/2000/svg" xmlns:xlink="http://www.w3.org/1999/xlink" width="80" height="80" viewBox="0 0 80 80">
  <defs>
    <clipPath id="clip-path">
      <rect id="Rectángulo_456141" data-name="Rectángulo 456141" width="51.59" height="59.872" fill="#fff"/>
    </clipPath>
  </defs>
  <g id="Grupo_1190432" data-name="Grupo 1190432" transform="translate(-710 -1680.92)">
    <g id="Grupo_1119665" data-name="Grupo 1119665" transform="translate(534.111 -3840.08)">
      <rect id="Rectángulo_402006" data-name="Rectángulo 402006" width="80" height="80" rx="5" transform="translate(175.889 5521)" fill="#004b84"/>
    </g>
    <g id="Grupo_1191904" data-name="Grupo 1191904" transform="translate(724.205 1690.984)">
      <g id="Grupo_1191903" data-name="Grupo 1191903" clip-path="url(#clip-path)">
        <path id="Trazado_1000681" data-name="Trazado 1000681" d="M43.174,214.491c1.835-.654,5.135-1.155,5.975.691a1.892,1.892,0,0,1-.232,2.183,16.063,16.063,0,0,1-3.2,1.88l-18,8.207a12.157,12.157,0,0,1-5.27,1.111l-5.863-.029c-2.877-.014-5.4,1.561-7.6,3.264L0,222.807c3.892-4.356,8.647-9.337,14.824-9.063,4.4.526,8.677.771,13.091.878a3.858,3.858,0,0,1,2.435.806,2.067,2.067,0,0,1,.654,1.917c-.5,3.016-10.368,2.307-12.667,2.2a1.1,1.1,0,0,0-1.215.836,1.027,1.027,0,0,0,.825,1.281c3.67.306,13.983,1.065,15.143-3.78,3.421-.956,6.643-2.172,10.081-3.4" transform="translate(-0.001 -171.925)" fill="#fff"/>
        <rect id="Rectángulo_456140" data-name="Rectángulo 456140" width="4.326" height="23.307" transform="translate(23.787 17.416)" fill="#fff"/>
        <path id="Trazado_1000682" data-name="Trazado 1000682" d="M218.311,69.768l-8.89.013a.948.948,0,0,1-1.049-.961l.008-14.5,4.689-4.745a1.06,1.06,0,0,1,1.481.051l4.621,4.654.032,14.527a.943.943,0,0,1-.892.96m-3.135-16.62a1.4,1.4,0,1,0-1.4,1.4,1.4,1.4,0,0,0,1.4-1.4" transform="translate(-167.613 -39.655)" fill="#fff"/>
        <path id="Trazado_1000683" data-name="Trazado 1000683" d="M189.607,13.111l-.088-4.563-9.441,2.59a6.2,6.2,0,0,1-.572-1.848l10.831-3A.947.947,0,0,1,191.5,7.2l.006,5.682a.959.959,0,0,1-.729,1.014.907.907,0,0,1-1.174-.789" transform="translate(-144.393 -5.031)" fill="#fff"/>
        <path id="Trazado_1000684" data-name="Trazado 1000684" d="M11.467,116.009l-8.9.009a.945.945,0,0,1-1.015-1l.021-14.476,4.572-4.628a1.111,1.111,0,0,1,1.654.01l4.56,4.642.014,14.451a.916.916,0,0,1-.907,1M8.366,99.39a1.4,1.4,0,1,0-1.4,1.4,1.4,1.4,0,0,0,1.4-1.4" transform="translate(-1.249 -76.857)" fill="#fff"/>
        <path id="Trazado_1000685" data-name="Trazado 1000685" d="M26.193,53.232c-.279,1.372.577,3.836-1,3.887a.99.99,0,0,1-1-1.063l0-3.477c0-.316.15-.867.539-.976l10.938-3.059a10.857,10.857,0,0,1,.575,1.835Z" transform="translate(-19.462 -39.049)" fill="#fff"/>
        <path id="Trazado_1000686" data-name="Trazado 1000686" d="M108.3,7.813A7.812,7.812,0,1,1,100.484,0,7.812,7.812,0,0,1,108.3,7.813m-6.727,4.545c.3-.867,2.265-1.2,2.34-2.478a2.516,2.516,0,0,0-1.849-2.652l-2.531-.771a.581.581,0,0,1-.418-.482c0-.827,1.994-.967,2.708-.234.444.456.953.786,1.546.384.475-.322.46-.913.168-1.468-.416-.791-1.479-.805-1.927-1.415-.343-.467-.2-1.4-1.044-1.377a1,1,0,0,0-1.035,1.093c.046.883-2.269.562-2.405,2.83a2.368,2.368,0,0,0,1.641,2.468l2.654.827a.638.638,0,0,1,.509.614c-.106.85-2.226.9-2.975.072-.426-.469-.931-.757-1.486-.375a1.052,1.052,0,0,0-.188,1.46c.478.877,1.542.9,2.16,1.528.285.288.029,1.065.486,1.235.49.182,1.123.253,1.24-.083Z" transform="translate(-74.545 -0.001)" fill="#fff"/>
      </g>
    </g>
  </g>
</svg>
