<svg xmlns="http://www.w3.org/2000/svg" xmlns:xlink="http://www.w3.org/1999/xlink" width="128" height="128" viewBox="0 0 128 128">
  <defs>
    <clipPath id="clip-path">
      <rect id="Rectángulo_454800" data-name="Rectángulo 454800" width="127.998" height="127.488" fill="none"/>
    </clipPath>
    <linearGradient id="linear-gradient" x1="0.5" y1="-0.646" x2="0.5" y2="1.118" gradientUnits="objectBoundingBox">
      <stop offset="0" stop-color="#67ccf1"/>
      <stop offset="0.625" stop-color="#004b84"/>
      <stop offset="1" stop-color="#002d4f"/>
    </linearGradient>
    <clipPath id="clip-path-2">
      <rect id="Rectángulo_456147" data-name="Rectángulo 456147" width="61.035" height="60.959" fill="#fff"/>
    </clipPath>
  </defs>
  <g id="Grupo_1190442" data-name="Grupo 1190442" transform="translate(-1136.727 -7764.48)">
    <path id="Trazado_997475" data-name="Trazado 997475" d="M63.973,0A63.718,63.718,0,1,1,0,63.717,63.845,63.845,0,0,1,63.973,0Z" transform="translate(1136.781 7764.48)" fill="#fff"/>
    <g id="Grupo_1177602" data-name="Grupo 1177602" transform="translate(1136.727 7764.993)">
      <g id="Grupo_1177525" data-name="Grupo 1177525">
        <g id="Grupo_1177524" data-name="Grupo 1177524" clip-path="url(#clip-path)">
          <path id="Trazado_997408" data-name="Trazado 997408" d="M64,127.488a63.744,63.744,0,1,1,64-63.744,63.944,63.944,0,0,1-64,63.744M64,1.663a62.081,62.081,0,1,0,62.33,62.081A62.275,62.275,0,0,0,64,1.663" fill="#002d4f"/>
          <path id="Trazado_997409" data-name="Trazado 997409" d="M60.365,114.865A54.719,54.719,0,1,1,115.3,60.146a54.891,54.891,0,0,1-54.937,54.719m0-107.774a53.056,53.056,0,1,0,53.267,53.055A53.222,53.222,0,0,0,60.365,7.091" transform="translate(3.634 3.598)" fill="#002d4f"/>
          <path id="Trazado_997410" data-name="Trazado 997410" d="M56.731,102.241a45.693,45.693,0,1,1,45.876-45.693,45.837,45.837,0,0,1-45.876,45.693m0-89.723a44.031,44.031,0,1,0,44.207,44.03,44.17,44.17,0,0,0-44.207-44.03" transform="translate(7.268 7.196)" fill="#fff"/>
          <path id="Trazado_997411" data-name="Trazado 997411" d="M53.1,89.617A36.667,36.667,0,1,1,89.911,52.95,36.783,36.783,0,0,1,53.1,89.617m0-71.671a35,35,0,1,0,35.144,35,35.115,35.115,0,0,0-35.144-35" transform="translate(10.902 10.794)" fill="#fff"/>
          <path id="Trazado_997412" data-name="Trazado 997412" d="M49.462,76.992A27.641,27.641,0,1,1,77.214,49.352,27.728,27.728,0,0,1,49.462,76.992m0-53.618A25.978,25.978,0,1,0,75.544,49.352,26.059,26.059,0,0,0,49.462,23.374" transform="translate(14.537 14.392)" fill="#fff"/>
          <path id="Trazado_997413" data-name="Trazado 997413" d="M45.828,64.37A18.615,18.615,0,1,1,64.517,45.753,18.673,18.673,0,0,1,45.828,64.37m0-35.568a16.953,16.953,0,1,0,17.02,16.952A17,17,0,0,0,45.828,28.8" transform="translate(18.171 17.99)" fill="#fff"/>
          <path id="Trazado_997414" data-name="Trazado 997414" d="M42.194,51.744a9.589,9.589,0,1,1,9.628-9.588,9.62,9.62,0,0,1-9.628,9.588m0-17.515a7.926,7.926,0,1,0,7.959,7.927,7.953,7.953,0,0,0-7.959-7.927" transform="translate(21.805 21.588)" fill="#fff"/>
        </g>
      </g>
      <g id="Elipse_13614" data-name="Elipse 13614" transform="translate(10.388 10.387)" stroke="#002d4f" stroke-width="1" fill="url(#linear-gradient)">
        <ellipse cx="53.612" cy="53.356" rx="53.612" ry="53.356" stroke="none"/>
        <ellipse cx="53.612" cy="53.356" rx="53.112" ry="52.856" fill="none"/>
      </g>
    </g>
    <g id="Grupo_1191914" data-name="Grupo 1191914" transform="translate(1170.208 7796.718)">
      <g id="Grupo_1191913" data-name="Grupo 1191913" clip-path="url(#clip-path-2)">
        <path id="Trazado_1000703" data-name="Trazado 1000703" d="M163.695,253.662l-13.911-.011a1.194,1.194,0,0,1-1.218-1.243l.005-10.42a1.073,1.073,0,0,1,1.02-1.011l13.813,0a1.191,1.191,0,0,1,1.433,1.215l.009,10.209a1.3,1.3,0,0,1-1.15,1.265m-4.739-6.455a38.769,38.769,0,0,0-4.666-2.626,25.838,25.838,0,0,0,.039,5.431,23.132,23.132,0,0,0,4.627-2.8" transform="translate(-118.814 -192.702)" fill="#fff"/>
        <path id="Trazado_1000704" data-name="Trazado 1000704" d="M12.375,20c-2.31.812-.678,2.867-2.652,2.577-.459-.067-1.554.229-1.758-.3-.313-.96-.455-1.8-1.363-2.187-.927-.4-1.651-.024-2.536.52-.46.283-.984-.5-1.288-.791C.789,17.9,3.5,18.491,2.6,16.115c-.341-.891-1.243-1.151-2.242-1.4C-.06,14.251-.19,12.378.4,12c.841-.4,1.768-.488,2.122-1.282,1.11-2.488-1.752-1.971.23-3.863.319-.3.832-1.077,1.325-.788a2.629,2.629,0,0,0,2.589.466c.822-.358,1.013-1.241,1.294-2.188a3.08,3.08,0,0,1,2.759.01c.321.835.418,1.74,1.17,2.1,2.391,1.149,2.322-1.641,3.866.2.277.331,1.122.851.908,1.326-.522.879-.944,1.6-.548,2.609.332.842,1.265,1.066,2.191,1.367a2.749,2.749,0,0,1,.047,2.675c-.8.41-1.84.454-2.2,1.351a2.537,2.537,0,0,0,.484,2.589c.336.476-1.52,2.317-2.027,2.04-.77-.421-1.375-.919-2.231-.618m1.41-6.669a4.439,4.439,0,1,0-4.439,4.439,4.439,4.439,0,0,0,4.439-4.439" transform="translate(0 -3.218)" fill="#fff"/>
        <path id="Trazado_1000705" data-name="Trazado 1000705" d="M236.681,153.99c1.163-1.68,2.929,1.094,4.031-.089a16.347,16.347,0,0,0,3.641-6.285c.517-1.659-3.061-1.68-1.858-3.749l1.233-2.119a1.31,1.31,0,0,1,1.675-.571,4.84,4.84,0,0,1,2.783,5.348,17.55,17.55,0,0,1-6.423,11.191,4.94,4.94,0,0,1-5.827.5,1.409,1.409,0,0,1-.58-1.98c.426-.729.8-1.491,1.326-2.248" transform="translate(-188.06 -112.816)" fill="#fff"/>
        <path id="Trazado_1000706" data-name="Trazado 1000706" d="M281.431,69.8c.188,1.474-2.827,1.02-5,.992a.868.868,0,0,1-.839-.839c-.009-.549.386-.885,1-.884l3.819,0c.535,0,.957.227,1.021.729" transform="translate(-220.404 -55.237)" fill="#fff"/>
        <path id="Trazado_1000707" data-name="Trazado 1000707" d="M247.734,4.816a.893.893,0,0,1-1.3.292.927.927,0,0,1-.181-1.217L248.248.457A.875.875,0,0,1,249.428.1a.887.887,0,0,1,.3,1.26Z" transform="translate(-196.827 0)" fill="#fff"/>
        <path id="Trazado_1000708" data-name="Trazado 1000708" d="M273.364,30.81a.887.887,0,0,1-1.24-.243.845.845,0,0,1,.267-1.2l3.323-1.919a.882.882,0,0,1,1.244.269.9.9,0,0,1-.369,1.226Z" transform="translate(-217.516 -21.839)" fill="#fff"/>
        <path id="Trazado_1000709" data-name="Trazado 1000709" d="M244.2,49.589l-2.889-5.056a3.023,3.023,0,0,1,3.2,1.483,3.057,3.057,0,0,1-.312,3.573" transform="translate(-192.985 -35.574)" fill="#fff"/>
        <path id="Trazado_1000710" data-name="Trazado 1000710" d="M36.3,127.8a15.148,15.148,0,0,1,5.139,4.519,10.345,10.345,0,0,1-1.185,13.739l-9.1-.006a2.735,2.735,0,0,0-2.736,2.57l-.058,3.641a32.8,32.8,0,0,1-9.678.507L8.438,159.884a.533.533,0,0,1-.472-.007.339.339,0,0,1-.136-.373l2.079-9.073a18.375,18.375,0,0,1-7.382-5.8,10.179,10.179,0,0,1-.556-11.4c3.093-5.157,9.656-8.053,15.44-8.771a7.62,7.62,0,0,0,10.857,7.956,15.042,15.042,0,0,1,1.422,1.965l-18.147.022a.887.887,0,0,0-.98.7c-.051.3.169,1.033.675,1.034l19.856.048,3.394,4.495a2.851,2.851,0,0,0,4.145.428c.519-.433,1-.889,1.484-1.344a3,3,0,0,0,.206-4.125l-5.413-7.268A2.241,2.241,0,0,1,36.3,127.8M32.621,142.6a.835.835,0,0,0,.8-1.064.877.877,0,0,0-.9-.668l-21.145.009a.877.877,0,1,0,.176,1.745Z" transform="translate(-0.39 -99.54)" fill="#fff"/>
        <path id="Trazado_1000711" data-name="Trazado 1000711" d="M144.849,58.413l-5.576-9.5a41.6,41.6,0,0,0,9.359-9.98l9.443,16.355a39.674,39.674,0,0,0-13.226,3.126" transform="translate(-111.383 -31.137)" fill="#fff"/>
        <path id="Trazado_1000712" data-name="Trazado 1000712" d="M203.687,27.412a2.717,2.717,0,0,1-4.729,2.675L187.769,10.7a2.694,2.694,0,0,1,1.119-3.735A2.734,2.734,0,0,1,192.553,8.1Z" transform="translate(-149.879 -5.325)" fill="#fff"/>
        <path id="Trazado_1000713" data-name="Trazado 1000713" d="M106.768,101.748l-4.462,2.607A5.849,5.849,0,1,1,96.527,94.19l4.415-2.515Z" transform="translate(-74.737 -73.317)" fill="#fff"/>
        <path id="Trazado_1000714" data-name="Trazado 1000714" d="M156.241,158.3c-.659.749-2.188,2.311-3.08,1.235l-6.043-8.1,3.63-2.129,5.585,7.493a1.182,1.182,0,0,1-.093,1.5" transform="translate(-117.657 -119.405)" fill="#fff"/>
      </g>
    </g>
  </g>
</svg>
