<svg xmlns="http://www.w3.org/2000/svg" xmlns:xlink="http://www.w3.org/1999/xlink" width="128" height="128" viewBox="0 0 128 128">
  <defs>
    <clipPath id="clip-path">
      <rect id="Rectángulo_454800" data-name="Rectángulo 454800" width="127.998" height="127.488" fill="none"/>
    </clipPath>
    <linearGradient id="linear-gradient" x1="0.5" y1="-0.646" x2="0.5" y2="1.118" gradientUnits="objectBoundingBox">
      <stop offset="0" stop-color="#67ccf1"/>
      <stop offset="0.625" stop-color="#004b84"/>
      <stop offset="1" stop-color="#002d4f"/>
    </linearGradient>
    <clipPath id="clip-path-2">
      <rect id="Rectángulo_456146" data-name="Rectángulo 456146" width="63.307" height="61.401" fill="#fff"/>
    </clipPath>
  </defs>
  <g id="Grupo_1190444" data-name="Grupo 1190444" transform="translate(-1136.727 -7764.48)">
    <path id="Trazado_997475" data-name="Trazado 997475" d="M63.973,0A63.718,63.718,0,1,1,0,63.717,63.845,63.845,0,0,1,63.973,0Z" transform="translate(1136.781 7764.48)" fill="#fff"/>
    <g id="Grupo_1177602" data-name="Grupo 1177602" transform="translate(1136.727 7764.993)">
      <g id="Grupo_1177525" data-name="Grupo 1177525">
        <g id="Grupo_1177524" data-name="Grupo 1177524" clip-path="url(#clip-path)">
          <path id="Trazado_997408" data-name="Trazado 997408" d="M64,127.488a63.744,63.744,0,1,1,64-63.744,63.944,63.944,0,0,1-64,63.744M64,1.663a62.081,62.081,0,1,0,62.33,62.081A62.275,62.275,0,0,0,64,1.663" fill="#002d4f"/>
          <path id="Trazado_997409" data-name="Trazado 997409" d="M60.365,114.865A54.719,54.719,0,1,1,115.3,60.146a54.891,54.891,0,0,1-54.937,54.719m0-107.774a53.056,53.056,0,1,0,53.267,53.055A53.222,53.222,0,0,0,60.365,7.091" transform="translate(3.634 3.598)" fill="#002d4f"/>
          <path id="Trazado_997410" data-name="Trazado 997410" d="M56.731,102.241a45.693,45.693,0,1,1,45.876-45.693,45.837,45.837,0,0,1-45.876,45.693m0-89.723a44.031,44.031,0,1,0,44.207,44.03,44.17,44.17,0,0,0-44.207-44.03" transform="translate(7.268 7.196)" fill="#fff"/>
          <path id="Trazado_997411" data-name="Trazado 997411" d="M53.1,89.617A36.667,36.667,0,1,1,89.911,52.95,36.783,36.783,0,0,1,53.1,89.617m0-71.671a35,35,0,1,0,35.144,35,35.115,35.115,0,0,0-35.144-35" transform="translate(10.902 10.794)" fill="#fff"/>
          <path id="Trazado_997412" data-name="Trazado 997412" d="M49.462,76.992A27.641,27.641,0,1,1,77.214,49.352,27.728,27.728,0,0,1,49.462,76.992m0-53.618A25.978,25.978,0,1,0,75.544,49.352,26.059,26.059,0,0,0,49.462,23.374" transform="translate(14.537 14.392)" fill="#fff"/>
          <path id="Trazado_997413" data-name="Trazado 997413" d="M45.828,64.37A18.615,18.615,0,1,1,64.517,45.753,18.673,18.673,0,0,1,45.828,64.37m0-35.568a16.953,16.953,0,1,0,17.02,16.952A17,17,0,0,0,45.828,28.8" transform="translate(18.171 17.99)" fill="#fff"/>
          <path id="Trazado_997414" data-name="Trazado 997414" d="M42.194,51.744a9.589,9.589,0,1,1,9.628-9.588,9.62,9.62,0,0,1-9.628,9.588m0-17.515a7.926,7.926,0,1,0,7.959,7.927,7.953,7.953,0,0,0-7.959-7.927" transform="translate(21.805 21.588)" fill="#fff"/>
        </g>
      </g>
      <g id="Elipse_13614" data-name="Elipse 13614" transform="translate(10.388 10.387)" stroke="#002d4f" stroke-width="1" fill="url(#linear-gradient)">
        <ellipse cx="53.612" cy="53.356" rx="53.612" ry="53.356" stroke="none"/>
        <ellipse cx="53.612" cy="53.356" rx="53.112" ry="52.856" fill="none"/>
      </g>
    </g>
    <g id="Grupo_1191912" data-name="Grupo 1191912" transform="translate(1169.1 7797.497)">
      <g id="Grupo_1191911" data-name="Grupo 1191911" clip-path="url(#clip-path-2)">
        <path id="Trazado_1000698" data-name="Trazado 1000698" d="M248.265,43.08a2.559,2.559,0,0,1-2.4,2.592,2.468,2.468,0,0,1-2.726-2.315l-.071-6.771a2.719,2.719,0,0,1-3.453-.831,2.592,2.592,0,0,1,.621-3.561l3.888-2.825a2.6,2.6,0,0,1,3.08-.021l3.653,2.637a2.639,2.639,0,0,1-2.563,4.614Z" transform="translate(-188.89 -22.787)" fill="#fff"/>
        <path id="Trazado_1000699" data-name="Trazado 1000699" d="M8.1,117.087a2.588,2.588,0,0,1-3.067.045l-3.991-2.9a2.552,2.552,0,0,1-.667-3.388,2.777,2.777,0,0,1,3.539-.962l.025-6.525a2.581,2.581,0,0,1,5.162.007l.037,6.529a2.757,2.757,0,0,1,3.471.845,2.591,2.591,0,0,1-.559,3.469Z" transform="translate(0 -79.602)" fill="#fff"/>
        <path id="Trazado_1000700" data-name="Trazado 1000700" d="M95.372,16.713A16.712,16.712,0,1,1,78.659,0,16.712,16.712,0,0,1,95.372,16.713m-2.9,0A13.813,13.813,0,1,0,78.66,30.526,13.813,13.813,0,0,0,92.473,16.713" transform="translate(-48.925 -0.001)" fill="#fff"/>
        <path id="Trazado_1000701" data-name="Trazado 1000701" d="M109.173,35.527a11.7,11.7,0,1,1-11.7-11.7,11.7,11.7,0,0,1,11.7,11.7M96.44,43.5a1.023,1.023,0,0,0,1.144,1.137c1.3-.118.672-1.646,1.218-1.9.58-.272,3.5-.718,3.789-3.427a3.963,3.963,0,0,0-2.1-3.95c-2.162-1.24-5.273-.7-5.592-2.7a1.854,1.854,0,0,1,.924-1.894,3.085,3.085,0,0,1,4.359,1.149,1.1,1.1,0,0,0,1.524.648,1.062,1.062,0,0,0,.458-1.423c-1.379-3.074-3.7-2.164-3.638-3.483a1.076,1.076,0,0,0-1.126-1.24c-1.569.07-.307,1.7-1.6,2.066a4.186,4.186,0,0,0-2.827,2.57,3.732,3.732,0,0,0,.708,3.78c2.311,2.47,7.166,1.14,6.79,4.255-.182,1.508-2.911,2.012-4.573,1.328-1.923-.791-1.174-2.929-2.869-2.432a1.076,1.076,0,0,0-.657,1.314,4.8,4.8,0,0,0,3.739,3.39c.312.066.33.431.328.808" transform="translate(-67.736 -18.814)" fill="#fff"/>
        <rect id="Rectángulo_456145" data-name="Rectángulo 456145" width="57.348" height="6.475" transform="matrix(0.966, -0.259, 0.259, 0.966, 4.99, 44.223)" fill="#fff"/>
        <path id="Trazado_1000702" data-name="Trazado 1000702" d="M126.027,228.612l-17.317.015a2.594,2.594,0,0,1-2.2-1.079,2.556,2.556,0,0,1-.175-2.6l6.385-11.06,7.855-2.15,7.547,13.012a2.492,2.492,0,0,1,.062,2.586,2.433,2.433,0,0,1-2.155,1.28" transform="translate(-83.766 -167.226)" fill="#fff"/>
      </g>
    </g>
  </g>
</svg>
