<svg xmlns="http://www.w3.org/2000/svg" xmlns:xlink="http://www.w3.org/1999/xlink" width="84" height="84" viewBox="0 0 84 84">
  <defs>
    <clipPath id="clip-path">
      <rect id="Rectángulo_454839" data-name="Rectángulo 454839" width="50.906" height="50.794" fill="#f3f9ff"/>
    </clipPath>
  </defs>
  <g id="Grupo_1177690" data-name="Grupo 1177690" transform="translate(-179.668 -5521)">
    <rect id="Rectángulo_402006" data-name="Rectángulo 402006" width="84" height="84" rx="5" transform="translate(179.668 5521)" fill="#004b84"/>
    <g id="Grupo_1177595" data-name="Grupo 1177595" transform="translate(196.215 5537.603)">
      <g id="Grupo_1177594" data-name="Grupo 1177594" clip-path="url(#clip-path)">
        <path id="Trazado_997463" data-name="Trazado 997463" d="M24.445,118.214c-1.355,1.36.149,3.035-.028,3.375a21.289,21.289,0,0,0-1.307,3.142c-.127.382-2.3.342-2.35,2.475-.042,1.972-.352,3.829,1.543,4.453a2.913,2.913,0,0,1,.84.385l1.191,3.293c.257.711-.829,1.635-.4,2.529l-19.2-.022a1.943,1.943,0,0,1-1.815-1.678L.03,121.291a1.43,1.43,0,0,1,.333-1.254,1.306,1.306,0,0,1,1.163-.449l11.187-.007,7.319-9.281,27.41.006A1.472,1.472,0,0,1,48.9,112.07l-1.068,5.393a8.932,8.932,0,0,1-1.2-1.075c-1.306-1.142-2.295-.24-3.354-.01a16.552,16.552,0,0,0-2.872-1.185c-.921-.239-.533-2.571-2.925-2.5-.919.027-1.871-.046-2.728.07-1.231.167-1.4,1.384-1.91,2.175l-3.223,1.455c-1.017-.256-2.213-1.16-3.419.051Z" transform="translate(0 -92.113)" fill="#f3f9ff"/>
        <path id="Trazado_997464" data-name="Trazado 997464" d="M149.66,160.715c-.358.9-1.781.681-3.137.635-1.127-.038-1.005-1.413-1.569-2.21a12.929,12.929,0,0,1-4.066-1.693c-1.063.221-1.848,1.27-2.723.4l-1.475-1.471c-.85-.848.174-1.694.4-2.721a12.967,12.967,0,0,1-1.7-4.072c-.753-.558-2.163-.426-2.19-1.568-.025-1.083-.239-2.782.52-3.089l1.653-.668a13.709,13.709,0,0,1,1.724-4.143c-.22-.939-1.223-1.883-.445-2.631.6-.574,1.123-1.179,1.762-1.718.666-.561,1.834.568,2.491.537a13.959,13.959,0,0,1,4.092-1.66l.863-2.025a10.36,10.36,0,0,1,3.538-.028,15.918,15.918,0,0,1,.875,2.019,15.11,15.11,0,0,1,4.173,1.738l1.55-.66a.936.936,0,0,1,1.038.183l1.638,1.637c.705.7-.247,1.7-.48,2.589a14.322,14.322,0,0,1,1.709,4.11c.56.477,1.511.376,1.954.97.29.389.407,3.159-.092,3.558-.539.43-1.241.456-1.854.824a15.36,15.36,0,0,1-1.671,4.09c0,.769,1.175,1.879.467,2.59l-1.646,1.653c-.8.8-1.657-.244-2.639-.448a13.5,13.5,0,0,1-4.134,1.718Zm6.146-13.814a8.17,8.17,0,1,0-8.17,8.17,8.17,8.17,0,0,0,8.17-8.17" transform="translate(-111.193 -110.612)" fill="#f3f9ff"/>
        <path id="Trazado_997465" data-name="Trazado 997465" d="M52.134,8.193l-5.88-.006-.022-6.075a.836.836,0,0,0-.81-.82H25.814l0,24.867H19.04l-.007-14.967a3.264,3.264,0,0,1,3.156-3.315l2.3-.019L24.518,0,46.224,0,54.34,8.113l.093,3.068,2.069.02a3.334,3.334,0,0,1,3.37,3.612,14.729,14.729,0,0,1-.069,2.137l-6.666-.013-.032-7.9a.823.823,0,0,0-.973-.848" transform="translate(-15.895)" fill="#f3f9ff"/>
        <rect id="Rectángulo_454836" data-name="Rectángulo 454836" width="22.496" height="1.301" transform="translate(12.328 15.141)" fill="#f3f9ff"/>
        <rect id="Rectángulo_454837" data-name="Rectángulo 454837" width="16.723" height="1.298" transform="translate(18.101 10.526)" fill="#f3f9ff"/>
        <rect id="Rectángulo_454838" data-name="Rectángulo 454838" width="11.572" height="1.291" transform="translate(12.328 5.916)" fill="#f3f9ff"/>
        <path id="Trazado_997466" data-name="Trazado 997466" d="M78.213,65.124l-2.715.016a.658.658,0,0,1-.735-.579c-.049-.407.241-.709.728-.71l2.654,0a.67.67,0,0,1,.752.6.645.645,0,0,1-.685.68" transform="translate(-62.431 -53.318)" fill="#f3f9ff"/>
      </g>
    </g>
  </g>
</svg>
