<svg xmlns="http://www.w3.org/2000/svg" xmlns:xlink="http://www.w3.org/1999/xlink" width="84" height="84" viewBox="0 0 84 84">
  <defs>
    <clipPath id="clip-path">
      <rect id="Rectángulo_456138" data-name="Rectángulo 456138" width="47.984" height="54.105" fill="#12263f"/>
    </clipPath>
  </defs>
  <g id="Grupo_1190423" data-name="Grupo 1190423" transform="translate(-710 -1680.92)">
    <g id="Grupo_1119665" data-name="Grupo 1119665" transform="translate(710 1680.92)">
      <rect id="Rectángulo_402006" data-name="Rectángulo 402006" width="84" height="84" rx="5" fill="#fe93c4"/>
    </g>
    <g id="Grupo_1191899" data-name="Grupo 1191899" transform="translate(729.382 1696.243)">
      <g id="Grupo_1191898" data-name="Grupo 1191898" clip-path="url(#clip-path)">
        <path id="Trazado_1000672" data-name="Trazado 1000672" d="M34.847,47.465a1.705,1.705,0,0,1-1.694,1.39l-31.271,0A1.759,1.759,0,0,1,0,47V1.886A1.77,1.77,0,0,1,1.876,0H33.151a1.73,1.73,0,0,1,1.734,1.585l.031,22.53a11.331,11.331,0,0,0-.072,21.553,4.812,4.812,0,0,1,0,1.8M12.2,5.256H3.477v8.723H12.2Zm19.153,5.213a.876.876,0,0,0,.909-.953.894.894,0,0,0-.91-.789l-15.625,0a.868.868,0,0,0-.884.943.889.889,0,0,0,.882.8Zm-5.12,3.484a.86.86,0,0,0,.788-1,.938.938,0,0,0-1.049-.724l-10.442.045c-.527,0-.752.6-.678.961a.9.9,0,0,0,.859.734ZM12.2,18.307H3.477v8.756H12.2Zm19.19,5.274a.9.9,0,0,0,.87-.922.843.843,0,0,0-.906-.834l-15.642,0a.854.854,0,0,0-.864.982.96.96,0,0,0,.905.786Zm-5.184,3.464a.857.857,0,0,0,.818-.966.887.887,0,0,0-.906-.768H15.744a.874.874,0,0,0-.9.917.89.89,0,0,0,.883.818ZM12.2,31.389H3.477v8.773H12.2Zm12.242,5.243a.855.855,0,0,0,.835-1.012.887.887,0,0,0-.932-.7l-8.635.006a.857.857,0,0,0-.88.851.915.915,0,0,0,.881.877Zm-2.718,3.511a.887.887,0,0,0,.938-.921.874.874,0,0,0-.844-.823l-6.106,0a.873.873,0,0,0-.869.966.894.894,0,0,0,.9.773Z" fill="#12263f"/>
        <path id="Trazado_1000673" data-name="Trazado 1000673" d="M179.175,150.229a9.6,9.6,0,1,1-9.6-9.6,9.6,9.6,0,0,1,9.6,9.6m-10.228,6.7a.91.91,0,0,0,1.259.025c.212-.151.17-.731.313-1.055a3.46,3.46,0,0,0,2.311-3.858,3.408,3.408,0,0,0-3.4-2.711,1.549,1.549,0,0,1-1.4-1.762,1.589,1.589,0,0,1,1.624-1.341c2,.094,1.019,2.427,2.355,2.419a.837.837,0,0,0,.858-.862,3.492,3.492,0,0,0-2.37-3.248c-.131-.37-.074-.976-.415-1.125a1.029,1.029,0,0,0-1.086.064c-.26.2-.226.711-.328,1.084a3.45,3.45,0,0,0-2.344,3.839,3.4,3.4,0,0,0,3.343,2.731,1.554,1.554,0,1,1-.169,3.1c-2.027-.1-1.015-2.649-2.465-2.41a.876.876,0,0,0-.75,1,3.272,3.272,0,0,0,2.29,2.993c.2.337.1.778.374,1.115" transform="translate(-131.191 -115.324)" fill="#12263f"/>
        <path id="Trazado_1000674" data-name="Trazado 1000674" d="M31.033,264.125a1.729,1.729,0,0,1-1.872-1.346,6.875,6.875,0,0,1,.006-2.136L57,260.623c2.4,0,3.824-2.161,3.449-4.488a11.433,11.433,0,0,0,3.5-.025l.009,6.306a1.706,1.706,0,0,1-1.75,1.7Z" transform="translate(-23.846 -210.02)" fill="#12263f"/>
        <path id="Trazado_1000675" data-name="Trazado 1000675" d="M207.088,30.709,207.1,47.49a22.424,22.424,0,0,0-3.464.025l-.021-18.358c1.11-.147,3.467-.29,3.469,1.552" transform="translate(-166.975 -23.845)" fill="#12263f"/>
        <path id="Trazado_1000676" data-name="Trazado 1000676" d="M31.414,115.8c-.822.644-2.191-1.1-2.151-1.605a.883.883,0,0,1,.513-.764c.4-.2.807.143,1.186.32,1-.391,2.1-2.834,3.19-1.914a.878.878,0,0,1,.053,1.258c-.916.868-1.728,1.875-2.79,2.706" transform="translate(-23.996 -91.537)" fill="#12263f"/>
        <path id="Trazado_1000677" data-name="Trazado 1000677" d="M31.425,188.519c-.8.62-2.155-1.083-2.143-1.578a.834.834,0,0,1,.493-.779c.426-.2.843.135,1.214.316.987-.444,2.114-2.871,3.2-1.914a.887.887,0,0,1,.087,1.182,36,36,0,0,1-2.851,2.773" transform="translate(-24.013 -151.168)" fill="#12263f"/>
        <path id="Trazado_1000678" data-name="Trazado 1000678" d="M31.549,43c-.707.708-1.529-.329-2.026-.869a.893.893,0,0,1,.043-1.315,1.008,1.008,0,0,1,1.385.256L33.1,39.039a.857.857,0,0,1,1.18.191.9.9,0,0,1-.053,1.084Z" transform="translate(-23.99 -31.88)" fill="#12263f"/>
      </g>
    </g>
  </g>
</svg>
