<svg xmlns="http://www.w3.org/2000/svg" xmlns:xlink="http://www.w3.org/1999/xlink" width="132" height="132" viewBox="0 0 132 132">
  <defs>
    <clipPath id="clip-path">
      <rect id="Rectángulo_456149" data-name="Rectángulo 456149" width="78.014" height="78.057" fill="#fff"/>
    </clipPath>
  </defs>
  <g id="Grupo_1191920" data-name="Grupo 1191920" transform="translate(-1094 -7559.75)">
    <rect id="Rectángulo_455359" data-name="Rectángulo 455359" width="132" height="132" rx="66" transform="translate(1094 7559.75)" fill="#004b84"/>
    <g id="Grupo_1191919" data-name="Grupo 1191919" transform="translate(1121 7586.223)">
      <g id="Grupo_1191918" data-name="Grupo 1191918" clip-path="url(#clip-path)">
        <path id="Trazado_1000719" data-name="Trazado 1000719" d="M46.811,183.12l-2.532,6.474-10.488.046-2.569-6.48a34.394,34.394,0,0,1-9.679-4.04L15.178,181.9l-7.444-7.416,2.743-6.428a34.691,34.691,0,0,1-4.04-9.689l-6.411-2.51L0,150.624l14.791-.024a24.216,24.216,0,1,0,48.431,0l14.791.023-.026,5.25-6.411,2.5a34.263,34.263,0,0,1-4.035,9.693l2.756,6.375-7.407,7.45-6.338-2.773a34.246,34.246,0,0,1-9.741,4.007" transform="translate(0 -111.583)" fill="#fff"/>
        <path id="Trazado_1000720" data-name="Trazado 1000720" d="M115.8,97.148a18.689,18.689,0,1,1-18.689-18.69A18.689,18.689,0,0,1,115.8,97.148m-3.145,0A15.545,15.545,0,1,0,97.108,112.69a15.545,15.545,0,0,0,15.545-15.545" transform="translate(-58.102 -58.131)" fill="#fff"/>
        <path id="Trazado_1000721" data-name="Trazado 1000721" d="M126.474,113.552A12.948,12.948,0,1,1,113.526,100.6a12.948,12.948,0,0,1,12.948,12.948m-11.593,8.166c.149-.663,3.971-.812,4.283-4.2a4.386,4.386,0,0,0-2.285-4.264c-2.328-1.336-5.6-.894-5.907-2.708a1.785,1.785,0,0,1,.944-1.946,3.094,3.094,0,0,1,4.424,1.314,1.306,1.306,0,0,0,1.645.7,1.271,1.271,0,0,0,.707-1.687c-.552-1.865-2.319-2.59-3.809-3.409-.219-.621-.108-1.769-1.016-1.814-2.584-.127-.541,1.627-2.638,2.371a4.375,4.375,0,0,0-2.914,4.224,4.2,4.2,0,0,0,3.186,4.007l3.671.978a1.892,1.892,0,0,1,1.4,1.766c0,.832-.675,1.37-1.513,1.642-1.724.559-3.879.2-4.555-1.6-.3-.808-.872-1.37-1.721-1.118a1.335,1.335,0,0,0-.845,1.638c.516,2.107,2.281,3.288,4.319,3.863-.08.8.076,1.474.521,1.735a1.537,1.537,0,0,0,1.5,0c.434-.22.439-.772.6-1.495" transform="translate(-74.521 -74.54)" fill="#fff"/>
        <path id="Trazado_1000722" data-name="Trazado 1000722" d="M47.856,48.212a2.631,2.631,0,0,1-3.143.056l-3.885-2.8a2.747,2.747,0,0,1-1.033-3.488,2.8,2.8,0,0,1,3.733-1.207l.064-6.736a2.625,2.625,0,0,1,2.8-2.623A2.721,2.721,0,0,1,48.921,34.3l.025,6.47a2.867,2.867,0,0,1,3.557.887,2.65,2.65,0,0,1-.689,3.675Z" transform="translate(-29.285 -23.275)" fill="#fff"/>
        <path id="Trazado_1000723" data-name="Trazado 1000723" d="M217.869,48.312a2.619,2.619,0,0,1-3.128-.152l-3.883-2.828a2.646,2.646,0,0,1-.792-3.52,2.827,2.827,0,0,1,3.654-1.035l.052-6.741a2.652,2.652,0,0,1,5.3,0l.048,6.75a2.853,2.853,0,0,1,3.559.865,2.681,2.681,0,0,1-.708,3.709Z" transform="translate(-155.372 -23.27)" fill="#fff"/>
        <path id="Trazado_1000724" data-name="Trazado 1000724" d="M136.977,13.849c-3.424,2.6-5.1,4.578-7.729,2.655l-3.457-2.534a2.654,2.654,0,0,1-.87-3.5A2.828,2.828,0,0,1,128.6,9.355l.054-6.627A2.694,2.694,0,0,1,131.423,0c4,.192,2.077,6.229,2.607,9.348a2.842,2.842,0,0,1,3.6,1,2.6,2.6,0,0,1-.654,3.5" transform="translate(-92.308 0)" fill="#fff"/>
      </g>
    </g>
  </g>
</svg>
