<svg xmlns="http://www.w3.org/2000/svg" xmlns:xlink="http://www.w3.org/1999/xlink" width="84" height="84" viewBox="0 0 84 84">
  <defs>
    <clipPath id="clip-path">
      <rect id="Rectángulo_455386" data-name="Rectángulo 455386" width="54.789" height="54.794" fill="#12263f"/>
    </clipPath>
  </defs>
  <g id="Grupo_1177765" data-name="Grupo 1177765" transform="translate(-710 -1680.92)">
    <g id="Grupo_1119665" data-name="Grupo 1119665" transform="translate(710 1680.92)">
      <rect id="Rectángulo_402006" data-name="Rectángulo 402006" width="84" height="84" rx="5" fill="#67ccf1"/>
    </g>
    <g id="Grupo_1190488" data-name="Grupo 1190488" transform="translate(724.605 1695.523)">
      <g id="Grupo_1190487" data-name="Grupo 1190487" clip-path="url(#clip-path)">
        <path id="Trazado_998592" data-name="Trazado 998592" d="M72.808,145.268a1.671,1.671,0,0,1-1.721,1.829l-31.958,0a1.645,1.645,0,0,1-1.655-1.775l0-33.907c.415-.117.685.153,1.142.153l34.18.007ZM48.25,123.029l3.341-3.343a1.57,1.57,0,0,0-.127-2.286c-1.7-1.5-3.155,1.487-4.386,2.167a1.738,1.738,0,0,0-2.607-.586,1.617,1.617,0,0,0-.038,2.408c1.017.97,2.432,3.025,3.817,1.64m16.633-1.185a1.618,1.618,0,0,0,.24-3.181h-8.73a1.609,1.609,0,0,0-1.223,1.815,1.574,1.574,0,0,0,1.568,1.357Zm-16.516,9.849,3.14-3.161a1.577,1.577,0,0,0-.067-2.253c-1.708-1.6-3.148,1.358-4.362,2.035a1.752,1.752,0,0,0-2.492-.67,1.586,1.586,0,0,0-.241,2.388c1.12,1.152,2.55,3.143,4.022,1.66m16.479-1.09a1.594,1.594,0,0,0-.061-3.185l-7.88-.015a1.614,1.614,0,1,0-.149,3.223Zm-18.788,9.943a1.646,1.646,0,0,0,2.336-.085l3.144-3.178a1.562,1.562,0,0,0-.126-2.24,1.621,1.621,0,0,0-2.215.076l-2.037,2c-.714-.858-1.592-1.274-2.476-.755a1.587,1.587,0,0,0-.444,2.329,21.542,21.542,0,0,0,1.817,1.852m18.643-1.16a1.59,1.59,0,0,0,1.648-1.616,1.67,1.67,0,0,0-1.432-1.614L56.6,136.2a1.566,1.566,0,0,0-1.45,1.724,1.645,1.645,0,0,0,1.754,1.481Z" transform="translate(-31.058 -92.315)" fill="#12263f"/>
        <path id="Trazado_998593" data-name="Trazado 998593" d="M273.493,123.587l-9.6-.02V104.019l3.327-8.325a1.566,1.566,0,0,1,1.566-.957,1.612,1.612,0,0,1,1.439,1.094l3.271,8.223Z" transform="translate(-218.716 -78.518)" fill="#12263f"/>
        <path id="Trazado_998594" data-name="Trazado 998594" d="M269.807,288.536c-.877.033-1.589.03-2.353,0a3.7,3.7,0,0,1-3.593-3.579c-.03-.989-.025-1.89.015-2.9l9.549-.005c.061.951.033,1.8.027,2.738a3.735,3.735,0,0,1-3.645,3.748" transform="translate(-218.675 -233.765)" fill="#12263f"/>
        <path id="Trazado_998595" data-name="Trazado 998595" d="M97.62,16.082l-30.373-.007a15.84,15.84,0,0,0,.2-2.39l-.014-8.72A8.586,8.586,0,0,0,65.865,0L94.982.037a4.72,4.72,0,0,1,4.544,4.776l.006,9.53a1.719,1.719,0,0,1-1.912,1.74" transform="translate(-54.59)" fill="#12263f"/>
        <path id="Trazado_998596" data-name="Trazado 998596" d="M3.231,41.671a4.1,4.1,0,0,1-1.837.036A1.6,1.6,0,0,1,0,40.043L.015,4.822A4.837,4.837,0,0,1,3.949.1,4.747,4.747,0,0,1,9.327,3.2c-1.537.09-2.905.053-4.371.03A1.565,1.565,0,0,0,3.233,4.824Z" transform="translate(0 -0.011)" fill="#12263f"/>
        <path id="Trazado_998597" data-name="Trazado 998597" d="M40.741,45.324a1.6,1.6,0,1,1-3.2.082l.01-7.928a30.626,30.626,0,0,1,3.173-.014Z" transform="translate(-31.113 -31.023)" fill="#12263f"/>
      </g>
    </g>
  </g>
</svg>
