<svg xmlns="http://www.w3.org/2000/svg" xmlns:xlink="http://www.w3.org/1999/xlink" width="132" height="132" viewBox="0 0 132 132">
  <defs>
    <clipPath id="clip-path">
      <rect id="Rectángulo_456148" data-name="Rectángulo 456148" width="80.016" height="83.237" fill="#fff"/>
    </clipPath>
  </defs>
  <g id="Grupo_1191917" data-name="Grupo 1191917" transform="translate(-374 -7759.75)">
    <rect id="Rectángulo_455360" data-name="Rectángulo 455360" width="132" height="132" rx="66" transform="translate(374 7759.75)" fill="#004b84"/>
    <g id="Grupo_1191916" data-name="Grupo 1191916" transform="translate(399.984 7781.296)">
      <g id="Grupo_1191915" data-name="Grupo 1191915" clip-path="url(#clip-path)">
        <path id="Trazado_1000715" data-name="Trazado 1000715" d="M18.085,138.712a24.412,24.412,0,0,1-6.381-3.7l-3.658,1.318A2.4,2.4,0,0,1,5.122,135.3l-4.7-8.1a2.46,2.46,0,0,1,.444-3.262l3.026-2.519a25.807,25.807,0,0,1,.042-7.258c-1.336-1.641-5.045-3.006-3.5-5.7l4.673-8.12A2.479,2.479,0,0,1,8.2,99.21l3.634,1.329a24.063,24.063,0,0,1,6.27-3.611c.736-1.893.106-5.874,3.175-5.878l9.372-.012a2.516,2.516,0,0,1,2.541,2.112l.662,3.831a23.126,23.126,0,0,1,6.251,3.625c2.013-.314,5.028-2.737,6.55-.363.787,1.228,1.459,2.462,2.209,3.814a27.123,27.123,0,0,0-14.135,12.561,9.036,9.036,0,0,0-7.79-7.533,8.807,8.807,0,1,0,5.183,15.064,27.511,27.511,0,0,0,1.556,14.685l-.671,3.714a2.432,2.432,0,0,1-2.38,2.054l-9.6-.01a2.423,2.423,0,0,1-2.353-2.055Z" transform="translate(0 -67.358)" fill="#fff"/>
        <path id="Trazado_1000716" data-name="Trazado 1000716" d="M235.177,28.742a2.481,2.481,0,0,1-2.409,2.586,2.424,2.424,0,0,1-2.474-2.45l-.066-20.367c-1.339,1.225-2.671,1.44-3.74.586a2.426,2.426,0,0,1-.284-3.555L231.154.6a2.411,2.411,0,0,1,3.327.15L239.049,5.3a2.5,2.5,0,0,1,.077,3.643c-1.117,1.056-2.677.8-3.915-.446Z" transform="translate(-166.884 0)" fill="#fff"/>
        <path id="Trazado_1000717" data-name="Trazado 1000717" d="M181.105,59.912a2.437,2.437,0,1,1-4.872.025c-.028-2.77.1-5.38-.069-8.107-1.168,1.245-2.665,1.489-3.774.595a2.426,2.426,0,0,1-.19-3.6l4.8-4.787a2.373,2.373,0,0,1,3.246-.061l4.946,4.932a2.417,2.417,0,0,1-.212,3.488c-1.169.965-2.672.664-3.8-.585Z" transform="translate(-126.881 -32.083)" fill="#fff"/>
        <path id="Trazado_1000718" data-name="Trazado 1000718" d="M184.217,174.905a21.691,21.691,0,1,1-21.691-21.691,21.691,21.691,0,0,1,21.691,21.691m-19.246,11.179a7.113,7.113,0,0,0,5-6.516,7.229,7.229,0,0,0-4.254-6.789c-2.13-1.049-5.75-1.437-5.383-3.6.326-1.924,3.17-1.119,4.756-.272a2.488,2.488,0,0,0,3.555-1.054,2.538,2.538,0,0,0-1.466-3.38c-.717-.315-1.409-.65-2.205-.93a2.654,2.654,0,0,0-2.361-2.985c-2.023-.365-1.949,1.935-2.809,2.579-2.031,1.52-4.112,2.778-4.376,5.4a6.813,6.813,0,0,0,2.794,6.266c2.927,2.153,7.168,1.781,6.848,4.757a2.421,2.421,0,0,1-2.108,2.049,6.181,6.181,0,0,1-4.237-1.081,2.418,2.418,0,0,0-3.316.89,2.482,2.482,0,0,0,.77,3.223,11.194,11.194,0,0,0,3.862,1.652,2.6,2.6,0,0,0,2.5,2.941c1.531-.018,2.582-1.355,2.423-3.15" transform="translate(-104.2 -113.36)" fill="#fff"/>
      </g>
    </g>
  </g>
</svg>
