<svg xmlns="http://www.w3.org/2000/svg" xmlns:xlink="http://www.w3.org/1999/xlink" width="133" height="133" viewBox="0 0 133 133">
  <defs>
    <clipPath id="clip-path">
      <rect id="Rectángulo_454800" data-name="Rectángulo 454800" width="132.998" height="132.488" fill="none"/>
    </clipPath>
    <linearGradient id="linear-gradient" x1="0.5" y1="-0.646" x2="0.5" y2="1.118" gradientUnits="objectBoundingBox">
      <stop offset="0" stop-color="#67ccf1"/>
      <stop offset="0.625" stop-color="#004b84"/>
      <stop offset="1" stop-color="#002d4f"/>
    </linearGradient>
    <clipPath id="clip-path-2">
      <rect id="Rectángulo_456134" data-name="Rectángulo 456134" width="68.45" height="67.014" fill="#fff"/>
    </clipPath>
  </defs>
  <g id="Grupo_1190353" data-name="Grupo 1190353" transform="translate(-1136.727 -7764.481)">
    <path id="Trazado_997475" data-name="Trazado 997475" d="M66.473,0A66.218,66.218,0,1,1,0,66.217,66.345,66.345,0,0,1,66.473,0Z" transform="translate(1136.781 7764.48)" fill="#fff"/>
    <g id="Grupo_1177602" data-name="Grupo 1177602" transform="translate(1136.727 7764.993)">
      <g id="Grupo_1177525" data-name="Grupo 1177525">
        <g id="Grupo_1177524" data-name="Grupo 1177524" clip-path="url(#clip-path)">
          <path id="Trazado_997408" data-name="Trazado 997408" d="M66.5,132.488A66.244,66.244,0,1,1,133,66.244a66.447,66.447,0,0,1-66.5,66.244m0-130.76a64.516,64.516,0,1,0,64.765,64.516A64.713,64.713,0,0,0,66.5,1.728" fill="#002d4f"/>
          <path id="Trazado_997409" data-name="Trazado 997409" d="M62.511,119.157a56.865,56.865,0,1,1,57.083-56.865,57.039,57.039,0,0,1-57.083,56.865m0-112a55.137,55.137,0,1,0,55.348,55.136A55.3,55.3,0,0,0,62.511,7.156" transform="translate(3.988 3.952)" fill="#002d4f"/>
          <path id="Trazado_997410" data-name="Trazado 997410" d="M58.523,105.825A47.486,47.486,0,1,1,106.191,58.34a47.631,47.631,0,0,1-47.668,47.485m0-93.242A45.757,45.757,0,1,0,104.457,58.34,45.9,45.9,0,0,0,58.523,12.583" transform="translate(7.976 7.904)" fill="#fff"/>
          <path id="Trazado_997411" data-name="Trazado 997411" d="M54.535,92.493a38.105,38.105,0,1,1,38.252-38.1,38.223,38.223,0,0,1-38.252,38.1m0-74.482A36.377,36.377,0,1,0,91.052,54.388,36.49,36.49,0,0,0,54.535,18.011" transform="translate(11.964 11.856)" fill="#fff"/>
          <path id="Trazado_997412" data-name="Trazado 997412" d="M50.546,79.16A28.725,28.725,0,1,1,79.382,50.436,28.814,28.814,0,0,1,50.546,79.16m0-55.721a27,27,0,1,0,27.1,27,27.079,27.079,0,0,0-27.1-27" transform="translate(15.953 15.808)" fill="#fff"/>
          <path id="Trazado_997413" data-name="Trazado 997413" d="M46.558,65.83A19.346,19.346,0,1,1,65.977,46.484,19.4,19.4,0,0,1,46.558,65.83m0-36.963A17.617,17.617,0,1,0,64.242,46.484,17.67,17.67,0,0,0,46.558,28.867" transform="translate(19.941 19.76)" fill="#fff"/>
          <path id="Trazado_997414" data-name="Trazado 997414" d="M42.57,52.5a9.965,9.965,0,1,1,10-9.964,10,10,0,0,1-10,9.964m0-18.2a8.237,8.237,0,1,0,8.27,8.238,8.264,8.264,0,0,0-8.27-8.238" transform="translate(23.929 23.712)" fill="#fff"/>
        </g>
      </g>
      <g id="Elipse_13614" data-name="Elipse 13614" transform="translate(10.388 10.387)" stroke="#002d4f" stroke-width="1" fill="url(#linear-gradient)">
        <ellipse cx="56.112" cy="55.856" rx="56.112" ry="55.856" stroke="none"/>
        <ellipse cx="56.112" cy="55.856" rx="55.612" ry="55.356" fill="none"/>
      </g>
    </g>
    <g id="Grupo_1191895" data-name="Grupo 1191895" transform="translate(1171.001 7797.19)">
      <g id="Grupo_1191894" data-name="Grupo 1191894" clip-path="url(#clip-path-2)">
        <path id="Trazado_1000643" data-name="Trazado 1000643" d="M118.076,159.556l-16.284.017a10.433,10.433,0,0,1,19.624-3.735,12.764,12.764,0,0,0-3.34,3.718" transform="translate(-79.332 -117.09)" fill="#fff"/>
        <path id="Trazado_1000644" data-name="Trazado 1000644" d="M135.423,104.423a5.282,5.282,0,1,1-5.282-5.282,5.282,5.282,0,0,1,5.282,5.282" transform="translate(-97.309 -77.266)" fill="#fff"/>
        <path id="Trazado_1000645" data-name="Trazado 1000645" d="M40.449,143.987l-13.3.027a1.1,1.1,0,0,1-1.133-.994,1.071,1.071,0,0,1,1.124-1.224l13.218,0a1.107,1.107,0,0,1,1.109,1.024,1.087,1.087,0,0,1-1.015,1.163" transform="translate(-20.269 -110.509)" fill="#fff"/>
        <path id="Trazado_1000646" data-name="Trazado 1000646" d="M215.837,143.961l-13.1.01a1.167,1.167,0,0,1-1.231-1.022,1.15,1.15,0,0,1,1.237-1.208h13.005a1.132,1.132,0,0,1,1.225,1.059,1.114,1.114,0,0,1-1.136,1.16" transform="translate(-157.041 -110.467)" fill="#fff"/>
        <path id="Trazado_1000647" data-name="Trazado 1000647" d="M24.135,206.411a11.11,11.11,0,1,1-11.11-11.11,11.11,11.11,0,0,1,11.11,11.11m-9.191,6.239a3.585,3.585,0,0,0,2.724-2.981,3.632,3.632,0,0,0-2.029-3.623c-1.828-.968-4.455-.676-4.676-2.145a1.448,1.448,0,0,1,.8-1.516,2.492,2.492,0,0,1,3.551,1.13,1.115,1.115,0,0,0,1.5.483,1.1,1.1,0,0,0,.488-1.41c-.511-1.528-1.848-2.056-3.1-2.785-.207-.468-.139-1.481-.907-1.475-2.2.015-.473,1.366-2.148,1.935A3.629,3.629,0,0,0,8.712,203.7a3.454,3.454,0,0,0,2.607,3.35l3.055.824a1.42,1.42,0,0,1,1.067,1.554c-.065.665-.676,1.013-1.414,1.2-1.314.335-2.91.035-3.412-1.324-.261-.709-.785-1.13-1.4-.963-.785.214-.949.847-.757,1.586.438,1.69,2.028,2.423,3.422,3.082.142.583.153,1.424.883,1.511,1.825.218.675-1.441,2.177-1.876" transform="translate(-1.493 -152.209)" fill="#fff"/>
        <path id="Trazado_1000648" data-name="Trazado 1000648" d="M206.45,201.039l-1.911,1.978a.986.986,0,0,1-1.48.046l-5.683-5.537c-.362-.352.07-1.03.041-1.4a24.084,24.084,0,0,0-3.032-2.99,10.332,10.332,0,1,1,1.8-1.99,33.424,33.424,0,0,0,3.172,3.007c.32.019.957-.417,1.264-.121l5.842,5.642a.983.983,0,0,1-.012,1.363M194.64,185.267a6.914,6.914,0,1,0-6.914,6.914,6.914,6.914,0,0,0,6.914-6.914" transform="translate(-138.28 -136.362)" fill="#fff"/>
        <path id="Trazado_1000649" data-name="Trazado 1000649" d="M64,181.592a13.737,13.737,0,0,1-4.64-1.1,13.423,13.423,0,0,0-13.772-13.4,23.242,23.242,0,0,1-1.351-5.123l8.463.013A15.048,15.048,0,0,0,63.99,173.238Z" transform="translate(-34.473 -126.228)" fill="#fff"/>
        <path id="Trazado_1000650" data-name="Trazado 1000650" d="M146.078,213.853a1.138,1.138,0,0,1-1.169,1.183c-.676-.024-1.041-.524-1.041-1.267v-13.02a1.06,1.06,0,0,1,1.049-1.163,1.122,1.122,0,0,1,1.163,1.186Z" transform="translate(-112.124 -155.547)" fill="#fff"/>
        <path id="Trazado_1000651" data-name="Trazado 1000651" d="M166.19,220.379a3.991,3.991,0,0,1-2.269.481l-.029-7.733a.749.749,0,0,1,.314-.7.477.477,0,0,1,.562.051,12.93,12.93,0,0,0,1.422,7.9" transform="translate(-127.73 -165.501)" fill="#fff"/>
        <path id="Trazado_1000652" data-name="Trazado 1000652" d="M222.46,163.992a12.908,12.908,0,0,0-7.945-1.339c-.252.037-.129-.379-.109-.493a.541.541,0,0,1,.57-.337l7.89.025a4.235,4.235,0,0,1-.405,2.144" transform="translate(-167.061 -126.118)" fill="#fff"/>
        <path id="Trazado_1000653" data-name="Trazado 1000653" d="M219.293,11.118A11.117,11.117,0,1,1,208.176,0a11.117,11.117,0,0,1,11.117,11.117M208.647,1.293a1.145,1.145,0,0,0-1.2.148c-.494.384-.654,2.186.14,2.714a1.066,1.066,0,0,0,1.257-.068c.57-.436.771-2.289-.2-2.795m-7.009,2.514a1.086,1.086,0,0,0-.806.93A2.111,2.111,0,0,0,202.7,6.6a1.047,1.047,0,0,0,.97-.844c.177-.774-1.108-2.184-2.031-1.948M215,5.882c.624-.6.711-1.356.16-1.836-.579-.5-1.29-.251-1.814.3-.405.429-.8.857-.651,1.45a1.038,1.038,0,0,0,1.027.812c.468.019.836-.3,1.278-.729m-5.674,4.569-.067-3.631a1.075,1.075,0,0,0-1.23-1,1.13,1.13,0,0,0-.959,1.215c.064,1.588-.108,3.11.106,4.676a31.725,31.725,0,0,0,3.266,1.986,1.087,1.087,0,0,0,1.512-.476c.7-1.482-1.654-1.9-2.627-2.773m-8.408-.192a2.359,2.359,0,0,0-2.334.073,1.089,1.089,0,0,0-.167,1.4c.464.664,2.381.824,2.844-.154a1.04,1.04,0,0,0-.343-1.317m16.671-.04a2.524,2.524,0,0,0-2.123.007,1.047,1.047,0,0,0-.378,1.374c.466.914,2.463.839,2.878.068a1.024,1.024,0,0,0-.377-1.449m-13.92,6.263a1.056,1.056,0,0,0-.977-.856c-.794-.065-2.1,1.167-1.822,2.059a1.133,1.133,0,0,0,.95.786c.693.084,2.036-1.171,1.849-1.99m9.855-.834a1.026,1.026,0,0,0-.856.993c-.039.75,1.248,2.075,2.051,1.8a1.182,1.182,0,0,0,.812-.958c.081-.621-1.051-2.04-2.006-1.832m-4.808,2.409a1.119,1.119,0,0,0-1.269.133,2.285,2.285,0,0,0,0,2.6,1.094,1.094,0,0,0,1.2.161,1.942,1.942,0,0,0,.068-2.891" transform="translate(-153.579 -0.001)" fill="#fff"/>
        <path id="Trazado_1000654" data-name="Trazado 1000654" d="M44.207,62.1a23.057,23.057,0,0,1,4.275-10.373l8.5.008a3.784,3.784,0,0,0,3.991-3.657l.054-5.04a11.67,11.67,0,0,1,2.924-.572l.015,8.394a15.064,15.064,0,0,0-11.3,11.274Z" transform="translate(-34.453 -33.095)" fill="#fff"/>
        <path id="Trazado_1000655" data-name="Trazado 1000655" d="M183.682,62.011l-8.417.076a15.061,15.061,0,0,0-11.242-11.275L164,42.378a21.163,21.163,0,0,1,5.1,1.306A13.357,13.357,0,0,0,182.529,57.5a16.621,16.621,0,0,1,1.153,4.515" transform="translate(-127.813 -33.028)" fill="#fff"/>
        <path id="Trazado_1000656" data-name="Trazado 1000656" d="M28.622.027,18.217,9.281,7.778.048Z" transform="translate(-6.062 -0.021)" fill="#fff"/>
        <path id="Trazado_1000657" data-name="Trazado 1000657" d="M21.266,45.652l7.828,6.3L8.58,51.942l7.806-6.279c1.163.731,2.027,2.507,3.314,1.332Z" transform="translate(-6.687 -35.579)" fill="#fff"/>
        <path id="Trazado_1000658" data-name="Trazado 1000658" d="M81.665,20.334l-8.036-6.295L81.687,7Z" transform="translate(-57.383 -5.456)" fill="#fff"/>
        <path id="Trazado_1000659" data-name="Trazado 1000659" d="M8.03,13.985.006,20.342,0,6.958Z" transform="translate(0 -5.423)" fill="#fff"/>
        <path id="Trazado_1000660" data-name="Trazado 1000660" d="M146.08,38.186a1.194,1.194,0,0,1-.989,1.256,1.055,1.055,0,0,1-1.224-1.126L143.86,25.3c0-.764.325-1.281,1.042-1.3a1.1,1.1,0,0,1,1.163,1.1Z" transform="translate(-112.118 -18.697)" fill="#fff"/>
      </g>
    </g>
  </g>
</svg>
