<svg xmlns="http://www.w3.org/2000/svg" xmlns:xlink="http://www.w3.org/1999/xlink" width="84" height="84" viewBox="0 0 84 84">
  <defs>
    <clipPath id="clip-path">
      <rect id="Rectángulo_456150" data-name="Rectángulo 456150" width="61.124" height="66.555" fill="#12263f"/>
    </clipPath>
  </defs>
  <g id="Grupo_1190448" data-name="Grupo 1190448" transform="translate(-710 -1680.92)">
    <g id="Grupo_1119665" data-name="Grupo 1119665" transform="translate(710 1680.92)">
      <rect id="Rectángulo_402006" data-name="Rectángulo 402006" width="84" height="84" rx="5" fill="#67ccf1"/>
    </g>
    <g id="Grupo_1191922" data-name="Grupo 1191922" transform="translate(721.438 1689.643)">
      <g id="Grupo_1191921" data-name="Grupo 1191921" clip-path="url(#clip-path)">
        <path id="Trazado_1000725" data-name="Trazado 1000725" d="M30.46,226.991l8.445,14.93-3.3,1.868-8.445-14.93Zm.559,2.824a1.136,1.136,0,1,0-1.136,1.136,1.136,1.136,0,0,0,1.136-1.136" transform="translate(-21.205 -177.234)" fill="#12263f"/>
        <path id="Trazado_1000726" data-name="Trazado 1000726" d="M96.219,215c1.554-.89,4.384-1.781,5.054,0a1.942,1.942,0,0,1-.489,2.229l-16.1,9.931a5.4,5.4,0,0,1-4.339.685l-13.477-3.578-2.342,1.105-4.548-8.088,8.1-4.655a5.442,5.442,0,0,1,5.179-.2,68.7,68.7,0,0,0,9.21,2.827,1.612,1.612,0,0,1,1.054,1.871,1.583,1.583,0,0,1-1.93,1.175c-2.15-.374-4.148-1.1-6.261-1.628a1.258,1.258,0,0,0-1.544.6,1.162,1.162,0,0,0,.72,1.592l7.284,1.883a7.508,7.508,0,0,0,5.776-.783Z" transform="translate(-46.831 -165.42)" fill="#12263f"/>
        <path id="Trazado_1000727" data-name="Trazado 1000727" d="M48.963,26.862a1.785,1.785,0,0,1-1.782,1.744,1.818,1.818,0,0,1-1.879-1.9l-.016-4.557a2.019,2.019,0,0,1-2.533-.72,1.849,1.849,0,0,1,.549-2.473l2.648-1.929a1.969,1.969,0,0,1,2.4.019L51,18.982a1.827,1.827,0,0,1,.533,2.432,2,2,0,0,1-2.505.746Z" transform="translate(-33.178 -12.982)" fill="#12263f"/>
        <path id="Trazado_1000728" data-name="Trazado 1000728" d="M5.911,66.412a2.052,2.052,0,0,1-2.537-.006L.607,64.349a1.8,1.8,0,0,1-.283-2.4,2.052,2.052,0,0,1,2.417-.632l.08-4.683a1.789,1.789,0,0,1,1.766-1.756,1.827,1.827,0,0,1,1.9,1.876l.046,4.557a2.08,2.08,0,0,1,2.474.708,1.876,1.876,0,0,1-.511,2.5Z" transform="translate(0 -42.848)" fill="#12263f"/>
        <path id="Trazado_1000729" data-name="Trazado 1000729" d="M137.141,43.268a16.07,16.07,0,1,1-16.07-16.07,16.07,16.07,0,0,1,16.07,16.07m-2.925,0a13.144,13.144,0,1,0-13.144,13.144,13.144,13.144,0,0,0,13.144-13.144" transform="translate(-81.985 -21.236)" fill="#12263f"/>
        <path id="Trazado_1000730" data-name="Trazado 1000730" d="M114.9,6.258c.489,1.77-3.383,1.542-4.963,1.5a1.122,1.122,0,0,1-1-1.326c.2-.771.813-.931,1.846-.9A19.84,19.84,0,0,0,82.7,32.131a1.138,1.138,0,0,1-.478,1.372,1.072,1.072,0,0,1-1.439-.333,22.055,22.055,0,0,1,30.962-29.7c-.132-.968.121-1.541.775-1.735a1.146,1.146,0,0,1,1.381.905Z" transform="translate(-60.709 0)" fill="#12263f"/>
        <path id="Trazado_1000731" data-name="Trazado 1000731" d="M109.287,75a1.082,1.082,0,0,1,1.077-1.448l3.51-.167a1.185,1.185,0,0,1,1.383,1.187c-.023.8-.739.977-1.669,1.169A19.821,19.821,0,0,0,141.55,49.2a1.126,1.126,0,0,1,.284-1.462,1.1,1.1,0,0,1,1.663.431,22.05,22.05,0,0,1-31.034,29.521c.006.773-.077,1.454-.655,1.68a1.14,1.14,0,0,1-1.545-.867Z" transform="translate(-85.287 -37.098)" fill="#12263f"/>
        <path id="Trazado_1000732" data-name="Trazado 1000732" d="M150.261,61.515a10.947,10.947,0,1,1-10.947-10.947,10.947,10.947,0,0,1,10.947,10.947M141.22,68a3.792,3.792,0,0,0,2.883-2.911,3.734,3.734,0,0,0-1.93-3.821c-1.982-1.176-4.988-.714-5.073-2.5a1.568,1.568,0,0,1,.984-1.573,2.661,2.661,0,0,1,3.654,1.229,1.093,1.093,0,0,0,1.343.582,1.063,1.063,0,0,0,.648-1.4c-.415-1.577-1.986-2.285-3.24-2.915-.2-.54-.1-1.51-.861-1.575-.625-.054-1.358.116-1.348.961a.875.875,0,0,1-.744.982,3.73,3.73,0,0,0-2.656,3.7,3.575,3.575,0,0,0,2.743,3.406l3.1.812c.883.231,1.687,1.407.954,2.237a3.428,3.428,0,0,1-4.212.363c-.89-.563-.79-2.311-2.1-2a1.086,1.086,0,0,0-.8,1.412c.356,1.805,2.043,2.791,3.619,3.3.11.652.088,1.535.835,1.626,2.018.247.634-1.54,2.2-1.914" transform="translate(-100.229 -39.483)" fill="#12263f"/>
      </g>
    </g>
  </g>
</svg>
