<svg xmlns="http://www.w3.org/2000/svg" xmlns:xlink="http://www.w3.org/1999/xlink" width="84" height="84" viewBox="0 0 84 84">
  <defs>
    <clipPath id="clip-path">
      <rect id="Rectángulo_456137" data-name="Rectángulo 456137" width="52.211" height="52.241" fill="#fff"/>
    </clipPath>
  </defs>
  <g id="Grupo_1190357" data-name="Grupo 1190357" transform="translate(-710 -1680.92)">
    <g id="Grupo_1119665" data-name="Grupo 1119665" transform="translate(710 1680.92)">
      <rect id="Rectángulo_402006" data-name="Rectángulo 402006" width="84" height="84" rx="5" fill="#004b84"/>
    </g>
    <g id="Grupo_1191897" data-name="Grupo 1191897" transform="translate(726.894 1695.8)">
      <g id="Grupo_1191896" data-name="Grupo 1191896" clip-path="url(#clip-path)">
        <path id="Trazado_1000661" data-name="Trazado 1000661" d="M36.524,68.646a20.206,20.206,0,0,0,2.975.393c.056,1.732.066,3.375.014,5.165A2.943,2.943,0,0,1,36.658,77.1L2.593,77.07a2.86,2.86,0,0,1-2.576-2.88L0,33.116A2.924,2.924,0,0,1,2.894,30.01l6.313,0v2.938l-6.192.046v41.1l33.435.01Z" transform="translate(0 -24.888)" fill="#fff"/>
        <path id="Trazado_1000662" data-name="Trazado 1000662" d="M80.221,8.869l-16.406.01a.818.818,0,0,1-.882-.831l-.006-2.935a1.659,1.659,0,0,1,1.719-1.747l3.8.575a3.529,3.529,0,1,1,7.01,0l3.592-.579a1.719,1.719,0,0,1,1.933,1.759l0,2.929a.8.8,0,0,1-.755.822m-7.2-5.5A1.073,1.073,0,1,0,71.95,4.443a1.073,1.073,0,0,0,1.073-1.073" transform="translate(-52.193 0)" fill="#fff"/>
        <rect id="Rectángulo_456135" data-name="Rectángulo 456135" width="17.366" height="5.228" transform="translate(14.862 13.704)" fill="#fff"/>
        <rect id="Rectángulo_456136" data-name="Rectángulo 456136" width="11.976" height="5.26" transform="translate(14.862 30.22)" fill="#fff"/>
        <path id="Trazado_1000663" data-name="Trazado 1000663" d="M186.642,44.574c-1.062.2-1.988.181-3.033.476l-.022-12.162-6.171-.02a20.414,20.414,0,0,1-.034-2.977l6.727.071a2.756,2.756,0,0,1,2.488,2.731Z" transform="translate(-147.093 -24.792)" fill="#fff"/>
        <path id="Trazado_1000664" data-name="Trazado 1000664" d="M63.734,257.591H38.774c-.456,0-.73-.489-.77-.756a.781.781,0,0,1,.7-.935H63.918c.469,0,.636.535.64.8a.879.879,0,0,1-.824.887" transform="translate(-31.515 -212.249)" fill="#fff"/>
        <path id="Trazado_1000665" data-name="Trazado 1000665" d="M60.057,230.161l-21.184-.007A.817.817,0,0,1,38,229.34a.838.838,0,0,1,.9-.881l21.072,0a.826.826,0,0,1,.807.735c.051.411-.14.769-.724.963" transform="translate(-31.52 -189.488)" fill="#fff"/>
        <path id="Trazado_1000666" data-name="Trazado 1000666" d="M91.975,134.079l-4.151-.014a.667.667,0,0,1-.667-.7V129.6a.676.676,0,0,1,.665-.713H91.9a.654.654,0,0,1,.64.714l0,3.754a.687.687,0,0,1-.568.719" transform="translate(-72.289 -106.904)" fill="#fff"/>
        <path id="Trazado_1000667" data-name="Trazado 1000667" d="M44.966,130.357c.508.792,2.2,1.623,1.312,2.556-.924.971-1.826-.876-2.591-1.3-.789.54-1.478,1.965-2.358,1.449a.8.8,0,0,1-.279-1.219l1.4-1.493-1.342-1.4a.844.844,0,0,1,1.186-1.2l1.39,1.334c.816-.475,1.453-1.975,2.4-1.435a.805.805,0,0,1,.325,1.1c-.361.616-1.029.97-1.449,1.6" transform="translate(-33.897 -105.776)" fill="#fff"/>
        <path id="Trazado_1000668" data-name="Trazado 1000668" d="M39.308,181.766l-1.293-2.261a.826.826,0,0,1,.3-1.107c1.073-.6,1.446.977,1.934,1.541L43.29,177a.861.861,0,0,1,1.1.149.885.885,0,0,1-.082,1.185l-3.664,3.651a.858.858,0,0,1-1.336-.219" transform="translate(-31.445 -146.687)" fill="#fff"/>
        <path id="Trazado_1000669" data-name="Trazado 1000669" d="M39.281,84.745l-1.257-2.21a.826.826,0,0,1,.3-1.117c1.073-.638,1.42.988,1.947,1.528L43.2,80.084a.866.866,0,0,1,1.2.089.886.886,0,0,1-.088,1.184L40.647,85a.879.879,0,0,1-1.366-.257" transform="translate(-31.448 -66.254)" fill="#fff"/>
        <path id="Trazado_1000670" data-name="Trazado 1000670" d="M194.16,154.165a1.946,1.946,0,0,1-.758,2.671,1.985,1.985,0,0,1-2.724-.8L187,149.626c-.548-.955.74-1.174-.962-3.2a10.461,10.461,0,1,1,2.036-1.178c1.23,2.765,1.61,1.082,2.578,2.775ZM190,136.846a8.112,8.112,0,1,0-8.113,8.113A8.113,8.113,0,0,0,190,136.846" transform="translate(-142.207 -104.849)" fill="#fff"/>
        <path id="Trazado_1000671" data-name="Trazado 1000671" d="M202.382,171.9l-1.917-3.347a1.262,1.262,0,0,1,.44-1.645,1.3,1.3,0,0,1,1.811.44,17.9,17.9,0,0,0,1.146,1.883l4.653-4.634a1.267,1.267,0,0,1,1.765-.1,1.285,1.285,0,0,1,.119,1.821l-5.846,5.865a1.367,1.367,0,0,1-2.171-.288" transform="translate(-166.145 -136.178)" fill="#fff"/>
      </g>
    </g>
  </g>
</svg>
