<svg xmlns="http://www.w3.org/2000/svg" xmlns:xlink="http://www.w3.org/1999/xlink" width="84" height="84" viewBox="0 0 84 84">
  <defs>
    <clipPath id="clip-path">
      <rect id="Rectángulo_456152" data-name="Rectángulo 456152" width="51.089" height="51.166" fill="#fff"/>
    </clipPath>
  </defs>
  <g id="Grupo_1190454" data-name="Grupo 1190454" transform="translate(-179.668 -5521)">
    <rect id="Rectángulo_402006" data-name="Rectángulo 402006" width="84" height="84" rx="5" transform="translate(179.668 5521)" fill="#004b84"/>
    <g id="Grupo_1191926" data-name="Grupo 1191926" transform="translate(196.124 5537.417)">
      <g id="Grupo_1191925" data-name="Grupo 1191925" clip-path="url(#clip-path)">
        <path id="Trazado_1000738" data-name="Trazado 1000738" d="M86.6,165.47H52.3v-2.978l3.092-.071a4.511,4.511,0,0,1,4.506-4.994h8.041l.012-21.369a16.735,16.735,0,0,0,2.98.033l0,21.322L78.6,157.4a4.626,4.626,0,0,1,4.8,5.032l3.218.036a23.375,23.375,0,0,1-.014,3" transform="translate(-43.94 -114.305)" fill="#fff"/>
        <path id="Trazado_1000739" data-name="Trazado 1000739" d="M225.438,85.652a8.954,8.954,0,1,1-17.892.037l6.721-14.118-3.766-.1a14.844,14.844,0,0,0,1.285-2.885l3.315-.089.065-2.459h2.948l.046,2.409a11.915,11.915,0,0,0,2.24.122,25.45,25.45,0,0,1,0,2.895l-1.367.134Zm-3.3.05L216.643,73.61,210.96,85.729Z" transform="translate(-174.358 -55.475)" fill="#fff"/>
        <path id="Trazado_1000740" data-name="Trazado 1000740" d="M17.895,85.644A8.952,8.952,0,1,1,.006,85.7L6.718,71.588l-1.78-.12,0-2.9c.874-.063,1.665.059,2.553-.082l.066-2.439,2.942-.009.073,2.454,3.214.091a14.163,14.163,0,0,0,1.251,2.825l-3.551.176Zm-3.253-.067L9.092,73.6,3.368,85.637Z" transform="translate(0 -55.482)" fill="#fff"/>
        <path id="Trazado_1000741" data-name="Trazado 1000741" d="M119.837,9.473A9.473,9.473,0,1,1,110.364,0a9.473,9.473,0,0,1,9.473,9.473m-8.573,5.2a6.51,6.51,0,0,1,.05-1.2,3.338,3.338,0,0,0,2.121-1.216,2.26,2.26,0,0,0,.254-2.214,2.2,2.2,0,0,0-1.523-1.215L110,8.288c-.256-.063-.456-.3-.4-.468.261-.832,2.369-.231,3.1.117a10.9,10.9,0,0,0,.792-1.8,5.141,5.141,0,0,0-2.169-.72l-.09-1.109c-.469-.011-1.192-.211-1.5.148-.173.2.132.89-.2,1a3.808,3.808,0,0,0-2.054,1.132,2.316,2.316,0,0,0-.362,2.241,2.229,2.229,0,0,0,1.536,1.32l2.278.6c1.14.3-.377,1.581-3.213.109a9.51,9.51,0,0,0-.8,1.9,5.967,5.967,0,0,0,2.72.741,9.333,9.333,0,0,1,.086,1.185,7.068,7.068,0,0,0,1.543-.012" transform="translate(-84.76)" fill="#fff"/>
      </g>
    </g>
  </g>
</svg>
