<svg xmlns="http://www.w3.org/2000/svg" xmlns:xlink="http://www.w3.org/1999/xlink" width="396" height="1288" viewBox="0 0 396 1288">
  <defs>
    <clipPath id="clip-path">
      <rect id="Rectángulo_454980" data-name="Rectángulo 454980" width="39.066" height="39.031" fill="#fff"/>
    </clipPath>
    <clipPath id="clip-path-2">
      <rect id="Rectángulo_454981" data-name="Rectángulo 454981" width="40.396" height="40.391" fill="#fff"/>
    </clipPath>
    <clipPath id="clip-path-3">
      <rect id="Rectángulo_454982" data-name="Rectángulo 454982" width="38.432" height="43.755" fill="#fff"/>
    </clipPath>
    <clipPath id="clip-path-4">
      <rect id="Rectángulo_454983" data-name="Rectángulo 454983" width="46.46" height="47.218" fill="#fff"/>
    </clipPath>
    <clipPath id="clip-path-5">
      <rect id="Rectángulo_454984" data-name="Rectángulo 454984" width="48.979" height="42.98" fill="#fff"/>
    </clipPath>
    <clipPath id="clip-path-6">
      <rect id="Rectángulo_455377" data-name="Rectángulo 455377" width="43.716" height="43.685" fill="#fff"/>
    </clipPath>
  </defs>
  <g id="Grupo_1190470" data-name="Grupo 1190470" transform="translate(-809.711 -9790)">
    <rect id="Rectángulo_454987" data-name="Rectángulo 454987" width="396" height="1288" rx="15" transform="translate(809.711 9790)" fill="#ffe9f3"/>
    <g id="Grupo_1190469" data-name="Grupo 1190469" transform="translate(2.171)">
      <g id="Grupo_1177811" data-name="Grupo 1177811" transform="translate(830.54 10282.74)">
        <circle id="Elipse_5841" data-name="Elipse 5841" cx="21.252" cy="21.252" r="21.252" transform="translate(0 0)" fill="#fe93c4"/>
        <text id="_1" data-name="1" transform="translate(16.528 28.638)" fill="#12263f" font-size="18" font-family="SegoeUI-Bold, Segoe UI" font-weight="700"><tspan x="0" y="0">1</tspan></text>
      </g>
      <g id="Grupo_1177814" data-name="Grupo 1177814" transform="translate(830.54 10554.748)">
        <circle id="Elipse_5841-2" data-name="Elipse 5841" cx="21.252" cy="21.252" r="21.252" transform="translate(0 0)" fill="#fe93c4"/>
        <text id="_3" data-name="3" transform="translate(16.528 28.638)" fill="#12263f" font-size="18" font-family="SegoeUI-Bold, Segoe UI" font-weight="700"><tspan x="0" y="0">3</tspan></text>
      </g>
      <g id="Grupo_1177816" data-name="Grupo 1177816" transform="translate(830.54 10803.756)">
        <circle id="Elipse_5841-3" data-name="Elipse 5841" cx="21.252" cy="21.252" r="21.252" transform="translate(0 0)" fill="#fe93c4"/>
        <text id="_5" data-name="5" transform="translate(16.528 28.638)" fill="#12263f" font-size="18" font-family="SegoeUI-Bold, Segoe UI" font-weight="700"><tspan x="0" y="0">5</tspan></text>
      </g>
      <g id="Grupo_1177812" data-name="Grupo 1177812" transform="translate(830.54 10419.244)">
        <circle id="Elipse_5841-4" data-name="Elipse 5841" cx="21.252" cy="21.252" r="21.252" transform="translate(0 0)" fill="#fe93c4"/>
        <text id="_2" data-name="2" transform="translate(16.528 28.638)" fill="#12263f" font-size="18" font-family="SegoeUI-Bold, Segoe UI" font-weight="700"><tspan x="0" y="0">2</tspan></text>
      </g>
      <g id="Grupo_1177813" data-name="Grupo 1177813" transform="translate(830.54 10691.252)">
        <circle id="Elipse_5841-5" data-name="Elipse 5841" cx="21.252" cy="21.252" r="21.252" transform="translate(0 0)" fill="#fe93c4"/>
        <text id="_4" data-name="4" transform="translate(16.528 28.638)" fill="#12263f" font-size="18" font-family="SegoeUI-Bold, Segoe UI" font-weight="700"><tspan x="0" y="0">4</tspan></text>
      </g>
      <g id="Grupo_1177815" data-name="Grupo 1177815" transform="translate(830.54 10940.26)">
        <circle id="Elipse_5841-6" data-name="Elipse 5841" cx="21.252" cy="21.252" r="21.252" transform="translate(0 0)" fill="#fe93c4"/>
        <text id="_6" data-name="6" transform="translate(16.528 28.638)" fill="#12263f" font-size="18" font-family="SegoeUI-Bold, Segoe UI" font-weight="700"><tspan x="0" y="0">6</tspan></text>
      </g>
      <text id="Identificar_partes_interesadas_Reconocer_a_todos_los_individuos_y_grupos_afectados_por_el_proyecto." data-name="Identificar partes interesadas

Reconocer a todos los individuos y grupos afectados por el proyecto." transform="translate(891.874 10294.244)" fill="#12263f" font-size="16" font-family="SegoeUI-Bold, Segoe UI" font-weight="700"><tspan x="0" y="17">Identificar partes interesadas</tspan><tspan font-family="SegoeUI, Segoe UI" font-weight="400"><tspan x="0" y="41"></tspan><tspan x="0" y="65">Reconocer a todos los individuos y </tspan><tspan x="0" y="89">grupos afectados por el proyecto.</tspan></tspan></text>
      <text id="Gestionar_participación_Involucrar_activamente_a_las_partes_interesadas_en_el_proceso_del_proyecto." data-name="Gestionar participación 

Involucrar activamente a las partes interesadas en el proceso del proyecto." transform="translate(891.874 10566.252)" fill="#12263f" font-size="16" font-family="SegoeUI-Bold, Segoe UI" font-weight="700"><tspan x="0" y="17">Gestionar participación </tspan><tspan font-family="SegoeUI, Segoe UI" font-weight="400"><tspan x="0" y="41"></tspan><tspan x="0" y="65">Involucrar activamente a las partes </tspan><tspan x="0" y="89">interesadas en el proceso del proyecto.</tspan></tspan></text>
      <text id="Fortalecer_aceptación_Ganar_el_apoyo_y_la_aprobación_de_las_partes_interesadas." data-name="Fortalecer aceptación

Ganar el apoyo y la aprobación de las partes interesadas." transform="translate(891.874 10815.26)" fill="#12263f" font-size="16" font-family="SegoeUI-Bold, Segoe UI" font-weight="700"><tspan x="0" y="17">Fortalecer aceptación</tspan><tspan font-family="SegoeUI, Segoe UI" font-weight="400"><tspan x="0" y="41"></tspan><tspan x="0" y="65">Ganar el apoyo y la aprobación de las </tspan><tspan x="0" y="89">partes interesadas.</tspan></tspan></text>
      <text id="Analizar_expectativas_Comprender_las_necesidades_y_deseos_de_cada_parte_interesada." data-name="Analizar expectativas 

Comprender las necesidades y deseos de cada parte interesada." transform="translate(891.874 10430.748)" fill="#12263f" font-size="16" font-family="SegoeUI-Bold, Segoe UI" font-weight="700"><tspan x="0" y="17">Analizar expectativas </tspan><tspan font-family="SegoeUI, Segoe UI" font-weight="400"><tspan x="0" y="41"></tspan><tspan x="0" y="65">Comprender las necesidades y deseos </tspan><tspan x="0" y="89">de cada parte interesada.</tspan></tspan></text>
      <text id="Reducir_riesgos_Mitigar_posibles_obstáculos_y_desafíos." data-name="Reducir riesgos

 Mitigar posibles obstáculos y desafíos." transform="translate(891.874 10702.756)" fill="#12263f" font-size="16" font-family="SegoeUI-Bold, Segoe UI" font-weight="700"><tspan x="0" y="17">Reducir riesgos</tspan><tspan font-family="SegoeUI, Segoe UI" font-weight="400"><tspan x="0" y="41"></tspan><tspan x="0" y="65" xml:space="preserve"> Mitigar posibles obstáculos y desafíos.</tspan></tspan></text>
      <text id="Asegurar_sostenibilidad_Garantizar_el_éxito_y_la_viabilidad_del_proyecto_a_largo_plazo." data-name="Asegurar sostenibilidad

Garantizar el éxito y la viabilidad del proyecto a largo plazo." transform="translate(891.874 10951.764)" fill="#12263f" font-size="16" font-family="SegoeUI-Bold, Segoe UI" font-weight="700"><tspan x="0" y="17">Asegurar sostenibilidad</tspan><tspan font-family="SegoeUI, Segoe UI" font-weight="400"><tspan x="0" y="41"></tspan><tspan x="0" y="65">Garantizar el éxito y la viabilidad del </tspan><tspan x="0" y="89">proyecto a largo plazo.</tspan></tspan></text>
    </g>
    <g id="Grupo_1190468" data-name="Grupo 1190468" transform="translate(520.321 31)">
      <path id="Trazado_998547" data-name="Trazado 998547" d="M132.736,79.642a39.821,39.821,0,1,1,39.821-39.821,39.821,39.821,0,0,1-39.821,39.821" transform="translate(232.475 9790.563)" fill="#004b84"/>
      <path id="Trazado_998548" data-name="Trazado 998548" d="M132.736,79.642a39.821,39.821,0,1,1,39.821-39.821,39.821,39.821,0,0,1-39.821,39.821" transform="translate(228.475 9931.432)" fill="#2e5c6c"/>
      <path id="Trazado_998558" data-name="Trazado 998558" d="M132.736,79.642a39.821,39.821,0,1,1,39.821-39.821,39.821,39.821,0,0,1-39.821,39.821" transform="translate(481.475 9860.432)" fill="#2e5c6c"/>
      <path id="Trazado_998559" data-name="Trazado 998559" d="M132.736,79.642a39.821,39.821,0,1,1,39.821-39.821,39.821,39.821,0,0,1-39.821,39.821" transform="translate(481.475 10002.432)" fill="#004b84"/>
      <path id="Trazado_998560" data-name="Trazado 998560" d="M132.736,79.642a39.821,39.821,0,1,1,39.821-39.821,39.821,39.821,0,0,1-39.821,39.821" transform="translate(481.475 10144)" fill="#2e5c6c"/>
      <g id="Grupo_1190456" data-name="Grupo 1190456" transform="translate(345.678 9810.868)">
        <g id="Grupo_1177783" data-name="Grupo 1177783" transform="translate(0)" clip-path="url(#clip-path)">
          <path id="Trazado_997649" data-name="Trazado 997649" d="M101.718,188.955a1.36,1.36,0,0,1-1.092-.415c-.318-.325-.214-.721-.256-1.173a7.343,7.343,0,0,1,6.816-8.13,4.245,4.245,0,0,1-3.71-5.067,4.163,4.163,0,0,1,4.564-3.4,4.232,4.232,0,0,1,3.819,4.077,4.339,4.339,0,0,1-3.682,4.392,7.358,7.358,0,0,1,6.693,8.131c-.039.417.068.78-.2,1.106a1.3,1.3,0,0,1-1.08.48Z" transform="translate(-88.098 -149.925)" fill="#fff"/>
          <path id="Trazado_997650" data-name="Trazado 997650" d="M115.758,53.57a12.55,12.55,0,0,0-10.126.009,15.32,15.32,0,0,0-1.811-1.66,14.768,14.768,0,0,1,13.727,0,12.537,12.537,0,0,0-1.79,1.651" transform="translate(-91.158 -44.102)" fill="#fff"/>
          <path id="Trazado_997651" data-name="Trazado 997651" d="M202.107,18.219a1.337,1.337,0,0,1-1.019-.385c-.345-.319-.229-.682-.274-1.119a7.372,7.372,0,0,1,6.76-8.228A4.213,4.213,0,0,1,203.835,4.4,4.133,4.133,0,0,1,207.448.063a4.217,4.217,0,0,1,4.8,3.551,4.293,4.293,0,0,1-3.687,4.875,7.4,7.4,0,0,1,6.766,8.114c-.048.645-.081,1.572-1,1.575Z" transform="translate(-176.283 -0.011)" fill="#fff"/>
          <path id="Trazado_997652" data-name="Trazado 997652" d="M222.309,180.038a22.726,22.726,0,0,0-1.247-1.922,12.368,12.368,0,0,0,4.887-10.071l2.284,0a14.6,14.6,0,0,1-5.923,11.991" transform="translate(-194.099 -147.548)" fill="#fff"/>
          <path id="Trazado_997653" data-name="Trazado 997653" d="M1.293,18.2A1.191,1.191,0,0,1,0,16.951a13.111,13.111,0,0,1,.174-2.635A7.123,7.123,0,0,1,7.021,8.491,4.2,4.2,0,0,1,3.065,4.51,4.142,4.142,0,0,1,5.409.426,4.246,4.246,0,1,1,7.535,8.481c4.609.369,7.26,3.75,6.983,8.224a1.179,1.179,0,0,1-1.1,1.486Z" transform="translate(0 -0.001)" fill="#fff"/>
          <path id="Trazado_997654" data-name="Trazado 997654" d="M47.453,177.973c-.384.66-.824,1.226-1.194,1.963a14.53,14.53,0,0,1-5.939-12.019l2.275.017a12.312,12.312,0,0,0,4.858,10.04" transform="translate(-35.399 -147.436)" fill="#fff"/>
        </g>
      </g>
      <g id="Grupo_1190466" data-name="Grupo 1190466" transform="translate(593.725 9877.808)">
        <g id="Grupo_1177785" data-name="Grupo 1177785" clip-path="url(#clip-path-2)">
          <path id="Trazado_997655" data-name="Trazado 997655" d="M6.151,39.268a3.549,3.549,0,1,1-5.115-4.921l9.517-9.517a1.108,1.108,0,0,1,1.539-.063l.943.9,3-2.978a13.807,13.807,0,1,1,1.679,1.678l-2.977,2.994a9.464,9.464,0,0,0,.778.806A1.183,1.183,0,0,1,15.5,29.9ZM30.734,20.943a2.874,2.874,0,0,0,2.6-3.018,7.033,7.033,0,0,0-2.562-5.777,4.335,4.335,0,1,0-8.356,0,7.035,7.035,0,0,0-2.561,5.773,2.852,2.852,0,0,0,2.884,3.028Z" transform="translate(0 0)" fill="#fff"/>
          <path id="Trazado_997656" data-name="Trazado 997656" d="M184.7,116.878l-8.112.029a.472.472,0,0,1-.482-.538,4.658,4.658,0,0,1,1.4-3.846,4.409,4.409,0,0,0,5.884,0,4.611,4.611,0,0,1,1.307,4.357" transform="translate(-153.862 -98.315)" fill="#fff"/>
          <path id="Trazado_997657" data-name="Trazado 997657" d="M198.96,73.537a1.969,1.969,0,1,1-1.969-1.969,1.969,1.969,0,0,1,1.969,1.969" transform="translate(-170.401 -62.533)" fill="#fff"/>
        </g>
      </g>
      <rect id="Rectángulo_455376" data-name="Rectángulo 455376" width="107" height="434" transform="translate(436.391 9790)" fill="#ffd4e7"/>
      <path id="Trazado_998551" data-name="Trazado 998551" d="M-9940.71-5289.718h121" transform="translate(10319.391 15120.102)" fill="none" stroke="#004b84" stroke-width="2"/>
      <path id="Trazado_998552" data-name="Trazado 998552" d="M-9940.71-5289.718h121" transform="translate(10319.391 15260.971)" fill="none" stroke="#2e5c6c" stroke-width="2"/>
      <path id="Trazado_998554" data-name="Trazado 998554" d="M-9940.711-5289.718h96.475" transform="translate(10424.576 15189.971)" fill="none" stroke="#2e5c6c" stroke-width="2"/>
      <path id="Trazado_998555" data-name="Trazado 998555" d="M-9940.711-5289.718h96.475" transform="translate(10424.576 15331.97)" fill="none" stroke="#004b84" stroke-width="2"/>
      <path id="Trazado_998556" data-name="Trazado 998556" d="M-9940.711-5289.718h96.475" transform="translate(10424.576 15473.97)" fill="none" stroke="#2e5c6c" stroke-width="2"/>
      <path id="Trazado_998557" data-name="Trazado 998557" d="M-9940.713-5289.718h358.728" transform="translate(5779.608 247.396) rotate(-90)" fill="none" stroke="#002d4f" stroke-width="2"/>
      <g id="Grupo_1190459" data-name="Grupo 1190459" transform="translate(468.639 9809)">
        <circle id="Elipse_5841-7" data-name="Elipse 5841" cx="21.252" cy="21.252" r="21.252" transform="translate(0 0)" fill="#fe93c4"/>
        <text id="_1-2" data-name="1" transform="translate(16.528 28.638)" fill="#12263f" font-size="18" font-family="SegoeUI-Bold, Segoe UI" font-weight="700"><tspan x="0" y="0">1</tspan></text>
      </g>
      <g id="Grupo_1190460" data-name="Grupo 1190460" transform="translate(468.639 10162)">
        <circle id="Elipse_5841-8" data-name="Elipse 5841" cx="21.252" cy="21.252" r="21.252" transform="translate(0 0)" fill="#fe93c4"/>
        <text id="_6-2" data-name="6" transform="translate(16.528 28.638)" fill="#12263f" font-size="18" font-family="SegoeUI-Bold, Segoe UI" font-weight="700"><tspan x="0" y="0">6</tspan></text>
      </g>
      <g id="Grupo_1190461" data-name="Grupo 1190461" transform="translate(468.639 10092)">
        <circle id="Elipse_5841-9" data-name="Elipse 5841" cx="21.252" cy="21.252" r="21.252" transform="translate(0 0)" fill="#fe93c4"/>
        <text id="_5-2" data-name="5" transform="translate(16.528 28.638)" fill="#12263f" font-size="18" font-family="SegoeUI-Bold, Segoe UI" font-weight="700"><tspan x="0" y="0">5</tspan></text>
      </g>
      <g id="Grupo_1190462" data-name="Grupo 1190462" transform="translate(468.639 10021)">
        <circle id="Elipse_5841-10" data-name="Elipse 5841" cx="21.252" cy="21.252" r="21.252" transform="translate(0 0)" fill="#fe93c4"/>
        <text id="_4-2" data-name="4" transform="translate(16.528 28.638)" fill="#12263f" font-size="18" font-family="SegoeUI-Bold, Segoe UI" font-weight="700"><tspan x="0" y="0">4</tspan></text>
      </g>
      <g id="Grupo_1190463" data-name="Grupo 1190463" transform="translate(468.639 9950)">
        <circle id="Elipse_5841-11" data-name="Elipse 5841" cx="21.252" cy="21.252" r="21.252" transform="translate(0 0)" fill="#fe93c4"/>
        <text id="_3-2" data-name="3" transform="translate(16.528 28.638)" fill="#12263f" font-size="18" font-family="SegoeUI-Bold, Segoe UI" font-weight="700"><tspan x="0" y="0">3</tspan></text>
      </g>
      <g id="Grupo_1190464" data-name="Grupo 1190464" transform="translate(468.639 9879)">
        <circle id="Elipse_5841-12" data-name="Elipse 5841" cx="21.252" cy="21.252" r="21.252" transform="translate(0 0)" fill="#fe93c4"/>
        <text id="_2-2" data-name="2" transform="translate(16.528 28.638)" fill="#12263f" font-size="18" font-family="SegoeUI-Bold, Segoe UI" font-weight="700"><tspan x="0" y="0">2</tspan></text>
      </g>
      <path id="Trazado_998553" data-name="Trazado 998553" d="M-9940.711-5289.718h95.979" transform="translate(10313.371 15402.971)" fill="none" stroke="#004b84" stroke-width="2"/>
      <path id="Trazado_998549" data-name="Trazado 998549" d="M132.736,79.642a39.821,39.821,0,1,1,39.821-39.821,39.821,39.821,0,0,1-39.821,39.821" transform="translate(228.475 10073.432)" fill="#004b84"/>
      <g id="Grupo_1190457" data-name="Grupo 1190457" transform="translate(341.994 9949.632)">
        <g id="Grupo_1177787" data-name="Grupo 1177787" clip-path="url(#clip-path-3)">
          <path id="Trazado_997658" data-name="Trazado 997658" d="M22.584,193.18l-.61,5.546H16.454l-.582-5.506a16.856,16.856,0,0,1-3.964-1.65l-4.321,3.474L3.7,191.172l3.463-4.349a15.492,15.492,0,0,1-1.627-3.941l-5.494-.6a21.272,21.272,0,0,1,0-2.758H12.729a6.483,6.483,0,0,0,12.965.01l12.694-.011a21.331,21.331,0,0,1,0,2.763l-5.5.6a15.33,15.33,0,0,1-1.627,3.943l3.465,4.3-3.878,3.915-4.322-3.473a15.119,15.119,0,0,1-3.944,1.607" transform="translate(0 -154.971)" fill="#fff"/>
          <path id="Trazado_997659" data-name="Trazado 997659" d="M89.01,93.418l-19.392.005V87.142a4.425,4.425,0,0,1,3.935-4.4H85.071a4.468,4.468,0,0,1,3.949,4.4Z" transform="translate(-60.097 -71.427)" fill="#fff"/>
          <path id="Trazado_997660" data-name="Trazado 997660" d="M114.188,4.956A4.955,4.955,0,1,1,109.233,0a4.955,4.955,0,0,1,4.955,4.955" transform="translate(-90.017 -0.001)" fill="#fff"/>
          <path id="Trazado_997661" data-name="Trazado 997661" d="M7,100.209l-6.921.019L.048,94.774a4.135,4.135,0,0,1,4.445-4.154l3.3.048a7.334,7.334,0,0,0-.782,3.2Z" transform="translate(-0.041 -78.226)" fill="#fff"/>
          <path id="Trazado_997662" data-name="Trazado 997662" d="M232.031,100.277l-6.928.019-.022-6.249a7.4,7.4,0,0,0-.792-3.318l3.724-.031a3.975,3.975,0,0,1,4.02,4Z" transform="translate(-193.615 -78.294)" fill="#fff"/>
          <path id="Trazado_997663" data-name="Trazado 997663" d="M39.493,23.323a7.344,7.344,0,0,0-3.973,2.341,4.433,4.433,0,1,1,3.973-2.341" transform="translate(-26.884 -14.496)" fill="#fff"/>
          <path id="Trazado_997664" data-name="Trazado 997664" d="M189.3,25.613a14.039,14.039,0,0,0-3.87-2.339c-1.719-2.131-.085-5.3,2.092-6.131a4.443,4.443,0,0,1,6,3.135,4.357,4.357,0,0,1-4.219,5.336" transform="translate(-159.455 -14.522)" fill="#fff"/>
        </g>
      </g>
      <g id="Grupo_1190465" data-name="Grupo 1190465" transform="translate(590.98 10018.643)">
        <g id="Grupo_1177789" data-name="Grupo 1177789" clip-path="url(#clip-path-4)">
          <path id="Trazado_997665" data-name="Trazado 997665" d="M25.632,51.189,20.9,51.2a1.5,1.5,0,0,1-1.5-1.433,5.183,5.183,0,0,0-8.931-3.636,1.53,1.53,0,0,1-2.127-.186L5.265,42.869a1.581,1.581,0,0,1-.15-2.216A5.164,5.164,0,0,0,1.456,31.8,1.5,1.5,0,0,1,.007,30.267L0,25.682A1.5,1.5,0,0,1,1.42,24.139c1.733.133,2.925-.935,4.135-1.772,1.751-.4,3.74.029,5.632-.144a13.345,13.345,0,1,0,6.185-6.228l-2.344-4.628A5.208,5.208,0,0,0,19.385,6.29a1.547,1.547,0,0,1,1.508-1.568h4.684a1.542,1.542,0,0,1,1.5,1.56,5.158,5.158,0,0,0,8.834,3.569,1.5,1.5,0,0,1,2.078.015l3.213,3.19a1.687,1.687,0,0,1-.077,2.5,4.992,4.992,0,0,0-.83,5.6,5.169,5.169,0,0,0,4.731,2.979A1.486,1.486,0,0,1,46.461,25.7l0,4.569a1.5,1.5,0,0,1-1.44,1.54,5.163,5.163,0,0,0-3.665,8.85,1.561,1.561,0,0,1-.094,2.154L38.062,46a1.589,1.589,0,0,1-2.313-.053,5.03,5.03,0,0,0-5.627-.956,5.152,5.152,0,0,0-3.057,4.778,1.475,1.475,0,0,1-1.432,1.42" transform="translate(-0.001 -3.982)" fill="#fff"/>
          <path id="Trazado_997666" data-name="Trazado 997666" d="M17.415,16.845l-13.661.011a1.676,1.676,0,0,1-1.262-.71A1.579,1.579,0,0,1,2.324,14.5L9.1.937a1.655,1.655,0,0,1,2.96-.044L18.89,14.551a1.714,1.714,0,0,1-.139,1.519,1.608,1.608,0,0,1-1.336.774M11.3,10.824l-.013-6.648a.671.671,0,0,0-.733-.669.659.659,0,0,0-.642.681l0,6.694a.724.724,0,0,0,.669.741.741.741,0,0,0,.72-.8m.272,2.8a.973.973,0,1,0-.973.973.973.973,0,0,0,.973-.973" transform="translate(-1.825 0)" fill="#fff"/>
          <path id="Trazado_997667" data-name="Trazado 997667" d="M122.009,116.114l-5.968,5.7-5.976-5.718,3.615-.066-.1-7.821a.625.625,0,0,1,.585-.64l3.454-.01a.627.627,0,0,1,.655.631l.12,7.84Z" transform="translate(-92.808 -90.697)" fill="#fff"/>
        </g>
      </g>
      <g id="Grupo_1190458" data-name="Grupo 1190458" transform="translate(336.722 10093)">
        <g id="Grupo_1177791" data-name="Grupo 1177791" clip-path="url(#clip-path-5)">
          <path id="Trazado_997668" data-name="Trazado 997668" d="M31.546,30.6a1.446,1.446,0,0,0-2.006-.1,1.429,1.429,0,0,0-.059,2.083l3.449,3.452a2.163,2.163,0,1,1-3.059,3.048l-1.989-1.988a4.772,4.772,0,0,0-3.541-1.377,4.967,4.967,0,0,0-3.617-4.887,5,5,0,0,0-6.729-6.751,4.981,4.981,0,0,0-3.729-3.48,5.229,5.229,0,0,0-5.143,1.825,9.357,9.357,0,0,0-1.75-3.694L.451,15.7A1.459,1.459,0,0,1,.49,13.553L12.567,1.482a1.434,1.434,0,0,1,2.082,0l3.644,3.679-5.053,5.095a4.278,4.278,0,0,0-.056,6,7.124,7.124,0,0,0,10.162.1,1.506,1.506,0,0,1,2.117.024,7.183,7.183,0,0,0,8.983.87l8.76,8.776a2.146,2.146,0,0,1-3.113,2.954l-3.515-3.5a1.437,1.437,0,0,0-1.963-.065,1.417,1.417,0,0,0-.058,2.084l3.58,3.606A2.143,2.143,0,0,1,35.1,34.133Z" transform="translate(0 -0.876)" fill="#fff"/>
          <path id="Trazado_997669" data-name="Trazado 997669" d="M109.126,13.013a4.356,4.356,0,0,0-5.64.448,4.313,4.313,0,0,1-5.889.119,1.487,1.487,0,0,1-.079-2.268l5.825-5.8a4.062,4.062,0,0,1,2.9-1.2l5.17-.019a2.951,2.951,0,0,0,2.108-.866L116.6.388a1.359,1.359,0,0,1,1.895-.006l12.164,12.142a1.458,1.458,0,0,1,.052,2.14l-3.421,3.461c-1.386,1.4-.236,3.187-.751,4.093l-9.8-9.791c-2.137,2.277-5.024,2.342-7.61.586" transform="translate(-82.175 0)" fill="#fff"/>
          <path id="Trazado_997670" data-name="Trazado 997670" d="M62.836,175.214a2.153,2.153,0,1,1-3.014-3.072l5.055-5.035a2.125,2.125,0,0,1,3.019.055,2.16,2.16,0,0,1-.068,3.065Z" transform="translate(-50.079 -141.012)" fill="#fff"/>
          <path id="Trazado_997671" data-name="Trazado 997671" d="M95.963,219.634a2.147,2.147,0,1,1-3.074-3l3.057-3.061a2.149,2.149,0,0,1,3.034,3.043Z" transform="translate(-78.144 -180.349)" fill="#fff"/>
          <path id="Trazado_997672" data-name="Trazado 997672" d="M29.733,153.24a2.161,2.161,0,0,1-3.1.134,2.112,2.112,0,0,1-.055-3.054l3.055-3.061a2.145,2.145,0,0,1,3.032,3.035Z" transform="translate(-21.979 -124.178)" fill="#fff"/>
          <path id="Trazado_997673" data-name="Trazado 997673" d="M142.366,250.8a2.144,2.144,0,0,1-3.063-3c.366-.4.733-.768,1.133-1.129a2.145,2.145,0,0,1,2.967,3.1c-.329.344-.657.676-1.036,1.031" transform="translate(-117.485 -208.431)" fill="#fff"/>
        </g>
      </g>
      <g id="Grupo_1190467" data-name="Grupo 1190467" transform="translate(592.354 10161.409)" clip-path="url(#clip-path-6)">
        <path id="Trazado_998561" data-name="Trazado 998561" d="M154.862,142.27a12.381,12.381,0,1,1-12.381-12.381,12.381,12.381,0,0,1,12.381,12.381m-18.162.472,3.687,3.655a1.38,1.38,0,0,0,1.942-.055l5.951-5.991a1.455,1.455,0,1,0-2.059-2.053l-4.893,4.918-2.838-2.748a1.4,1.4,0,0,0-1.987.255,1.505,1.505,0,0,0,.2,2.02" transform="translate(-111.146 -110.965)" fill="#fff"/>
        <path id="Trazado_998562" data-name="Trazado 998562" d="M5.855,16.829c.035,7.708,4.448,14.4,10.717,18.448a15.39,15.39,0,0,0,3.011,5.8c-1.335.806-1.969,1.545-3.263.844A35.516,35.516,0,0,1,8.4,36.175a26.852,26.852,0,0,1-8.388-19.3L0,7.265A1.46,1.46,0,0,1,1.461,5.813c3.976-.069,8.118-.5,11.6-2.512,3.164-1.828,2.76-3.309,4.214-3.3.638,0,.98.388,1.39.886,3.174,3.851,9.787,4.9,14.56,4.905a1.567,1.567,0,0,1,1.743,1.624l-.02,9.026a14.819,14.819,0,0,0-5.743-.251c-.411-2.277.9-4.6-1.684-4.98a24.184,24.184,0,0,1-9.037-3,1.944,1.944,0,0,0-2.33.057,22.828,22.828,0,0,1-8.716,2.929c-.924.135-1.608.594-1.6,1.612Z" transform="translate(0 0)" fill="#fff"/>
        <path id="Trazado_998563" data-name="Trazado 998563" d="M67.314,95.51A18.389,18.389,0,0,1,60.1,82.079a37.444,37.444,0,0,1-.032-3.777,27.038,27.038,0,0,0,8.6-2.978A28.733,28.733,0,0,0,77.488,78.3a22.329,22.329,0,0,1-.009,2.95A15.363,15.363,0,0,0,67.314,95.51" transform="translate(-51.289 -64.35)" fill="#fff"/>
      </g>
    </g>
  </g>
</svg>
