<svg xmlns="http://www.w3.org/2000/svg" xmlns:xlink="http://www.w3.org/1999/xlink" width="84" height="84" viewBox="0 0 84 84">
  <defs>
    <clipPath id="clip-path">
      <rect id="Rectángulo_455379" data-name="Rectángulo 455379" width="52.408" height="64.5" fill="#fff"/>
    </clipPath>
  </defs>
  <g id="Grupo_1190474" data-name="Grupo 1190474" transform="translate(-290 -1125)">
    <g id="Grupo_1177692" data-name="Grupo 1177692" transform="translate(110.332 -4396)">
      <rect id="Rectángulo_402006" data-name="Rectángulo 402006" width="84" height="84" rx="5" transform="translate(179.668 5521)" fill="#004b84"/>
    </g>
    <g id="Grupo_1190473" data-name="Grupo 1190473" transform="translate(305.797 1132)">
      <rect id="Rectángulo_455378" data-name="Rectángulo 455378" width="11.793" height="2.314" transform="translate(24.698 39.481)" fill="#fff"/>
      <g id="Grupo_1190472" data-name="Grupo 1190472">
        <g id="Grupo_1190471" data-name="Grupo 1190471" clip-path="url(#clip-path)">
          <path id="Trazado_998564" data-name="Trazado 998564" d="M109.959,56.592c.086,7.117-4.322,9.72-7.758,15.024L89.521,71.6c-1.726-2.771-3.406-4.226-5.263-6.916a14.158,14.158,0,0,1-.687-15.033,13.972,13.972,0,0,1,12.293-7.144l-.011,4.717a2.361,2.361,0,0,0-2.229,2.129,2.283,2.283,0,0,0,2.21,2.444l.074,4.736,4.74.079a2.327,2.327,0,0,0,2.221,2.217,2.268,2.268,0,0,0,2.317-2.206Z" transform="translate(-65.271 -33.942)" fill="#fff"/>
          <path id="Trazado_998565" data-name="Trazado 998565" d="M179.182,29.475a2.368,2.368,0,0,1-2.32,2.261,2.393,2.393,0,0,1-2.313-2.244l-4.688-.045-.031-4.728a2.37,2.37,0,0,1-2.28-2.261,2.333,2.333,0,0,1,2.252-2.328l.045-4.7a11.07,11.07,0,0,1,4.016.536,7.227,7.227,0,0,0,9.146,8.542,13.865,13.865,0,0,1,.94,4.934Z" transform="translate(-133.794 -12.295)" fill="#fff"/>
          <path id="Trazado_998566" data-name="Trazado 998566" d="M217.805,5.339A5.34,5.34,0,1,1,212.465,0a5.34,5.34,0,0,1,5.34,5.339M210.65,7.777A.975.975,0,0,0,212,7.862l3.721-3.713a.958.958,0,0,0-.025-1.352.922.922,0,0,0-1.271.057l-3.033,3.01-.983-.9a.906.906,0,0,0-1.271.137.946.946,0,0,0,.1,1.258Z" transform="translate(-165.397)" fill="#fff"/>
          <path id="Trazado_998567" data-name="Trazado 998567" d="M132.518,219.037l-7.981,0a1.873,1.873,0,0,1-1.877-2.237l11.718-.013a1.847,1.847,0,0,1-1.859,2.246" transform="translate(-97.925 -173.115)" fill="#fff"/>
          <path id="Trazado_998568" data-name="Trazado 998568" d="M144.1,237.3a2.357,2.357,0,0,1-2.346,2.245,2.624,2.624,0,0,1-2.715-2.2Z" transform="translate(-111.024 -189.489)" fill="#fff"/>
          <path id="Trazado_998569" data-name="Trazado 998569" d="M55.877,242.05l13.635-4.55c.873-.291,1.525.756,1.676,1.384a1.708,1.708,0,0,1-1.055,1.915l-18.679,9.216a4.231,4.231,0,0,1-3.185-.146L39.154,246.5c-.709-.147-1.423.417-2.163.356l-2.975-10.631,6.094-1.886a5.2,5.2,0,0,1,3.839.308l8.937,4.22c1.371.647,1.539,2.791.78,3.947a1.961,1.961,0,0,1-2.312.7l-6.4-2.431a.92.92,0,0,0-1.166.456.974.974,0,0,0,.507,1.261L50.8,245.26a3.785,3.785,0,0,0,5.076-3.21" transform="translate(-27.163 -186.938)" fill="#fff"/>
          <path id="Trazado_998570" data-name="Trazado 998570" d="M4.408,234.509l4.456,16.029-4.408,1.225L0,235.734Zm-.819,2.346a.905.905,0,1,0-.905.905.905.905,0,0,0,.905-.905" transform="translate(0 -187.264)" fill="#fff"/>
        </g>
      </g>
    </g>
  </g>
</svg>
