<svg xmlns="http://www.w3.org/2000/svg" xmlns:xlink="http://www.w3.org/1999/xlink" width="128" height="127.999" viewBox="0 0 128 127.999">
  <defs>
    <clipPath id="clip-path">
      <rect id="Rectángulo_454800" data-name="Rectángulo 454800" width="127.998" height="127.488" fill="none"/>
    </clipPath>
    <linearGradient id="linear-gradient" x1="0.5" y1="-0.646" x2="0.5" y2="1.118" gradientUnits="objectBoundingBox">
      <stop offset="0" stop-color="#67ccf1"/>
      <stop offset="0.625" stop-color="#004b84"/>
      <stop offset="1" stop-color="#002d4f"/>
    </linearGradient>
    <clipPath id="clip-path-2">
      <rect id="Rectángulo_455389" data-name="Rectángulo 455389" width="60.747" height="63.716" fill="#fff"/>
    </clipPath>
  </defs>
  <g id="Grupo_1177851" data-name="Grupo 1177851" transform="translate(-1136.727 -7764.48)">
    <path id="Trazado_997475" data-name="Trazado 997475" d="M63.973,0A63.718,63.718,0,1,1,0,63.717,63.845,63.845,0,0,1,63.973,0Z" transform="translate(1136.781 7764.48)" fill="#fff"/>
    <g id="Grupo_1177602" data-name="Grupo 1177602" transform="translate(1136.727 7764.993)">
      <g id="Grupo_1177525" data-name="Grupo 1177525">
        <g id="Grupo_1177524" data-name="Grupo 1177524" clip-path="url(#clip-path)">
          <path id="Trazado_997408" data-name="Trazado 997408" d="M64,127.488a63.744,63.744,0,1,1,64-63.744,63.944,63.944,0,0,1-64,63.744M64,1.663a62.081,62.081,0,1,0,62.33,62.081A62.275,62.275,0,0,0,64,1.663" fill="#002d4f"/>
          <path id="Trazado_997409" data-name="Trazado 997409" d="M60.365,114.865A54.719,54.719,0,1,1,115.3,60.146a54.891,54.891,0,0,1-54.937,54.719m0-107.774a53.056,53.056,0,1,0,53.267,53.055A53.222,53.222,0,0,0,60.365,7.091" transform="translate(3.634 3.598)" fill="#002d4f"/>
          <path id="Trazado_997410" data-name="Trazado 997410" d="M56.731,102.241a45.693,45.693,0,1,1,45.876-45.693,45.837,45.837,0,0,1-45.876,45.693m0-89.723a44.031,44.031,0,1,0,44.207,44.03,44.17,44.17,0,0,0-44.207-44.03" transform="translate(7.268 7.196)" fill="#fff"/>
          <path id="Trazado_997411" data-name="Trazado 997411" d="M53.1,89.617A36.667,36.667,0,1,1,89.911,52.95,36.783,36.783,0,0,1,53.1,89.617m0-71.671a35,35,0,1,0,35.144,35,35.115,35.115,0,0,0-35.144-35" transform="translate(10.902 10.794)" fill="#fff"/>
          <path id="Trazado_997412" data-name="Trazado 997412" d="M49.462,76.992A27.641,27.641,0,1,1,77.214,49.352,27.728,27.728,0,0,1,49.462,76.992m0-53.618A25.978,25.978,0,1,0,75.544,49.352,26.059,26.059,0,0,0,49.462,23.374" transform="translate(14.537 14.392)" fill="#fff"/>
          <path id="Trazado_997413" data-name="Trazado 997413" d="M45.828,64.37A18.615,18.615,0,1,1,64.517,45.753,18.673,18.673,0,0,1,45.828,64.37m0-35.568a16.953,16.953,0,1,0,17.02,16.952A17,17,0,0,0,45.828,28.8" transform="translate(18.171 17.99)" fill="#fff"/>
          <path id="Trazado_997414" data-name="Trazado 997414" d="M42.194,51.744a9.589,9.589,0,1,1,9.628-9.588,9.62,9.62,0,0,1-9.628,9.588m0-17.515a7.926,7.926,0,1,0,7.959,7.927,7.953,7.953,0,0,0-7.959-7.927" transform="translate(21.805 21.588)" fill="#fff"/>
        </g>
      </g>
      <g id="Elipse_13614" data-name="Elipse 13614" transform="translate(10.388 10.387)" stroke="#002d4f" stroke-width="1" fill="url(#linear-gradient)">
        <ellipse cx="53.612" cy="53.356" rx="53.612" ry="53.356" stroke="none"/>
        <ellipse cx="53.612" cy="53.356" rx="53.112" ry="52.856" fill="none"/>
      </g>
    </g>
    <g id="Grupo_1190492" data-name="Grupo 1190492" transform="translate(1170.195 7794.077)">
      <g id="Grupo_1190491" data-name="Grupo 1190491" clip-path="url(#clip-path-2)">
        <path id="Trazado_998606" data-name="Trazado 998606" d="M26.6,21.189a.847.847,0,0,1-1.262-.448c-.2-.506.091-.892.742-1.45a27.544,27.544,0,1,0,18.6,50.24,3.081,3.081,0,0,1,1.279,1.294A29.357,29.357,0,1,1,26.119,17.446c-.343-.369-.8-.369-.933-.655a.986.986,0,0,1,.085-1.094.951.951,0,0,1,1.081-.178l3.34,1.8a.933.933,0,0,1,.123,1.6Z" transform="translate(0 -12.259)" fill="#fff"/>
        <path id="Trazado_998607" data-name="Trazado 998607" d="M93.657,115.193c.71.239,1.545-.466,2.193.18l9.548,9.522a3.465,3.465,0,0,1,.227,4.8,3.41,3.41,0,0,1-4.905.281l-9.529-9.484a1.891,1.891,0,0,1-.183-2.32c-1.586-1.716-2.781-3.389-5.319-1.943a16.2,16.2,0,1,1-4.164-29.84c-.9,1.41-1.639,2.666-1.414,4.491a11.478,11.478,0,1,0,6.646,4.142l5.5-.07a16.306,16.306,0,0,1-.618,15.519c-1.374,2.341,1.637,4.595,2.014,4.722" transform="translate(-48.909 -68.298)" fill="#fff"/>
        <path id="Trazado_998608" data-name="Trazado 998608" d="M185.4,24.859l-21.822,0a2.929,2.929,0,0,1-2.387-1.276,2.815,2.815,0,0,1-.262-3.06L171.845,1.581A3.009,3.009,0,0,1,174.344,0a2.929,2.929,0,0,1,2.775,1.508l10.807,18.706a3.021,3.021,0,0,1,.058,3.125,2.946,2.946,0,0,1-2.585,1.516m-9.816-8.536.536-8.683a1.2,1.2,0,0,0-.365-1.006c-.465-.368-2.929-.5-2.859.671l.544,9.129c.033.557.771.626,1.09.635.355.009,1.016-.121,1.054-.745m.3,4.029a1.371,1.371,0,1,0-1.372,1.372,1.372,1.372,0,0,0,1.372-1.372" transform="translate(-127.645 0)" fill="#fff"/>
        <path id="Trazado_998609" data-name="Trazado 998609" d="M99.2,144.976a2.185,2.185,0,0,1-3.259-.862,2.114,2.114,0,0,1,1.452-2.959,2.171,2.171,0,0,1,2.667,2.263l4.4,2.508a9.015,9.015,0,0,1,2.145-.272l3.293-3.262a2.2,2.2,0,0,1,1.691-2.872,2.141,2.141,0,0,1,2.492,2.106,2.185,2.185,0,0,1-2.922,2.047c-.975,1.166-2.427,2.131-3.2,3.378,0,1.335-.391,2.623-1.817,2.856s-2.341-.858-2.613-2.264c-1.173-1.061-2.919-1.629-4.334-2.67" transform="translate(-76.097 -110.874)" fill="#fff"/>
        <path id="Trazado_998610" data-name="Trazado 998610" d="M256.084,180.645a2.467,2.467,0,0,1-1.325-1.236,27.544,27.544,0,0,0,4.643-15.337.885.885,0,0,1,.868-.866c.578-.015.923.392.92,1.044a29.115,29.115,0,0,1-5.105,16.4" transform="translate(-202.497 -129.725)" fill="#fff"/>
      </g>
    </g>
  </g>
</svg>
