<svg xmlns="http://www.w3.org/2000/svg" xmlns:xlink="http://www.w3.org/1999/xlink" width="128" height="127.999" viewBox="0 0 128 127.999">
  <defs>
    <clipPath id="clip-path">
      <rect id="Rectángulo_454800" data-name="Rectángulo 454800" width="127.998" height="127.488" fill="none"/>
    </clipPath>
    <linearGradient id="linear-gradient" x1="0.5" y1="-0.646" x2="0.5" y2="1.118" gradientUnits="objectBoundingBox">
      <stop offset="0" stop-color="#67ccf1"/>
      <stop offset="0.625" stop-color="#004b84"/>
      <stop offset="1" stop-color="#002d4f"/>
    </linearGradient>
    <clipPath id="clip-path-2">
      <rect id="Rectángulo_455397" data-name="Rectángulo 455397" width="69.424" height="70.364" fill="#fff"/>
    </clipPath>
  </defs>
  <g id="Grupo_1177849" data-name="Grupo 1177849" transform="translate(-1136.727 -7764.48)">
    <path id="Trazado_997475" data-name="Trazado 997475" d="M63.973,0A63.718,63.718,0,1,1,0,63.717,63.845,63.845,0,0,1,63.973,0Z" transform="translate(1136.781 7764.48)" fill="#fff"/>
    <g id="Grupo_1177602" data-name="Grupo 1177602" transform="translate(1136.727 7764.993)">
      <g id="Grupo_1177525" data-name="Grupo 1177525">
        <g id="Grupo_1177524" data-name="Grupo 1177524" clip-path="url(#clip-path)">
          <path id="Trazado_997408" data-name="Trazado 997408" d="M64,127.488a63.744,63.744,0,1,1,64-63.744,63.944,63.944,0,0,1-64,63.744M64,1.663a62.081,62.081,0,1,0,62.33,62.081A62.275,62.275,0,0,0,64,1.663" fill="#002d4f"/>
          <path id="Trazado_997409" data-name="Trazado 997409" d="M60.365,114.865A54.719,54.719,0,1,1,115.3,60.146a54.891,54.891,0,0,1-54.937,54.719m0-107.774a53.056,53.056,0,1,0,53.267,53.055A53.222,53.222,0,0,0,60.365,7.091" transform="translate(3.634 3.598)" fill="#002d4f"/>
          <path id="Trazado_997410" data-name="Trazado 997410" d="M56.731,102.241a45.693,45.693,0,1,1,45.876-45.693,45.837,45.837,0,0,1-45.876,45.693m0-89.723a44.031,44.031,0,1,0,44.207,44.03,44.17,44.17,0,0,0-44.207-44.03" transform="translate(7.268 7.196)" fill="#fff"/>
          <path id="Trazado_997411" data-name="Trazado 997411" d="M53.1,89.617A36.667,36.667,0,1,1,89.911,52.95,36.783,36.783,0,0,1,53.1,89.617m0-71.671a35,35,0,1,0,35.144,35,35.115,35.115,0,0,0-35.144-35" transform="translate(10.902 10.794)" fill="#fff"/>
          <path id="Trazado_997412" data-name="Trazado 997412" d="M49.462,76.992A27.641,27.641,0,1,1,77.214,49.352,27.728,27.728,0,0,1,49.462,76.992m0-53.618A25.978,25.978,0,1,0,75.544,49.352,26.059,26.059,0,0,0,49.462,23.374" transform="translate(14.537 14.392)" fill="#fff"/>
          <path id="Trazado_997413" data-name="Trazado 997413" d="M45.828,64.37A18.615,18.615,0,1,1,64.517,45.753,18.673,18.673,0,0,1,45.828,64.37m0-35.568a16.953,16.953,0,1,0,17.02,16.952A17,17,0,0,0,45.828,28.8" transform="translate(18.171 17.99)" fill="#fff"/>
          <path id="Trazado_997414" data-name="Trazado 997414" d="M42.194,51.744a9.589,9.589,0,1,1,9.628-9.588,9.62,9.62,0,0,1-9.628,9.588m0-17.515a7.926,7.926,0,1,0,7.959,7.927,7.953,7.953,0,0,0-7.959-7.927" transform="translate(21.805 21.588)" fill="#fff"/>
        </g>
      </g>
      <g id="Elipse_13614" data-name="Elipse 13614" transform="translate(10.388 10.387)" stroke="#002d4f" stroke-width="1" fill="url(#linear-gradient)">
        <ellipse cx="53.612" cy="53.356" rx="53.612" ry="53.356" stroke="none"/>
        <ellipse cx="53.612" cy="53.356" rx="53.112" ry="52.856" fill="none"/>
      </g>
    </g>
    <g id="Grupo_1190496" data-name="Grupo 1190496" transform="translate(1170.869 7786.563)">
      <g id="Grupo_1190495" data-name="Grupo 1190495" clip-path="url(#clip-path-2)">
        <path id="Trazado_998613" data-name="Trazado 998613" d="M74.039,130.521a14.52,14.52,0,0,0-6.131,15.327l-8.848.055a.759.759,0,0,0-.743.558c-.087.275.056.872.5.876l9.519.077a19.5,19.5,0,0,0,2.592,4.6l-11.895.049a.658.658,0,0,0-.721.53.724.724,0,0,0,.741.893l13.211.039c.586,0,1.391.82,1.706,1.313v7.839L48,162.691l-.052-15.217a9.382,9.382,0,0,0,5.766-8.6,9.26,9.26,0,0,0-5.731-8.63l.019-4.142,4.871.008a22.578,22.578,0,0,1,1.4,6.964c.05.829.805,1.147,1.147,1.768.423.769-.1,1.992.682,2.636a1.778,1.778,0,0,1,.846,1.771A2.458,2.458,0,0,0,59.3,142l3.281.007a2.457,2.457,0,0,0,2.456-2.625,2.076,2.076,0,0,1,.913-1.969c.739-.514.123-1.85.509-2.368.732-.982,1.357-1.542,1.382-2.908a19.135,19.135,0,0,1,1.251-6l4.849-.035ZM53.515,148.913a33.3,33.3,0,0,0,3.176-3.477.744.744,0,0,0-.127-.994c-.981-.736-1.8,1.305-3.266,2.561-.248.212-.649-.347-.836-.5a.748.748,0,0,0-1.215.222c-.24.757,1.691,2.637,2.268,2.189m-.821,5.313a.869.869,0,0,0,1.288-.21l2.627-3.056a.745.745,0,0,0,.053-.984c-.189-.228-.709-.416-.986-.117l-2.384,2.571c-.324.35-1.021-1.2-1.831-.573-.826.638.452,1.666,1.232,2.37m3.421,6.01.008-3.491a1.115,1.115,0,0,0-1.137-1.1l-3.487.007c-1.448,0-1.04,2.616-1.036,4.391a1.141,1.141,0,0,0,1.247,1.232c1.858-.04,4.4.437,4.405-1.036M70.009,159.2a.74.74,0,0,0,.094-1.477l-11.04-.013a.768.768,0,0,0-.775.788.735.735,0,0,0,.747.694Z" transform="translate(-36.624 -96.305)" fill="#fff"/>
        <path id="Trazado_998614" data-name="Trazado 998614" d="M163.124,154.043a12.984,12.984,0,1,1-12.984-12.984,12.984,12.984,0,0,1,12.984,12.984m-3.695,0a9.29,9.29,0,1,0-9.29,9.29,9.29,9.29,0,0,0,9.29-9.29" transform="translate(-104.753 -107.734)" fill="#fff"/>
        <path id="Trazado_998615" data-name="Trazado 998615" d="M15.621,154.768a7.811,7.811,0,1,1-7.811-7.81,7.811,7.811,0,0,1,7.811,7.81M7.2,157.7l4.291-4.962a.766.766,0,0,0-.161-.98.728.728,0,0,0-.966.111L6.67,156.032,5.155,154.7a.682.682,0,0,0-.96.1.744.744,0,0,0-.011.9c.632.725,2.325,2.8,3.015,2" transform="translate(0 -112.24)" fill="#fff"/>
        <path id="Trazado_998616" data-name="Trazado 998616" d="M62.338,234.008l.024-7.56a14.66,14.66,0,0,1,2.638,1l-.049,9.962-34.2.014-.013-18.367a16.755,16.755,0,0,1,2.588-.262l.022,15.106a.919.919,0,0,0,.973,1.032H61.444a.878.878,0,0,0,.893-.92" transform="translate(-23.475 -167.103)" fill="#fff"/>
        <path id="Trazado_998617" data-name="Trazado 998617" d="M253.623,257.171c-1.042,1.052-2.927,2.1-4.207,1.086-2.446-1.932-4.352-4.366-6.763-6.541l5.124-5.166c2.164,2.255,4.474,4.254,6.507,6.628.98,1.145.251,2.872-.661,3.993" transform="translate(-185.328 -188.304)" fill="#fff"/>
        <path id="Trazado_998618" data-name="Trazado 998618" d="M231.335,238.481,228,235.168a21.413,21.413,0,0,0,3.308-3.305l3.3,3.3Z" transform="translate(-174.133 -177.086)" fill="#fff"/>
        <rect id="Rectángulo_455395" data-name="Rectángulo 455395" width="2.735" height="2.697" transform="translate(15.279 60.821)" fill="#fff"/>
        <path id="Trazado_998619" data-name="Trazado 998619" d="M174.674,170.748a7.813,7.813,0,1,1-7.813-7.813,7.813,7.813,0,0,1,7.813,7.813" transform="translate(-121.473 -124.442)" fill="#fff"/>
        <path id="Trazado_998620" data-name="Trazado 998620" d="M73.286,61.7a3.684,3.684,0,0,1-1.871.036c-.4-.213.327-3.829-2.853-4a2.774,2.774,0,0,0-2.894,3.115c.227,1.735,1.855,2.72,3.813,2.434l.03,7.775a8.924,8.924,0,0,1-2.844.055,23.347,23.347,0,0,0-2.586-7.152,9.42,9.42,0,0,1,1.5-11.526A9.539,9.539,0,0,1,80.4,64.244a23.715,23.715,0,0,0-2.478,6.88,15.712,15.712,0,0,1-2.846.005l.061-7.867c1.962.313,3.508-.6,3.815-2.242a2.776,2.776,0,0,0-2.6-3.287,2.865,2.865,0,0,0-2.915,3.274c.028.3,0,.608-.151.7" transform="translate(-47.94 -37.917)" fill="#fff"/>
        <path id="Trazado_998621" data-name="Trazado 998621" d="M34.352,111.668c-1.764.014-.628,3.456-1.033,5.1l-2.542-.184.053-7.372,6.956-.029a9.648,9.648,0,0,1,1.254,2.445Z" transform="translate(-23.506 -83.391)" fill="#fff"/>
        <path id="Trazado_998622" data-name="Trazado 998622" d="M146.452,116.708c-.521-1.417.648-4.971-.977-4.985l-4.757-.043a12.575,12.575,0,0,1,1.13-2.439l7.1.049.038,6.441a23.943,23.943,0,0,1-2.537.978" transform="translate(-107.475 -83.432)" fill="#fff"/>
        <path id="Trazado_998623" data-name="Trazado 998623" d="M90.876,149.355l-10-.013a4.914,4.914,0,0,1-.355-2.332l10.668-.017a4.035,4.035,0,0,1-.313,2.362" transform="translate(-61.498 -112.266)" fill="#fff"/>
        <path id="Trazado_998624" data-name="Trazado 998624" d="M100.953,8.8c0,.935-.474,1.412-1.1,1.472-.842.08-1.36-.438-1.359-1.348l0-7.577A1.191,1.191,0,0,1,99.656,0a1.243,1.243,0,0,1,1.287,1.346Z" transform="translate(-75.227 0)" fill="#fff"/>
        <rect id="Rectángulo_455396" data-name="Rectángulo 455396" width="2.614" height="7.865" transform="translate(23.096 25.395)" fill="#fff"/>
        <path id="Trazado_998625" data-name="Trazado 998625" d="M64.687,17.148a1.1,1.1,0,1,1-1.89,1.1l-2.735-4.8a1.032,1.032,0,0,1,.406-1.337,1.067,1.067,0,0,1,1.5.365Z" transform="translate(-45.785 -9.123)" fill="#fff"/>
        <path id="Trazado_998626" data-name="Trazado 998626" d="M127.579,18.279a1.179,1.179,0,0,1-1.308.589,1.054,1.054,0,0,1-.635-1.5l2.721-4.8a1.146,1.146,0,0,1,1.327-.548,1.061,1.061,0,0,1,.6,1.533Z" transform="translate(-95.858 -9.149)" fill="#fff"/>
        <path id="Trazado_998627" data-name="Trazado 998627" d="M93.8,165.143a39.808,39.808,0,0,1-6.883.074c-.6-.023-.79-1.463-.364-1.868a70.274,70.274,0,0,1,7.458.014c.444.058.327,1.71-.21,1.78" transform="translate(-65.928 -124.687)" fill="#fff"/>
        <path id="Trazado_998628" data-name="Trazado 998628" d="M38.834,43.68a1.064,1.064,0,0,1,.4,1.332.927.927,0,0,1-1.3.408l-4.344-2.468a1.037,1.037,0,0,1-.534-1.284.988.988,0,0,1,1.411-.494Z" transform="translate(-25.197 -31.344)" fill="#fff"/>
        <path id="Trazado_998629" data-name="Trazado 998629" d="M148.825,45.7a.943.943,0,0,1-1.362-.306.925.925,0,0,1,.335-1.239l4.092-2.365a.923.923,0,0,1,1.306.428.965.965,0,0,1-.445,1.225Z" transform="translate(-112.542 -31.818)" fill="#fff"/>
        <path id="Trazado_998630" data-name="Trazado 998630" d="M96.64,180a15.131,15.131,0,0,1-3.836.075c-.755-.044-1.059-1.752-.512-2a19.566,19.566,0,0,1,4.7-.017c.536.059.33,1.814-.348,1.939" transform="translate(-70.275 -135.893)" fill="#fff"/>
        <path id="Trazado_998631" data-name="Trazado 998631" d="M115.133,92.73c-.391-.027-.712.046-.865-.118-.13-.138-.478-2.234.993-2.482a1.265,1.265,0,0,1,1.449,1.009,1.347,1.347,0,0,1-1.577,1.591" transform="translate(-87.173 -68.823)" fill="#fff"/>
        <path id="Trazado_998632" data-name="Trazado 998632" d="M83.806,91.538a2.015,2.015,0,0,1-.066.967c-.156.285-.578.231-.971.236a1.409,1.409,0,0,1-1.561-1.215,1.3,1.3,0,1,1,2.6.011" transform="translate(-62.017 -68.829)" fill="#fff"/>
      </g>
    </g>
  </g>
</svg>
