<svg xmlns="http://www.w3.org/2000/svg" xmlns:xlink="http://www.w3.org/1999/xlink" width="132" height="132" viewBox="0 0 132 132">
  <defs>
    <clipPath id="clip-path">
      <rect id="Rectángulo_455400" data-name="Rectángulo 455400" width="73.828" height="73.854" fill="#fff"/>
    </clipPath>
  </defs>
  <g id="Grupo_1190504" data-name="Grupo 1190504" transform="translate(-374 -1354)">
    <rect id="Rectángulo_455140" data-name="Rectángulo 455140" width="132" height="132" rx="66" transform="translate(374 1354)" fill="#004b84"/>
    <g id="Grupo_1190503" data-name="Grupo 1190503" transform="translate(408.672 1383.073)">
      <g id="Grupo_1190502" data-name="Grupo 1190502" clip-path="url(#clip-path)">
        <path id="Trazado_998639" data-name="Trazado 998639" d="M194.516,87.395A17.219,17.219,0,1,1,177.3,70.176a17.219,17.219,0,0,1,17.219,17.219m-14.692-9.227c.01-1.815-1.039-3.13-2.644-3.059-1.651.073-2.433,1.541-2.405,3.188s1,3.005,2.637,2.93c1.508-.069,2.4-1.343,2.412-3.058m-.068,18.968-.011-9.752a2.45,2.45,0,0,0-4.9,0l0,9.86a2.455,2.455,0,0,0,2.559,2.437,2.485,2.485,0,0,0,2.348-2.546" transform="translate(-120.687 -52.908)" fill="#fff"/>
        <path id="Trazado_998640" data-name="Trazado 998640" d="M38.707,47.568l-26.36.047a2.456,2.456,0,1,0,.237,4.9H43.861a21.814,21.814,0,0,0,12.747,4.095l0,12.333a4.994,4.994,0,0,1-5.2,4.909H5.2a4.894,4.894,0,0,1-5.152-4.7L0,19.7l12.56-.015a7.359,7.359,0,0,0,7.129-7.1L19.7.012,51.417,0a4.987,4.987,0,0,1,5.19,4.717l-.028,7.6A22.18,22.18,0,0,0,36.8,24.615l-24.467.031a2.416,2.416,0,0,0-2.458,2.569,2.485,2.485,0,0,0,2.691,2.323l22.459.008a27.653,27.653,0,0,0-.52,6.565l-12.826.121c-1.3.012-2.008,1.477-1.934,2.522a2.485,2.485,0,0,0,2.474,2.3l13.248.019a26.594,26.594,0,0,0,3.24,6.5M14.141,36.244a5.737,5.737,0,0,0-2.7.075A2.388,2.388,0,0,0,10,39.367c.419,1.274,1.685,1.746,3.046,1.716a2.709,2.709,0,0,0,2.872-1.915,2.356,2.356,0,0,0-1.778-2.923M14.1,59.168a5.9,5.9,0,0,0-2.23-.02,2.4,2.4,0,0,0-1.94,2.944A2.7,2.7,0,0,0,12.8,64.036c1.466.021,2.795-.506,3.125-1.939A2.407,2.407,0,0,0,14.1,59.168m30.314,4.793a2.409,2.409,0,0,0,2.315-2.735,2.492,2.492,0,0,0-2.683-2.155L22.174,59.1a2.415,2.415,0,0,0-2.455,2.568,2.459,2.459,0,0,0,2.447,2.322Z" transform="translate(0 0)" fill="#fff"/>
        <path id="Trazado_998641" data-name="Trazado 998641" d="M16.923,19.643,6.265,19.557,19.442,6.386l.069,10.773a2.564,2.564,0,0,1-2.587,2.484" transform="translate(-4.723 -4.815)" fill="#fff"/>
      </g>
    </g>
  </g>
</svg>
