<svg xmlns="http://www.w3.org/2000/svg" xmlns:xlink="http://www.w3.org/1999/xlink" width="132" height="132" viewBox="0 0 132 132">
  <defs>
    <clipPath id="clip-path">
      <rect id="Rectángulo_455401" data-name="Rectángulo 455401" width="71.24" height="71.285" fill="#fff"/>
    </clipPath>
  </defs>
  <g id="Grupo_1190507" data-name="Grupo 1190507" transform="translate(-1094 -1553)">
    <rect id="Rectángulo_455142" data-name="Rectángulo 455142" width="132" height="132" rx="66" transform="translate(1094 1553)" fill="#004b84"/>
    <g id="Grupo_1190506" data-name="Grupo 1190506" transform="translate(1132 1583.123)">
      <g id="Grupo_1190505" data-name="Grupo 1190505" clip-path="url(#clip-path)">
        <path id="Trazado_998642" data-name="Trazado 998642" d="M139.365,148.284a11.132,11.132,0,1,0,8.158,8.119c3.729.942,5.413,2.328,9.093-.452a20.171,20.171,0,1,1-16.763-16.761c-2.79,3.765-1.377,5.191-.488,9.094" transform="translate(-90.577 -108)" fill="#fff"/>
        <path id="Trazado_998643" data-name="Trazado 998643" d="M244.236,135.573a2.142,2.142,0,0,1-2.192.59l-5.836-1.954a2.249,2.249,0,0,1-1.435-1.44l-1.951-5.864a2.041,2.041,0,0,1,.525-2.093l7.216-7.239a2.143,2.143,0,0,1,1.909-.682,1.8,1.8,0,0,1,1.545,1.037l1.8,5.213,4.905,1.666a2.086,2.086,0,0,1,.867,3.4Z" transform="translate(-180.899 -90.848)" fill="#fff"/>
        <path id="Trazado_998644" data-name="Trazado 998644" d="M181.475,203.654a2.084,2.084,0,0,0,.025,3.117,2.19,2.19,0,0,0,3.1-.328l4.427-4.412a6.957,6.957,0,1,1-2.978-2.973Z" transform="translate(-136.741 -154.107)" fill="#fff"/>
        <path id="Trazado_998645" data-name="Trazado 998645" d="M21.754,39.957c.969.166,1.766-.1,2.721.127a27.418,27.418,0,0,0-2.559,8.061c-.947.4-2.019.9-2.019,2.078a2.178,2.178,0,0,0,1.886,2.211,24.837,24.837,0,0,0,5.935,14.775l-25.474.025A2.082,2.082,0,0,1,0,65.147L0,5.538A5.277,5.277,0,0,1,5.233.177a5.234,5.234,0,0,1,5.336,5.192l-.009,5.04a2.3,2.3,0,0,0,2.6,2.45l32.921,0,0,14.027a24.379,24.379,0,0,0-18.735,8.865l-5.528.071a2.038,2.038,0,0,0-1.91,1.909,2.125,2.125,0,0,0,1.844,2.221M10.068,28.751a2.132,2.132,0,0,0,3.084-.086l3.971-3.993a2.092,2.092,0,0,0,.074-2.865C15.067,19.454,13,23.374,11.47,24.3a2.316,2.316,0,0,0-3.019-.9,2.034,2.034,0,0,0-.735,2.886,19.792,19.792,0,0,0,2.352,2.46m25.23-1.33a2.023,2.023,0,0,0,1.985-1.988c.033-.8-.577-2.083-1.672-2.083l-13.992,0c-1.169,0-1.826,1.39-1.7,2.257a2.107,2.107,0,0,0,2.118,1.839ZM10.338,41.626a2.1,2.1,0,0,0,2.783-.274l4-4.019a2.09,2.09,0,0,0-.04-2.977c-2.221-2.049-3.987,1.621-5.621,2.633a2.25,2.25,0,0,0-3.189-.8,2.058,2.058,0,0,0-.35,3.072,22.9,22.9,0,0,0,2.415,2.367M13,53.918,17.121,49.8A2.072,2.072,0,0,0,14.3,46.763c-1.009.863-1.747,1.9-2.842,2.688a2.236,2.236,0,0,0-3.16-.818,2.054,2.054,0,0,0-.383,3.083c1.369,1.493,3.3,3.977,5.079,2.2" transform="translate(0 -0.137)" fill="#fff"/>
        <path id="Trazado_998646" data-name="Trazado 998646" d="M98.272,8.5l-37.491,0c-.269-3.628.469-5-1.616-8.437L90.5,0a7.516,7.516,0,0,1,7.775,8.5" transform="translate(-45.99 0)" fill="#fff"/>
      </g>
    </g>
  </g>
</svg>
