<svg xmlns="http://www.w3.org/2000/svg" xmlns:xlink="http://www.w3.org/1999/xlink" width="84" height="84" viewBox="0 0 84 84">
  <defs>
    <clipPath id="clip-path">
      <rect id="Rectángulo_456122" data-name="Rectángulo 456122" width="53.114" height="54.504" fill="#12263f"/>
    </clipPath>
  </defs>
  <g id="Grupo_1190305" data-name="Grupo 1190305" transform="translate(-710 -1680.92)">
    <g id="Grupo_1119665" data-name="Grupo 1119665" transform="translate(710 1680.92)">
      <rect id="Rectángulo_402006" data-name="Rectángulo 402006" width="84" height="84" rx="5" fill="#67ccf1"/>
    </g>
    <g id="Grupo_1191882" data-name="Grupo 1191882" transform="translate(725.443 1693.668)">
      <g id="Grupo_1191881" data-name="Grupo 1191881" clip-path="url(#clip-path)">
        <path id="Trazado_1000612" data-name="Trazado 1000612" d="M36.923,41.179l-3.478-6.158A22.559,22.559,0,0,1,29.529,36.1c.134-.6.863-1.113.46-1.565l-1.648-1.847a14.62,14.62,0,1,0-12.375-3.978c.173.171-.166.427-.208.57-.328,1.1-.424,2.157-.825,3.292a18.229,18.229,0,1,1,21.76.543l3.477,6.087c.579-.075,1.605-1.274,2.1-.422l5.4,9.372a3.886,3.886,0,1,1-6.734,3.881l-5.585-9.715c.357-.6.8-.718,1.574-1.143" transform="translate(-6.6 0)" fill="#12263f"/>
        <path id="Trazado_1000613" data-name="Trazado 1000613" d="M14.512,198.554c-.684.922-.455,2.149-.928,3.16a16.574,16.574,0,0,1-3.027.047c-.446-.974-.322-2.272-.887-3.193a3.6,3.6,0,0,0-2.144-.873c-1.1.207-1.812,1.152-2.883,1.593a25.15,25.15,0,0,1-2.173-2.114l1.72-2.876a13.431,13.431,0,0,0-.861-2.2L0,191.225v-3.037l3.25-.8a10.663,10.663,0,0,0,.951-2.249l-1.733-2.828a26.52,26.52,0,0,1,2.1-2.188L7.5,181.774a4.076,4.076,0,0,0,2.133-.891c.622-.969.457-2.153.91-3.2a18.327,18.327,0,0,1,3.033-.02l.8,3.228a9.971,9.971,0,0,0,2.215.956l2.925-1.737,2.135,2.143-1.729,2.92a11.593,11.593,0,0,0,.929,2.2l3.241.787a22.221,22.221,0,0,1,.024,3.078l-3.276.819a12.1,12.1,0,0,0-.918,2.216l1.728,2.853a25.384,25.384,0,0,1-2.124,2.18c-1.016-.426-1.856-1.332-2.9-1.647a3.612,3.612,0,0,0-2.119.9m3.144-8.844a5.6,5.6,0,1,0-5.6,5.6,5.6,5.6,0,0,0,5.6-5.6" transform="translate(-0.001 -147.303)" fill="#12263f"/>
        <path id="Trazado_1000614" data-name="Trazado 1000614" d="M228.521,129.414c-.781,0-1.12-.9-1.12-1.512l0-7.527c0-.549.289-1.454.9-1.466l5.439-.112.014-7.117a1.426,1.426,0,0,0-1.544-1.481l-4.251-.035a4.869,4.869,0,0,1,.065-1.529l4.182-.022a3.073,3.073,0,0,1,3.137,3.246l-.013,6.968,5.394.058c.647.007.855.823.986,1.361l-.03,7.789c0,.6-.453,1.38-1.1,1.38Zm9.552-5.988a.787.787,0,0,0,.728-.741.7.7,0,0,0-.626-.772h-7.31c-.472,0-.61.6-.539.927a.823.823,0,0,0,.864.606Zm-.07,2.963a.772.772,0,0,0,.8-.793.793.793,0,0,0-.794-.764l-6.832-.01a.793.793,0,1,0,0,1.577Z" transform="translate(-188.597 -90.08)" fill="#12263f"/>
        <path id="Trazado_1000615" data-name="Trazado 1000615" d="M57.722,38.793l-3.948,4.216c-.247.264-.775.124-.978-.026s-.4-.7-.163-.966l4.436-4.885a.837.837,0,0,1,1.211-.02l3.684,3.58,3.545-4.3c-.65-.242-1.846.324-2.02-.662a.749.749,0,0,1,.67-.9l3.385-.4a.8.8,0,0,1,.909.875l-.193,3.248c-.032.532-.325.874-.789.857a.779.779,0,0,1-.776-.854c-.007-.34.118-.647-.07-1.011l-3.873,4.735a.888.888,0,0,1-1.384.06Z" transform="translate(-43.562 -28.553)" fill="#12263f"/>
        <rect id="Rectángulo_456120" data-name="Rectángulo 456120" width="3.57" height="11.977" transform="translate(25.571 12.869)" fill="#12263f"/>
        <rect id="Rectángulo_456121" data-name="Rectángulo 456121" width="3.585" height="7.597" transform="translate(9.994 17.249)" fill="#12263f"/>
        <path id="Trazado_1000616" data-name="Trazado 1000616" d="M107.979,125.409h-3.506l-.007-4.1,3.488-.029Z" transform="translate(-86.641 -100.585)" fill="#12263f"/>
      </g>
    </g>
  </g>
</svg>
