<svg xmlns="http://www.w3.org/2000/svg" xmlns:xlink="http://www.w3.org/1999/xlink" width="96" height="96" viewBox="0 0 96 96">
  <defs>
    <clipPath id="clip-path">
      <rect id="Rectángulo_454800" data-name="Rectángulo 454800" width="95.999" height="95.612" fill="none"/>
    </clipPath>
    <linearGradient id="linear-gradient" x1="0.5" y1="-0.646" x2="0.5" y2="1.118" gradientUnits="objectBoundingBox">
      <stop offset="0" stop-color="#67ccf1"/>
      <stop offset="0.625" stop-color="#004b84"/>
      <stop offset="1" stop-color="#002d4f"/>
    </linearGradient>
    <clipPath id="clip-path-2">
      <rect id="Rectángulo_455383" data-name="Rectángulo 455383" width="47.356" height="47.327" fill="#fff"/>
    </clipPath>
  </defs>
  <g id="Grupo_1177698" data-name="Grupo 1177698" transform="translate(-1136.727 -7764.48)">
    <path id="Trazado_997475" data-name="Trazado 997475" d="M47.979,0A47.786,47.786,0,1,1,0,47.786,47.883,47.883,0,0,1,47.979,0Z" transform="translate(1136.768 7764.48)" fill="#fff"/>
    <g id="Grupo_1177602" data-name="Grupo 1177602" transform="translate(1136.727 7764.868)">
      <g id="Grupo_1177525" data-name="Grupo 1177525">
        <g id="Grupo_1177524" data-name="Grupo 1177524" clip-path="url(#clip-path)">
          <path id="Trazado_997408" data-name="Trazado 997408" d="M48,95.612A47.807,47.807,0,1,1,96,47.806,47.957,47.957,0,0,1,48,95.612M48,1.247A46.559,46.559,0,1,0,94.747,47.806,46.705,46.705,0,0,0,48,1.247" fill="#002d4f"/>
          <path id="Trazado_997409" data-name="Trazado 997409" d="M46.631,87.5a41.038,41.038,0,1,1,41.2-41.038A41.167,41.167,0,0,1,46.631,87.5m0-80.828a39.791,39.791,0,1,0,39.95,39.79,39.915,39.915,0,0,0-39.95-39.79" transform="translate(1.369 1.341)" fill="#002d4f"/>
          <path id="Trazado_997410" data-name="Trazado 997410" d="M45.262,79.392A34.269,34.269,0,1,1,79.669,45.124,34.377,34.377,0,0,1,45.262,79.392m0-67.29A33.022,33.022,0,1,0,78.417,45.124,33.127,33.127,0,0,0,45.262,12.1" transform="translate(2.737 2.683)" fill="#fff"/>
          <path id="Trazado_997411" data-name="Trazado 997411" d="M43.893,71.281a27.5,27.5,0,1,1,27.61-27.5,27.587,27.587,0,0,1-27.61,27.5m0-53.751A26.252,26.252,0,1,0,70.252,43.782,26.336,26.336,0,0,0,43.893,17.53" transform="translate(4.106 4.024)" fill="#fff"/>
          <path id="Trazado_997412" data-name="Trazado 997412" d="M42.525,63.171a20.73,20.73,0,1,1,20.814-20.73,20.8,20.8,0,0,1-20.814,20.73m0-40.212A19.483,19.483,0,1,0,62.086,42.441,19.544,19.544,0,0,0,42.525,22.958" transform="translate(5.475 5.365)" fill="#fff"/>
          <path id="Trazado_997413" data-name="Trazado 997413" d="M41.156,55.061A13.961,13.961,0,1,1,55.173,41.1,14,14,0,0,1,41.156,55.061m0-26.675A12.714,12.714,0,1,0,53.92,41.1,12.753,12.753,0,0,0,41.156,28.386" transform="translate(6.844 6.707)" fill="#fff"/>
          <path id="Trazado_997414" data-name="Trazado 997414" d="M39.787,46.949a7.192,7.192,0,1,1,7.221-7.191,7.215,7.215,0,0,1-7.221,7.191m0-13.136a5.944,5.944,0,1,0,5.969,5.945,5.965,5.965,0,0,0-5.969-5.945" transform="translate(8.212 8.048)" fill="#fff"/>
        </g>
      </g>
      <g id="Elipse_13614" data-name="Elipse 13614" transform="translate(7.859 7.858)" stroke="#002d4f" stroke-width="1" fill="url(#linear-gradient)">
        <ellipse cx="40.141" cy="39.948" rx="40.141" ry="39.948" stroke="none"/>
        <ellipse cx="40.141" cy="39.948" rx="39.641" ry="39.448" fill="none"/>
      </g>
    </g>
    <g id="Grupo_1190482" data-name="Grupo 1190482" transform="translate(1161.048 7788.603)">
      <g id="Grupo_1190481" data-name="Grupo 1190481" clip-path="url(#clip-path-2)">
        <path id="Trazado_998580" data-name="Trazado 998580" d="M65.082,127.452c-3.02.1-5.778.077-8.68.009-4.007-.094-6.3-2.241-6.438-6.291-.1-3.012-.1-5.911,0-8.922.127-3.733,2.19-6.116,5.957-6.24,3.215-.106,6.328-.108,9.543,0,3.565.121,5.774,2.348,5.938,5.921.148,3.212.148,6.346,0,9.558-.173,3.764-2.487,5.837-6.321,5.963" transform="translate(-41.648 -88.431)" fill="#fff"/>
        <path id="Trazado_998581" data-name="Trazado 998581" d="M175.878,185.495a1.656,1.656,0,1,1,2.827,1.724,1.88,1.88,0,0,0-.408.89,13.817,13.817,0,0,0,10.484-13.4,1.642,1.642,0,0,1,3.283.043,17.127,17.127,0,0,1-16.92,17.084,1.686,1.686,0,0,1-1.462-.653,1.63,1.63,0,0,1-.158-1.737Z" transform="translate(-144.708 -144.512)" fill="#fff"/>
        <path id="Trazado_998582" data-name="Trazado 998582" d="M120.481,71.7l-.034-4.975c-.026-3.761-1.229-7.384-5.1-8.627a11.15,11.15,0,0,0-3.314-.6l-5.8-.044c-.019-2.848.733-5.738,3.67-6.74a8.454,8.454,0,0,1,2.777-.5l9.09.043a5.989,5.989,0,0,1,4.239,1.659,6.5,6.5,0,0,1,1.673,4.408c.128,2.949.065,5.805.033,8.758-.03,2.8-1.173,5.441-4.065,6.19a12.24,12.24,0,0,1-3.168.434" transform="translate(-88.684 -41.914)" fill="#fff"/>
        <path id="Trazado_998583" data-name="Trazado 998583" d="M13.215,4.878c.18-.468.545-.768.6-1.219A13.81,13.81,0,0,0,3.3,17.03,1.652,1.652,0,1,1,0,16.889,17.066,17.066,0,0,1,16.731,0a1.77,1.77,0,0,1,1.638.63,1.647,1.647,0,0,1,.153,1.739L16.2,6.288a1.666,1.666,0,0,1-2.062.723,1.645,1.645,0,0,1-.919-2.133" transform="translate(0 0)" fill="#fff"/>
      </g>
    </g>
  </g>
</svg>
